<svg version="1.1" id="Layer_1" xmlns="http://www.w3.org/2000/svg" x="0" y="0" viewBox="0 0 260 260" xml:space="preserve"><style>.st2{fill:#52b82d}.st5{fill:#0f222c}.st7{fill:#64ce38}.st9{fill:#ffda35}.st10{fill:#0b2b46}.st11{fill:#ff524f}.st12{fill:#f2f2f2}</style><g id="Слой_51_1_"><ellipse cx="130" cy="233" rx="130" ry="27" fill="#eaf1fc"/><path d="M247.1 221.3c16.6-50.2 17.6-146.4-16.4-180.4-32.3-32.3-48.2 6-73.5 7.2-19.8 1-53.6-8.9-71.5-15.3-46.8-17-113 19.1-72.9 188.5 81.1-.4 153.3.3 234.3 0z" fill="#f8f8ff"/><circle class="st2" cx="44.2" cy="108.3" r="12.9"/><path class="st2" d="M202.6 38.1c-1.5.2-3.1 0-4.6-.6-.9-.5-2-.5-2.9-.2-1.8.7-3.9.1-5-1.5-1.2-1.6-1.2-3.7-.1-5.3.5-.7 1.2-1.2 2-1.6 1-.4 1.7-1.1 2.2-2.1 1.8-4 6.6-5.8 10.6-4s5.8 6.6 4 10.6c-1.2 2.5-3.5 4.3-6.2 4.7z"/><circle class="st2" cx="226.2" cy="112.3" r="6.6"/><circle class="st2" cx="124.8" cy="71.3" r="59.9"/><path d="M99.5 29.9c0 1.6.8 2.2 2.3 2.2.9 0 1.7-.1 2.4-.4v-5.3h2.6v12.3h-2.6v-4.6c-.8.2-1.7.4-2.7.4-3.1 0-4.6-1.8-4.6-4.6v-3.5h2.6v3.5zm9.7 8.9V26.5h8.7v2.3h-6.1v2.6h6v2.3h-6v2.8h6.1v2.3h-8.7zm10.8 0V26.5h5.8c2.7 0 4.1 1.8 4.1 4 0 2.1-1.5 4-4.1 4h-3.1v4.4H120v-.1zm7.2-8.4c0-1-.8-1.7-1.8-1.7h-2.8v3.4h2.8c1 0 1.8-.6 1.8-1.7zm4.3 8.4V26.5h8.7v2.3h-6.1v2.6h6v2.3h-6v2.8h6.1v2.3h-8.7zm9.9-1.8l1.4-1.8c.9.9 2.4 1.4 3.6 1.4 1.6 0 2.6-.6 2.6-1.6s-.9-1.4-2.7-1.4h-2.5v-2.3h2.5c1.5 0 2.5-.4 2.5-1.3 0-1-1.1-1.5-2.5-1.5-1.2 0-2.5.4-3.3 1.3l-1.3-1.6c1-1.1 2.8-2 4.9-2 2.9 0 4.9 1.3 4.9 3.3 0 1.6-1.3 2.6-2.7 2.8 1.2.1 2.9 1.1 2.9 3 0 2.1-2.1 3.6-5.1 3.6-2.4.1-4.3-.7-5.2-1.9zm-35.1 77.4v-8.5l-3.4 8.5h-1.1l-3.4-8.5v8.5h-2.6v-12.2h3.6l3 7.4 3-7.4h3.7v12.2h-2.8zm5 0v-12.2h2.6v7.9l5.7-7.9h2.7v12.2h-2.6v-8.2l-5.8 8.2h-2.6zm21.7 0v-5.1h-5.8v5.1h-2.6v-12.2h2.6v4.8h5.8v-4.8h2.6v12.2H133zm3.9-.7l1-2.1c.4.3 1 .7 1.6.7.9 0 1.3-.4 1.8-1.3l-4.5-8.9h2.9l3 6.5 3-6.5h2.9l-5 9.9c-.8 1.5-1.8 2.6-4 2.6-1.1 0-2.2-.4-2.7-.9zm15.7.7v-9.9H149v-2.3h9.7v2.3h-3.5v9.9h-2.6zm-29-21.5c-5.1 0-9.4-1.2-13-3.6l5.3-9.7c2.1 1.5 4.7 2.2 7.7 2.2 2.6 0 4.8-.7 6.5-2.1 1.7-1.4 2.6-3.1 2.6-5.1v-.2c-2.2 2.8-5.4 4.2-9.7 4.2-4 0-7.4-1.2-10.4-3.7-2.9-2.5-4.4-5.8-4.4-10.1 0-4.5 1.6-8.1 4.9-10.8 3.3-2.8 7.4-4.2 12.4-4.2 6.5 0 11.5 2 14.8 5.9 3.3 4 5 9.1 5 15.5 0 6.8-2 12.1-6 15.9-3.8 3.9-9.1 5.8-15.7 5.8zm3.3-24.9c2.5 0 4.4-.6 5.9-1.7-.1-1.5-.7-2.8-1.7-3.8s-2.6-1.5-4.7-1.5c-1.5 0-2.7.3-3.7 1s-1.5 1.5-1.5 2.4c0 1.2.6 2.1 1.8 2.7 1.1.6 2.4.9 3.9.9z" fill="#fff"/></g><path class="st5" d="M195.5 224.3c0-8-6.4-14.5-14.5-14.5-8 0-14.5 6.4-14.5 14.5 0 8 6.4 14.5 14.5 14.5 8 0 14.5-6.4 14.5-14.5zm-79.4.2c0-8-6.4-14.4-14.4-14.4s-14.4 6.4-14.4 14.4 6.4 14.4 14.4 14.4c8-.1 14.4-6.5 14.4-14.4z"/><path d="M104.5 215.4h134.6c1.3 0 2.4 1.1 2.4 2.6l-.7 5.5c0 1.4-1.1 2.6-2.4 2.6H104.5v-10.7z" fill="#1d4259"/><path class="st7" d="M236.8 215.4h-55.2l5.3-48.6 17.5.1c5.8 0 11.2 2.9 14.5 7.7l12.2 18c2 2.9 7 10.5 7 14v8.9H234l2.8-.1z"/><path class="st5" d="M189.4 195.6l2.2-23.7 13.3.4c4 0 7.7 2 9.9 5.3l7.3 10.7c2.1 3.1-.1 7.2-3.8 7.2h-28.9v.1z"/><path class="st2" d="M181.4 166.8h5.5l-5.3 48.6H176l5.4-48.6zm13.7 33.3h-5.2c-.7 0-1.2-.5-1.2-1.2v-1.4h7.6v1.4c0 .7-.5 1.2-1.2 1.2z"/><path d="M195.1 199.4h-5.2c-.7 0-1.2-.5-1.2-1.2v-.7h7.6v.7c0 .7-.5 1.3-1.2 1.2z" fill="#222846"/><path class="st9" d="M233.4 210.6c0-2.6 2.1-4.6 4.6-4.6v9.2c-2.5.1-4.6-2-4.6-4.6z"/><path class="st10" d="M56.5 215.4h47.9c1.7 0 3.2 1.4 3.2 3.2v4.3c0 1.7-1.4 3.2-3.2 3.2H55.9c-1.7 0-3.2-1.4-3.2-3.2l.7-4.3c0-1.7 1.4-3.2 3.1-3.2z"/><path class="st11" d="M98.8 220.6c0-1.2 1-2.2 2.2-2.2s2.2 1 2.2 2.2-1 2.2-2.2 2.2c-1.2.2-2.2-.9-2.2-2.2z"/><path class="st9" d="M95 220.6c0-.6.5-1.1 1.1-1.1s1.1.5 1.1 1.1-.5 1.1-1.1 1.1c-.6.1-1.1-.4-1.1-1.1z"/><path class="st11" d="M60.2 220.6c0 1.2-1 2.2-2.2 2.2s-2.2-1-2.2-2.2 1-2.2 2.2-2.2 2.2 1 2.2 2.2z"/><path class="st9" d="M64 220.6c0 .6-.5 1.1-1.1 1.1s-1.1-.5-1.1-1.1.5-1.1 1.1-1.1c.6.1 1.1.6 1.1 1.1z"/><path class="st12" d="M182.7 205.3l23.3 7.4s-2.4 1.6-3.2 2.7h-21.2l1.1-10.1z"/><path class="st9" d="M206 212.8l-23.3-7.4.5-5.1 27.1 10.8c0-.1-2.1.4-4.3 1.7z"/><path class="st7" d="M110 150.4h73.3l-7.3 65h-71.5l5.5-65z"/><path class="st12" d="M105.6 202.3l71.7 2.1-1.3 11h-71.5l1.1-13.1z"/><path class="st5" d="M136.1 210.6c-8.5 0-15.3 6.8-15.3 15.3h30.7c-.1-8.5-7-15.3-15.4-15.3z"/><path class="st5" d="M134 213c-7.1-.2-13.1 5.5-13.3 12.6-.2 7.1 5.5 13.1 12.6 13.3h4.3V213H134z"/><path class="st10" d="M149.5 225.9c0-7.1-5.8-12.9-12.9-12.9-7.1 0-12.9 5.8-12.9 12.9s5.8 12.9 12.9 12.9c7.2 0 12.9-5.7 12.9-12.9z"/><circle class="st12" cx="136.7" cy="225.9" r="6.3"/><path class="st9" d="M177.3 204.4l-71.7-2.1.5-6.6 71.8 3.3-.6 5.4z"/><path d="M161 175.6l-5.7-9.6c-1.3-1.8-3.4-2.4-5.3-1.6l-24.1 12.7c-.7.3-1.2 1.1-1.2 2.1v5.8c0 .9.9 1.6 1.6 1.3l23.9-6.5c1.8-.7 3.9-.1 5.1 1.6l4 4c.7 1 2.1.4 2.1-.9v-7.4c0-.6-.2-1.1-.4-1.5z" fill="#fd0"/><path class="st5" d="M214 210.6c-8.5 0-15.3 6.8-15.3 15.3h30.7c-.1-8.5-6.9-15.3-15.4-15.3z"/><path class="st5" d="M211.9 213c-7.1-.2-13.1 5.5-13.3 12.6s5.5 13.1 12.6 13.3h4.3V213h-3.6z"/><path class="st10" d="M227.4 225.9c0-7.1-5.8-12.9-12.9-12.9s-12.9 5.8-12.9 12.9 5.8 12.9 12.9 12.9c7.2 0 12.9-5.7 12.9-12.9z"/><circle class="st12" cx="214.6" cy="225.9" r="6.3"/><path class="st2" d="M61.8 150.4l-6.1 65h48.8l6-65H61.8z"/><path d="M40 170.1h52.5m-44.9 15h19.7m-52.7 15h58.6" fill="none" stroke="#64ce38" stroke-width="8" stroke-linecap="round" stroke-miterlimit="10"/><path class="st2" d="M216 194.2V186c1.2 0 2.1.9 2.1 2.1v4c0 1.2-1 2.1-2.1 2.1z"/><path class="st2" d="M216.6 193.5l.2 2.5h2.6l-1.6-3.1-1.2.6z"/><path d="M49.7 243.2h94.4m11.2 0h9.8m11.4 0h60.1" fill="none" stroke="#bad8e8" stroke-width="2" stroke-linecap="round" stroke-miterlimit="10"/><circle class="st7" cx="33.5" cy="185.1" r="4"/></svg>