<svg version="1.1" id="Layer_1" xmlns="http://www.w3.org/2000/svg" x="0" y="0" viewBox="0 0 910 567" xml:space="preserve"><style>.st0{fill:#eaf1fc}.st1{fill:#f8f8ff}.st2{fill:#fff}.st3{fill:#d6e0f0}.st4{fill:#e9edf4}.st5{fill:#cde4f7}.st7{fill:#e8815f}.st8{fill:#f09976}.st9{fill:#0b2b46}.st10{fill:#ffda35}.st12{fill:#590600}.st14{fill:#4fa52b}.st15{fill:#e5b571}.st16{fill:#ce8d4d}.st28{fill:#e4e6e6}.st31{fill:#233c45}.st36{fill:#eccf8e}.st37{fill:#c07532}.st38{fill:#dadcdc}.st46{fill:#ffa436}.st47{fill:#efc7a3}</style><ellipse class="st0" cx="455" cy="500.5" rx="455" ry="65.2"/><path class="st1" d="M828 476.4c51.9-107.9 80.5-314.3-32-382.8-73.6-44.9-150.2 12.8-228.9 15.5-61.7 2.1-121.3-46.7-177-60.6-146-36.5-375.7 58.4-274.7 427.9 252.5-.7 460.1.8 712.6 0z"/><path class="st2" d="M230.1 313.8h-148c-2 0-3.7-1.6-3.7-3.7V95.5C72.8 15.1 105 17.9 156 17.9h.1c81.1-5.3 77.7 34.8 77.7 77.7v214.7c-.1 1.9-1.7 3.5-3.7 3.5z"/><path class="st3" d="M230.8 317h-151c-2.5 0-4.5-2-4.5-4.5V63.3c0-25.9 21.1-47.1 47.1-47.1h65.9c26 0 47.1 21.1 47.1 47.1v249.2c-.1 2.5-2.1 4.5-4.6 4.5zM80 312.3h150.5V63.4c0-23.3-19-42.3-42.3-42.3h-65.9C99 21 80 40 80 63.3v249z"/><path class="st4" d="M692.2 99.3c-8 2.9-4.2 13.8.9 18.8 5.5 5.4 14.1 8.4 18.8 2.5 1.4-1.7.2-3.9-2-3.8-3.4.1-6-.8-4.7-3.3 1.2-2.4 6.5 2.3 8.5 2.3 4.3.1 6-3.2 5-5.9-.8-2.2-6.8-3-5.4-4.8 2.1-2.6 5.2 1.5 7.4-.4 3.4-2.8 2.8-8.3 1.3-10.3-1.2-1.6-6.2-4-9.9-2.4-3.5 1.5-2.5 9.2-4.2 9.4-3.2.2-.6-6.6-3.1-8.7-1.5-1.2-5.9-.4-7 2.5-1.4 3.8 3.9 11 0 11.5-3.5.5-1.5-3.6-2.6-5.9-.2-.6-1.5-2.1-3-1.5z"/><path class="st5" d="M667.2 161.9h-.1c-.2-.1-.3-.3-.2-.4 8.7-26.3 26.4-48.7 49.9-63.3.2-.1.4-.1.5.1.1.2.1.4-.1.5-23.4 14.5-41 36.9-49.6 63-.1 0-.2.1-.4.1z"/><path class="st4" d="M670 76.7c-5.8 6.2 2.4 14.2 9.2 16.4 7.4 2.3 16.3 1.1 18-6.2.5-2.2-1.6-3.6-3.5-2.5-3 1.6-5.7 2-5.7-.8 0-2.7 6.9-.9 8.6-1.7 3.9-1.9 3.9-5.6 1.8-7.5-1.7-1.6-7.4.3-7-1.9.7-3.3 5.3-1 6.4-3.6 1.8-4.1-1.2-8.7-3.5-9.8-1.8-.9-7.3-.8-10 2.3-2.5 2.9 2 9.4.5 10.2-2.8 1.6-3.5-5.7-6.7-6.4-1.9-.4-5.5 2.3-5.1 5.3.5 4 8.4 8.1 5.2 10.2-2.9 2-3-2.6-4.9-4.1-.4-.3-2.2-1.1-3.3.1z"/><path class="st5" d="M675.7 144c-.2 0-.3-.1-.3-.3-4-27.4 1.7-55.4 16.1-79 .1-.2.3-.2.5-.1s.2.3.1.5c-14.3 23.4-20 51.3-16 78.5 0 .2-.1.3-.4.4.1 0 0 0 0 0z"/><path class="st4" d="M663.9 90.7c7.2 4.4 1.3 14.4-4.7 18.2-6.5 4.1-15.5 5.3-19-1.3-1-2 .6-3.8 2.7-3.3 3.3.8 6 .4 5.3-2.3-.7-2.6-6.9.9-8.8.6-4.2-.8-5.2-4.4-3.7-6.8 1.3-2 7.3-1.6 6.2-3.6-1.5-3-5.4.4-7.2-1.8-2.8-3.5-1.1-8.7.8-10.3 1.5-1.3 6.9-2.7 10.2-.4 3.2 2.2.5 9.6 2.2 10 3.1.8 2-6.4 4.8-7.9 1.7-.9 5.9.8 6.3 3.8.6 4-6 10-2.4 11.2 3.3 1.2 2.2-3.2 3.7-5.2.7-.6 2.2-1.8 3.6-.9z"/><path class="st5" d="M675.7 157.1c-.2 0-.3-.1-.3-.3-3.1-27.3-15.8-52.8-35.7-71.7-.1-.1-.1-.3 0-.5.1-.1.3-.1.5 0 20 19.1 32.8 44.7 35.9 72.2-.1.1-.2.3-.4.3z"/><path class="st2" d="M661.6 169.9h25.9l4-35.5h-34z"/><path class="st4" d="M691.6 140.7h-34.2c-.5 0-.9-.4-.9-.9l-.4-4.4c-.1-.6.4-1 .9-1h35c.6 0 1 .5.9 1l-.4 4.4c0 .6-.4.9-.9.9z"/><path class="st3" d="M625.7 170.3c-.5 0-.8.4-.8.8v2.2c0 .5.4.8.8.8H708c.5 0 .8-.4.8-.8v-2.2c0-.5-.4-.8-.8-.8h-82.3zm136.9 73.1c-.5 0-.8.4-.8.8v2.2c0 .5.4.8.8.8h82.3c.5 0 .8-.4.8-.8v-2.2c0-.5-.4-.8-.8-.8h-82.3z"/><path class="st9" d="M724.3 513.2h-8.5l3.1-59.1h18.6zm109.6 0h8.5l-3.1-59.1h-18.6z"/><path class="st9" d="M704 456.5h153.2V471H704z"/><path d="M846.3 414.4c0 11.1-9.4 20.4-20.5 20.4h-96.9c-11.1 0-20.1-9.3-20.1-20.4v-94.6c0-11.1 9-20.1 20.1-20.1h96.9c11.1 0 20.5 9 20.5 20.1v94.6z" fill="#db3e3e"/><path d="M734.8 444.6c2.1 7-2 14.4-9 16.5l-14.4 4.2c-7 2.1-14.4-2-16.5-9l-18.5-63.4c-2.1-7 2-14.4 9-16.5l14.4-4.2c7-2.1 14.4 2 16.5 9l18.5 63.4zm87.2 0c-2.1 7 2 14.4 9 16.5l14.4 4.2c7 2.1 14.4-2 16.5-9l18.5-63.4c2.1-7-2-14.4-9-16.5l-14.4-4.2c-7-2.1-14.4 2-16.5 9L822 444.6z" fill="#c93d37"/><path d="M846.3 443.3c0 12-9.7 21.7-21.7 21.7h-94.1c-12 0-21.7-9.7-21.7-21.7s9.7-21.7 21.7-21.7h94.1c12 0 21.7 9.7 21.7 21.7z" fill="#ff524f"/><circle class="st3" cx="452.5" cy="162.2" r="40.2"/><circle transform="rotate(-31.277 452.525 162.192)" cx="452.5" cy="162.2" fill="#fcfbfc" r="30.5"/><path class="st3" d="M434.8 152.7l16.9 13.5c.8.7 2 .6 2.8-.1l15.9-15.6c.8-.8.8-2.1 0-2.9-.8-.8-2.1-.8-2.9 0l-14.6 14.3-15.4-12.4c-.7-.6-1.7-.6-2.4-.2-.2.1-.4.3-.5.5-.9.8-.7 2.1.2 2.9z"/><circle class="st3" cx="452.9" cy="164.6" r="4.2"/><path class="st3" d="M471.3 529.4l-52.9-169.1 10.6-2.8 47 171.9z"/><path class="st3" d="M377.5 529.4l39.9-172.3 10.6 2.6-45.9 169.7z"/><path class="st3" d="M455.9 475.2l-63.9.1v-5.9h62.3zM189 529.4l53-169.1-10.6-2.8-47 171.9z"/><path class="st3" d="M282.9 529.4L243 357.1l-10.6 2.6 45.8 169.7z"/><path class="st3" d="M162.8 475.2l63.9.1 41.6-5.9h-62.2zm20.8-113.3H476V345H183.6z"/><path class="st15" d="M24 486.4h117.8v68.7H24z"/><path class="st28" d="M92.3 501.4h40v17.3h-40z"/><path class="st28" d="M96.2 503h.8v13.6h-.8zm2.2 0h.8v13.6h-.8zm2.1 0h.8v13.6h-.8zm2.1 0h.8v13.6h-.8z"/><path class="st28" d="M102.7 503h.8v13.6h-.8zm2.1 0h.8v13.6h-.8zm2.1 0h.8v13.6h-.8zm2.1 0h.8v13.6h-.8zm1.3 0h.8v13.6h-.8zm2.1 0h.8v13.6h-.8zm2 0h.8v13.6h-.8zm2.1 0h.8v13.6h-.8zm2.2 0h.8v13.6h-.8zm2.1 0h.8v13.6h-.8z"/><path class="st28" d="M120.8 503h.8v13.6h-.8zm2.2 0h.8v13.6h-.8zm2.1 0h.8v13.6h-.8zm2.1 0h.8v13.6h-.8z"/><path class="st16" d="M200.7 475l-58.9 11.4v68.8l58.9-11.5z"/><path class="st36" d="M24 486.4L82.9 475h117.8l-58.9 11.4z"/><path class="st37" d="M159.7 483v19.1l17.7-3.3v-19.3z"/><path class="st16" d="M59.5 479.5l-2.4.5-3.7.7-12.3 2.3h118.6l17.7-3.5z"/><path class="st37" d="M159.7 532.4v19.2l17.7-3.4V529z"/><path class="st15" d="M31.9 423.3h104.4v60.9H31.9z"/><path class="st38" d="M92.5 429.5H128v15.4H92.5z"/><path class="st38" d="M96 431h.7v12.1H96zm1.9 0h.7v12.1h-.7zm1.9 0h.7v12.1h-.7zm1.8 0h.7v12.1h-.7z"/><path class="st38" d="M101.7 431h.7v12.1h-.7zm1.9 0h.7v12.1h-.7zm1.9 0h.7v12.1h-.7zm1.8 0h.7v12.1h-.7zm1.2 0h.7v12.1h-.7zm1.8 0h.7v12.1h-.7zm1.8 0h.7v12.1h-.7zm1.9 0h.7v12.1h-.7zm1.9 0h.7v12.1h-.7zm1.9 0h.7v12.1h-.7z"/><path class="st38" d="M117.8 431h.7v12.1h-.7zm1.9 0h.7v12.1h-.7zm1.9 0h.7v12.1h-.7zm1.9 0h.7v12.1h-.7z"/><path class="st16" d="M188.6 413.1l-52.2 10.2v60.9l52.2-10.1z"/><path class="st36" d="M31.9 423.3l52.2-10.2h104.5l-52.2 10.2z"/><path class="st37" d="M152.3 420.2v17l15.6-3v-17z"/><path class="st16" d="M63.5 417.2l-2.2.4-3.3.6-10.9 2h105.2l15.6-3z"/><path class="st37" d="M152.3 464.1v17l15.6-3V461z"/><path fill="#f8c47a" d="M584 449.8h105.5v105.5H584z"/><path fill="#e19a54" d="M742.3 432.2l-52.8 17.6v105.5l52.8-17.5z"/><path fill="#ffdf9a" d="M584 449.8l52.8-17.6h105.5l-52.8 17.6z"/><path class="st28" d="M649.2 456.5H685V472h-35.8z"/><path class="st28" d="M652.7 458h.7v12.2h-.7zm1.9 0h.7v12.2h-.7zm1.9 0h.7v12.2h-.7zm1.9 0h.7v12.2h-.7z"/><path class="st28" d="M658.4 458h.7v12.2h-.7zm1.9 0h.7v12.2h-.7zm1.9 0h.7v12.2h-.7zm1.9 0h.7v12.2h-.7zm1.2 0h.7v12.2h-.7zm1.8 0h.7v12.2h-.7zm1.9 0h.7v12.2h-.7zm1.9 0h.7v12.2h-.7zm1.9 0h.7v12.2h-.7zm1.9 0h.7v12.2h-.7z"/><path class="st28" d="M674.7 458h.7v12.2h-.7zm1.9 0h.7v12.2h-.7zm1.9 0h.7v12.2h-.7zm1.9 0h.7v12.2h-.7z"/><path class="st16" d="M671.3 432.2l-43.7 17.6h18.3l42.3-17.6zm-43.7 17.6v20.4h18.1l.2-20.4zm0 85.7v20.4h18.1l.2-20.4z"/><path class="st15" d="M601.8 369.7h75.3V445h-75.3z"/><path class="st16" d="M714.8 357.2l-37.7 12.5V445l37.7-12.5z"/><path fill="#eccf8f" d="M601.8 369.7l37.7-12.5h75.3l-37.7 12.5z"/><path d="M688.6 420.1v21l11.3-3.7v-21zm0-54.2v21l11.3-3.7v-21z" fill="#c07632"/><path class="st16" d="M624.6 362.2l-1.6.5-2.3.8-7.9 2.4h75.8l11.3-3.7z"/><path class="st28" d="M648.3 374.5h25.6v11.1h-25.6z"/><path class="st28" d="M650.8 375.6h.5v8.7h-.5zm1.4 0h.5v8.7h-.5zm1.4 0h.5v8.7h-.5zm1.3 0h.5v8.7h-.5z"/><path class="st28" d="M655 375.6h.5v8.7h-.5zm1.3 0h.5v8.7h-.5zm1.4 0h.5v8.7h-.5zm1.3 0h.5v8.7h-.5zm.9 0h.5v8.7h-.5zm1.3 0h.5v8.7h-.5zm1.3 0h.5v8.7h-.5zm1.3 0h.5v8.7h-.5zm1.4 0h.5v8.7h-.5zm1.3 0h.5v8.7h-.5z"/><path class="st28" d="M666.6 375.6h.5v8.7h-.5zm1.3 0h.5v8.7h-.5zm1.4 0h.5v8.7h-.5zm1.3 0h.5v8.7h-.5z"/><path class="st3" d="M443.2 345h-42l-10.8-9.2h61.7zm-18.5-20.7s7.9-10.3 4.7-17-4.3-11.3-3.4-17.6c0 0-3.2 13.2.3 18 3.5 4.9-1.6 16.6-1.6 16.6zm-5.7-.1s6.6-8.7 4-14.2c-2.7-5.6-3.6-9.4-2.9-14.8 0 0-2.7 11.1.2 15.1 2.9 4.1-1.3 13.9-1.3 13.9zm-7.9 5.4s8.6-11.2 5.1-18.4c-3.5-7.2-4.7-12.2-3.7-19.1 0 0-3.5 14.4.3 19.6 3.7 5.2-1.7 17.9-1.7 17.9zM362 345c-5.4 0-9.7-4.3-9.7-9.7v-14.8h19.4v14.8c0 5.3-4.4 9.7-9.7 9.7z"/><path class="st7" d="M297.5 259.4c-11.9 9.6-29 17.4-44.9 18.6-17.2-7.4-47.7-24.1-44.4-27.2 16.2.5 27 6.3 46.2 12.3 7.5-3.3 65.8-29.7 43.1-3.7zm14 252.8c2.2-53.9 5.3-115.4-2.3-170.3-2.4-10.1.5-38.1-11.4-29.4-30.2 22.5-.1 163.9 1.1 183.6 3 14.9 4.9 41 9.8 51 2.5-9.8 1.7-21 2.8-34.9z"/><path d="M308.8 551c-2 8.9-26.5 10.3-24.2 2.4 3.7-3.4 9.8-3.5 14.4-6.4 8.1-5.2 12-6.7 9.8 4z" fill="#0a273a"/><path class="st8" d="M327.2 512.2c2.2-53.9 5.3-115.4-2.3-170.3-2.4-10.1.5-38.1-11.4-29.4-30.2 22.5-.1 163.9 1.1 183.6 3 14.9 4.9 41 9.8 51 2.5-9.8 1.8-21 2.8-34.9z"/><path class="st9" d="M325.4 551c-2 8.9-26.5 10.3-24.2 2.4 3.7-3.4 9.8-3.5 14.4-6.4 8.1-5.2 12-6.7 9.8 4zm-33.8-250.6c-12.7 38.3-11.3 119.2-11.1 125 13.2 6.8 62.1 9.2 58.7-4.2 2.2-67.3-16.1-115.1-18.3-120.8 1.7-1-15.9-2.7-29.3 0zm36.3-114.6c1.2 5.2-.1 12 4.9 15.9 34.1 24.9-10.4 50.3-34.5 33-10.8-8.2.3-17-2.9-25.9-25.7-34.2 25-45.5 32.5-23z"/><path class="st8" d="M300.7 238c5.1 3.1 18.9 1.6 18.7-5.6-2.9-10.1-3.7-19.7-2.4-30.7-3.8 2.8-11.4 5.4-12.4 10.7.3 8.5-.9 17-3.9 25.6z"/><path class="st14" d="M332.9 253.1c-1.4 2.3-2.8 10.8-6.7 12-8 16.5-2.4 35.1-7.8 35.7-7.3 2.2-16 1.9-24.1.2-5.1-.3-4-6.1-6.2-10.4-2.3-7.5-4.7-18.1-4.6-28.9-2.7-1.3-5.9-4.3-7.1-5.8-1.7-1.6-.6-1.1 1-4.6 17.7-31.8 65.8-36.3 55.5 1.8z"/><path class="st8" d="M319.8 226.2c-5.4 18.3-38.5 12.1-20.2 3.9 6.4-2.8 8-5.5 20.2-3.9z"/><path class="st7" d="M304.1 224c12.6-4.2 12.4-11.7 13-22.3-15 9.2-11.5 6-13 22.3z"/><path class="st8" d="M317 205.8c.9 10.8-16.9 20.6-20.7 7.2-1.9-8.9 6.9-15.3 2.7-24.4 6.6 4.7 21.1 5.1 18 17.2z"/><path class="st8" d="M316.7 204c1.2-4.7 6.2 1.9 2.6 5-5.8 4.1-3.3-1.2-2.6-5z"/><path class="st3" d="M138.8 233.1h91.7v79.2h-91.7z"/><path d="M204.3 297.1c-7.9-25.7 7.8-49.7 2-83.3-1.2-6.8-4.4-13.1-9-18.3-2.9-3.2-1.5-8.3 2.6-9.6l11.3-3.5c4.1-1.3 8.1 2.2 7.6 6.4-.9 6.9 0 13.9 2.9 20.2 14.2 31 40.8 42 48.7 67.6 3.8 12.2 0 24.2-8.4 32.4l1.4 4.4c.8 2.7-.7 5.5-3.3 6.4l-22.8 7.1c-2.7.8-5.5-.7-6.4-3.3l-1.4-4.4c-11.5-2.2-21.4-9.9-25.2-22.1z" fill="#02819f"/><path class="st2" d="M316.2 210.1c1.1 3.6 5.9-1 1.4-1.9-.6.1-1.3.6-1.4 1.9z"/><path class="st8" d="M326.6 264.9c-4 8.2-10 19-16.5 25.7-19.6 6.7-63.9 19.9-63.4 15.4 6.8-6.8 25.5-14.3 35.2-19.2 6-2.7 12.3-5.5 18.9-8.2 3.2-7.3 6.3-14.9 9.8-22.7 5.3 6.6 12.8 8.5 16 9z"/><path class="st8" d="M258.3 299.3c-2.1 1.1-13.5-6.3-10.9-2.2.9 1.8 5.4 2.4 1.7 4.9-12.1 1.9-10.5 10.1.6 10.6 5.8-.8 14.4-8.3 8.6-13.3z"/><path class="st46" d="M760.3 178.7s1.6-5.4 3.5-8.6c.7-1.2 1.4-2 1.9-2.4.3-.3.8-.2 1 .2l5.1 9.1c.1 0-10.4.5-11.5 1.7z"/><path class="st47" d="M765.9 169.6c.5 1.9 1.2 5.1 2.3 6.2 0 0-2.9.2-7.2 2.4 0 0 2.5-6.4 3.8-8.3.6-.9.9-.9 1.1-.3z"/><path class="st46" d="M752.9 191.9c.7 9.8 9.6 12 9.6 12s-.9 10.1.8 15.1c1.7 5 9.1 16 7.3 18.9-1.7 3-3.7 1.9-3.9 4.1-.2 2.1-2.6 3.3 4.7 3.3 7.3 0 17.6-1.5 17.6-1.5 4.3 2.5 16.4 1.4 19.3-.2s6.3-11.8 0-20.4c-6.3-8.6-12-9.4-16-13.5s-5.9-10.7-5-12.3c.9-1.6 2.2-8.3-.1-12.3-2.3-4-9.7-9.9-16.6-9.9-6.9 0-18.5 5.6-17.7 16.7z"/><path class="st46" d="M787.8 187.8s1.5-5 1.7-8.8c.1-1.4-.1-2.4-.3-3-.1-.4-.6-.6-1-.4l-9.7 4.1c-.1 0 9 6.5 9.3 8.1z"/><path class="st47" d="M787.1 177.3c-2.5 1.3-4.2 2.2-5.5 2.8 0 0 2.5 2 4.7 6 0 0 1.8-5.8 1.8-7.9 0-1.1-.5-1.2-1-.9z"/><path class="st31" d="M766.6 189.9c-.3.6-1.1.7-1.9.4-.8-.4-1.2-1.1-.9-1.7.3-.6 1.1-.7 1.9-.4.8.3 1.2 1.1.9 1.7zm6.5-3.4c.6.3.7 1.1.4 1.9-.4.8-1.1 1.2-1.7.9-.6-.3-.7-1.1-.4-1.9.4-.8 1.1-1.2 1.7-.9z"/><ellipse transform="rotate(-64.603 762.785 183.573)" class="st31" cx="762.8" cy="183.6" rx="1.5" ry="1.1"/><path class="st47" d="M773.3 204.7s-2.9 4.6-2.9 12.8c.4 6 1.1 9.2-1.4 13.2 0 0-2-4.8-4.5-9.2-1.6-2.8-3.1-9.1-1.9-17.7-.1 0 5.1 1.8 10.7.9z"/><path d="M788.5 243.8c-.4-.4-.8-.9-.8-2.1 0-2.5 3.5-2.8 4.8-2.9.1-.5.1-1.9.3-4.3.5-7.3 5-9.8 5.3-9.9.3-.2.6-.2.7.1.1.3 0 .6-.3.8-.2.1-4.3 2.6-4.8 9.1-.3 4.5-.5 4.7-.7 4.9l-.4.2c-1.4.1-3.9.6-4.1 1.9-.2 1.3.3 1.9.5 2.1m3.6-4.8zm-25.5 6.2c-.5-.4-.8-1-.9-1.7v-.4c0-1.8.5-2.9 3.1-3.6 1.8-.5 3.3-6 3.3-14.2 0-3.6.2-12.1.2-12.2 0-.3.1-.5.3-.5.2 0 .2.3.2.6 0 .1-.1 8.8-.1 12.4 0 9.3-1.2 14-3.6 14.7-2.2.7-2.6 1.7-2.6 2.9v.2c0 .4.4 1.5 1 1.9m4.7.1c2.2-.5 2.6-3.2 3.1-4.2.4-.8.6-1.3.9-1.6.6-.8 8.2-15.7 8.7-21.1 0-.3.1-.6.4-.6.3 0 .2.3.2.6-.5 5.6-7.8 21.1-8.5 21.8-.1.1-.4.8-.7 1.3-.5 1.1-1.1 2.4-1.9 3.2-.2.2-.4.3-.7.5" fill="#ea9436"/><path class="st46" d="M813.4 243c-2.2 0-4.4-1.2-4.8-1.4-.8-.5-1.1-1.5-.7-2.3.5-.8 1.5-1.1 2.3-.7 1.1.6 3.2 1.3 3.8.8.4-.3.7-1.5.2-3.9-5.4-28.2-4.4-43.1 3-45.4 3.1-1 5.5-.6 7.3 1 3.7 3.5 1.7 11.6 1.5 12.5-.2.9-1.2 1.5-2.1 1.2-.9-.2-1.5-1.2-1.2-2.1.6-2.3 1.2-7.5-.5-9.2-.7-.7-2-.8-3.9-.2-2.5.8-7.5 6.3-.7 41.5.7 3.6.2 6.1-1.6 7.3-.7.7-1.6.9-2.6.9zm-51.2-35.9s-18.2-16.7-21.9-7c-2.6 6.8 4.8 2.2 9.4 5.9 6.6 5.2 15.5 17.1 15.5 17.1l-3-16z"/><circle class="st14" cx="691.5" cy="159.9" r="10.4"/><path d="M685.6 151.2s5.7 11.8 12.2 16.3m-16.9-6.8s10.9-.8 20-6.1m-9.8-5.1s7 13.3.5 20.7m-8.5-3.8s12.2-4.8 15.6-14.2m3.2 6.8s-8.9 5.3-20.3 3.7" fill="none" stroke="#75c945" stroke-linecap="round" stroke-miterlimit="10"/><path d="M686.9 168.6s-24.3 1.6-15.5 2.4c20.7 1.7 37.6-4.7 37.4.9-.3 10.5 0 29.7 0 29.7" fill="none" stroke="#4fa52b" stroke-linecap="round" stroke-miterlimit="10"/><path class="st8" d="M207 241.3s-13.1 1.8-8.3 11.4 12.6 4.3 12.1-.3-3-11.2-3.8-11.1z"/><path class="st7" d="M668.2 259.5c-1.4-1.3-3.2-3.5-4.9-5.6-.9-1.1-2.6-.6-2.8.8-.2 2.5-1.2 4.9-2.9 5.2-2.4.3-4.5-1.3-6.6-2.4-1.4-.8-3-1.4-4.6-1.1-.9.2-1.8.7-2.3 1.5-1.2 1.9.2 4.2 1.8 5.7 5.3 5 13.6 6.6 20.4 4 .7-2.8 1.3-5.4 1.9-8.1z"/><path class="st8" d="M635 290.8s-10.4 38.7-10.6 65.6c0 0-4.5 13.2 1.8 18.5l16.4-82.8-7.6-1.3z"/><path class="st9" d="M667.9 224.7c3.2 1.5 5.2 5.2 4.7 8.7-.2 1.9-1.1 3.7-.9 5.6.2 2.3 1.9 4.2 3.5 5.9 4.7 5.2 8.8 11 11.3 17.5s3.4 13.8 1.6 20.5c-1.8 6.7-6.5 12.8-12.9 15.6-6.3 2.7-13.6 1.9-20.3.1-5.5-1.5-10.9-3.8-15.4-7.3-4.5-3.6-8-8.6-9-14.2s.7-11.9 5-15.7c2.2-2 5.2-3.3 6.5-6 1.7-3.7-.4-7.9-1-11.9-.7-4.5.8-9.3 3.8-12.6 2.9-3.3 7-4.7 11.2-5.4 3.8-.7 8.3-2.5 11.9-.8z"/><path class="st8" d="M615.7 381.9c-.1 1.1-.3 2.2-.4 3.3-1.4 11.1-3.1 21.7-4.7 31.3-1.6 9.6-3.2 18.3-4.5 25.5-.4 2.3-.8 4.4-1.2 6.4-.4 1.8-.7 3.5-1 5.1-1.1 1.3-3 2.3-5.2 2.8-.2-2.1-.4-4.6-.7-7.4-.2-2.3-.4-4.8-.6-7.5-.6-7.4-1.2-16.2-1.8-26-.6-9.8-1.1-20.5-1.4-31.8-.2-6.6-.2-13.1-.1-19.2 6.9-.9 14.2-1 21.6-.3.6.1 1.3.1 1.9.2-.5 5.7-1.2 11.5-1.9 17.6zm32 2.4c-.1 11.3-.5 22.1-1 31.9-.5 9.8-1 18.6-1.4 26.1-.1 2.2-.3 4.4-.4 6.3-.1 2.1-.3 4-.4 5.8-1 1.3-2.7 2.4-4.8 3.1-.5-2.1-1-4.5-1.5-7.3-.5-2.3-1-4.8-1.5-7.6-1.4-7.3-3.1-16.1-4.9-25.8-1.7-9.7-3.6-20.4-5.2-31.6-.2-1.4-.4-2.9-.6-4.3-.8-6.1-1.6-12.1-2.1-17.8h3.1c7.1 0 14 .7 20.6 2.1.2 6.1.2 12.5.1 19.1zm14.4-110c-4.7 3.4-10.9 3.6-16.1.7.7-1.9 1.2-3.9 1.5-6 .1-.6.1-1.2.2-1.8 0-.3 0-.7.1-1v-.8c5.1-.7 9.9-2.5 14-5.1-.2 1.9-.3 3.9-.3 5.8 0 1 0 2 .1 3 0 1.8.2 3.5.5 5.2z"/><path class="st7" d="M661.4 266.2c0 1 0 2 .1 3-2.1.9-4.4 1.4-6.7 1.4-2.5 0-5-.5-7.3-1.5.1-.6.1-1.2.2-1.8 0-.3 0-.7.1-1v-.8c5.1-.7 9.9-2.5 14-5.1-.3 1.9-.4 3.8-.4 5.8z"/><path class="st8" d="M665 253.8c-.3 1.5-.7 2.9-.9 3.9-.1.3-.2.7-.2 1-.2.4-.4.8-.6 1.3-1.3 2.9-3.3 5.4-6 7-.9.5-1.8 1-2.7 1.3-2.2.8-4.7.8-6.9.2h-.1c-1.7-.5-3.3-1.5-4.5-2.9-2.4-3-2.4-7.3-1.3-11 .1-.3.2-.7.3-1 .8-2.5 2.1-5.8 3.2-8.8 2.5-.9 4.7-2.7 6.1-5.1 2.7 5.6 7.2 10.3 12.6 13.5.3.2.7.4 1 .6z"/><path class="st8" d="M664.5 255c0-.7.7-1.3 1.4-1.4.7-.1 1.4.4 1.8 1 .4.6.4 1.4.3 2.1-.2.7-.6 1.3-1.1 1.8-.5.6-1.2 1.1-2 1.4s-1.7.3-2.4-.1c.1-1.7 1-3.5 2-4.8z"/><path class="st10" d="M646.7 381.4l-55.2-2.3c-2.3-35.7 44.3-26 44.6-69.8l-5-2.2c2.8-26.1 13.6-31.2 14-31.3.5-.4.8-.7.8-.8l16.1-.7s.5.1 1.3.3c3.3.8 11.8 3.8 17.1 14.6 2.2 4.6 3.8 10.5 4.2 18.3 0 0-1.9 2.2-6.2 3.4 1.1 23.8-9.1 67.9-31.7 70.5z"/><path class="st8" d="M686 321.9v1.3c0 1.8-.1 3.6-.2 5.4-.1 1.1-.2 2.1-.3 3.1-.1.8-.2 1.5-.2 2.2 0 .4-.1.9-.1 1.3-.1.4-.1.9-.2 1.3-.1.9-.3 1.7-.4 2.6-.1.8-.3 1.7-.4 2.5l-.6 2.4c-.4 1.6-.7 3.2-1.2 4.7-.9 3-1.8 5.8-2.8 8.4-.5 1.3-1 2.5-1.5 3.7-.5 1.1-1 2.1-1.4 3 .4 2.5.1 5.2-.9 7.5-1.2 2.7-3.3 5-5.9 6.5-1.6.9-3.6-.2-3.6-2.1v-10.2c-.7.3-1.9.8-3.1 1.4-.8.4-1.6-.7-.9-1.3 2.3-2 5.4-3.9 8-4.9.1-.6.2-1.3.3-1.9.2-1.2.2-2.4.4-3.7.3-2.5.4-5.3.5-8.1.1-1.4 0-2.9.1-4.4v-2.2c0-.8-.1-1.5-.1-2.3 0-.8 0-1.5-.1-2.3v-1.2c0-.4-.1-.8-.1-1.2l-.3-4.8c-.2-1.6-.3-3.2-.5-4.7 0-.4-.1-.8-.1-1.2-.1-.4-.1-.8-.2-1.1-.1-.8-.2-1.5-.3-2.3-.1-.7-.2-1.5-.3-2.2-.1-.7-.2-1.5-.4-2.2 0-.2-.1-.4-.1-.5-.2-1.2-.3-2.5-.6-3.6-.5-2.7-.9-5.3-1.3-7.7-.2-1.2-.4-2.4-.6-3.5-.2-1.1-.4-2.2-.5-3.3-.2-2.1-.6-4-.7-5.8-.1-.9-.1-1.7-.1-2.5v-2.2c.2-2.7 1-4.6 2.4-5.3 1.4-.7 3.3 0 5.5 1.9.5.5 1.1 1 1.7 1.7.6.6 1.1 1.4 1.6 2.2 1.1 1.6 2.3 3.5 3.3 5.7.5 1.1 1 2.3 1.5 3.5.5 1.2.9 2.5 1.3 3.9.9 2.7 1.5 5.7 2.1 8.8.3 1.6.5 3.2.7 4.8.1.8.2 1.7.3 2.5 0 .8.1 1.7.1 2.6 0 .9.1 1.7.1 2.6 0 .3 0 .7.1 1.2z"/><path class="st10" d="M662.1 274.3s21.1 2.3 22.6 33.1c0 0-5.5 6.4-19.6 3.4l-3-36.5z"/><path class="st8" d="M663.4 274.6c-.5 2.2-1.8 4.2-3.6 5.6-2.7 2.2-6.6 2.8-9.9 1.6-1.8-.6-3.5-1.9-4.3-3.6-.4-.8-.5-1.6-.5-2.4.5-.4.8-.7.8-.8l16.1-.7c.1 0 .5.1 1.4.3z"/><path class="st9" d="M574.6 466.2c0 .3.2.5.5.5 0 0 3.9 1.3 7.7 1.3 5.9-.1 23.6-.3 23.6-.3.3 0 .5-.2.5-.5v-1.8c0-.3-.2-.5-.5-.5 0 0-17.7.2-23.6.3-3.5 0-7.3-1.3-7.3-1.3-.3 0-.5.2-.5.5l-.4 1.8z"/><path class="st2" d="M606.4 464.9s1-4.7-.7-7.5.6-10.4.3-12.5c-.3-2.1-1-1.9-4.6-3.6-3.6-1.7-7-2.2-6.7.8.4 3 .2 17.1-12.5 19.8-3-.6-7.5.8-6.6 2 .5 0 3 1.4 7.3 1.3 9.3-.1 23.5-.3 23.5-.3z"/><path d="M594.7 442.1c-.4-3 3.1-2.5 6.7-.8s4.3 1.5 4.6 3.6c.3 2.1-2 9.7-.3 12.5 1.7 2.8.7 7.5.7 7.5s-14.2.2-23.6.3c-1.3 0-2.4-.1-3.3-.3 0 0 .5-2.4 2.7-3 12.7-2.6 12.8-16.7 12.5-19.8z" fill="#ef265b"/><path class="st2" d="M584.7 463c-.1-.4.1-.7.5-.8.4-.1.7.1.8.5.1.4-.1.7-.5.8-.4 0-.7-.2-.8-.5z"/><path class="st12" d="M584.9 462.9c-.1-.2.1-.4.3-.5.2-.1.4.1.5.3.1.2-.1.4-.3.5-.2 0-.4-.1-.5-.3z"/><path class="st2" d="M584.4 460.9c-.1-.2.1-.4.3-.5.2-.1.4.1.5.3l.4 1.6c.1.2-.1.4-.3.5-.2.1-.4-.1-.5-.3l-.4-1.6zm3.2.9c-.2-.3-.1-.7.2-.9.3-.2.7-.1.9.2.2.3.1.7-.2.9-.3.2-.7.1-.9-.2z"/><path class="st12" d="M587.8 461.6c-.1-.2 0-.4.1-.5.2-.1.4 0 .5.1.1.2 0 .4-.1.5-.1.2-.4.1-.5-.1z"/><path class="st2" d="M586.8 459.8c-.1-.2 0-.4.1-.5.2-.1.4 0 .5.1l.9 1.5c.1.2 0 .4-.1.5-.2.1-.4 0-.5-.1l-.9-1.5zm3.6.2c-.3-.3-.3-.7 0-1 .3-.3.7-.3 1 0 .3.3.3.7 0 1-.3.2-.8.3-1 0z"/><path class="st12" d="M590.6 459.8c-.2-.1-.2-.4 0-.5.1-.2.4-.2.5 0 .2.1.2.4 0 .5-.1.1-.4.1-.5 0z"/><path class="st2" d="M589 458.4c-.2-.1-.2-.4 0-.5.1-.2.4-.2.5 0l1.2 1.2c.2.1.2.4 0 .5-.1.2-.4.2-.5 0l-1.2-1.2zm3.6-1c-.3-.2-.4-.6-.2-.9.2-.3.6-.4.9-.2.3.2.4.6.2.9-.1.3-.6.4-.9.2z"/><path class="st12" d="M592.8 457.2c-.2-.1-.2-.3-.1-.5s.3-.2.5-.1.2.3.1.5c-.1.1-.4.2-.5.1z"/><path class="st2" d="M591 456.1c-.2-.1-.2-.3-.1-.5s.3-.2.5-.1l1.5.9c.2.1.2.3.1.5s-.3.2-.5.1l-1.5-.9zm3.3-1.9c-.3-.1-.5-.5-.4-.9.1-.3.5-.5.9-.4.3.1.5.5.4.9-.1.4-.5.5-.9.4z"/><path class="st12" d="M594.4 453.9c-.2-.1-.3-.3-.2-.5.1-.2.3-.3.5-.2.2.1.3.3.2.5 0 .2-.3.3-.5.2z"/><path class="st2" d="M592.5 453.1c-.2-.1-.3-.3-.2-.5.1-.2.3-.3.5-.2l1.6.6c.2.1.3.3.2.5-.1.2-.3.3-.5.2l-1.6-.6zm3.1-2.1c-.4-.1-.6-.5-.5-.8.1-.4.5-.6.8-.5.4.1.6.5.5.8-.1.4-.4.6-.8.5z"/><path class="st12" d="M595.7 450.7c-.2 0-.3-.3-.3-.5s.3-.3.5-.3.3.3.3.5c-.1.2-.3.4-.5.3z"/><path class="st2" d="M593.6 450.2c-.2 0-.3-.3-.3-.5s.3-.3.5-.3l1.7.4c.2 0 .3.3.3.5s-.3.3-.5.3l-1.7-.4zm2.7-2.7c-.4 0-.6-.4-.6-.7 0-.4.4-.6.7-.6.4 0 .6.4.6.8 0 .3-.4.5-.7.5z"/><path class="st12" d="M596.3 447.2c-.2 0-.4-.2-.3-.4 0-.2.2-.4.4-.3.2 0 .4.2.3.4 0 .2-.2.3-.4.3z"/><path class="st2" d="M594.2 447c-.2 0-.4-.2-.3-.4 0-.2.2-.4.4-.3l1.7.2c.2 0 .4.2.3.4 0 .2-.2.4-.4.3l-1.7-.2z"/><path class="st9" d="M618.6 471.1c0 .3.3.5.6.4 0 0 4 .8 7.8.2 5.8-.9 23.4-3.5 23.4-3.5.3 0 .5-.3.4-.6l-.3-1.8c0-.3-.3-.5-.6-.4 0 0-17.5 2.6-23.3 3.5-3.4.5-7.4-.3-7.4-.3-.3 0-.5.3-.4.6l-.2 1.9z"/><path class="st2" d="M649.9 465.4s.3-4.8-1.7-7.3-.8-10.4-1.4-12.4c-.6-2-1.3-1.8-5.1-2.9-3.8-1.2-7.3-1.3-6.5 1.7.8 3 2.6 16.9-9.7 21.3-3-.2-7.4 1.8-6.3 2.8.5-.1 3.2.9 7.4.3 9.3-1.3 23.3-3.5 23.3-3.5z"/><path d="M635.2 444.5c-.8-3 2.7-2.9 6.5-1.7s4.5.9 5.1 2.9c.6 2-.6 9.9 1.4 12.4s1.7 7.3 1.7 7.3-14 2.1-23.3 3.5c-1.3.2-2.4.2-3.3.2 0 0 .2-2.4 2.2-3.3 12.3-4.3 10.5-18.3 9.7-21.3z" fill="#fb446c"/><path class="st2" d="M628.2 466.5c-.1-.3 0-.7.4-.9.3-.1.7 0 .9.4.1.3 0 .7-.4.9-.4.1-.8-.1-.9-.4z"/><path class="st12" d="M628.4 466.4c-.1-.2 0-.4.2-.5.2-.1.4 0 .5.2.1.2 0 .4-.2.5-.2.1-.4 0-.5-.2z"/><path class="st2" d="M627.6 464.5c-.1-.2 0-.4.2-.5.2-.1.4 0 .5.2l.7 1.6c.1.2 0 .4-.2.5-.2.1-.4 0-.5-.2l-.7-1.6zm3.3.4c-.2-.3-.2-.7.1-1 .3-.2.7-.2 1 .1.2.3.2.7-.1 1-.4.3-.8.2-1-.1z"/><path class="st12" d="M631.1 464.7c-.1-.2-.1-.4.1-.5.2-.1.4-.1.5.1.1.2.1.4-.1.5-.1.1-.4.1-.5-.1z"/><path class="st2" d="M629.8 463.1c-.1-.2-.1-.4.1-.5.2-.1.4-.1.5.1l1.1 1.3c.1.2.1.4-.1.5-.2.1-.4.1-.5-.1l-1.1-1.3zm3.6-.3c-.3-.2-.4-.6-.2-.9.2-.3.6-.4.9-.2.3.2.4.6.2.9-.2.3-.6.4-.9.2z"/><path class="st12" d="M633.6 462.5c-.2-.1-.2-.4-.1-.5.1-.2.4-.2.5-.1.2.1.2.4.1.5-.1.2-.3.3-.5.1z"/><path class="st2" d="M631.9 461.3c-.2-.1-.2-.4-.1-.5.1-.2.4-.2.5-.1l1.4 1c.2.1.2.4.1.5-.1.2-.4.2-.5.1l-1.4-1zm3.4-1.4c-.3-.1-.5-.5-.4-.9.1-.3.5-.5.9-.4.3.1.5.5.4.9-.2.4-.6.6-.9.4z"/><path class="st12" d="M635.4 459.6c-.2-.1-.3-.3-.2-.5.1-.2.3-.3.5-.2.2.1.3.3.2.5-.1.2-.3.3-.5.2z"/><path class="st2" d="M633.5 458.8c-.2-.1-.3-.3-.2-.5.1-.2.3-.3.5-.2l1.6.7c.2.1.3.3.2.5-.1.2-.3.3-.5.2l-1.6-.7zm3-2.3c-.4-.1-.6-.5-.5-.8.1-.4.5-.6.8-.5.4.1.6.5.5.8 0 .4-.4.6-.8.5z"/><path class="st12" d="M636.6 456.2c-.2-.1-.3-.3-.3-.5.1-.2.3-.3.5-.3.2.1.3.3.3.5-.1.2-.3.3-.5.3z"/><path class="st2" d="M634.6 455.7c-.2-.1-.3-.3-.3-.5.1-.2.3-.3.5-.3l1.6.4c.2.1.3.3.3.5-.1.2-.3.3-.5.3l-1.6-.4zm2.8-2.5c-.4 0-.6-.4-.6-.7 0-.4.4-.6.7-.6.4 0 .6.4.6.7 0 .3-.4.6-.7.6z"/><path class="st12" d="M637.4 452.9c-.2 0-.4-.2-.3-.4 0-.2.2-.4.4-.3.2 0 .4.2.3.4 0 .1-.2.3-.4.3z"/><path class="st2" d="M635.3 452.7c-.2 0-.4-.2-.3-.4 0-.2.2-.4.4-.3l1.7.2c.2 0 .4.2.3.4 0 .2-.2.4-.4.3l-1.7-.2zm2.3-3.1c-.4 0-.7-.3-.7-.7 0-.4.3-.7.7-.7.4 0 .7.3.7.7-.1.4-.4.7-.7.7z"/><path class="st12" d="M637.6 449.3c-.2 0-.4-.2-.4-.4s.2-.4.4-.4.4.2.4.4c-.1.2-.2.4-.4.4z"/><path class="st2" d="M635.5 449.4c-.2 0-.4-.2-.4-.4s.2-.4.4-.4h1.7c.2 0 .4.2.4.4s-.2.4-.4.4h-1.7z"/><circle class="st3" cx="141.6" cy="96.9" r="24"/><path class="st3" d="M98.7 147.4h32v164.8h-32z"/><path class="st3" d="M123.2 186.3h38.5v126h-38.5zM80 246.2h21.4v66.1H80z"/><circle class="st3" cx="183.4" cy="144.2" r="7.7"/><path class="st3" d="M190.9 160.6h-19.7c-4.5 0-8.2-3.7-8.2-8.2 0-4.5 3.7-8.2 8.2-8.2h19.7c4.5 0 8.2 3.7 8.2 8.2 0 4.5-3.6 8.2-8.2 8.2z"/><circle class="st1" cx="114.5" cy="56.2" r="4.3"/><path class="st1" d="M118.7 65.5h-11.2c-2.6 0-4.6-2.1-4.6-4.6 0-2.6 2.1-4.6 4.6-4.6h11.2c2.6 0 4.6 2.1 4.6 4.6.1 2.5-2 4.6-4.6 4.6z"/><path class="st0" d="M522.1 0h4.1v65.3h-4.1z"/><path class="st3" d="M555.9 107.5c-.1-17.4-14.2-31.4-31.6-31.4-17.4 0-31.5 14-31.6 31.4h63.2z"/><path class="st3" d="M535.6 76.1c0 9.3-5.2 16.8-11.7 16.8-6.5 0-11.7-7.5-11.7-16.8s5.2-16.8 11.7-16.8c6.4 0 11.7 7.5 11.7 16.8z"/></svg>