<?xml version="1.0" encoding="utf-8"?>
<!-- Generator: Adobe Illustrator 23.1.0, SVG Export Plug-In . SVG Version: 6.00 Build 0)  -->
<svg version="1.1" id="Слой_1" xmlns="http://www.w3.org/2000/svg" xmlns:xlink="http://www.w3.org/1999/xlink" x="0px" y="0px"
	 viewBox="0 0 910 567" style="enable-background:new 0 0 910 567;" xml:space="preserve">
<style type="text/css">
	.st0{fill:#D8EFF4;}
	.st1{fill:url(#SVGID_1_);}
	.st2{fill:#CEECF4;}
	.st3{fill:url(#SVGID_2_);}
	.st4{fill:#C3E8EF;}
	.st5{fill:url(#SVGID_3_);}
	.st6{fill:url(#SVGID_4_);}
	.st7{fill:url(#SVGID_5_);}
	.st8{fill:url(#SVGID_6_);}
	.st9{fill:url(#SVGID_7_);}
	.st10{fill:#FFAE96;}
	.st11{fill:#7DBACF;}
	.st12{fill:#FF9984;}
	.st13{fill:#FFB392;}
	.st14{fill:url(#SVGID_8_);}
	.st15{fill:url(#SVGID_9_);}
	.st16{fill:#F5F8F8;}
	.st17{fill:#3E95B6;}
	.st18{fill:#00939D;}
	.st19{fill:#FFCD69;}
	.st20{fill:url(#SVGID_10_);}
	.st21{fill:#00767D;}
	.st22{opacity:0.19;fill:#FFFFFF;enable-background:new    ;}
	.st23{fill:#37A537;}
	.st24{fill:#50B848;}
	.st25{fill:#5FA2BE;}
	.st26{fill:#19607C;}
	.st27{fill:#FFB95C;}
	.st28{fill:#FFD2B3;}
	.st29{fill:#C6EBF2;}
	.st30{fill:#3784A8;}
	.st31{fill:#005777;}
	.st32{fill:#FF8872;}
	.st33{fill:url(#SVGID_11_);}
	.st34{fill:url(#SVGID_12_);}
	.st35{fill:url(#SVGID_13_);}
	.st36{fill:#00C25C;}
	.st37{fill:url(#SVGID_14_);}
	.st38{fill:url(#SVGID_15_);}
	.st39{fill:#FCAA39;}
	.st40{fill:url(#SVGID_16_);}
	.st41{fill:url(#SVGID_17_);}
	.st42{fill:#FFFFFF;}
</style>
<g id="_x31_._Перевезем_за_540р">
	<g id="Задник">
		<path class="st0" d="M868.3,52.3L868.3,52.3c-1.7,0-3-1.4-3-3V20.4c0-1.7,1.4-3,3-3l0,0c1.7,0,3,1.4,3,3v28.8
			C871.4,50.9,870,52.3,868.3,52.3z"/>
		
			<linearGradient id="SVGID_1_" gradientUnits="userSpaceOnUse" x1="433.1158" y1="39.3621" x2="1377.1157" y2="1282.0288" gradientTransform="matrix(1 0 0 -1 0 568)">
			<stop  offset="0" style="stop-color:#ECF6FB;stop-opacity:0.1"/>
			<stop  offset="0.2976" style="stop-color:#DBEFF5;stop-opacity:0.3678"/>
			<stop  offset="0.619" style="stop-color:#D0EBF2;stop-opacity:0.6571"/>
			<stop  offset="1" style="stop-color:#CDEAF1"/>
		</linearGradient>
		<path class="st1" d="M865.9,404.7c18-35.6,28.2-76,28.2-118.8c0-139.8-108.4-253.6-243.8-258C635,10.8,612.6,0,587.5,0
			c-30.9,0-57.8,16.4-72.3,40.8c-7.5-1.4-15.1-2.1-23-2.1c-62.9,0-115.4,45.9-127.2,106.8C166.9,187.5,18.3,360.2,18.3,567h879.8
			C898.2,509.6,886.7,454.8,865.9,404.7z"/>
		<path class="st0" d="M885.8,34.8L885.8,34.8c0,1.7-1.4,3-3,3h-28.8c-1.7,0-3-1.4-3-3l0,0c0-1.7,1.4-3,3-3h28.8
			C884.4,31.8,885.8,33.1,885.8,34.8z"/>
		<g>
			<path class="st0" d="M31,47.7c-9.3,0-16.8-7.5-16.8-16.8S21.7,14,31,14c9.3,0,16.8,7.5,16.8,16.8S40.3,47.7,31,47.7z M31,19.5
				c-6.3,0-11.4,5.1-11.4,11.4S24.7,42.2,31,42.2c6.3,0,11.4-5.1,11.4-11.4S37.3,19.5,31,19.5z"/>
		</g>
		<path class="st2" d="M37.2,559.7L37.2,559.7c-1.3,0-2.4-1.1-2.4-2.4v-22.8c0-1.3,1.1-2.4,2.4-2.4l0,0c1.3,0,2.4,1.1,2.4,2.4v22.8
			C39.6,558.6,38.5,559.7,37.2,559.7z"/>
		<path class="st2" d="M51,545.9L51,545.9c0,1.3-1.1,2.4-2.4,2.4H25.8c-1.3,0-2.4-1.1-2.4-2.4l0,0c0-1.3,1.1-2.4,2.4-2.4h22.8
			C49.9,543.5,51,544.5,51,545.9z"/>
		
			<linearGradient id="SVGID_2_" gradientUnits="userSpaceOnUse" x1="775.4349" y1="374.2146" x2="775.4349" y2="821.3733" gradientTransform="matrix(1 0 0 -1 0 568)">
			<stop  offset="0.2155" style="stop-color:#F8FCFF"/>
			<stop  offset="0.4282" style="stop-color:#E7F5F9"/>
			<stop  offset="0.6677" style="stop-color:#DCF1F5"/>
			<stop  offset="0.9228" style="stop-color:#D8EFF4"/>
			<stop  offset="0.9285" style="stop-color:#D8EFF4"/>
			<stop  offset="1" style="stop-color:#D8EFF4"/>
		</linearGradient>
		<path class="st3" d="M812.8,139.7h-14.1c0-18.3-14.8-33.1-33.1-33.1c-18.3,0-33.1,14.8-33.1,33.1c0,0.1,0,0.3,0,0.4
			c-16.3,2.6-28.7,16.7-28.7,33.7l0,0c0,18.9,15.3,34.2,34.2,34.2h74.8c18.9,0,34.2-15.3,34.2-34.2l0,0
			C847,155,831.7,139.7,812.8,139.7z"/>
		<path class="st4" d="M588.1,115.8c-0.8,0-1.7-0.3-2.3-0.9l-16.7-16.7c-1.3-1.3-1.3-3.3,0-4.6c1.3-1.3,3.3-1.3,4.6,0l14.4,14.4
			l14.4-14.4c1.3-1.3,3.3-1.3,4.6,0s1.3,3.3,0,4.6l-16.7,16.7C589.8,115.4,588.9,115.8,588.1,115.8z"/>
		<path class="st4" d="M555.3,156.9c-0.5,0-1-0.2-1.4-0.6l-10.7-10.6c-0.8-0.8-0.8-2,0-2.7c0.8-0.8,2-0.8,2.7,0l9.3,9.3l9.3-9.3
			c0.8-0.8,2-0.8,2.7,0c0.8,0.8,0.8,2,0,2.7l-10.7,10.6C556.3,156.7,555.8,156.9,555.3,156.9z"/>
		
			<linearGradient id="SVGID_3_" gradientUnits="userSpaceOnUse" x1="162.1266" y1="701.4545" x2="148.7933" y2="-77.2122" gradientTransform="matrix(1 0 0 -1 0 568)">
			<stop  offset="0.2155" style="stop-color:#F8FCFF"/>
			<stop  offset="0.4282" style="stop-color:#E7F5F9"/>
			<stop  offset="0.6677" style="stop-color:#DCF1F5"/>
			<stop  offset="0.9228" style="stop-color:#D8EFF4"/>
			<stop  offset="0.9285" style="stop-color:#D8EFF4"/>
			<stop  offset="1" style="stop-color:#D8EFF4"/>
		</linearGradient>
		<path class="st5" d="M200.3,74.6h-16c0-20.7-16.8-37.5-37.5-37.5s-37.5,16.8-37.5,37.5c0,0.2,0,0.3,0,0.5
			c-18.4,3-32.5,19-32.5,38.3l0,0c0,21.4,17.3,38.8,38.8,38.8h84.7c21.4,0,38.8-17.4,38.8-38.8l0,0C239,92,221.7,74.6,200.3,74.6z"
			/>
		
			<linearGradient id="SVGID_4_" gradientUnits="userSpaceOnUse" x1="236.835" y1="252.856" x2="236.835" y2="1193.3136" gradientTransform="matrix(1 0 0 -1 0 568)">
			<stop  offset="0.2155" style="stop-color:#F8FCFF"/>
			<stop  offset="0.2246" style="stop-color:#F7FCFF"/>
			<stop  offset="0.4564" style="stop-color:#E6F5F9"/>
			<stop  offset="0.7052" style="stop-color:#DBF0F5"/>
			<stop  offset="1" style="stop-color:#D8EFF4"/>
		</linearGradient>
		<path class="st6" d="M259.3,71h-8.5c0-11-8.9-19.9-19.9-19.9S211,60,211,71c0,0.1,0,0.2,0,0.3c-9.8,1.6-17.3,10.1-17.3,20.3l0,0
			c0,11.4,9.2,20.6,20.6,20.6h44.9c11.4,0,20.6-9.2,20.6-20.6l0,0C279.9,80.2,270.7,71,259.3,71z"/>
		
			<linearGradient id="SVGID_5_" gradientUnits="userSpaceOnUse" x1="468.855" y1="-1.1111" x2="468.855" y2="390.1979" gradientTransform="matrix(1 0 0 -1 0 568)">
			<stop  offset="0" style="stop-color:#ECF6FB;stop-opacity:0.1"/>
			<stop  offset="0.2151" style="stop-color:#E2F3F8;stop-opacity:0.2936"/>
			<stop  offset="0.5743" style="stop-color:#D7EFF5;stop-opacity:0.6169"/>
			<stop  offset="1" style="stop-color:#D4EEF4"/>
		</linearGradient>
		<path class="st7" d="M780.1,364.3V290c0-5.1-4.1-9.2-9.2-9.2H650.3c-5.1,0-9.2,4.1-9.2,9.2v119.9c0,5.1-4.1,9.2-9.2,9.2H502.9
			c-5.1,0-9.2-4.1-9.2-9.2V90.7c0-5.1-4.1-9.2-9.2-9.2h-49.5c-5.1,0-9.2,4.1-9.2,9.2v255.7c0,5.1-4.1,9.2-9.2,9.2h-61.7
			c-5.1,0-9.2,4.1-9.2,9.2v12.9c0,5.1-4.1,9.2-9.2,9.2h-78.5c-5.1,0-9.2-4.1-9.2-9.2V232.6c0-5.1-4.1-9.2-9.2-9.2h-77
			c-5.1,0-9.2,4.1-9.2,9.2v145.2c0,5.1-4.1,9.2-9.2,9.2H49.2v117.4h103.9h84h11.5h97h8.9h71.3h3h55h9.9h147.4h13h94.7h31.3h108.5
			V373.5h-99.2C784.2,373.5,780.1,369.4,780.1,364.3z"/>
		
			<linearGradient id="SVGID_6_" gradientUnits="userSpaceOnUse" x1="258.11" y1="371.2436" x2="276.21" y2="371.2436" gradientTransform="matrix(1 0 0 -1 0 568)">
			<stop  offset="0.2155" style="stop-color:#F8FCFF"/>
			<stop  offset="0.4282" style="stop-color:#E7F5F9"/>
			<stop  offset="0.6677" style="stop-color:#DCF1F5"/>
			<stop  offset="0.9228" style="stop-color:#D8EFF4"/>
			<stop  offset="0.9285" style="stop-color:#D8EFF4"/>
			<stop  offset="1" style="stop-color:#D8EFF4"/>
		</linearGradient>
		<path class="st8" d="M258.1,195.4c0,0,9.4,5.5,18.1,0.5"/>
	</g>
	<g id="машинка">
		
			<linearGradient id="SVGID_7_" gradientUnits="userSpaceOnUse" x1="510.0955" y1="262.0669" x2="510.938" y2="52.2544" gradientTransform="matrix(1 0 0 -1 0 568)">
			<stop  offset="0" style="stop-color:#FFEFD6"/>
			<stop  offset="1" style="stop-color:#FF9C87"/>
		</linearGradient>
		<rect x="477.3" y="361.5" class="st9" width="66.2" height="50.5"/>
		<rect x="528.4" y="365.8" class="st10" width="9.3" height="9.3"/>
		<path class="st11" d="M477.8,384.2l-5.2,1.6c-0.2,0.1-0.5-0.1-0.6-0.3l-0.4-1.4c-0.1-0.2,0.1-0.5,0.3-0.6l5.2-1.6
			c0.2-0.1,0.5,0.1,0.6,0.3l0.4,1.4C478.1,383.9,478,384.1,477.8,384.2z"/>
		<path class="st11" d="M473.1,374.6l-2,0.6c-0.6,0.2-1.2-0.1-1.4-0.7l-0.3-0.8c-0.2-0.6,0.1-1.2,0.7-1.4l2-0.6
			c0.6-0.2,1.2,0.1,1.4,0.7l0.3,0.8C474,373.8,473.7,374.4,473.1,374.6z"/>
		
			<rect x="473.1" y="357.2" transform="matrix(0.9573 -0.2892 0.2892 0.9573 -90.037 153.3977)" class="st11" width="1.9" height="48.4"/>
		<polygon class="st12" points="484.1,369.7 459.5,377.1 457,359.9 476.7,354 		"/>
		<path class="st11" d="M479.7,387.8l-6.8,2c-0.2,0.1-0.5-0.1-0.6-0.3l-0.4-1.4c-0.1-0.2,0.1-0.5,0.3-0.6l6.8-2
			c0.2-0.1,0.5,0.1,0.6,0.3l0.4,1.4C480.1,387.5,480,387.8,479.7,387.8z"/>
		<polygon class="st11" points="488.9,402.2 487,402.8 476.1,388.2 477.7,387 		"/>
		<polygon class="st11" points="473.4,406.9 475.3,406.3 476.2,388.1 474.3,388 		"/>
		<g>
			<path class="st13" d="M526.8,403.8h-20.4c-0.4,0-0.8-0.4-0.8-0.8s0.4-0.8,0.8-0.8h20.4c0.4,0,0.8,0.4,0.8,0.8
				S527.2,403.8,526.8,403.8z"/>
		</g>
		<g>
			<path class="st13" d="M518.1,408.4h-11.7c-0.4,0-0.8-0.4-0.8-0.8s0.4-0.8,0.8-0.8h11.7c0.4,0,0.8,0.4,0.8,0.8
				C518.9,408,518.5,408.4,518.1,408.4z"/>
		</g>
		
			<linearGradient id="SVGID_8_" gradientUnits="userSpaceOnUse" x1="428.0555" y1="283.3912" x2="571.8627" y2="-105.7121" gradientTransform="matrix(1 0 0 -1 0 568)">
			<stop  offset="0" style="stop-color:#FFEFD6"/>
			<stop  offset="1" style="stop-color:#FF9C87"/>
		</linearGradient>
		<polygon class="st14" points="494.7,413 453,420.6 447.1,388.1 488.9,380.6 		"/>
		
			<linearGradient id="SVGID_9_" gradientUnits="userSpaceOnUse" x1="548.0892" y1="229.1361" x2="531.5178" y2="28.0307" gradientTransform="matrix(1 0 0 -1 0 568)">
			<stop  offset="0" style="stop-color:#FFEFD6"/>
			<stop  offset="1" style="stop-color:#FF9C87"/>
		</linearGradient>
		<polygon class="st15" points="511.9,420.8 565.9,430.4 573.4,388.5 519.4,378.8 		"/>
		
			<rect x="560.9" y="390.6" transform="matrix(0.1763 -0.9843 0.9843 0.1763 76.8323 880.7915)" class="st10" width="7.7" height="7.7"/>
		
			<rect x="449.6" y="389.8" transform="matrix(0.9841 -0.1778 0.1778 0.9841 -62.6195 86.7287)" class="st10" width="6" height="6"/>
		
			<rect x="483.2" y="375.7" transform="matrix(0.9941 -0.1083 0.1083 0.9941 -39.2949 57.2481)" class="st16" width="48.5" height="29.3"/>
		
			<rect x="484.4" y="377.1" transform="matrix(0.9941 -0.1083 0.1083 0.9941 -39.0357 57.2117)" class="st17" width="45.7" height="21.7"/>
		<path class="st18" d="M509.3,402.9l-1,0.1c-0.4,0-0.7-0.2-0.7-0.6l-0.1-1c0-0.4,0.2-0.7,0.6-0.7l1-0.1c0.4,0,0.7,0.2,0.7,0.6
			l0.1,1C509.9,402.5,509.7,402.8,509.3,402.9z"/>
		<path class="st19" d="M342.1,474.7l-6.6,5.6c-4.1,3.6-7,8.6-8,14.2C330,494.7,341.6,494.4,342.1,474.7z"/>
		<g>
			<path class="st19" d="M401.8,512.8h15.5c2.9,0,5.4-1.8,6.3-4.4h-22.4C401.5,509.9,401.7,511.3,401.8,512.8z"/>
			<path class="st19" d="M424,467.9c-30.2,9.3-51.4,20-65.6,29c2.2,0,4.3,0,6.3,0c2.4,0,4.7,0,6.7,0c3.1-1.8,6.6-3.6,10.4-5.5
				c10.8-5.3,24.4-11,41.2-16.3c0.3-0.1,0.6-0.2,0.9-0.3c33.3-10.3,80.2-19.8,147.7-19.8l1.4-8.2C508.3,447.9,460.1,456.8,424,467.9
				z"/>
		</g>
		
			<linearGradient id="SVGID_10_" gradientUnits="userSpaceOnUse" x1="323.1685" y1="111.0664" x2="1484.0575" y2="223.0664" gradientTransform="matrix(1 0 0 -1 0 568)">
			<stop  offset="0" style="stop-color:#62C157"/>
			<stop  offset="1" style="stop-color:#00707C"/>
			<stop  offset="1" style="stop-color:#009D90"/>
		</linearGradient>
		<path class="st20" d="M578.8,409.1c0-3.7-3-6.8-6.8-6.8H440.2c-3.7,0-6.8,3-6.8,6.8l-3.9,24.5h-5.9h-28.8c-1.7,0-4.9,0.1-6.5,1.8
			l-46.1,39.4c-0.6,19.7-12.1,20-14.6,19.8c0,0.2-0.1,0.4-0.1,0.6c0.8,1,1.9,1.8,3.5,1.8c2,0,15.3,0,27.5,0
			c14.1-8.9,28.3-16,59.4-27l7.1-2.3c36-10.9,83.9-19.7,148.1-20.7L578.8,409.1z"/>
		<path class="st21" d="M389.2,440.5c-0.6,0-1.8,0-2.4,0.6l-19.4,16.5c-1.9,1.7-3.1,4.2-3.1,7v1.3c0,2,1.6,3.7,3.7,3.7h36.4
			c1.4,0,2.5-1.1,2.5-2.5l5-24.2c0-1.4-1.1-2.5-2.5-2.5L389.2,440.5L389.2,440.5z"/>
		<path class="st21" d="M356.2,473.8h-0.9c-0.6,0-1.1-0.5-1.1-1.1V459c0-0.6,0.5-1.1,1.1-1.1h0.9c0.6,0,1.1,0.5,1.1,1.1v13.7
			C357.3,473.3,356.8,473.8,356.2,473.8z"/>
		<path class="st21" d="M354.2,470.2c-2.1,0-3.8-1.7-3.8-3.8s1.7-3.8,3.8-3.8V470.2z"/>
		<polygon class="st22" points="396,469.6 408.1,460.7 409.1,456 390.5,469.6 		"/>
		<polygon class="st22" points="384.1,469.6 410.3,450.3 411.5,444.5 376.7,469.6 		"/>
		<path class="st18" d="M558.3,496.9H425.5c-3.7,0-43.3,0-43,0c0,0-50.5,0-51.7,0c-1.6,0-2.7-0.8-3.5-1.8c-0.2,1.4-0.4,2.8-0.4,4.3
			v11.4c0,3.7,3,6.8,6.8,6.8h219c3.7,0,6-0.9,7.4-7l2.5-13.4C562.7,493.4,562.1,496.9,558.3,496.9z"/>
		<path class="st16" d="M424,474.9c-0.3,0.1-0.6,0.2-0.9,0.3c-16.8,5.3-30.5,10.9-41.2,16.3c-3.8,1.9-7.3,3.7-10.4,5.5h10.8
			c2.2,0,9.2,4.1,13.7,11c0.2,0.3,0.6,0.5,1,0.5l24.5,0c0.6,0,1.1-0.5,1.1-1.1c0-0.6,1.5-9.2,1.5-9.2c0-0.6,0.5-1.1,1.1-1.1H559
			c4.4,0,7-3.5,7-7.9l5.7-33.9C506.6,455.1,459,464.1,424,474.9z"/>
		<path class="st21" d="M527.7,517.5h-36.2c0-10,8.1-18.1,18.1-18.1S527.7,507.5,527.7,517.5z"/>
		<path class="st21" d="M389.6,517.5h-36.2c0-10,8.1-18.1,18.1-18.1S389.6,507.5,389.6,517.5z"/>
		<circle class="st18" cx="371.5" cy="517.5" r="13.6"/>
		<circle class="st21" cx="371.5" cy="517.5" r="9.4"/>
		<circle class="st18" cx="371.5" cy="517.5" r="4.4"/>
		<circle class="st18" cx="509.6" cy="517.8" r="13.1"/>
		<circle class="st21" cx="509.6" cy="517.8" r="9"/>
		
			<ellipse transform="matrix(0.1602 -0.9871 0.9871 0.1602 -83.1893 937.8827)" class="st18" cx="509.6" cy="517.8" rx="4.3" ry="4.2"/>
		<path class="st4" d="M244.7,531h44.4c0.8,0,1.5,0.7,1.5,1.5l0,0c0,0.8-0.7,1.5-1.5,1.5h-44.4c-0.8,0-1.5-0.7-1.5-1.5l0,0
			C243.2,531.7,243.9,531,244.7,531z"/>
		<path class="st4" d="M593.7,531h20.7c0.8,0,1.5,0.7,1.5,1.5l0,0c0,0.8-0.7,1.5-1.5,1.5h-20.7c-0.8,0-1.5-0.7-1.5-1.5l0,0
			C592.2,531.7,592.8,531,593.7,531z"/>
		<path class="st4" d="M309.4,531h265.8c0.8,0,1.5,0.7,1.5,1.5l0,0c0,0.8-0.7,1.5-1.5,1.5H309.4c-0.8,0-1.5-0.7-1.5-1.5l0,0
			C307.9,531.7,308.6,531,309.4,531z"/>
		<polygon class="st22" points="516,397.9 530.2,387.5 529.8,383.8 509.5,398.6 		"/>
		<polygon class="st22" points="502.2,399.4 529.3,379.5 528.8,374.9 493.6,400.4 		"/>
	</g>
	<g id="Мужик_2">
		
			<ellipse transform="matrix(0.9532 -0.3025 0.3025 0.9532 -58.4275 193.7792)" class="st13" cx="596.4" cy="285.5" rx="13.3" ry="12.9"/>
		<polygon class="st13" points="598.8,272.6 623.5,280.8 615.6,302.2 591,294.6 		"/>
		
			<rect x="562.3" y="251.5" transform="matrix(0.2864 -0.9581 0.9581 0.2864 143.8791 747.6151)" class="st13" width="23.1" height="51.4"/>
		
			<rect x="623.3" y="275" transform="matrix(0.2813 -0.9596 0.9596 0.2813 172.3366 821.7507)" class="st23" width="23" height="41.6"/>
		<circle class="st23" cx="653" cy="298.7" r="13.6"/>
		<path class="st24" d="M746.9,348.8l-67.2,21.4L642,306.1c-4.5-7.7,1.6-18,12.8-21.6l66.2-20.9c11.4-3.6,22.4,1.5,22.8,10.6
			L746.9,348.8z"/>
		<path class="st25" d="M754.9,380.5l-55.2,22.9c-2.8,1.1-6-0.2-7.1-3L680.8,372c-1.2-2.8,0.2-6,3-7.1L739,342c2.8-1.1,6,0.2,7.1,3
			l11.8,28.4C759,376.2,757.6,379.3,754.9,380.5z"/>
		
			<rect x="672.2" y="316" transform="matrix(0.9531 -0.3027 0.3027 0.9531 -69.2103 230.0352)" class="st25" width="70.7" height="44.6"/>
		<path class="st25" d="M791.8,406.8l-18.3,15.4c-1.4,1.2-3.5,1-4.6-0.4l-43.8-52.1c-1.2-1.4-1-3.5,0.4-4.6l18.3-15.4
			c1.4-1.2,3.5-1,4.6,0.4l43.8,52.1C793.4,403.5,793.2,405.6,791.8,406.8z"/>
		<polygon class="st26" points="746.5,343.9 679.5,368.6 682.1,375.5 749,350.8 		"/>
		<polygon class="st25" points="733.1,347.4 736.5,346.2 739.7,354.9 736.4,356.1 		"/>
		<polygon class="st25" points="691.3,364.3 694.6,363 697.6,371 694.2,372.3 		"/>
		<path class="st25" d="M681.3,453l-20.8-11.7c-1.6-0.9-2.1-2.9-1.3-4.5l33.4-59.3c0.9-1.6,2.9-2.1,4.5-1.3l20.8,11.7
			c1.6,0.9,2.1,2.9,1.3,4.5l-33.4,59.3C684.8,453.3,682.8,453.9,681.3,453z"/>
		<path class="st17" d="M835.7,455.5L818,471.5c-1.3,1.2-3.4,1.1-4.6-0.3l-44.4-49.5c-1.2-1.4-1.1-3.4,0.3-4.6l17.8-15.9
			c1.3-1.2,3.4-1.1,4.6,0.3l44.4,49.5C837.2,452.3,837,454.3,835.7,455.5z"/>
		<path class="st17" d="M738.2,361.5l11.8-9.9c8.3,9.9,15.1,17.9,15.1,17.9C758.5,375,746.5,371.4,738.2,361.5z"/>
		<path class="st25" d="M745.3,460.7l-9.5,21.9c-0.7,1.7-2.7,2.4-4.3,1.7l-61.5-26.7c-1.7-0.7-2.4-2.7-1.7-4.3l9.5-21.9
			c0.7-1.7,2.7-2.4,4.3-1.7l61.5,26.7C745.2,457.1,746,459,745.3,460.7z"/>
		<path class="st26" d="M821.9,481.4c-7.4-3-10.8-11.9-7.6-19.8c3.2-7.9,11.8-11.8,19.3-8.8L821.9,481.4"/>
		<polyline class="st17" points="825,482.7 836.6,454.1 833.6,452.8 821.9,481.4 		"/>
		<path class="st26" d="M742,489.6c-8-0.1-14.4-7-14.3-15.4c0.1-8.4,6.6-15.1,14.6-15L742,489.6"/>
		<path class="st17" d="M705,386.9l-13.4-7.5c-6.3,11.3-11.5,20.4-11.5,20.4C687.5,404,698.6,398.2,705,386.9z"/>
		<polyline class="st25" points="745.3,489.6 745.5,459.2 742.3,459.2 742,489.6 		"/>
		
			<rect x="660.5" y="282.5" transform="matrix(0.9531 -0.3027 0.3027 0.9531 -61.4478 215.9425)" class="st25" width="10.8" height="47.5"/>
		
			<rect x="717.1" y="264.5" transform="matrix(0.9531 -0.3027 0.3027 0.9531 -53.5929 232.3719)" class="st25" width="11.6" height="49.1"/>
		<circle class="st27" cx="695" cy="303" r="1.9"/>
		<path class="st23" d="M686.8,307.7l-9.8,3.1c-1.1,0.3-2.2-0.3-2.5-1.3l0,0c-0.3-1.1,0.3-2.2,1.3-2.5l9.8-3.1
			c1.1-0.3,2.2,0.3,2.5,1.3l0,0C688.5,306.2,687.9,307.3,686.8,307.7z"/>
		<path class="st17" d="M721.6,316.5c3.2,10.1-2.4,20.9-12.5,24.1c-10.1,3.2-20.9-2.4-24.1-12.5"/>
		
			<ellipse transform="matrix(6.539733e-02 -0.9979 0.9979 6.539733e-02 414.9454 1072.1198)" class="st28" cx="779.8" cy="314.5" rx="11.7" ry="11.4"/>
		<polygon class="st28" points="769,322.1 748.1,304.5 764,286.7 784.9,304.2 		"/>
		<polygon class="st24" points="752.2,309.5 735.4,298.4 742.4,269.3 767.9,290.7 		"/>
		<polygon class="st28" points="724.5,305.7 781.7,303 780.6,325.8 732.2,328.1 		"/>
		<circle class="st25" cx="673.4" cy="442.5" r="15.2"/>
		<circle class="st25" cx="779.5" cy="410.5" r="15.2"/>
		<circle class="st13" cx="547.3" cy="266.7" r="14"/>
		<circle class="st28" cx="726.6" cy="315" r="14.2"/>
		<circle class="st24" cx="731" cy="273.7" r="15"/>
		<polygon class="st29" points="705,359.2 721,353.3 723.6,360.2 707.6,366.1 		"/>
		<path class="st13" d="M689.7,288.4L689.7,288.4c6-1.7,9.4-7.9,7.7-13.9l-4.5-15.5c-1.7-6-7.9-9.4-13.9-7.7l0,0
			c-6,1.7-9.4,7.9-7.7,13.9l4.5,15.5C677.5,286.6,683.7,290.1,689.7,288.4z"/>
		<path class="st23" d="M695.8,268.7l-5.2,19.5l5.9,5c1.4,1.2,3.6,0.4,3.9-1.4l3.9-22.6L695.8,268.7z"/>
		<path class="st23" d="M674.5,276l16,12.2l-1.5,7.6c-0.4,1.8-2.6,2.5-4,1.3l-17.3-16.3L674.5,276z"/>
		<path class="st28" d="M654.5,251.1c-0.7-6.7,2.5-13,7.8-16.4l4.7-14.3c3.9-14.5,9.7-17.3,18.1-15.9l4.9,0.8
			c8.4,1.4,19.3,9.3,17.4,21.6l-4.3,28.1c-1.4,9.1-9.4,15.5-17.8,14.1l-14.5-2.3c-0.1,0-0.2,0-0.3-0.1
			C662.3,266,655.4,259.6,654.5,251.1z"/>
		<path class="st30" d="M685.1,231.1c-1.4-0.4-1.3-2.5,0.1-2.8c1.5-0.3,3.1,0.1,4.5,1s2.2,2.4,2.4,3.9c0.2,1.5-1.7,2.2-2.6,1
			C688.4,232.6,686.9,231.6,685.1,231.1z"/>
		<path class="st30" d="M668.5,228.6c-1.3,0.7-2.7-0.8-1.9-2c0.9-1.3,2.3-2.2,3.9-2.4s3.2,0.2,4.5,1.1c1.2,0.9,0.3,2.8-1.1,2.5
			C671.9,227.4,670.2,227.6,668.5,228.6z"/>
		<circle class="st31" cx="683.5" cy="237.6" r="2.1"/>
		<circle class="st31" cx="670.5" cy="234.6" r="2.1"/>
		
			<ellipse transform="matrix(0.9943 -0.1063 0.1063 0.9943 -21.6342 76.4551)" class="st28" cx="706.4" cy="241.2" rx="6.7" ry="6.8"/>
		
			<ellipse transform="matrix(0.9943 -0.1063 0.1063 0.9943 -21.7346 76.3506)" class="st13" cx="705.3" cy="242.1" rx="2.7" ry="2.8"/>
		<g>
			<path class="st31" d="M670,262.4c-8.6-5-7.3-19.3-1.7-13.3c6.8,7.2,18.1,1.1,18.1,1.1c3.1-1.9,4.9,1.2,4,5
				c-2.2-0.6-4.6-0.8-7-0.5C677.9,255.2,673.1,258.1,670,262.4z"/>
			<path class="st32" d="M676.3,264.1c-2.5-0.1-4.6-0.7-6.3-1.7c3.1-4.2,7.9-7.2,13.5-7.8c2.4-0.3,4.8-0.1,7,0.5
				C689.6,259.3,685.4,264.3,676.3,264.1z"/>
		</g>
		<path class="st13" d="M677.7,242.8c-0.1-2.3-2.1-3.1-3.6-1.4c-1.6,1.9-3.2,4.2-2.3,5c1.6,1.5,4.8,1.4,5.4,0.7
			C677.5,246.8,677.7,244.8,677.7,242.8z"/>
		
			<linearGradient id="SVGID_11_" gradientUnits="userSpaceOnUse" x1="3835.4102" y1="488.7361" x2="3845.9714" y2="488.7361" gradientTransform="matrix(0.9897 0.1433 0.1433 -0.9897 -3168.2722 155.3628)">
			<stop  offset="0" style="stop-color:#19607C"/>
			<stop  offset="1" style="stop-color:#6295B4"/>
		</linearGradient>
		<path class="st33" d="M706.4,234.3L706.4,234.3c-4.2-0.6-9.5-7.5-8.9-11.7l1.8-12.7l8.8,12.6L706.4,234.3z"/>
		
			<linearGradient id="SVGID_12_" gradientUnits="userSpaceOnUse" x1="1240.7899" y1="2449.5532" x2="1238.2124" y2="2415.6763" gradientTransform="matrix(-0.9233 0.3841 0.3841 0.9233 880.7609 -2509.9436)">
			<stop  offset="0" style="stop-color:#19607C"/>
			<stop  offset="1" style="stop-color:#6295B4"/>
		</linearGradient>
		<path class="st34" d="M663.7,218.1c-0.9,4.8,7,6.6,11.5,4.8c4.5-1.9,6.6-7.1,4.7-11.6C679.9,211.3,664.2,215.3,663.7,218.1z"/>
		<path class="st24" d="M708,222.3c1.5-9.9-6.9-19.4-16.8-21c-11.1-1.8-20.4,3.4-22.5,13.5L708,222.3z"/>
		
			<linearGradient id="SVGID_13_" gradientUnits="userSpaceOnUse" x1="3766.603" y1="368.9521" x2="3765.0786" y2="348.9166" gradientTransform="matrix(0.9994 3.490000e-02 3.490000e-02 -0.9994 -3088.0313 442.7965)">
			<stop  offset="0" style="stop-color:#19607C"/>
			<stop  offset="1" style="stop-color:#6295B4"/>
		</linearGradient>
		<path class="st35" d="M693.7,215.1l-11.3-1.9c-1.1-0.2-1.9-1.2-1.7-2.3l0.2-1.1c0.2-1.1,1.2-1.9,2.3-1.7l11.3,1.9
			c1.1,0.2,1.9,1.2,1.7,2.3l-0.2,1.1C695.9,214.6,694.8,215.3,693.7,215.1z"/>
		<circle class="st24" cx="691.9" cy="203" r="3.2"/>
		<path class="st23" d="M678.9,216.7c0,0,20.2,16.7,35.7,15c10.9-1.2-6.5-9.4-6.5-9.4L678.9,216.7z"/>
	</g>
	<g id="мужик1">
		
			<rect x="307.6" y="209.3" transform="matrix(0.1073 -0.9942 0.9942 0.1073 42.1887 532.6489)" class="st13" width="20.2" height="67"/>
		<circle class="st13" cx="351.5" cy="246.2" r="10.4"/>
		
			<rect x="340.4" y="214.7" transform="matrix(0.6392 -0.769 0.769 0.6392 -39.6114 365.1702)" class="st13" width="57.9" height="20.3"/>
		<circle class="st23" cx="288.4" cy="237.8" r="12.3"/>
		
			<rect x="294.2" y="215.5" transform="matrix(0.1073 -0.9942 0.9942 0.1073 31.7729 517.9348)" class="st23" width="20.3" height="51.4"/>
		<path class="st36" d="M197.4,300.3l30.5,13.8c7.9,3.6,17.2,0.7,21.6-6.7l42.4-60.6c5-8.6,1.4-19.6-7.8-23.8l-55.5-25.1
			c-9.2-4.1-19.8,0.4-23,9.8l-17.4,71.9C185.5,287.8,189.5,296.7,197.4,300.3z"/>
		<path class="st17" d="M132.6,425.5l21.6,12.5c1.6,0.9,3.6,0.4,4.5-1.2l48.2-83.5c0.9-1.6,0.4-3.6-1.2-4.5l-21.6-12.5
			c-1.6-0.9-3.6-0.4-4.5,1.2L131.4,421C130.5,422.6,131.1,424.6,132.6,425.5z"/>
		<path class="st25" d="M141.8,324.8l31.5,30.8l32.9-2l7.5-8.7c2.8-2.9,3.1-6.5,0.1-9.4l-42.1-41.2c-3-2.9-7.9-2.8-10.7,0.1
			l-19.1,19.8C139,317.1,138.8,321.9,141.8,324.8z"/>
		<circle class="st27" cx="247.8" cy="238.7" r="2"/>
		<polygon class="st36" points="162.6,292.6 216.5,341.9 247.6,309.9 194.6,259.2 		"/>
		<polygon class="st26" points="165.7,289.4 218,340.3 213.4,345.3 160.9,294.4 		"/>
		
			<rect x="192.2" y="315.5" transform="matrix(0.6973 -0.7168 0.7168 0.6973 -172.4806 238.0512)" class="st29" width="6.8" height="15.5"/>
		<path class="st17" d="M75,496.3l19.6,15.5c1.4,1.1,3.5,0.9,4.6-0.5l56.8-71.6c1.1-1.4,0.9-3.5-0.5-4.6l-19.6-15.5
			c-1.4-1.1-3.5-0.9-4.6,0.5l-56.8,71.6C73.3,493.1,73.6,495.1,75,496.3z"/>
		<circle class="st17" cx="145.1" cy="428.7" r="15.8"/>
		
			<rect x="174.9" y="306" transform="matrix(0.6973 -0.7168 0.7168 0.6973 -166.4648 221.4264)" class="st25" width="8" height="3.7"/>
		
			<rect x="203.3" y="334" transform="matrix(0.6973 -0.7168 0.7168 0.6973 -177.9417 250.3949)" class="st25" width="8.4" height="3.7"/>
		<circle class="st28" cx="169.1" cy="156.3" r="10.8"/>
		
			<rect x="182.3" y="145" transform="matrix(0.7372 -0.6757 0.6757 0.7372 -71.4875 177.4487)" class="st28" width="20.1" height="71.3"/>
		<path class="st25" d="M72.4,375.6l-7.4,23.9c-0.5,1.7,0.4,3.6,2.2,4.1l88,27.1c1.7,0.5,3.6-0.4,4.1-2.2l7.4-23.9
			c0.5-1.7-0.4-3.6-2.2-4.1l-88-27.1C74.8,372.9,73,373.8,72.4,375.6z"/>
		<path class="st25" d="M147.4,422.6l22.8-0.6c2.5-0.1,4.5-2.1,4.5-4.6l-2.4-93.9c-0.1-2.5-2.2-4.5-4.7-4.4l-22.8,0.6
			c-2.5,0.1-4.7,0.4-4.7,0.4l2.6,98.2C142.7,420.7,144.8,422.7,147.4,422.6z"/>
		<path class="st23" d="M220.5,231.1l10.1,4.6c1.4,0.6,3.1,0,3.8-1.4l0,0c0.6-1.4,0-3.1-1.4-3.8l-10.1-4.6c-1.4-0.6-3.1,0-3.8,1.4
			l0,0C218.5,228.8,219.1,230.5,220.5,231.1z"/>
		<path class="st17" d="M182.4,321.3l-11.7-10.8c-8.2,8.8-14.8,16-14.8,16C162.4,332.4,174.3,330.1,182.4,321.3z"/>
		<circle class="st25" cx="159.2" cy="415.2" r="15.8"/>
		<circle class="st13" cx="388.8" cy="199.4" r="16.3"/>
		<path class="st26" d="M65.1,414c9.4,2.8,19.4-3,22.4-12.9S85.4,380.8,76,378L65.1,414"/>
		<polyline class="st25" points="61.2,412.8 72.1,376.8 76,378 65.1,414 		"/>
		<path class="st26" d="M86.4,529.4c9.4-2.3,15.1-12.3,12.7-22.2c-2.4-10-12.1-16.1-21.5-13.8L86.4,529.4"/>
		<polyline class="st17" points="82.6,530.4 73.8,494.3 77.7,493.4 86.5,529.4 		"/>
		
			<rect x="141.8" y="120.4" transform="matrix(9.479965e-02 -0.9955 0.9955 9.479965e-02 24.5587 288.1912)" class="st28" width="57.9" height="20.3"/>
		<circle class="st28" cx="179.3" cy="101.6" r="15.8"/>
		
			<rect x="191.4" y="164.8" transform="matrix(0.7345 -0.6786 0.6786 0.7345 -75.8308 187.3244)" class="st36" width="20.3" height="51.4"/>
		<circle class="st36" cx="214.5" cy="202" r="12.3"/>
		
			<linearGradient id="SVGID_14_" gradientUnits="userSpaceOnUse" x1="1198.1915" y1="541.3474" x2="1194.2095" y2="524.3436" gradientTransform="matrix(-0.9429 0.3332 -0.3332 -0.9429 1571.8708 272.0358)">
			<stop  offset="0" style="stop-color:#19607C"/>
			<stop  offset="1" style="stop-color:#6295B4"/>
		</linearGradient>
		<path class="st37" d="M247.1,173.3c4.4,13.1,16.3,21,26.6,17.5c10.2-3.5,15-16.9,10.5-30.1s-16.3-21-26.6-17.5
			C247.4,146.7,242.7,160.1,247.1,173.3z"/>
		
			<linearGradient id="SVGID_15_" gradientUnits="userSpaceOnUse" x1="1310.7782" y1="511.5149" x2="1321.0931" y2="477.4146" gradientTransform="matrix(-0.8902 0.4557 -0.4557 -0.8902 1650.0267 5.5776)">
			<stop  offset="0" style="stop-color:#19607C"/>
			<stop  offset="1" style="stop-color:#6295B4"/>
		</linearGradient>
		<path class="st38" d="M235.8,177.3c4.4,13,16.3,20.8,26.5,17.3c10.2-3.5,15-16.8,10.6-29.9c-4.4-13-16.3-20.8-26.5-17.3
			C236.1,151,231.4,164.3,235.8,177.3z"/>
		
			<ellipse transform="matrix(0.3258 -0.9454 0.9454 0.3258 -39.2519 388.69)" class="st28" cx="252.9" cy="221.9" rx="9.9" ry="11.9"/>
		<path class="st13" d="M252,223.3L252,223.3c-5.6-1.9-8.6-8-6.6-13.6l4.8-14c1.9-5.6,8-8.6,13.6-6.6l0,0c5.6,1.9,8.6,8,6.6,13.6
			l-4.8,14C263.7,222.3,257.6,225.2,252,223.3z"/>
		<path class="st23" d="M243.6,246.6l1.4,0.5c1.5,0.5,3,0.3,3.3-0.6l4.5-13c0.3-0.9,2.3-1.4,0.8-2l-7.3-2.5
			c-1.5-0.5-0.1,1.2-0.4,2.1l-4.5,13C241,245,242,246.1,243.6,246.6z"/>
		<path class="st28" d="M269,210.9l11.4-4.1c8.6-2.9,13.3-12.3,10.3-21l-10.6-26.1c-2.9-8.7-12.3-13.3-20.9-10.4l-7.3,2.8
			c-8.6,2.9-13.3,12.3-10.3,21l7.9,26.7C252.5,208.5,260.4,213.9,269,210.9z"/>
		<circle class="st28" cx="243.8" cy="187.3" r="6.6"/>
		<circle class="st13" cx="243.4" cy="187.9" r="2.6"/>
		<circle class="st39" cx="246.8" cy="240.1" r="2.1"/>
		<path class="st23" d="M247.4,233.1c0,0-4.9-10.3-0.9-27C246.4,206,220.5,221.2,247.4,233.1z"/>
		<path class="st23" d="M266.2,215c-8.8,14.8-17.3,18.6-17.3,18.6C277.2,244,266.2,215.1,266.2,215"/>
		
			<linearGradient id="SVGID_16_" gradientUnits="userSpaceOnUse" x1="1537.0396" y1="465.7468" x2="1562.1761" y2="440.6099" gradientTransform="matrix(-0.734 0.6792 -0.6792 -0.734 1703.2866 -563.3758)">
			<stop  offset="0" style="stop-color:#19607C"/>
			<stop  offset="1" style="stop-color:#6295B4"/>
		</linearGradient>
		<path class="st40" d="M279.3,143.1l-14.7-1.5c-14.9-1.5-28.2,9.3-29.7,24.1l0,0c-0.1,1.2,0.8,2.3,2,2.5l14.7,1.5
			c14.9,1.5,28.2-9.3,29.7-24.1l0,0C281.5,144.3,280.6,143.2,279.3,143.1z"/>
		
			<linearGradient id="SVGID_17_" gradientUnits="userSpaceOnUse" x1="1795.3813" y1="492.3531" x2="1815.9189" y2="471.8155" gradientTransform="matrix(-0.518 0.8554 -0.8554 -0.518 1598.3884 -1140.7415)">
			<stop  offset="0" style="stop-color:#19607C"/>
			<stop  offset="1" style="stop-color:#6295B4"/>
		</linearGradient>
		<path class="st41" d="M264.4,138.8l-11.9,2.1c-12,2.1-20,13.6-17.9,25.7l0,0c0.2,1,1.1,1.7,2.1,1.5l11.9-2.1
			c12-2.1,20-13.6,17.9-25.7l0,0C266.3,139.2,265.4,138.6,264.4,138.8z"/>
		<path class="st30" d="M262.9,174.2c1.2-0.5,0.6-1.8-0.6-1.9c-2.6-0.1-8.1,1.6-5.8,4.7C259,180.3,257.7,176.3,262.9,174.2z"/>
		<path class="st30" d="M272.7,168.5c-1.1,0.7-1.9-0.6-1.1-1.7c1.5-2.2,6.4-5.6,7.5-1.8C280.1,169.1,277.7,165.6,272.7,168.5z"/>
		<path class="st13" d="M274.3,178.5c1.6,2.1,6.9,7.7,0.3,11.5S266.3,167.6,274.3,178.5z"/>
		<circle class="st31" cx="264.2" cy="180.1" r="2"/>
		<circle class="st31" cx="277.9" cy="172.9" r="2"/>
		<path class="st13" d="M270.3,202.9c-1,0.3-1.2,1.6-0.5,2.3c1.1,1.1,2.8,1.5,4.4,0.9s2.6-1.9,2.9-3.5c0.1-1-0.8-1.8-1.8-1.5
			L270.3,202.9z"/>
		<g>
			<path class="st31" d="M257.4,196.3c-6-6.5,5.4-0.8,11.6-1.4c6.6-0.7,14.2-5,9.8,1.4c-0.5,0.8-2.1,2.6-4.3,4
				C269.4,197,263.4,195.5,257.4,196.3z"/>
			<path class="st32" d="M259.2,198.1c-0.8-0.7-1.4-1.3-1.9-1.9c6-0.8,12.1,0.7,17,4C270.7,202.6,265.2,203.9,259.2,198.1z"/>
		</g>
	</g>
	<g id="рубль">
		<circle class="st27" cx="384.4" cy="126.6" r="76.2"/>
		<circle class="st19" cx="384.4" cy="126.6" r="66.6"/>
		<g>
			<path class="st42" d="M327.6,135.4l3.5-4.6c2.2,2.3,5.7,3.6,8.8,3.6c3.9,0,6-1.7,6-4.1c0-2.5-2-3.7-6.4-3.7c-1.3,0-3.5,0.1-4,0.1
				v-6.1c0.6,0.1,2.8,0.1,4,0.1c3.5,0,5.9-1.1,5.9-3.4c0-2.5-2.6-3.8-6-3.8c-3.1,0-5.9,1.2-8.1,3.3l-3.4-4.3
				c2.6-2.9,6.6-5.1,12.2-5.1c7.5,0,12.1,3.4,12.1,8.7c0,4-3.5,6.7-7,7.3c3.3,0.3,7.5,2.9,7.5,7.7c0,5.5-4.9,9.4-12.6,9.4
				C334.3,140.6,329.9,138.3,327.6,135.4z"/>
			<path class="st42" d="M358,137.2l3-5.2c1.7,1.6,3.5,2.5,6.4,2.5c5.3,0,8-4.4,8-9c0-0.2,0-0.5,0-0.7c-1.5,2.2-4.8,4.1-8.3,4.1
				c-5.8,0-11-3.6-11-10.4c0-6.2,5-11,12.3-11c9.7,0,13.8,7.5,13.8,16.6c0,9.6-5.4,16.5-14.9,16.5
				C363.5,140.5,360.2,139.3,358,137.2z M375.4,120.1c-0.3-3.1-2-6.5-6.5-6.5c-3.6,0-5.7,2.5-5.7,4.7c0,3.4,2.9,4.8,5.9,4.8
				C371.5,123,373.8,121.9,375.4,120.1z"/>
			<path class="st42" d="M421.7,137v11.8h-6.1v-32h6.1v2.9c1.8-2.3,4.3-3.5,7.1-3.5c6,0,10.3,4.4,10.3,12.2s-4.3,12.2-10.3,12.2
				C426.1,140.6,423.6,139.4,421.7,137z M432.8,128.4c0-4-2.4-6.7-5.9-6.7c-2,0-4.2,1.2-5.2,2.6v8.2c1,1.4,3.3,2.6,5.2,2.6
				C430.5,135.1,432.8,132.4,432.8,128.4z"/>
		</g>
	</g>
	<circle class="st27" cx="698.4" cy="314" r="1.9"/>
</g>
<g id="_x32_._Подача_за_15_минут">
	<g id="Задник_1_">
	</g>
	<g id="Машина_1">
	</g>
	<g id="Машина_2">
	</g>
	<g id="Машина_3">
	</g>
	<g id="Машина_4">
	</g>
	<g id="_x31_5_минут">
	</g>
</g>
<g id="_x33_._Планируйте_заранее">
	<g id="Задник_2_">
	</g>
	<g id="Рубли">
	</g>
	<g id="Папа">
	</g>
	<g id="Коробка">
		<g id="Слой_13">
		</g>
		<g id="Слой_6">
		</g>
	</g>
	<g id="Девочка">
	</g>
</g>
<g id="_x34_._Оценка_груза">
	<g id="Задник_3_">
	</g>
	<g id="Вещи">
	</g>
	<g id="Девочка_1_">
	</g>
	<g id="Кот">
	</g>
	<g id="Грузчик">
	</g>
	<g id="Мамка_1_">
	</g>
</g>
<g id="_x35_._Мобильные_перевозки">
	<g id="Задник_4_">
	</g>
	<g id="Машинка">
	</g>
	<g id="Девочка_2_">
	</g>
	<g id="Мамка">
	</g>
</g>
<g id="_x36_._Автопарк">
	<g id="Задник_5_">
	</g>
</g>
<g id="Слой_19">
</g>
<g id="all_shit">
</g>
<g id="Кв._переезд">
</g>
<g>
	<path class="st42" d="M385.8,124.1c0-8.3,4.1-16.5,13.2-16.5c9.1,0,13.2,8.3,13.2,16.5s-4.1,16.6-13.2,16.6
		C389.8,140.7,385.8,132.4,385.8,124.1z M405.3,124.1c0-5.9-1.7-10.5-6.3-10.5c-4.6,0-6.3,4.6-6.3,10.5c0,5.9,1.7,10.5,6.3,10.5
		C403.6,134.6,405.3,130,405.3,124.1z"/>
</g>
</svg>
