<svg xmlns="http://www.w3.org/2000/svg" xmlns:xlink="http://www.w3.org/1999/xlink" viewBox="0 0 910 567"><style>.st2{fill:#fff}.st5{fill:#cde4f7}.st8{fill:#f09976}.st9{fill:#0b2b46}.st10{fill:#ffda35}.st22{fill:#02819f}.st92{fill:#ecf7fe}.st101{fill:#e29205}.st122{fill:#e08f73}.st125{fill:#047487}.st133{fill:#e8c534}.st134{fill:#2a0d3d}</style><g id="Грузики"><ellipse cx="455.37" cy="501.34" rx="454.63" ry="65.13" fill="#eaf1fc"/><path d="M850.39 492.39c58.75-122.08 91.08-355.74-36.18-433.3-83.3-50.77-170.06 14.54-259.14 17.53C485.17 78.97 417.77 23.76 354.7 8 189.42-33.3-70.57 74.1 43.75 492.4c285.84-.82 520.81.8 806.64-.01z" fill="#f8f8ff"/><path class="st5" d="M490.94 499.29c.47-1.13.8-2.31.98-3.53l.01-.03h-.01c.17-1.16.2-2.35.07-3.58-1.29-11.78-15.9-16.78-27.74-16.45-11.84.34-24.81 3.02-34.72-3.46-12.32-8.05-13.11-25.47-19.67-38.65-11.44-23-45.05-31.18-65.79-16.01-.03-19.96-15.75-38.77-35.39-42.35-19.64-3.57-40.98 8.5-48.04 27.17 1.41-17.02-18.9-22.73-31.58-17.47-16.77 6.96-21.6 25.97-27.18 41.26-10.23-12.67-34.52-17.92-31.45 3.39 1.07 7.43 4.23 15.12 8.83 22.76-6.89.05-13.77 3.31-17.92 9.83-6.22-17.1-30.47-17.68-37.51-.91 2.84-10.89-7-20.88-17.85-18.39-28.28 6.49-19.62 25.9-1.33 48.12-15.62-13.32-47.38 3.2-50.1 20.94h432.88l3.51-12.64z"/><path class="st92" d="M486.22 489.15c60-32.22 57.72-96.43 162.39-40.63 92.37 49.25 70.86-46.65 131.31-29.79 27.18 7.58 105.1 93.26 105.81 93.91h-522c49.77-14.89 86.95-4.41 122.49-23.49z"/><path d="M94.33 161.82c10.72-14.86 18.34-25.14 46.67-25.14 16.82 0 43.81 21.11 60.52 19.15 11.8-1.38 23.11-10.72 34.34-6.86 5.46 1.88 8.95 7.19 9.8 12.85H94.33zm289.93-32.42l-42.72-17.52c-11.93-4.89-26.84-9.38-36.63-1-6.08 5.21-10.06 15.13-18.04 14.43-11.24-.97-18.75-26.36-31.5-9.52-4.38 5.78-2.93 12.36.73 17.85h135.6c-2.03-1.86-4.84-3.17-7.44-4.24zm297.66 16.31c9.98-13.83 17.07-23.4 43.45-23.4 15.66 0 40.79 19.65 56.34 17.83 10.98-1.28 21.51-9.98 31.97-6.39 5.09 1.75 8.33 6.69 9.12 11.96H681.92z" fill="#e3f4ff"/><path class="st5" d="M670.21 531.02h-34.84c0-3.53 2.87-6.4 6.4-6.4h22.04a6.4 6.4 0 016.4 6.4z"/><path class="st5" d="M658.54 485.12h-10.83c-1.18 0-2.15.87-2.2 1.97l-1.8 39.07h17.93l-.9-39.03c-.03-1.12-1-2.01-2.2-2.01z"/><path class="st5" d="M658.65 485.67h-11.71c-1.03 0-1.87-.84-1.87-1.87v-10.71c0-1.03.84-1.87 1.87-1.87h11.71c1.03 0 1.87.84 1.87 1.87v10.71c0 1.03-.84 1.87-1.87 1.87z"/><path class="st5" d="M650.53 351.28h4.51v120.04h-4.51z"/><path class="st5" d="M662.38 354.15h-19.31c-1.56 0-2.83-1.19-2.83-2.65s1.27-2.65 2.83-2.65h19.31c1.56 0 2.83 1.19 2.83 2.65s-1.26 2.65-2.83 2.65z"/><path class="st2" d="M662.23 348.85h-18.88l-2.98-27.62h24.85z"/><path class="st5" d="M666.83 322.59h-28.07c-1.56 0-2.83-1.19-2.83-2.65s1.27-2.65 2.83-2.65h28.07c1.56 0 2.83 1.19 2.83 2.65 0 1.47-1.27 2.65-2.83 2.65zm-11.15-14.29h-5.78v-2.7c0-1.49 1.29-2.7 2.89-2.7s2.89 1.21 2.89 2.7v2.7z"/><path class="st5" d="M668.13 317.96H637.7c0-6.03 4.89-10.92 10.92-10.92h8.59c6.02 0 10.92 4.89 10.92 10.92zM317.55 452.1h5.6v66.03h-5.6zm-132.54 0h5.6v66.03h-5.6z"/><path class="st92" d="M170.88 499.86h166.4v6.33h-166.4zm160.84-4.88H176.45c-3.07 0-5.57-2.49-5.57-5.57 0-3.07 2.49-5.57 5.57-5.57h155.27c3.07 0 5.57 2.49 5.57 5.57s-2.5 5.57-5.57 5.57zm0-14.29H176.45c-3.07 0-5.57-2.49-5.57-5.57 0-3.07 2.49-5.57 5.57-5.57h155.27c3.07 0 5.57 2.49 5.57 5.57s-2.5 5.57-5.57 5.57zm0-14.29H176.45c-3.07 0-5.57-2.49-5.57-5.57s2.49-5.57 5.57-5.57h155.27c3.07 0 5.57 2.49 5.57 5.57s-2.5 5.57-5.57 5.57z"/><path class="st5" d="M819.29 355.67c-.26-1.15-.57-2.32-1.23-3.29-.98-1.42-2.64-2.27-3.52-3.75-.78-1.31-.83-2.91-.86-4.43-.18-9.09-.79-18.15-10.19-23-1.6-.83-3.36-1.42-4.73-2.59-3.24-2.77-3.26-7.63-4.15-11.8-1.66-7.78-7.57-16.66-16.07-15.18-.38.07-.76.15-1.15.26-8.45 2.35-16.59 8.95-16.9 18.3-.06 1.9.17 3.85-.39 5.67-1.38 4.5-6.57 6.76-8.88 10.71-2.84 4.83-5.26 10.99-7.29 16.27-.86 2.25-1.64 4.59-1.56 6.99.13 4 2.6 7.68 2.59 11.68-.01 3.67-2.09 6.95-3.45 10.35-2.99 7.44-1.36 14.56-.93 22.21.41 7.09.99 14.14 2.43 21.11 1.95 9.44 5.22 18.94 11.14 26.67 5.74 7.5 14.45 13.46 24.13 13.92.52.03 1.06.05 1.58.01 0 0 39.93 3.42 40.5-69.99.06-10.31 1.3-19.8-1.07-30.12z"/><path class="st2" d="M785.87 531.14h-9.62l3.16-117.7 1.42-2.94z"/><path class="st5" d="M502.81 354.87c-.26-1.15-.57-2.32-1.23-3.29-.98-1.42-2.64-2.27-3.52-3.75-.78-1.31-.83-2.91-.86-4.43-.18-9.09-.79-18.15-10.19-23-1.6-.83-3.36-1.42-4.73-2.59-3.24-2.77-3.26-7.63-4.15-11.8-1.66-7.78-7.57-16.66-16.07-15.18-.38.07-.76.15-1.15.26-8.45 2.35-16.59 8.95-16.9 18.3-.06 1.9.17 3.85-.39 5.67-1.38 4.5-6.57 6.76-8.89 10.71-2.84 4.83-5.26 10.99-7.29 16.27-.86 2.25-1.64 4.59-1.56 6.99.13 4 2.6 7.68 2.59 11.68-.01 3.67-2.09 6.95-3.45 10.35-2.99 7.44-1.36 14.56-.93 22.21.41 7.09.99 14.14 2.43 21.11 1.95 9.44 5.22 18.94 11.14 26.67 5.74 7.5 14.45 13.46 24.13 13.92.52.02 1.06.05 1.58.01 0 0 39.93 3.42 40.5-69.99.06-10.31 1.31-19.8-1.06-30.12z"/><path class="st2" d="M469.39 530.34h-9.62l3.15-117.7 1.43-2.94z"/></g><g id="Layer_17"><path d="M207 541.24c-5.46-36.4-67.49-119.83-72.49-154.4-7.73-53.4 49.47-43.16 73.1-15.88 43.91 50.71 22.14 170.73 22.14 170.73l-22.75-.45z" fill-rule="evenodd" clip-rule="evenodd" fill="#ffc"/><path d="M100.7 459.75c-20.96-67.65 80.63-48.42 99.63 77.34l-27.3 5c-13.19-30.48-62.32-50.04-72.33-82.34z" fill-rule="evenodd" clip-rule="evenodd" fill="#ffe89c"/><path d="M159.16 541.91c-51.18-49.2-11.2-52.37 1.71-27.11-10.01-38.6 20.15-46.83 27.53 2.77-1.2-48.77 33.97-47.59 21.24 2.33 7.55-15.1 21.95-20.27 25.95-14.16 3.04 4.65-8.14 36.18-16.54 36.18h-59.89z" fill-rule="evenodd" clip-rule="evenodd" fill="#ffac00"/><path d="M298.6 537.82h-26.9c-21.36 0-38.68-17.32-38.68-38.68s17.32-38.68 38.68-38.68h26.9c21.36 0 38.68 17.32 38.68 38.68.01 21.36-17.31 38.68-38.68 38.68z" fill="#ffac00"/><path class="st101" d="M293.7 463.99s33.98 36.33 5.13 60.27c-28.86 23.93 20.3-9.2-5.13-60.27z"/><path class="st101" d="M305.45 463.99s41.89 15.81 12.26 58.99c-23.45 34.18 22.15-32.71-12.26-58.99zm-24.79.89s-33.98 36.33-5.13 60.27-20.3-9.19 5.13-60.27z"/><path class="st101" d="M268.91 464.88s-41.89 15.81-12.26 58.99c23.45 34.19-22.15-32.7 12.26-58.99z"/><path d="M295.03 549.14l-72.05.12c-15.14-37.8-5.63-79.44 16-74.49 21.63 4.95 8.11 53.6 8.11 53.6s20.24-35.98 30.46-31.43c10.22 4.55 4.22 34.02 4.22 34.02 21.59-24.09 59.31.92 13.26 18.18zm-12-86.07s2.76 1.73 6.11.03c3.35-1.7-1.73-7.5 4.39-11.78 6.12-4.27-3.69-8.08-4.85-7.85-1.16.24-9 4.82-5.65 19.6z" fill-rule="evenodd" clip-rule="evenodd" fill="#b6c267"/><ellipse transform="rotate(-64.724 290.573 447.635)" cx="290.6" cy="447.66" rx="2.81" ry="4.29" fill-rule="evenodd" clip-rule="evenodd" fill="#98a050"/><path class="st2" d="M266.18 553.69l-11.99-9.14c-.9-.69-.8-2.07.18-2.62l5.2-2.92 5.2-2.92c.98-.55 2.21.08 2.33 1.2l1.59 14.99c.15 1.37-1.42 2.25-2.51 1.41z"/><path d="M257.09 534.6c-.39.22-.53.72-.31 1.12l2.56 4.55c.22.39.72.53 1.12.31.39-.22.53-.72.31-1.12l-2.56-4.55a.827.827 0 00-1.12-.31z" fill="#d3d3d3"/><path class="st9" d="M251.05 521.74l-1.81 1.02c-.43.24-.59.79-.34 1.23l7.36 12.45c.24.43.79.59 1.23.34l1.26-.71c.43-.24.59-.79.34-1.23l-6.81-12.75c-.25-.44-.8-.6-1.23-.35z"/><path transform="rotate(-180 541.978 512.886)" class="st133" d="M521.4 498.19h41.15v29.4H521.4z"/><path class="st9" d="M531.44 484.84c0 1.93.78 3.67 2.05 4.94 1.26 1.26 3 2.04 4.93 2.04h12c3.86 0 6.99-3.13 6.99-6.98 0-1.93-.78-3.67-2.05-4.94a6.968 6.968 0 00-4.94-2.04h-12c-2.93 0-5.43 1.8-6.47 4.35-.32.8-.51 1.7-.51 2.63z"/><path class="st10" d="M565.25 504.31v-19.35h-34.66c-8.19 0-14.82 6.64-14.82 14.82v5.76l49.48-1.23z"/><path class="st9" d="M506.46 526.57h24.99v-22.5c0-4.87-3.95-8.82-8.82-8.82h-7.35c-4.87 0-8.82 3.95-8.82 8.82v22.5z"/><path class="st10" d="M489.56 526.6v15.44h93.33v-35.28l-3.22.69z"/><path class="st133" d="M489.56 526.76v15.28h93.33v-35.28l-3.22.69c-14.4 7.14-39.61 17.88-58.27 21.77-17.92 3.73-27.52.21-31.84-2.46z"/><path class="st22" d="M573.58 512.89v22.29s21.51-1.09 42.94-6.41c20.42-5.05 40.75-13.94 42.31-29.36 1.37-13.59 1.57-24.41 1.33-32.34-.3-10.51-1.33-15.92-1.33-15.92l-85.25 61.74z"/><path class="st9" d="M568.93 519.39c.58 0 1.17-.18 1.68-.55l94.31-69.33a2.83 2.83 0 00.6-3.96 2.84 2.84 0 00-3.96-.61l-94.31 69.33a2.84 2.84 0 00-.61 3.96c.56.76 1.42 1.16 2.29 1.16z"/><path class="st22" d="M559.39 479.93v29.57l5.65-3.44 10.74-6.53v-19.61c0-2.95-2.4-5.36-5.36-5.36h-5.68c-.26 0-.52.02-.77.06-2.58.39-4.58 2.62-4.58 5.31z"/><circle class="st9" cx="588.11" cy="522.6" r="23.52"/><path class="st10" d="M571.62 522.6c0 4.36 1.69 8.33 4.46 11.27 3 3.22 7.28 5.22 12.03 5.22 9.11 0 16.49-7.38 16.49-16.5 0-6.43-3.69-12.02-9.08-14.73a16.33 16.33 0 00-7.42-1.76c-9.1.01-16.48 7.4-16.48 16.5z"/><circle class="st134" cx="588.11" cy="522.6" r="8.08"/><path class="st9" d="M478.04 533.71c0 7.22 5.85 13.06 13.06 13.06 7.22 0 13.07-5.85 13.07-13.06 0-7.22-5.85-13.07-13.07-13.07-7.21 0-13.06 5.85-13.06 13.07z"/><path class="st10" d="M481.94 533.71c0 5.06 4.1 9.16 9.16 9.16 5.06 0 9.16-4.1 9.16-9.16 0-5.06-4.1-9.16-9.16-9.16-5.05-.01-9.16 4.1-9.16 9.16z"/><path class="st134" d="M486.61 533.71a4.49 4.49 0 108.98 0 4.49 4.49 0 00-8.98 0z"/><path class="st9" d="M552.02 521.11c.64 0 1.29-.22 1.82-.66l139.07-116.43-22.56-28.13a2.83 2.83 0 00-3.98-.44 2.83 2.83 0 00-.44 3.98l19.09 23.8L550.2 516.1a2.827 2.827 0 00-.35 3.99c.56.67 1.36 1.02 2.17 1.02z"/><path class="st9" d="M547.58 518.32c0 2.67 2.17 4.84 4.84 4.84s4.84-2.17 4.84-4.84-2.17-4.84-4.84-4.84-4.84 2.17-4.84 4.84z"/><path class="st122" d="M675.98 381.22c.27.49 1.53.42 3.62-.08 1.04-.25 2.29-.61 3.72-1.07 1.43-.46 3.05-1.02 4.82-1.69 1.77-.66 3.7-1.44 5.76-2.32 2.05-.9 4.24-1.9 6.51-3.07 2.27-1.16 4.63-2.46 7.01-3.97 2.38-1.5 4.82-3.17 7.19-5.09 2.39-1.92 4.61-3.98 6.61-6.12 1.99-2.15 3.75-4.4 5.28-6.66.73-1.16 1.46-2.27 2.07-3.43.31-.58.62-1.13.9-1.7.27-.58.53-1.14.78-1.7.26-.55.48-1.12.68-1.68.21-.56.41-1.11.6-1.65.33-1.11.65-2.16.87-3.2.45-2.07.65-3.99.65-5.68-.02-.85-.06-1.64-.15-2.37-.12-.74-.26-1.4-.42-2-.08-.3-.17-.58-.27-.84a8.57 8.57 0 00-.34-.74 5.84 5.84 0 00-.77-1.16c-.54-.63-1.15-.96-1.81-1.01-.65-.05-1.32.19-1.98.64-.33.23-.66.51-.98.84-.16.17-.32.34-.48.53-.17.19-.34.39-.52.6-.34.42-.68.89-1.01 1.39-.36.5-.73 1.04-1.08 1.61-.74 1.14-1.52 2.42-2.37 3.81-.42.7-.9 1.41-1.34 2.17-.25.37-.49.75-.74 1.13-.24.39-.48.78-.76 1.18-.27.39-.53.8-.79 1.21-.27.41-.57.81-.85 1.24-.55.85-1.2 1.68-1.8 2.57-1.29 1.73-2.67 3.54-4.18 5.39-1.53 1.83-3.18 3.7-4.96 5.57-1.78 1.89-3.64 3.68-5.47 5.41-1.83 1.73-3.68 3.36-5.47 4.91-1.78 1.56-3.54 3.01-5.19 4.39-1.67 1.37-3.22 2.65-4.65 3.82-1.43 1.18-2.73 2.25-3.86 3.23a63.18 63.18 0 00-2.86 2.58c-1.5 1.5-2.24 2.52-1.97 3.01z"/><defs><path id="XMLID_56_" d="M797.42 503.98s-1.52 8.9-9.48 7.31l-6.7 31.62 28.33-34.27-12.15-4.66z"/></defs><use xlink:href="#XMLID_56_" overflow="visible" fill="#0b2b46"/><clipPath id="XMLID_2_"><use xlink:href="#XMLID_56_" overflow="visible"/></clipPath><path d="M777.58 533.21s8.3-7.36 18.23 2.04l-16.18 11.23-2.05-13.27z" clip-path="url(#XMLID_2_)" fill="#fff"/><path class="st2" d="M784.98 544.49l26.84-32.48c.41-.5.34-1.23-.16-1.64l-2.1-1.73-28.33 34.27 2.1 1.73c.51.41 1.24.34 1.65-.15zm6.47-25.85a.79.79 0 01-.38.09c-2.85-.13-4.82.49-4.84.49a.697.697 0 01-.89-.47c-.1-.38.14-.79.51-.92.09-.03 2.22-.7 5.35-.56.4.02.69.36.65.76-.01.27-.17.49-.4.61zm-.93 3.95a.79.79 0 01-.38.09c-2.85-.13-4.82.49-4.84.49a.697.697 0 01-.89-.47c-.1-.38.13-.8.51-.92.09-.03 2.22-.7 5.35-.56.4.02.69.36.65.76-.02.27-.18.5-.4.61zm-.94 3.96a.79.79 0 01-.38.09c-2.84-.13-4.82.49-4.84.49a.697.697 0 01-.89-.47c-.1-.38.13-.8.51-.92.09-.03 2.22-.7 5.35-.56.4.02.69.36.65.76-.02.26-.18.49-.4.61z"/><defs><path id="XMLID_55_" d="M706.79 529.33s-7.71 4.7-11.74-2.36l-28.25 15.69 44.45-1.12-4.46-12.21z"/></defs><use xlink:href="#XMLID_55_" overflow="visible" fill="#0b2b46"/><clipPath id="XMLID_3_"><use xlink:href="#XMLID_55_" overflow="visible"/></clipPath><path d="M671.71 533.54s11 1.43 10.42 15.1l-19.09-4.84 8.67-10.26z" clip-path="url(#XMLID_3_)" fill="#fff"/><path class="st2" d="M668.36 546.52l41.52-1.04c.81-.02 1.45-.69 1.43-1.5l-.06-2.42-44.45 1.12.06 2.42c.02.8.69 1.44 1.5 1.42zm23.45-12.07a.703.703 0 01-.31-.23c-1.77-2.23-3.53-3.32-3.54-3.33a.679.679 0 01-.22-.98c.22-.33.69-.42 1.03-.22.08.05 1.99 1.22 3.93 3.67.25.31.18.76-.15.99-.23.17-.5.19-.74.1zm-3.6 1.89a.703.703 0 01-.31-.23c-1.77-2.23-3.53-3.32-3.54-3.33a.679.679 0 01-.22-.98c.22-.33.69-.42 1.03-.22.08.05 1.99 1.22 3.93 3.67.25.31.18.76-.15.99-.22.16-.5.19-.74.1zm-3.6 1.88a.703.703 0 01-.31-.23c-1.77-2.23-3.53-3.31-3.54-3.33a.679.679 0 01-.22-.98c.22-.33.69-.42 1.03-.22.08.05 1.99 1.22 3.93 3.67.25.31.18.76-.15.99-.22.17-.5.19-.74.1zm34.03-190.63c-1.47 12.59-1.59 25.22-1.5 37.87 11.83 4.52 24.72 5.85 37.32 4.47 1.31-12.79 2.63-25.58 3.16-38.42.28-6.76.33-13.63-1.33-20.16-1.49-5.85-4.51-11.46-9.15-15.08-.54-.42-1.1-.82-1.68-1.18-2.92 2.24-8.93 2.87-12.14 1.18-1.8 1.09-3.41 2.44-4.85 3.99-2.59 2.79-4.59 6.22-6.01 9.81-2.2 5.56-3.12 11.56-3.82 17.52z"/><path class="st8" d="M728.65 319.87c3.17.95 6.57 1.12 9.81.45 1.74-.36 3.43-.95 5.01-1.76 1.25-.63 2.44-1.4 3.53-2.28.04-.25.08-.5.11-.76.02-.1.02-.21.04-.31-.05-.36-.1-.72-.14-1.08-.47-3.64-.88-7.31-1.26-10.98-.35-3.38-.67-6.76-1-10.13-3.87 1.67-7.44 3.75-11.06 6.21-.14 2.28-.35 4.55-.64 6.8-.24 1.9-.54 3.8-.88 5.68-.19 1.05-.4 2.1-.63 3.14-.21.98-.44 1.95-.68 2.91-.78.65-1.52 1.36-2.21 2.11z"/><path d="M732.17 311.71c3.99-1.08 8.58-2 13.58-8.55-.35-3.38-.67-6.76-1-10.13-3.87 1.67-7.44 3.75-11.06 6.21-.14 2.27-.35 4.55-.64 6.8-.24 1.9-.53 3.79-.88 5.67z" fill="#e8815f"/><path class="st22" d="M733.05 271.85c.74-2.47 2.76-4.46 5.16-5.42 2.39-.96 5.11-.96 7.6-.26 2.55.72 4.91 2.17 6.61 4.21 1.7 2.04 2.71 4.66 2.68 7.32-.04 4.2-2.52 7.94-4.92 11.39-4.06-6.78-10.39-13.13-17.13-17.24z"/><path class="st2" d="M730.6 267.02c-1.19-.71-2.49-1.45-3.86-1.28-1.91.23-3.23 2.28-3.18 4.2.05 1.93 1.16 3.68 2.49 5.07 2.66 2.78 6.37 4.54 10.2 4.83 2.26.17 4.56-.16 6.69-.95.74-.27 2.68-.83 3.07-1.55.64-1.17-.61-1.44-1.62-2.05-4.59-2.75-9.19-5.51-13.79-8.27z"/><path class="st9" d="M744.3 301.04c3.54-2.96 5.88-7.31 6.42-11.89.32-2.76-.01-5.6-.94-8.23-.26-.5-.54-.99-.86-1.47-.63-.97-1.38-1.88-2.21-2.69-1.78 2.43-3.04 5.22-3.77 8.16-1.31 5.34-.88 11.14 1.36 16.12zm-15.1-18.82c-1.23 2.83-.82 6.31 1.04 8.77 1.49-1.99 2.51-4.43 2.97-6.88.12-.65.18-1.4-.25-1.91-.42-.49-1.15-.56-1.79-.5-.64.06-1.34.68-1.97.52z"/><path class="st8" d="M731.3 281.09c.5 3.34-1.13 6.58-2.56 9.63-1.43 3.06-2.74 6.54-1.62 9.73 1.17 3.31 4.91 5.32 8.41 4.97 3.49-.34 6.58-2.72 8.34-5.76 1.76-3.04 2.3-6.66 2.14-10.16-.16-3.5-.98-6.94-1.8-10.35-4.15-2.34-9.18-1.01-12.91 1.94z"/><path class="st8" d="M745.07 290.5c.45-.43.92-.85 1.48-1.12.56-.27 1.22-.37 1.81-.17.76.27 1.28 1.02 1.49 1.8.4 1.49-.18 3.19-1.41 4.13-1.23.93-3.03 1.03-4.35.24.56-1.61.78-3.19.98-4.88z"/><path class="st9" d="M728.77 283.58c4.99.34 10.06-.74 14.3-3.11-.44 1.45-.46 2.99-.11 4.46.47 2.06 1.66 4 3.43 5.42 1.99-2.74 3.22-6.47 2.78-9.71-.05-.4-.13-.79-.23-1.18-.63-.97-1.38-1.88-2.21-2.69-1.3-1.27-2.81-2.32-4.48-3.04-4.37-1.91-9.64-1.57-13.78.77-.36.28-.7.57-1.03.89-.81.81-1.48 1.75-1.95 2.77-1.14 2.44.59 5.23 3.28 5.42z"/><path class="st125" d="M755.22 400.63s-12.3 58.84 46.17 103.34l-16.85 16.99s-65.5-48.68-56.35-107.83l27.03-12.5z"/><path d="M756.18 434.64c-4.56 12.33-10.37 24.37-15.32 36.65-9.55-16.82-15.97-36.8-12.67-58.14l27.03-12.51c0-.01-2.97 14.23.96 34z" fill="#05616b"/><path class="st22" d="M718.83 336.91c-3.15 18.09-4.68 44.78-3.33 63.09 0 0-35.54 63.5-30.81 128.79l24.93 7.25s9-85.19 44.89-127.12l3.15-42.73-26.97-5.49-1.48-23.02-10.38-.77z"/><path class="st125" d="M755.76 370.85c.2.04.46-.23.77-.79.16-.28.33-.64.51-1.06.18-.43.35-.93.54-1.49.09-.28.19-.58.29-.9.09-.32.18-.65.27-1 .09-.35.18-.72.28-1.1.09-.38.17-.78.26-1.2.09-.41.18-.84.26-1.29.07-.45.15-.91.23-1.38.16-.95.27-1.96.4-3.02.21-2.13.35-4.47.35-6.98-.01-2.52-.16-5.21-.49-8.03-.32-2.82-.84-5.76-1.56-8.76-.73-3-1.72-6.23-3.55-9.29a19.24 19.24 0 00-3.35-4.16c-1.31-1.21-2.83-2.22-4.49-2.89-.83-.33-1.7-.61-2.58-.73-.22-.04-.44-.08-.66-.11-.22-.01-.44-.03-.66-.04-.22-.01-.44-.03-.66-.03-.22.01-.43.02-.65.02-1.73.08-3.35.51-4.79 1.14-1.45.63-2.73 1.45-3.85 2.37-.27.24-.56.46-.82.7l-.76.73c-.23.26-.47.51-.7.77-.23.25-.43.53-.64.79-.82 1.06-1.51 2.19-2.04 3.27-.53 1.1-.96 2.17-1.3 3.22-.67 2.09-1.03 4.01-1.25 5.69-.22 1.68-.3 3.13-.32 4.31-.05 2.36.1 3.66.34 3.68.25.02.57-1.25 1.07-3.52.25-1.13.55-2.51.97-4.08.43-1.56.97-3.31 1.77-5.12.81-1.8 1.86-3.69 3.35-5.31.19-.2.37-.41.58-.6.2-.19.41-.39.62-.58.22-.18.44-.36.66-.55.22-.18.46-.34.7-.52.95-.66 1.99-1.23 3.1-1.63 1.11-.4 2.27-.63 3.43-.61h.43c.14.01.29.03.43.05l.43.05.42.1c.57.1 1.12.31 1.67.56 2.19 1 4.14 2.98 5.5 5.4 1.38 2.45 2.23 5.23 2.9 8.04.67 2.82 1.18 5.59 1.55 8.23.37 2.65.61 5.18.76 7.56.14 2.38.18 4.6.19 6.64-.02 1.02 0 1.99-.04 2.91l-.03 1.34c-.02.43-.03.85-.05 1.26-.01.41-.03.8-.04 1.18-.02.38-.04.74-.05 1.09l-.03 1.01c-.01.32-.03.63-.04.91-.02.58-.02 1.1-.02 1.55 0 .45.01.84.04 1.16.02.63.15.99.35 1.04z"/><path class="st8" d="M688.56 392.2c.31.19.7.39 1.17.61.23.11.49.23.76.34.27.11.57.2.89.31.63.21 1.34.42 2.12.65.79.21 1.65.37 2.59.56.94.22 1.95.31 3.04.45 1.09.16 2.24.19 3.46.25.31.01.62.03.93.04.32.01.63-.01.95-.01.64-.01 1.3-.03 1.97-.05.68 0 1.36-.09 2.06-.15.7-.07 1.42-.12 2.14-.22.72-.12 1.46-.23 2.21-.35.38-.07.76-.12 1.14-.2.38-.09.76-.18 1.14-.26.77-.19 1.56-.35 2.34-.57.78-.24 1.58-.48 2.38-.73.81-.23 1.6-.56 2.41-.87.81-.32 1.64-.62 2.44-1.01.81-.38 1.63-.77 2.46-1.16.8-.45 1.62-.91 2.43-1.37 3.24-1.92 6.43-4.31 9.37-7.19 2.91-2.92 5.36-6.14 7.35-9.48.48-.84.95-1.68 1.41-2.52.41-.86.8-1.71 1.19-2.56.4-.84.7-1.71 1.02-2.57.31-.86.64-1.7.86-2.56.25-.86.48-1.7.7-2.54.2-.84.35-1.68.5-2.51.07-.42.15-.82.22-1.23.06-.41.1-.82.15-1.22.08-.7.14-1.4.2-2.08-6.7.17-13.46-2.15-18.65-6.39-.04.22-.09.43-.13.66-.07.49-.21.98-.32 1.48-.1.5-.21 1.01-.31 1.53-.14.51-.26 1.03-.38 1.56-.06.26-.11.53-.18.8-.07.26-.15.53-.23.8-.15.54-.27 1.09-.42 1.64-.17.55-.34 1.1-.5 1.66-.14.57-.36 1.12-.54 1.69-.2.56-.35 1.15-.59 1.71-.22.57-.44 1.15-.64 1.73-.25.57-.5 1.14-.75 1.73-1.04 2.32-2.25 4.65-3.72 6.95a46.497 46.497 0 01-5.09 6.34c-.48.48-.95.96-1.42 1.43-.5.45-1 .89-1.5 1.33-.48.47-1.02.84-1.53 1.26-.52.4-1.01.84-1.56 1.19-.53.37-1.06.75-1.58 1.11-.53.35-1.07.67-1.6 1l-.79.49c-.27.16-.54.29-.8.44-.54.29-1.07.58-1.6.87-.53.27-1.07.5-1.59.75-.53.24-1.04.52-1.57.7-.52.21-1.03.41-1.54.61-.26.1-.5.21-.75.3-.26.08-.5.16-.75.25-.99.32-1.94.67-2.86.89-.92.23-1.79.52-2.63.66-.83.17-1.62.35-2.34.49-.73.11-1.4.22-2.01.34-.3.05-.6.12-.87.16-.27.04-.53.08-.77.12-.48.08-.89.16-1.23.26-.68.19-1.07.41-1.12.69-.05.27.24.59.86.97z"/><path class="st8" d="M694.81 390.67c-2.51-2.68-7.02-3.17-10.05-1.1-3.03 2.07-4.2 6.45-2.62 9.76 5.24-.72 9.82-4.19 12.67-8.66z"/><path class="st122" d="M683.96 374.46c-4.62-1.11-9.75.21-13.27 3.41-.98.89-1.85 1.94-2.34 3.17-.49 1.23-.57 2.66-.02 3.87 6.42-.89 12.23-4.94 15.63-10.45z"/></g></svg>