<svg xmlns="http://www.w3.org/2000/svg" viewBox="0 0 910 567"><style>.st0{fill:#eaf1fc}.st1{fill:#f8f8ff}.st2{fill:#cde4f7}.st4{fill:#fff}.st11{fill:#02819f}.st12{fill:#f09976}.st13{fill:#e8815f}.st18{fill:#0b2b46}.st35{fill:#ffda35}.st41{fill:#75c945}.st69{fill:#4fa52b}.st70{fill:#ac5c15}.st255{fill:#081e2d}.st257{fill:#fb446c}.st259{fill:#590600}.st260{fill:#035159}.st265{fill:#bd6618}.st291{fill:#dfdfe5}</style><g id="Layer_11"><ellipse class="st0" cx="455.16" cy="500.96" rx="455.16" ry="65.21"/><path class="st1" d="M826 476.01c51.92-107.89 80.49-314.39-31.97-382.93-73.62-44.87-150.29 12.85-229.02 15.49-61.77 2.07-121.34-46.72-177.08-60.65-146.07-36.5-375.84 58.42-274.81 428.09 252.61-.72 460.27.71 712.88 0z"/><path class="st2" d="M490.77 498.9c.47-1.14.8-2.32.98-3.54l.01-.03h-.01c.17-1.16.2-2.35.07-3.58-1.29-11.79-15.92-16.8-27.78-16.47-11.86.34-24.83 3.03-34.76-3.47-12.33-8.06-13.13-25.5-19.69-38.69-11.46-23.03-45.11-31.22-65.86-16.03-.03-19.99-15.77-38.82-35.43-42.4-19.66-3.58-41.03 8.51-48.09 27.2 1.41-17.04-18.92-22.75-31.61-17.49-16.79 6.97-21.63 26-27.21 41.3-10.24-12.68-34.56-17.94-31.48 3.4 1.07 7.44 4.23 15.13 8.84 22.79-6.9.05-13.79 3.31-17.94 9.84-6.23-17.12-30.5-17.7-37.55-.91 2.84-10.9-7.01-20.9-17.87-18.41-28.31 6.5-19.64 25.93-1.33 48.17-15.63-13.34-47.44 3.21-50.16 20.96h433.38l3.49-12.64z"/><path d="M81.37 175.14c10.73-14.88 18.36-25.17 46.73-25.17 16.84 0 43.87 21.13 60.59 19.18 11.81-1.38 23.13-10.73 34.38-6.87 5.47 1.88 8.96 7.2 9.81 12.86H81.37zm290.27-32.45c-14.26-5.85-28.51-11.7-42.77-17.54-11.94-4.9-26.87-9.39-36.67-1-6.09 5.22-10.07 15.14-18.06 14.45-11.25-.98-18.77-26.39-31.54-9.53-4.38 5.79-2.94 12.37.73 17.87H379.1c-2.05-1.88-4.85-3.18-7.46-4.25zm370.24 2.22c9.99-13.85 17.09-23.43 43.5-23.43 15.68 0 40.84 19.67 56.41 17.85 11-1.29 21.54-9.99 32.01-6.39 5.09 1.75 8.34 6.7 9.13 11.97H741.88z" fill="#e3f4ff"/><path class="st2" d="M317.18 451.66h5.61v66.11h-5.61zm-132.69 0h5.61v66.11h-5.61z"/><path d="M170.34 499.47h166.6v6.34h-166.6zm161.03-4.88H175.92c-3.08 0-5.57-2.49-5.57-5.57s2.49-5.57 5.57-5.57h155.45c3.08 0 5.57 2.49 5.57 5.57s-2.5 5.57-5.57 5.57zm0-14.31H175.92c-3.08 0-5.57-2.49-5.57-5.57s2.49-5.57 5.57-5.57h155.45c3.08 0 5.57 2.49 5.57 5.57s-2.5 5.57-5.57 5.57zm0-14.31H175.92c-3.08 0-5.57-2.49-5.57-5.57s2.49-5.57 5.57-5.57h155.45c3.08 0 5.57 2.49 5.57 5.57s-2.5 5.57-5.57 5.57z" fill="#ecf7fe"/><path class="st4" d="M118 445.3l-4.98-2.62 1.78-47.29 1.22-2.5z"/><path class="st2" d="M148.75 346.22c-.22-.98-.48-1.97-1.05-2.8-.83-1.21-2.25-1.94-3-3.19-.66-1.11-.71-2.48-.73-3.77-.15-7.74-.68-15.45-8.68-19.58-1.36-.7-2.86-1.21-4.02-2.2-2.76-2.36-2.78-6.5-3.53-10.05-1.41-6.62-6.44-14.18-13.68-12.92-.32.06-.65.13-.98.22-7.2 2-14.12 7.62-14.39 15.58-.05 1.62.14 3.28-.33 4.83-1.18 3.83-5.59 5.76-7.56 9.12-2.42 4.11-4.48 9.35-6.2 13.85-.73 1.91-1.4 3.91-1.33 5.95.11 3.41 2.21 6.54 2.2 9.95-.01 3.12-1.78 5.92-2.94 8.81-2.55 6.33-1.16 12.4-.79 18.91.35 6.04.84 12.03 2.07 17.97 1.66 8.03 4.44 16.12 9.48 22.7 4.88 6.38 12.3 11.46 20.54 11.85.45.02.9.04 1.35.01 0 0 33.99 2.91 34.47-59.58.06-8.8 1.12-16.87-.9-25.66zm353.9 8.09c-.26-1.15-.57-2.32-1.24-3.29-.98-1.42-2.64-2.28-3.52-3.76-.78-1.31-.83-2.91-.86-4.44-.18-9.1-.8-18.17-10.21-23.03-1.6-.83-3.36-1.42-4.73-2.59-3.24-2.77-3.27-7.64-4.16-11.81-1.66-7.79-7.58-16.68-16.09-15.2-.38.07-.76.15-1.15.26-8.46 2.35-16.61 8.96-16.92 18.32-.06 1.9.17 3.86-.39 5.67-1.38 4.5-6.57 6.77-8.9 10.72-2.84 4.84-5.27 11-7.29 16.29-.86 2.25-1.64 4.6-1.57 7 .13 4.01 2.6 7.69 2.59 11.7-.01 3.67-2.09 6.96-3.46 10.36-3 7.44-1.37 14.58-.93 22.24.41 7.1.99 14.15 2.44 21.13 1.95 9.45 5.23 18.96 11.15 26.7 5.74 7.51 14.47 13.47 24.16 13.94.53.02 1.06.05 1.58.01 0 0 39.98 3.43 40.54-70.07.09-10.32 1.34-19.81-1.04-30.15z"/><path class="st4" d="M469.19 529.98h-9.62l3.15-117.83 1.43-2.94z"/><path class="st2" d="M850.54 290.25H544.15a5.36 5.36 0 00-5.36 5.36v201.77c0 2.96 2.4 5.36 5.36 5.36h306.38c2.96 0 5.36-2.4 5.36-5.36V295.61a5.345 5.345 0 00-5.35-5.36z"/><path class="st4" d="M516.74 521.33h-7.06a1.91 1.91 0 01-1.91-1.91V466.4c0-1.06.86-1.91 1.91-1.91h7.06c1.06 0 1.91.86 1.91 1.91v53.02c.01 1.05-.85 1.91-1.91 1.91zm21.53-.14h-7.06a1.91 1.91 0 01-1.91-1.91v-53.02c0-1.06.86-1.91 1.91-1.91h7.06c1.06 0 1.91.86 1.91 1.91v53.02c.01 1.05-.85 1.91-1.91 1.91zm22.83.1h-7.06a1.91 1.91 0 01-1.91-1.91v-53.02c0-1.06.86-1.91 1.91-1.91h7.06c1.06 0 1.91.86 1.91 1.91v53.02c.01 1.06-.85 1.91-1.91 1.91zm21.53-.14h-7.06a1.91 1.91 0 01-1.91-1.91v-53.02c0-1.06.86-1.91 1.91-1.91h7.06c1.06 0 1.91.86 1.91 1.91v53.02c.01 1.06-.85 1.91-1.91 1.91zm24.07.07h-7.06a1.91 1.91 0 01-1.91-1.91v-53.02c0-1.06.86-1.91 1.91-1.91h7.06c1.06 0 1.91.86 1.91 1.91v53.02c0 1.06-.85 1.91-1.91 1.91zm21.53-.14h-7.06a1.91 1.91 0 01-1.91-1.91v-53.02c0-1.06.86-1.91 1.91-1.91h7.06c1.06 0 1.91.86 1.91 1.91v53.02c.01 1.06-.85 1.91-1.91 1.91z"/><ellipse class="st2" cx="674.71" cy="512.38" rx="13.11" ry="3.57"/><ellipse class="st2" cx="713.68" cy="521.23" rx="19.74" ry="5.28"/><ellipse class="st2" cx="707.73" cy="509.33" rx="8.68" ry="2.23"/><ellipse class="st2" cx="664.32" cy="527.36" rx="20.43" ry="4.6"/><ellipse class="st2" cx="685.77" cy="540.12" rx="8.17" ry="1.7"/><ellipse class="st2" cx="630.17" cy="536.89" rx="21.56" ry="4.94"/><ellipse class="st2" cx="615.06" cy="552.04" rx="15.08" ry="4.09"/><path class="st0" d="M658.02 356h71.83v132.58h-71.83z"/><path class="st2" d="M664.71 362.89h58.46v125.68h-58.46z"/><circle class="st0" cx="711.24" cy="430.39" r="4.66"/><path class="st0" d="M653.85 488.57h80.17v14.36h-80.17z"/><path class="st4" d="M763.02 517.12h-7.06a1.91 1.91 0 01-1.91-1.91v-53.02c0-1.06.86-1.91 1.91-1.91h7.06c1.06 0 1.91.86 1.91 1.91v53.02c.01 1.06-.85 1.91-1.91 1.91zm21.53-.14h-7.06a1.91 1.91 0 01-1.91-1.91v-53.02c0-1.06.86-1.91 1.91-1.91h7.06c1.06 0 1.91.86 1.91 1.91v53.02c.01 1.06-.85 1.91-1.91 1.91zm22.83.11h-7.06a1.91 1.91 0 01-1.91-1.91v-53.02c0-1.06.86-1.91 1.91-1.91h7.06c1.06 0 1.91.86 1.91 1.91v53.02c.01 1.05-.85 1.91-1.91 1.91zm21.53-.14h-7.06a1.91 1.91 0 01-1.91-1.91v-53.02c0-1.06.86-1.91 1.91-1.91h7.06c1.06 0 1.91.86 1.91 1.91v53.02c.01 1.05-.85 1.91-1.91 1.91zm24.07.07h-7.06a1.91 1.91 0 01-1.91-1.91v-53.02c0-1.06.86-1.91 1.91-1.91h7.06c1.06 0 1.91.86 1.91 1.91v53.02c0 1.05-.85 1.91-1.91 1.91zm21.53-.14h-7.06a1.91 1.91 0 01-1.91-1.91v-53.02c0-1.06.86-1.91 1.91-1.91h7.06c1.06 0 1.91.86 1.91 1.91v53.02c.01 1.05-.85 1.91-1.91 1.91z"/><path class="st0" d="M533.39 293.17l158.15-85.32c1.61-.87 3.55-.88 5.18-.03l162.73 85.32c5.1 2.67 3.2 10.39-2.56 10.39H536.01c-5.72 0-7.65-7.65-2.62-10.36z"/><path class="st2" d="M537.9 303.53l156.84-84.61 161.37 84.61z"/><path class="st0" d="M758.54 356h69.19v62.17h-69.19z"/><path class="st2" d="M765.14 362.89h55.98v50.3h-55.98z"/><path class="st4" d="M793.51 362.89s-1.87 32.13 27.61 27.96v-27.96h-27.61z"/><path class="st4" d="M811.39 389.32s-9.7 16.72-8.3 23.87h18.03v-23.74l-9.73-.13z"/><circle class="st0" cx="693.94" cy="279.99" r="21.15"/><circle class="st2" cx="693.94" cy="279.99" r="14.76"/><path class="st0" d="M690.92 264.68h5.7v32.26h-5.7z"/><path transform="rotate(90 693.94 279.986)" class="st0" d="M691.09 263.86h5.7v32.26h-5.7z"/><path class="st0" d="M583.56 352.72h-16.34c-.89 0-1.62-.72-1.62-1.62v-5.45c0-.89.72-1.62 1.62-1.62h16.34c.89 0 1.62.72 1.62 1.62v5.45c-.01.9-.73 1.62-1.62 1.62zm10.63 10.47h-16.34c-.89 0-1.62-.72-1.62-1.62v-5.45c0-.89.72-1.62 1.62-1.62h16.34c.89 0 1.62.72 1.62 1.62v5.45c0 .89-.72 1.62-1.62 1.62zm173.6-57.11h-16.34c-.89 0-1.62-.72-1.62-1.62v-5.45c0-.89.72-1.62 1.62-1.62h16.34c.89 0 1.62.72 1.62 1.62v5.45c-.01.9-.73 1.62-1.62 1.62zm10.64 10.47h-16.34c-.89 0-1.62-.72-1.62-1.62v-5.45c0-.89.72-1.62 1.62-1.62h16.34c.89 0 1.62.72 1.62 1.62v5.45c-.01.9-.73 1.62-1.62 1.62z"/><path class="st1" d="M463.61 364.28c5.11.75 10.48-1.3 14.04-5.37 3.56-4.07 5.21-10.04 4.33-15.62-.59-3.69-2.31-7.27-5.1-9.44-2.79-2.17-6.69-2.73-9.67-.94-1.62-2.73-4.93-3.71-7.8-2.94s-5.25 3.03-6.99 5.64c-3.36 5.05-4.68 11.91-2.72 17.83 1.94 5.93 8.23 10.01 13.91 10.84z"/><path class="st12" d="M438.67 430.12c-1.82 3.32-1.32 7.75 1.2 10.58.83-1.96 1.45-4.06 1.89-6.14.2-.95.35-1.92.21-2.88-.14-.96-.63-1.91-1.46-2.41-.41-.25-.91-.38-1.38-.27-.46.1-.23.69-.46 1.12zm21.17 117.52c.63-.12.98-1.59 1.19-4.15.05-.64.1-1.35.13-2.12.04-.77.08-1.61.11-2.51.07-1.8.09-3.83.14-6.07.03-2.24.07-4.69.11-7.32.03-2.62.06-5.41.09-8.35.01-1.47.03-2.97.04-4.5.01-1.53.01-3.09.02-4.68v-4.84c0-1.64-.01-3.29-.04-4.97-.01-1.68-.04-3.33-.08-4.95-.05-1.62-.08-3.23-.15-4.8-.04-.78-.07-1.56-.11-2.33-.03-.77-.07-1.53-.11-2.29-.08-1.51-.2-2.98-.31-4.42-.22-2.88-.54-5.6-.89-8.15-.18-1.28-.39-2.5-.61-3.69-.21-1.18-.45-2.32-.71-3.4-.53-2.17-1.09-4.13-1.76-5.85a30.3 30.3 0 00-1.04-2.4c-.36-.74-.74-1.41-1.13-2.02-1.57-2.42-3.41-3.76-5.31-3.73-1.9.03-3.68 1.44-5.13 3.99-.36.64-.71 1.34-1.03 2.12-.32.77-.61 1.61-.88 2.52a41.96 41.96 0 00-1.3 6.14c-.16 1.14-.29 2.33-.39 3.57-.1 1.24-.16 2.53-.19 3.86-.08 2.67 0 5.51.17 8.5.09 1.49.23 3.02.38 4.58.08.78.16 1.57.25 2.36.1.79.21 1.59.32 2.4.23 1.61.46 3.25.75 4.91.29 1.66.6 3.34.93 5.04.35 1.7.71 3.37 1.08 5.01.36 1.65.77 3.26 1.17 4.84.2.79.4 1.58.6 2.35.21.77.42 1.54.63 2.3.42 1.52.83 3 1.26 4.44.87 2.88 1.71 5.61 2.57 8.14.43 1.27.83 2.49 1.25 3.66.42 1.17.83 2.29 1.21 3.36.77 2.14 1.54 4.06 2.23 5.74.35.84.67 1.62.99 2.33.32.71.62 1.36.91 1.94 1.14 2.33 2.01 3.56 2.64 3.44z"/><path class="st12" d="M482.43 546.95c.62-.17.86-1.66.9-4.23.01-.64 0-1.35-.01-2.12s-.03-1.61-.06-2.51c-.06-1.8-.17-3.83-.27-6.07l-.39-7.31-.48-8.34c-.09-1.46-.17-2.96-.26-4.49-.1-1.53-.19-3.09-.3-4.67-.11-1.58-.22-3.19-.33-4.82-.11-1.63-.24-3.28-.38-4.95-.12-1.67-.26-3.32-.42-4.94-.16-1.62-.3-3.21-.47-4.78l-.27-2.32c-.08-.77-.17-1.52-.27-2.27-.18-1.5-.4-2.96-.61-4.39-.41-2.85-.92-5.55-1.44-8.07-.27-1.26-.56-2.47-.86-3.64a58.74 58.74 0 00-.94-3.34c-.67-2.12-1.37-4.04-2.15-5.71-.39-.84-.79-1.61-1.2-2.32-.41-.71-.83-1.36-1.26-1.94-1.73-2.31-3.66-3.52-5.55-3.36-1.9.16-3.57 1.69-4.85 4.33-.32.66-.62 1.39-.89 2.18-.27.79-.5 1.65-.71 2.57-.41 1.84-.73 3.92-.88 6.21-.08 1.14-.13 2.34-.15 3.58-.02 1.24.02 2.53.07 3.87.1 2.67.37 5.5.75 8.47.19 1.48.44 3 .69 4.54.13.77.27 1.55.41 2.34.16.78.32 1.57.48 2.37.34 1.59.68 3.22 1.09 4.85.4 1.64.82 3.29 1.27 4.96.46 1.67.94 3.31 1.42 4.93.47 1.62.99 3.2 1.49 4.75.26.78.51 1.55.76 2.31.26.76.52 1.51.78 2.25.52 1.48 1.03 2.94 1.56 4.34 1.06 2.82 2.08 5.48 3.11 7.95.51 1.24 1 2.43 1.49 3.57.5 1.14.98 2.23 1.44 3.27a152.828 152.828 0 003.75 7.83c.37.69.72 1.32 1.04 1.87 1.34 2.25 2.28 3.42 2.9 3.25z"/><path class="st11" d="M439.94 493.21c14.24 3.85 29.43 3.66 43.59-.46a200.926 200.926 0 01-2.58-63.79c-13.19-.12-26.54-.97-39.73-1.09a164.61 164.61 0 00-3.95 33.24c-.17 10.75.71 21.52 2.67 32.1z"/><path class="st35" d="M439.48 431.3c13.62 3.93 28.12 3.93 41.83.31 2.72-12.29 5.46-24.83 4.25-37.36-.19-1.98-.5-3.97-.93-5.94v-.01c-2.85-21.93-12.59-24.28-14.74-24.53-.27-.03-.42-.03-.42-.03-.59-.41-1.19-.79-1.81-1.16-3.07-1.8-7.32-1.13-11.17.7-.07.03-.14.06-.2.1-2.43 1.18-4.68 2.81-6.37 4.56-.45.47-.85.94-1.22 1.41-4.56 5.99-4.31 14.19-4.32 21.71-.05 13.44-1.9 27.14-4.9 40.24z"/><path class="st12" d="M457.05 364.98c3.8 1.07 7.81 1.02 11.58-.17-.4-3.02-.54-6.08-.41-9.13.05-1.09.13-2.17.24-3.25-3.34 1.89-6.66 3.18-10.37 3.24.2 2 .14 4.11-.22 6.13a18.54 18.54 0 01-.82 3.18z"/><path class="st13" d="M457.88 361.79c4.1-.42 8.02-2.7 10.35-6.11.05-1.09.13-2.17.24-3.25-3.34 1.89-6.66 3.18-10.37 3.24.2 2 .13 4.1-.22 6.12z"/><path class="st12" d="M454.61 355.42c1.49 3.4 6.14 4.61 9.51 3.06 3.37-1.55 5.42-5.19 5.96-8.85.21-1.4.23-2.81.12-4.21-2.76-1.84-4.88-4.63-5.88-7.79-1.1.74-2.08 1.59-3.02 2.51-1.25 1.22-2.74 2.2-4.36 2.86-.45 1.18-.91 2.36-1.36 3.53-1.1 2.85-2.2 6.08-.97 8.89z"/><path class="st12" d="M469.89 348.61c-.06-.47.41-.9.89-.89.47.01.89.36 1.1.79.21.43.24.92.24 1.39-.01.65-.09 1.31-.35 1.9-.26.59-.72 1.12-1.33 1.36-.6.24-1.35.15-1.82-.3.72-1.39 1.47-2.69 1.27-4.25z"/><path class="st18" d="M469.09 353.61c0 .65.53 1.18 1.18 1.18s1.18-.53 1.18-1.18-.53-1.18-1.18-1.18-1.18.53-1.18 1.18zM447.9 549.63c.86.43 1.88.53 2.86.62 2.33.21 4.75.42 6.97-.24 2.22-.66 4.07-2.2 4.92-4.11.61-1.37.8-3.14.22-4.55-.07-.17-.14-.32-.22-.45-.78-1.29-1.81-.2-3.15.57a41.969 41.969 0 01-9.86 4.07c-.02.01-.03.01-.05.02-1.25.34-2.74.81-3 1.94-.21.85.45 1.7 1.31 2.13zm21.98 3.25c.86.43 1.88.53 2.86.62 2.33.21 4.75.42 6.97-.24 2.22-.66 4.07-2.2 4.91-4.11.61-1.37.8-3.14.22-4.55-.11-.27-.23-.48-.35-.64-.77-.98-1.76.03-3.02.76a41.972 41.972 0 01-9.91 4.08c-1.25.34-2.74.81-3 1.94-.21.85.46 1.71 1.32 2.14z"/><path class="st12" d="M472.9 429.7c-1.6 1.83-4.69 3.31-6.88 4.38.18.46 1.97.47 2.41.25.44-.22.89-.56 1.37-.46.45.09.75.57.78 1.04.03.46-.13.91-.3 1.35-.38 1-.75 2.01-1.13 3.01-.26.69-.52 1.46-.23 2.14.32.75 1.19 1.09 2 1.16 1.86.16 3.73-.76 4.9-2.22 1.17-1.46 1.66-3.39 1.57-5.25-.1-1.87-.76-3.67-1.7-5.29-.87-.11-1.92-.01-2.79-.11z"/><path d="M467.87 429.39c.54-2.52 1.08-5.44 1.59-8.63.51-3.19 1-6.66 1.38-10.28.88-8.16.97-15.6.5-20.93-.43-5.35-1.36-8.56-1.11-8.64.05-.02.16.17.32.54.08.19.17.42.27.69.05.14.11.29.16.45.05.16.1.33.16.52.47 1.45.96 3.61 1.34 6.32.78 5.41.87 12.98-.02 21.23-.39 3.67-.91 7.16-1.49 10.37a121 121 0 01-1.71 7.99c6 .72 9.81.65 9.82.88.03.26-4.14.79-10.67.27l-.69-.06.15-.72z" fill="#ffae0a"/><path class="st12" d="M457.74 370.49c1.06.62 2.37.62 3.58.41 3.82-.68 7.17-3.51 8.56-7.12-.27-.03-.42-.03-.42-.03-.59-.41-1.19-.79-1.81-1.16-3.07-1.8-7.32-1.13-11.17.7-.36.87-.63 1.77-.72 2.7-.15 1.72.48 3.63 1.98 4.5z"/><path class="st18" d="M373.29 550.51c0-.7 6.32-1.27 14.11-1.27 7.79 0 14.11.57 14.11 1.27v1.27c0 1.09-6.32 1.97-14.11 1.97-7.79 0-14.11-.88-14.11-1.97v-1.27z"/><path class="st35" d="M376.68 547.32c1.34.24 12.42-3.4 13.94-4.05 1.49-.63 2.93-1.55 4.47-2.02 1.89-.57 4.28 1.21 5.28 2.91.85 1.44 1.55 3.93.92 5.6-.3.8-1.06.96-1.75 1.12-1.51.35-2.95.36-4.48.45-3.57.21-19.58.91-21.72-.94-.7-.6-.05-3.68 3.34-3.07z"/><path class="st18" d="M384.43 547.68c-.01-.12.01-.24.07-.33-.18-.25-.32-.61-.43-.8-.16-.27-.37-.59-.51-.92.22-.07.43-.13.65-.2.17.35.34.7.51 1.06.03.06.22.43.31.73.24.07.46.25.59.46.15.25.03.67-.29.72-.13.02-.25.02-.37-.01a.431.431 0 01-.35-.14c-.16-.16-.18-.4-.19-.61.01.03.01.03.01.04zm1.5-2.79c.22-.07.44-.14.65-.21.21.3.37.65.53.96.16.31.52.78.56 1.18.07.02.13.05.19.09.08.04.14.09.17.16.02.02.04.05.06.07.07.09.08.18.06.27.05.12-.01.28-.1.36-.06.06-.13.11-.21.16-.2.14-.43.02-.56-.15-.08-.11-.09-.26-.16-.36-.14-.2-.06-.41.1-.53-.19-.21-.32-.52-.43-.73-.24-.43-.47-.93-.86-1.27zm3.89 1.6c0-.02.02-.03.02-.05-.48-.46-.88-1.04-1.32-1.53-.21-.23-.42-.44-.64-.66.23-.08.44-.15.65-.22.14.18.27.35.38.49.41.49.87 1.04 1.15 1.63.15-.08.35-.06.5.06.03.02.05.05.06.08v.01c.01.02.02.03.03.05.01.02.01.04.02.06.01.03.03.05.03.08.12.74-1.03.73-.88 0zm-11.58.62c.19-.04.4-.09.62-.14.36.39.73.81.99 1.27.15-.09.34-.08.5.03.03.02.05.05.07.07v.01c.01.02.02.03.03.05.01.02.01.04.02.06.01.03.03.05.03.08.17.73-.97.79-.87.05 0-.02.01-.04.02-.05-.51-.42-.94-.97-1.41-1.43zm2.68-.69c.19-.06.39-.11.59-.17.09.16.16.31.2.38.22.37.42.76.59 1.15.19-.04.42.04.52.2.13.14.2.3.13.52-.02.06-.06.11-.1.15-.03.05-.08.1-.14.12-.04.02-.09.04-.13.06-.14.06-.36.05-.45-.09l-.19-.28c-.07-.1-.05-.31.03-.4.01-.01.02-.02.02-.03l-.75-1.17c-.05-.08-.19-.25-.32-.44zm28.2 4.86c-.06-.7 6.18-1.81 13.94-2.48 7.76-.67 14.1-.66 14.16.04.02.18.09.99.11 1.26.09 1.09-6.12 2.51-13.88 3.19-7.76.67-14.13.34-14.22-.75a61.1 61.1 0 00-.11-1.26z"/><path class="st35" d="M412.22 547.81c1.35.12 12.08-4.47 13.54-5.24 1.43-.76 2.78-1.8 4.28-2.4 1.84-.73 4.37.83 5.52 2.44.97 1.36 1.89 3.78 1.4 5.5-.23.82-.97 1.05-1.64 1.27-1.48.48-2.91.61-4.43.84-3.53.52-19.43 2.6-21.72.95-.76-.55-.38-3.67 3.05-3.36z"/><path class="st18" d="M419.98 547.5a.495.495 0 01.05-.34c-.21-.24-.38-.58-.5-.76-.18-.26-.42-.56-.59-.87.21-.08.42-.17.63-.26.2.34.4.67.6 1.01.03.06.26.41.37.7.25.05.48.21.63.41.17.24.08.66-.22.75-.13.04-.25.04-.37.03-.12.02-.24 0-.36-.1-.17-.14-.22-.38-.24-.59-.01 0-.01.01 0 .02zm1.25-2.91l.63-.27c.23.29.43.61.61.91.18.29.58.73.66 1.13.07.01.13.04.19.07.08.03.15.08.19.15.02.02.05.04.07.07.07.08.09.18.09.26.06.12.01.28-.06.37-.06.07-.12.12-.19.18-.19.15-.43.06-.57-.1-.09-.1-.11-.25-.19-.35-.16-.19-.09-.4.06-.54-.21-.19-.36-.49-.49-.69-.31-.41-.59-.89-1-1.19zm4 1.26c0-.02.01-.04.02-.05-.52-.42-.96-.96-1.45-1.41-.22-.21-.46-.41-.7-.6.22-.09.43-.19.63-.27.16.17.3.33.43.46.45.45.95.96 1.29 1.52.15-.1.34-.09.5.02.03.02.05.05.07.07v.01c.01.02.02.03.03.05.01.02.01.04.02.06.01.03.03.05.04.08.19.71-.96.79-.88.06zm-11.47 1.62c.19-.06.39-.12.6-.2.39.36.8.75 1.09 1.18.14-.11.33-.11.5-.01.03.02.05.04.07.07v.01c.01.02.02.03.03.05.01.02.02.04.02.06.01.03.03.05.04.07.24.71-.9.87-.87.13 0-.02.01-.04.01-.06-.51-.38-.99-.88-1.49-1.3zm2.6-.92c.19-.07.38-.15.57-.22.1.15.18.29.23.36.25.35.49.72.69 1.1.18-.06.42 0 .53.15.14.13.23.28.17.5-.02.06-.05.12-.09.16-.03.06-.07.11-.13.13-.04.02-.08.04-.13.07-.14.07-.35.08-.46-.05-.07-.09-.14-.17-.21-.26-.08-.1-.08-.3-.01-.4.01-.01.01-.02.02-.03-.28-.37-.57-.73-.84-1.1-.03-.08-.19-.23-.34-.41z"/><path class="st291" d="M400.92 312.29c-2.05.25-3.43 2.39-3.55 4.45-.12 2.06.7 4.04 1.51 5.94.52 1.21 1.03 2.42 1.55 3.63.9-2.14 1.44-4.25 1.74-6.55.28-2.31.23-5.68-1.25-7.47z"/><path class="st12" d="M392.4 437.55c1.03 1.51 2.05 3.03 3.08 4.54.52.77 1.01 1.91.3 2.52-.77.67-1.99-.18-2.97.1-.93.27-1.27 1.47-1.04 2.41s.85 1.74 1.23 2.63c.38.89.49 2.04-.2 2.73-.61.6-1.58.61-2.42.47-3.44-.56-6.54-2.87-8.06-6.01-1.52-3.13-1.41-7.01.28-10.05 3.29-.41 6.55-.09 9.8.66z"/><path class="st18" d="M397 352.47c-6.68.92-12.3 5.87-15.55 11.78-3.25 5.91-4.44 12.72-5.15 19.42a157.21 157.21 0 003.8 54.62c4.39 1.38 9.5 1.18 13.88-.25-4.64-28.19-3.15-57.68 3.02-85.57z"/><path class="st11" d="M435.78 541.55l-.26.24c-2.44 2.2-7.54 3.35-10.72 3.35-1.61 0-3.23-.3-4.78-.9l-1.77-7.75-.01-.02c-3.77-13.96-8.5-37.8-11.92-76.59-.55-6.25-1.07-12.9-1.54-19.95-1 5.95-1.97 12.66-2.82 20.01-2.45 21.25-3.82 47.85-1.39 76.79l.09 1.1.76 6.79-.67.37c-.5.28-1.01.52-1.54.73-1.6.64-3.28.96-4.97.96-2.4 0-7.1-.64-9.22-1.93l-.77-7.01c-2.25-16.33-4.75-43.46-3.16-76.6.21-4.29.48-8.69.84-13.18.33-4.16.73-8.4 1.19-12.7.07-.65.14-1.31.22-1.96.21-1.88.44-3.77.68-5.67.22-1.72.45-3.45.7-5.19.35-2.48.72-4.98 1.12-7.49.19-1.18.38-2.35.58-3.54.02-.14.05-.29.07-.43l.33-1.89 17.79-.33 25.77-.51c-.22 1.65-.5 3.91-.77 6.85-.05.63-.11 1.28-.17 1.96l-.03.38c-.09 1.09-.17 2.26-.26 3.5-.02.28-.03.56-.05.84-.19 2.91-.35 6.21-.48 9.93-.03.84-.05 1.7-.08 2.58-.11 4.34-.17 9.2-.13 14.58.02 3.69.09 7.62.21 11.81.55 18.98 2.17 43.21 5.8 73.29l1.36 7.58z"/><path class="st18" d="M433.12 376.89c-.02 1.44-.06 2.88-.11 4.31-.44 12.27-.89 33.95-1.33 46.23a116.923 116.923 0 01-22.3 2.53c-5.61.1-11.65-.19-17.31-.83-2.4-.27-4.72-.61-6.92-1.01-.78-8.57-.95-19.91-.54-31.04.06-1.53.12-3.06.2-4.58.42-8.11 1.15-15.87 2.2-22.12.67-4.01 2.04-8.06 3.84-11.75.89-1.82 2.04-3.56 3.46-5.06.03-.03.05-.06.08-.09.18-.18.36-.35.55-.53 1.43-1.28 3.37-2.35 5.08-3.11 3.79-1.68 8.05-.17 12.18-.84 3.36.38 6.61 1.49 9.47 3.19.09.05.18.1.27.16 3.69 2.24 6.73 5.44 8.55 9.2 2.31 4.76 2.69 10.06 2.63 15.34z"/><path class="st69" d="M421.67 352.19c-1.94 8.42-7.82 15.94-15.6 19.69-5.9-4.61-9.91-11.54-11.13-18.93 1.43-1.28 3.37-2.35 5.08-3.11 3.79-1.68 8.05-.17 12.18-.84 3.37.38 6.61 1.5 9.47 3.19z"/><path d="M401.97 459.94c-2.45 21.26-3.82 47.85-1.39 76.79l.09 1.09.76 6.79-.67.37c-.5.28-1.01.52-1.54.73l-.42-3.46v-.01c-8.11-43.3-.75-104-.75-104l6.73 1.68c-.99 5.96-1.96 12.67-2.81 20.02z" fill="#05616b"/><path d="M416.85 347.54s-12.03-1.84-18.21 1.52l2.49 2.63 14.76-1.17.96-2.98z" fill="#4e992b"/><path class="st255" d="M433.12 376.89c-.01 1.44-.06 2.89-.11 4.31-.44 12.27-.89 33.95-1.33 46.23-4.66.99-9.47 1.71-14.42 2.12 5.24-24.03 6.29-57.67 6.29-57.67l9.57 5.01z"/><path class="st12" d="M419.31 437.56l-3.44 4.28c-.58.73-1.16 1.82-.51 2.49.72.73 2-.02 2.95.34.91.34 1.15 1.57.84 2.49-.31.92-.98 1.66-1.44 2.52-.46.86-.65 2-.02 2.74.55.65 1.52.73 2.37.66 3.47-.28 6.76-2.33 8.53-5.33 1.77-3 1.98-6.87.54-10.04-3.25-.69-6.52-.63-9.82-.15z"/><path class="st18" d="M421.66 352.39c6.58 1.47 11.78 6.85 14.54 13 2.75 6.15 3.39 13.03 3.56 19.78.45 18.34-2.35 36.75-8.23 54.13-4.49 1.02-9.57.4-13.81-1.38 6.9-27.72 7.82-57.23 3.94-85.53z"/><path class="st12" d="M414 342.39c.14 2.44.74 4.86 1.79 7.12-4.53 1.15-13.52 4.45-14.66 1.41.36-1.14 1.36-3.25 1.56-4.43.17-1.01.28-2.02.34-3.04.04-.76.05-1.52.02-2.28v-.01c-.04-1.05-.14-2.11-.31-3.16 2.4-4.18 8.25-6.37 13.61-6.21a19.777 19.777 0 00-2.37 10.27c.01.12.02.23.02.33z"/><path class="st13" d="M402.69 346.54c4.73-.53 8.65-2.55 11.33-6.86.05-1.37.55-3.82 1.08-5.1-3.85 2.39-7.88 4.17-12.16 4.23.24 2.53.16 5.19-.25 7.73z"/><path class="st12" d="M416.6 328.59c-.03-.01-.05-.03-.08-.04-.61 3.39-1.88 6.67-3.76 9.55-2.08 3.18-5.11 6.02-8.86 6.64-3.75.62-8.1-1.75-8.6-5.52-.37-2.86 1.39-5.5 2.62-8.1a23.55 23.55 0 002.21-8.8c.05-.94-.09-1.88-.34-2.79-.24-.85-.44-1.7-.47-2.57-.11-3.11 2.12-6.06 5.05-7.11 2.93-1.05 6.34-.3 8.79 1.61 2.45 1.92 3.97 4.88 4.45 7.95.5 3.07.02 6.24-1.01 9.18z"/><path class="st12" d="M414.6 330.76c-.2-.72 1.16-2.99 1.86-3.25.7-.26 1.53-.01 2.06.51.53.53.78 1.29.8 2.04.01.75-.2 1.48-.5 2.17-.44 1.02-1.09 2-2.06 2.54s-2.3.53-3.1-.24c1.03-1.65 1.47-1.89.94-3.77z"/><path class="st291" d="M414.63 329.41c.76-1.11 1.52-2.24 1.86-3.54.33-1.3.14-2.81-.81-3.75-.66-.65-1.59-.94-2.34-1.47-1.47-1.04-2.14-2.92-2.16-4.72-.02-1.8.53-3.55 1.06-5.26 2.79-.2 5.74 1.36 7.52 3.52 1.77 2.16 2.42 5.21 1.68 7.9-.92 3.35-3.6 6-6.81 7.32z"/><path class="st41" d="M416.85 347.54a28.186 28.186 0 01-12.53 4.61c1.46 2.02 2.37 4.49 2.6 6.97 4.47-1.01 8.65-3.19 11.94-6.38-.02-1.76-.88-3.83-2.01-5.2z"/><path class="st41" d="M404.52 352.24a9.434 9.434 0 00-2.46 6.75c-2.45-1.17-4.55-3.01-5.91-5.35.39-1.68 1.24-3.39 2.49-4.57 1.72 1.43 3.73 2.56 5.88 3.17z"/><path class="st291" d="M397.49 330.91c.86-.31 1.59-.97 2.54-1.01.87-.04 1.68.53 1.94 1.37.65-.58 1.64-.65 2.37-.16.79.53 1.07 1.47 1.65 2.18.45.55 1.11.99 1.82 1.12.16.03.69.09.94.01-.09.25-.94 1.4-2.27 1.78-.97.27-1.99.12-2.87-.34-.88-.46-1.89-1.49-2.2-2.56-.82.76-2.22 1.11-3.2 1.05-.99-.06-1.94-.46-2.63-1.2-.95-1.02-1.08-2.44-1.02-2.7.17.2.65.42.81.48.65.25 1.45.22 2.12-.02z"/><path class="st13" d="M313.88 382.39c.18 1.06.46 2.25.86 3.52.4 1.28.92 2.64 1.55 4.08.64 1.43 1.39 2.94 2.26 4.48a66.623 66.623 0 004.48 6.9c.65.88 1.32 1.77 2.03 2.66l.93 1.25 1.21.32c.67.18 1.34.35 2.01.53 8.19 2.13 15.71 3.67 21.21 4.6 5.51.92 8.99 1.22 9.2.5.21-.72-2.86-2.39-7.97-4.67-5.11-2.26-12.24-5.13-20.24-7.88-.14-.05-.27-.09-.41-.14-.74-1.32-1.45-2.62-2.15-3.88-.87-1.58-1.71-3.1-2.51-4.55-.53-.95-1.04-1.87-1.55-2.74-.26-.45-.52-.89-.77-1.32-.74-1.27-1.46-2.43-2.15-3.48-.7-1.05-1.36-1.99-2-2.79-.64-.8-1.26-1.47-1.84-1.99-.59-.52-1.13-.89-1.64-1.08-.51-.2-.97-.23-1.37-.07-.4.16-.72.5-.95.99-.22.5-.37 1.16-.4 1.96-.03.79.03 1.74.21 2.8zM181.3 411.12c.85-.77 1.95-2.19 3-3.47.55-.67 1.64-.34 1.72.52.15 1.54.73 3.04 1.8 3.19 1.46.2 2.78-.78 4.08-1.49.87-.48 1.83-.87 2.84-.68.58.1 1.11.42 1.42.92.73 1.18-.15 2.59-1.12 3.5-3.29 3.08-8.38 4.06-12.58 2.44-.39-1.69-.78-3.26-1.16-4.93z"/><path class="st12" d="M351.04 406.68c1.82-.17 4.04-1.32 5.75-2.23.21-.11.44.1.35.32-.21.47-.67 1.04-.91 1.17-.35.19-.79.32-.95.68-.15.35.02.77.31 1.01s.67.35 1.03.45c.84.23 1.68.46 2.53.69.73.2 1.56.47 1.69 1.36.06.41-.06.83-.25 1.2-.74 1.42-2.32 2.28-3.91 2.36-1.52.07-3.03-.52-4.22-1.48-1.18-.96-2.06-2.25-2.68-3.64.34-.63.91-1.27 1.26-1.89z"/><path class="st18" d="M181.5 389.61c-1.96.93-3.2 3.19-2.93 5.35.15 1.16.69 2.27.58 3.44-.13 1.43-1.18 2.58-2.13 3.65-2.88 3.21-5.42 6.78-7 10.79-1.57 4.01-2.12 8.51-1.01 12.67s4 7.93 7.98 9.61c3.92 1.65 8.42 1.17 12.52.05 3.41-.93 6.75-2.32 9.52-4.52 2.77-2.2 4.94-5.28 5.58-8.76.64-3.48-.42-7.34-3.08-9.67-1.38-1.21-3.2-2.07-3.99-3.73-1.07-2.27.24-4.87.61-7.35.41-2.78-.48-5.72-2.37-7.81-1.82-2.01-4.32-2.91-6.95-3.31-2.33-.36-5.09-1.47-7.33-.41z"/><path class="st12" d="M188.78 489.14c.01.87.02 1.75.02 2.63.07 8.9.33 17.38.61 25.1.29 7.72.61 14.68.89 20.53.09 1.84.18 3.57.26 5.18.08 1.46.16 2.82.24 4.07.61 1.12 1.67 2.06 2.97 2.65.29-1.66.61-3.58.95-5.74.29-1.79.59-3.74.92-5.85.89-5.78 1.92-12.65 3-20.29 1.08-7.64 2.2-16.04 3.2-24.87.59-5.2 1.09-10.27 1.49-15.12a49.704 49.704 0 00-13.24-2.3c-.39-.01-.78-.03-1.18-.03-.11 4.51-.15 9.21-.13 14.04z"/><path class="st12" d="M175.38 491.74c.07 8.9.33 17.38.61 25.11.28 7.72.6 14.68.89 20.52.09 1.77.17 3.43.25 4.99.09 1.65.18 3.18.26 4.57.65 1.04 1.69 1.9 2.94 2.44.28-1.65.6-3.57.94-5.73.29-1.82.6-3.81.93-5.94.89-5.78 1.92-12.65 3-20.29 1.08-7.64 2.2-16.04 3.2-24.88.13-1.14.25-2.27.37-3.39.52-4.82.96-9.51 1.31-14-.39-.01-.78-.03-1.18-.03-.24-.01-.49-.01-.73-.01-4.41 0-8.68.57-12.73 1.64-.08 4.81-.1 9.83-.06 15zm9.72-71.5c2.89 2.1 6.75 2.23 9.96.43-.45-1.15-.76-2.41-.94-3.71-.05-.36-.09-.73-.12-1.09l-.03-.62c0-.17-.01-.34-.01-.52-3.17-.44-6.1-1.53-8.65-3.13.13 1.19.2 2.39.2 3.6 0 .62-.02 1.24-.06 1.85-.06 1.08-.18 2.14-.35 3.19z"/><path class="st13" d="M185.5 415.21c0 .62-.02 1.24-.06 1.85 1.31.54 2.73.84 4.16.84 1.55.01 3.1-.31 4.51-.94-.05-.36-.09-.73-.12-1.09l-.03-.62c0-.17-.01-.34-.01-.52-3.17-.44-6.1-1.53-8.65-3.13.14 1.2.21 2.4.2 3.61z"/><path class="st12" d="M183.27 407.59c.21.93.41 1.79.56 2.41.05.21.1.41.14.6.11.22.24.51.37.82.77 1.79 2.04 3.33 3.71 4.34.53.33 1.09.59 1.69.8 1.35.47 2.88.51 4.25.12.01 0 .03-.01.04-.01 1.08-.32 2.05-.91 2.75-1.8 1.47-1.86 1.47-4.53.82-6.82-.06-.2-.12-.4-.19-.62-.5-1.53-1.31-3.61-2-5.44a7.125 7.125 0 01-3.75-3.13c-1.69 3.48-4.45 6.36-7.76 8.36-.21.13-.42.25-.63.37z"/><path class="st12" d="M183.62 408.28c-.03-.44-.44-.81-.87-.84-.44-.04-.87.22-1.1.6-.23.38-.26.85-.15 1.28.11.43.35.81.65 1.14.34.38.75.69 1.23.86.48.16 1.02.17 1.48-.05-.11-1.04-.62-2.14-1.24-2.99z"/><path class="st35" d="M170.82 496.76s1.54.38 4.09.8c7.03 1.18 21.76 2.79 33.45-1.72l-.33-.2c.09-11.91-3.57-36.85-6.92-53.81l4.96-1.66c-4.09-16.28-10.29-18.94-10.5-19.03h-.01c-.3-.28-.49-.43-.52-.47v-.01l-9.96-.43s-.3.03-.82.16c-2.02.48-7.31 2.35-10.54 9.03-1.36 2.82-2.36 6.49-2.58 11.28 0 0 1.16 1.35 3.85 2.1-.67 14.77-2.07 39.59-4.17 53.96z"/><path class="st12" d="M170.34 449.62c0 .27.01.55.02.83.03 1.1.07 2.22.12 3.35.06.65.12 1.3.19 1.94l.15 1.39.09.82c.05.27.09.54.14.8.09.53.18 1.06.27 1.58l.27 1.55c.12.51.24 1.01.36 1.51.25.99.45 1.95.73 2.88.57 1.86 1.09 3.61 1.74 5.2.31.8.59 1.57.91 2.29.3.65.59 1.28.87 1.88-.24 1.56-.06 3.19.56 4.64.72 1.68 2.03 3.09 3.61 3.99 1 .57 2.25-.15 2.24-1.31l-.01-6.3c.42.16 1.17.5 1.94.84.52.23.96-.45.53-.83-1.44-1.24-3.33-2.38-4.93-3.01-.06-.39-.11-.78-.17-1.19-.1-.73-.15-1.5-.23-2.29-.19-1.57-.24-3.26-.34-5.02-.05-.88-.02-1.79-.04-2.7-.01-.46-.01-.92-.02-1.39.02-.47.03-.94.05-1.42.01-.47.03-.95.04-1.43.01-.24.01-.48.02-.72s.03-.48.05-.73c.07-.97.14-1.96.19-2.95.11-.99.21-1.97.3-2.93.02-.24.04-.48.07-.72.03-.24.07-.47.1-.71l.18-1.4c.06-.46.11-.92.17-1.37.07-.45.14-.9.22-1.34.02-.11.04-.22.05-.34.12-.77.21-1.52.34-2.25.31-1.68.53-3.29.82-4.78.14-.75.22-1.49.35-2.19.13-.7.24-1.37.34-2.03.15-1.32.36-2.49.43-3.58.04-.54.05-1.06.06-1.55.02-.48.02-.93-.01-1.34-.11-1.67-.59-2.84-1.46-3.24-.87-.41-2.04 0-3.39 1.18-.34.3-.68.64-1.04 1.03-.34.39-.67.84-1.02 1.34-.68.99-1.42 2.14-2.03 3.5-.32.68-.63 1.39-.95 2.14-.31.75-.55 1.56-.82 2.4-.56 1.66-.94 3.49-1.32 5.42-.18.97-.28 1.97-.41 2.99-.06.51-.11 1.03-.17 1.55-.02.52-.05 1.05-.08 1.59l-.06 1.62c-.01.27-.02.54-.02.81z"/><path class="st35" d="M185.1 420.24s-13.04 1.42-13.94 20.47c0 0 3.41 3.96 12.1 2.11l1.84-22.58z"/><path class="st12" d="M184.29 420.4a6.47 6.47 0 002.21 3.48c1.68 1.34 4.07 1.74 6.1 1.02 1.13-.4 2.16-1.16 2.68-2.23.23-.46.34-.99.31-1.51-.3-.28-.49-.43-.52-.47v-.01l-9.96-.43c-.01-.01-.31.03-.82.15z"/><path class="st18" d="M208.29 552.68c-.01.17-.16.3-.33.29 0 0-2.44.69-4.79.51l-14.56-1.08a.312.312 0 01-.29-.33l.08-1.12c.01-.17.16-.3.33-.29l14.52 1.08c2.14.16 4.55-.53 4.55-.53.17.01.3.16.29.33l.2 1.14z"/><path class="st4" d="M188.74 550.66s-.43-2.92.7-4.57c1.14-1.65 0-6.42.29-7.7.28-1.28.71-1.15 2.99-2.05 2.29-.89 4.42-1.12 4.09.74-.33 1.86-.78 10.56 6.97 12.67 1.85-.25 4.62.77 4.02 1.45-.29-.02-1.93.73-4.55.53-5.77-.42-14.51-1.07-14.51-1.07z"/><path d="M196.81 537.08c.33-1.86-1.81-1.63-4.09-.74-2.29.89-2.71.76-2.99 2.05-.28 1.28.85 6.05-.29 7.7-1.14 1.65-.7 4.57-.7 4.57l14.52 1.08c.78.06 1.47.03 2.07-.03 0-.02-.22-1.5-1.54-1.95-7.76-2.12-7.31-10.82-6.98-12.68z" fill="#ef265b"/><path class="st4" d="M202.2 550.29a.417.417 0 10-.79-.27c-.07.22.04.46.26.53.22.08.46-.04.53-.26z"/><path class="st259" d="M202.02 550.23a.239.239 0 00-.15-.3.239.239 0 00-.3.15c-.04.12.02.25.15.3.13.04.26-.03.3-.15z"/><path class="st4" d="M202.44 549.01a.239.239 0 00-.15-.3.239.239 0 00-.3.15l-.34.99c-.04.12.02.26.15.3.12.04.25-.02.3-.15l.34-.99zm-1.99.44c.13-.19.08-.45-.11-.59a.418.418 0 00-.58.11c-.13.19-.08.45.11.59.19.13.45.08.58-.11z"/><path class="st259" d="M200.3 549.35a.24.24 0 00-.06-.33.24.24 0 00-.33.06.24.24 0 00.06.33c.11.07.26.04.33-.06z"/><path class="st4" d="M201.02 548.29a.24.24 0 00-.06-.33c-.11-.07-.25-.05-.32.06l-.59.87c-.07.11-.05.25.06.32s.25.05.32-.06l.59-.86zm-2.22-.04c.18-.15.21-.41.06-.59a.416.416 0 00-.59-.06c-.18.15-.21.41-.06.59.14.18.41.21.59.06z"/><path class="st259" d="M198.68 548.11c.1-.08.11-.23.03-.33a.236.236 0 00-.33-.03c-.1.08-.11.23-.03.33.08.09.23.11.33.03z"/><path class="st4" d="M199.67 547.29c.1-.08.11-.23.03-.33a.236.236 0 00-.33-.03l-.81.67c-.1.08-.11.23-.03.33s.23.11.33.03l.81-.67zm-2.17-.72c.21-.1.29-.36.19-.57a.418.418 0 00-.57-.18c-.21.1-.29.36-.19.57.11.2.37.29.57.18z"/><path class="st259" d="M197.42 546.41c.12-.06.16-.2.1-.31a.224.224 0 00-.31-.1c-.12.06-.16.2-.1.31.05.11.19.15.31.1z"/><path class="st4" d="M198.56 545.82c.12-.06.16-.2.1-.31-.06-.11-.2-.16-.31-.1l-.94.47c-.12.06-.16.2-.1.31.06.11.2.16.31.1l.94-.47zm-1.99-1.3a.41.41 0 00.26-.53.41.41 0 00-.53-.26.41.41 0 00-.26.53c.07.21.31.33.53.26z"/><path class="st259" d="M196.51 544.34c.12-.04.19-.17.15-.3-.04-.12-.17-.19-.3-.15s-.19.17-.15.3c.04.13.17.19.3.15z"/><path class="st4" d="M197.72 543.93c.12-.04.19-.17.15-.3a.239.239 0 00-.3-.15l-.99.34c-.12.04-.19.17-.15.3.04.12.17.19.3.15l.99-.34zm-1.81-1.41a.421.421 0 10-.15-.83c-.23.04-.38.26-.34.49.04.22.26.37.49.34z"/><path class="st259" d="M195.87 542.33a.23.23 0 00.19-.27.23.23 0 00-.27-.19.23.23 0 00-.19.27c.03.13.15.21.27.19z"/><path class="st4" d="M197.14 542.11a.23.23 0 00.19-.27.23.23 0 00-.27-.19l-1.03.18a.23.23 0 00-.19.27c.02.13.14.21.27.19l1.03-.18zm-1.52-1.78c.23-.01.41-.21.4-.44a.423.423 0 00-.44-.4c-.23.01-.41.21-.4.44.01.23.21.41.44.4z"/><path class="st259" d="M195.61 540.14c.13-.01.23-.12.22-.24-.01-.13-.12-.23-.24-.22-.13.01-.23.12-.22.24 0 .12.11.22.24.22z"/><path class="st4" d="M196.89 540.08c.13-.01.23-.12.22-.24-.01-.13-.12-.23-.24-.22l-1.05.05c-.13.01-.23.11-.22.24.01.13.12.23.24.22l1.05-.05z"/><path class="st18" d="M195.02 552.03c-.01.17-.16.3-.33.29 0 0-2.42.73-4.78.6l-14.58-.8a.312.312 0 01-.29-.33l.06-1.12c.01-.17.16-.3.33-.29l14.53.8c2.14.12 4.54-.62 4.54-.62.17.01.3.16.29.33l.23 1.14z"/><path class="st4" d="M175.42 550.39s-.49-2.91.62-4.59c1.1-1.67-.12-6.42.14-7.7.26-1.29.69-1.17 2.95-2.1 2.27-.93 4.4-1.2 4.11.66-.3 1.86-.58 10.57 7.21 12.54 1.85-.28 4.63.68 4.04 1.37-.29-.02-1.92.76-4.54.62-5.77-.32-14.53-.8-14.53-.8z"/><path class="st257" d="M183.24 536.66c.3-1.86-1.84-1.59-4.11-.66-2.27.93-2.7.82-2.95 2.1-.26 1.29.96 6.03-.14 7.7s-.62 4.59-.62 4.59 8.76.48 14.53.8c.78.04 1.47 0 2.07-.07 0-.02-.25-1.49-1.57-1.92-7.79-1.97-7.5-10.68-7.21-12.54z"/><path class="st4" d="M188.88 549.76a.422.422 0 00-.27-.53.422.422 0 00-.53.27c-.07.22.05.46.27.53.22.07.46-.05.53-.27z"/><path class="st259" d="M188.7 549.7a.232.232 0 00-.15-.29.232.232 0 00-.29.15c-.04.12.03.25.15.29.12.05.25-.02.29-.15z"/><path class="st4" d="M189.09 548.48a.232.232 0 00-.15-.29.232.232 0 00-.29.15l-.32 1c-.04.12.03.25.15.29.12.04.25-.03.29-.15l.32-1zm-1.97.48a.418.418 0 10-.699-.46.418.418 0 00.699.46z"/><path class="st259" d="M186.96 548.86c.07-.11.04-.25-.07-.32a.229.229 0 00-.32.07c-.07.11-.04.25.07.32s.25.03.32-.07z"/><path class="st4" d="M187.67 547.78c.07-.11.04-.25-.07-.32a.229.229 0 00-.32.07l-.58.88c-.07.11-.04.25.07.32.11.07.25.04.32-.07l.58-.88zm-2.23.01c.18-.15.2-.42.05-.59a.416.416 0 00-.59-.05c-.18.15-.2.42-.05.59.15.18.41.2.59.05z"/><path class="st259" d="M185.32 547.65c.1-.08.11-.23.03-.33a.236.236 0 00-.33-.03c-.1.08-.11.23-.03.33s.23.11.33.03z"/><path class="st4" d="M186.3 546.81c.1-.08.11-.23.03-.33a.236.236 0 00-.33-.03l-.8.68c-.1.08-.11.23-.03.33s.23.11.33.03l.8-.68zm-2.19-.68c.21-.11.28-.36.17-.57a.423.423 0 00-.57-.17c-.21.11-.28.36-.17.57.11.21.37.28.57.17z"/><path class="st259" d="M184.03 545.97c.11-.06.16-.2.1-.32a.242.242 0 00-.32-.1c-.11.06-.16.2-.1.32s.2.16.32.1z"/><path class="st4" d="M185.16 545.37c.11-.06.16-.2.1-.32a.242.242 0 00-.32-.1l-.93.49c-.11.06-.16.2-.1.32.06.11.2.16.32.1l.93-.49zm-2.02-1.27c.22-.08.33-.32.25-.54a.419.419 0 00-.54-.25c-.22.08-.33.32-.25.54.08.21.32.33.54.25z"/><path class="st259" d="M183.07 543.92c.12-.04.18-.18.14-.3-.04-.12-.18-.18-.3-.14-.12.04-.18.18-.14.3.05.12.18.19.3.14z"/><path class="st4" d="M184.28 543.49c.12-.04.18-.18.14-.3a.23.23 0 00-.3-.14l-.99.36c-.12.04-.18.18-.14.3.04.12.18.18.3.14l.99-.36zm-1.84-1.38c.23-.04.38-.26.33-.49a.407.407 0 00-.49-.33c-.23.04-.38.26-.33.49.04.22.26.37.49.33z"/><path class="st259" d="M182.4 541.92c.13-.02.21-.15.19-.27a.235.235 0 00-.27-.19c-.13.02-.21.15-.19.27.02.14.15.22.27.19z"/><path class="st4" d="M183.66 541.68c.13-.02.21-.15.19-.27a.235.235 0 00-.27-.19l-1.03.2c-.13.02-.21.15-.19.27.02.13.15.21.27.19l1.03-.2zm-1.55-1.75c.23-.02.41-.22.39-.45a.423.423 0 00-.45-.39c-.23.02-.41.22-.39.45.02.22.22.4.45.39z"/><path class="st259" d="M182.1 539.74a.235.235 0 10-.03-.47.235.235 0 10.03.47z"/><path class="st4" d="M183.38 539.65a.235.235 0 10-.03-.47l-1.05.07a.235.235 0 10.03.47l1.05-.07z"/><path class="st13" d="M304.85 526.07c-.27-5.86-.56-12.83-.82-20.58-.26-7.74-.48-16.25-.52-25.17-.04-8.92.11-17.41.52-25.11.21-3.85.48-7.51.82-10.93.34-3.44.75-6.52 1.08-9.24.34-2.73.61-5.13.82-7.23.21-2.1.36-3.91.53-5.46.15-1.53.35-2.81.66-3.79.3-.97.77-1.65 1.44-1.92.67-.27 1.51-.12 2.51.51.99.63 2.08 1.75 3.14 3.37 1.05 1.62 2.01 3.74 2.75 6.26.37 1.26.68 2.6.94 4.03.24 1.42.44 2.92.56 4.47.27 3.11.29 6.41.24 9.83-.05 3.43-.19 7.1-.42 10.95-.46 7.7-1.26 16.15-2.31 25.01-1.05 8.86-2.23 17.29-3.36 24.95s-2.21 14.56-3.14 20.35c-.93 5.79-1.71 10.48-2.33 13.71-.62 3.23-1.08 5.01-1.45 4.99-.37-.02-.63-1.84-.88-5.12-.26-3.28-.5-8.02-.78-13.88z"/><path d="M306.3 547.19c.66 1.61 2.15 2.94 3.98 3.55 1.83.61 3.85.5 5.8.38.82-.05 1.67-.1 2.4-.44.73-.34 1.3-1.03 1.16-1.74-.19-.94-1.41-1.38-2.45-1.69-2.89-.88-5.64-2.12-8.15-3.66-1.2-.74-2.08-1.79-2.81-.19-.51 1.15-.4 2.64.07 3.79z" fill="#0a273a"/><path class="st12" d="M296.28 526.07c-.27-5.86-.56-12.83-.82-20.58-.26-7.74-.48-16.25-.52-25.17-.04-8.92.11-17.41.52-25.11.21-3.85.48-7.51.82-10.93.34-3.44.75-6.52 1.08-9.24.34-2.73.61-5.13.82-7.23.21-2.1.36-3.91.53-5.46.15-1.53.35-2.81.66-3.79.3-.97.77-1.65 1.44-1.92.67-.27 1.51-.12 2.51.51.99.63 2.08 1.75 3.14 3.37 1.05 1.62 2.01 3.74 2.75 6.26.37 1.26.68 2.6.94 4.03.24 1.42.44 2.92.56 4.47.27 3.11.29 6.41.24 9.83-.05 3.43-.19 7.1-.42 10.95-.46 7.7-1.26 16.15-2.31 25.01-1.05 8.86-2.23 17.29-3.36 24.95s-2.21 14.56-3.14 20.35c-.93 5.79-1.71 10.48-2.33 13.71-.62 3.23-1.08 5.01-1.45 4.99-.37-.02-.63-1.84-.88-5.12-.26-3.28-.51-8.02-.78-13.88z"/><path class="st18" d="M297.29 547.19c.66 1.61 2.15 2.94 3.98 3.55 1.83.61 3.85.5 5.8.38.82-.05 1.67-.1 2.4-.44.73-.34 1.3-1.03 1.16-1.74-.19-.94-1.41-1.38-2.45-1.69-2.89-.88-5.64-2.12-8.15-3.66-1.2-.74-2.08-1.79-2.81-.19-.51 1.15-.4 2.64.07 3.79zm18.38-136.3c7.21 21.67 6.04 68.16 6.04 68.16-12.86 3.91-21.73 3.13-26.77 1.88-3.36-.84-5.02-1.88-5.02-1.88-1.85-39.69 9.94-68.44 9.94-68.44.05-.21 11.79-1.07 15.81.28zm-19.76-62.31c-.59 2.04-.13 4.32-.93 6.29-1.14 2.79-4.37 4.04-6.32 6.34-2.36 2.8-2.51 7.09-.79 10.33 1.72 3.23 5.07 5.42 8.63 6.27 3.57.85 7.34.46 10.87-.53 1.64-.46 3.28-1.06 4.64-2.09 1.36-1.03 2.44-2.52 2.65-4.22.37-2.94-1.86-5.77-1.4-8.69.35-2.26 2.21-3.96 3.28-5.98 1.6-3.01 1.33-6.92-.66-9.68-4.35-6.07-17.62-6.14-19.97 1.96z"/><path class="st12" d="M310.71 376.98c-1.75.87-3.8 1.13-5.71.74-1.92-.39-3.43-1.49-4.69-2.98.41-1.33.77-2.67 1.04-4.04l.18-.94v-.03c.07-.36.13-.73.18-1.1.25-1.63.4-3.28.45-4.94 0-.1.01-.2 0-.29v-.02c.02-.47.02-.93.01-1.41a40.09 40.09 0 00-.34-4.76c2.49 1.38 4.95 2.88 6.75 5.09-.05.97-.05 1.93-.03 2.9 0 .16.01.32.02.47.02.57.05 1.12.1 1.69.01.04.01.09.01.14.03.43.08.85.13 1.27.02.19.04.39.07.58.01.12.03.25.05.37 0 .01 0 .03.01.04.36 2.45.94 4.87 1.77 7.22z"/><path class="st69" d="M293.21 385.16c.62 1.94 1.6 4.12 3.03 6.57 0 0 .21-.01.58-.07.01.03.03.06.04.09 2.37 5.17 2.94 13.34 2.97 18.85 2.56 1.14 5.53 1.3 9.06 1.27 2.36-.02 4.54-.6 6.71-.99.01 0 .01-.02.01-.02.02-.06.05-.12.07-.18.03-.06.06-.15.1-.24.84-2.11 4.35-11.44 4.24-20.65 2.53-1.28 4.34-3.73 4.34-3.73-.98-2.01-2.15-3.79-3.38-5.33-3.67-4.61-7.88-7.2-9.18-7.94-.04-.01-.07-.03-.11-.04-.1-.06-.2-.12-.29-.17-.65-.24-1.32-.43-2-.56-2.46-.48-4.49-1.46-6.99-1.71-.74-.07-1.5-.1-2.24-.06h-.01c-.19.04-2.28.53-4.25 2.09-2.57 2.01-4.95 5.84-2.7 12.82z"/><path class="st12" d="M300.17 370.24c.97 3.03 2.94 5.73 5.54 7.55.8.57 1.68 1.06 2.65 1.25.96.19 2.03.05 2.81-.55 1.11-.85 1.41-2.43 1.11-3.79-.17-.76-.49-1.46-.88-2.13-.64-.24-1.31-.43-2-.56-2.47-.48-4.49-1.46-6.99-1.71-.74-.08-1.49-.1-2.24-.06z"/><path class="st13" d="M308.89 369.35c-1.06-.3-2.07-.76-2.98-1.38a10.527 10.527 0 01-3.75-4.57c.02-.47.02-.93.01-1.41a40.09 40.09 0 00-.34-4.76c2.49 1.38 4.95 2.88 6.75 5.09-.05.97-.05 1.93-.03 2.9 0 .16.01.32.02.47.02.57.05 1.12.1 1.69.01.04.01.09.01.14.03.43.08.85.13 1.27.03.17.05.37.08.56z"/><path class="st12" d="M301.87 359.47c.1.63.22 1.27.27 1.91.02.24.03.47.02.71.06.1.11.21.17.31.99 1.73 2.37 3.33 4.21 4.09 1.84.76 4.19.51 5.52-.98 1.23-1.37 1.35-3.43.95-5.23-.4-1.8-1.23-3.47-1.69-5.26-.23-.9-.36-1.86-.29-2.79.05-.76.24-1.49.6-2.14-.7.56-1.52.98-2.35 1.31-1.43.57-2.95.94-4.33 1.63s-2.66 1.78-3.1 3.26c-.28 1.03-.15 2.13.02 3.18z"/><path class="st12" d="M301.99 358.49c-.07-.38-.23-.82-.6-.94s-.75.13-1 .43c-.63.77-.71 1.93-.2 2.78.51.85 1.57 1.33 2.54 1.14-.18-1.12-.54-2.3-.74-3.41z"/><path class="st4" d="M302.3 361.76a.91.91 0 01-1.05.75.91.91 0 01-.75-1.05.91.91 0 011.05-.75c.49.09.83.56.75 1.05z"/><path class="st12" d="M296.62 391.61c.33.72.7 1.47 1.08 2.21.86 1.66 1.84 3.38 2.95 5.11 1.1 1.73 2.32 3.48 3.63 5.22l.89 1.31 1.15.39c.69.23 1.39.47 2.09.71 8.49 2.82 16.32 5 22.04 6.39 5.73 1.38 9.38 1.98 9.64 1.27.26-.7-2.89-2.64-8.14-5.35-5.25-2.7-12.6-6.18-20.86-9.6-.15-.06-.3-.12-.46-.19-.66-1.52-1.29-3-1.9-4.43-.76-1.76-1.47-3.46-2.17-5.06-.25-.58-.5-1.14-.75-1.7-.17-.39-.35-.77-.52-1.14-2.77 3.54-6.87 4.55-8.38 4.82-.11.01-.21.03-.29.04z"/><path class="st12" d="M333.79 410.32c1.85-.08 4.15-1.15 5.91-1.98.19-.09.39.11.3.3-.22.47-.74 1.06-.99 1.18-.36.17-.8.28-.98.64-.17.34-.01.77.26 1.02s.65.38 1.01.5l2.49.81c.72.23 1.53.54 1.63 1.44.04.42-.1.83-.31 1.19-.81 1.38-2.43 2.17-4.02 2.18-1.52 0-3-.66-4.14-1.67-1.14-1.01-1.95-2.35-2.51-3.77.38-.62.98-1.24 1.35-1.84zM221.9 546.92c1.29-3.63 2.69-7.61 4.17-11.87l-8.53-1.65c-.68 4.42-1.29 8.55-1.84 12.33l6.2 1.19zm32.77 2.11c.89-3.75 1.85-7.86 2.85-12.26l-8.66-.71c-.19 4.47-.35 8.64-.49 12.45l6.3.52zm9.56-172.27c.13.86.25 1.73.38 2.6a1771.02 1771.02 0 01.54 3.99c.05.45.08.9.13 1.36.16 1.82.31 3.66.45 5.53.07 1.87.13 3.73.18 5.55l.03 1.36c-.01.45-.02.91-.02 1.35-.02.9-.04 1.79-.05 2.67-.02.88-.05 1.75-.07 2.62-.06.87-.11 1.72-.17 2.57l-.18 2.52c-.07.83-.11 1.64-.21 2.45-.19 1.61-.38 3.18-.57 4.71-.05.38-.09.76-.14 1.13-.05.37-.12.75-.18 1.12-.12.74-.25 1.46-.36 2.17-.12.71-.25 1.41-.37 2.1-.07.36-.13.72-.19 1.08 1.28 2.28 1.66 5.12.96 7.63-.85 3.02-3.24 5.45-6.1 6.19-.96.25-2.09.27-2.84-.46-.82-.8-.84-2.17-.59-3.3.25-1.14.72-2.24.65-3.42-.07-1.17-.97-2.44-2.05-2.26-.65.1-1.38.67-1.88.19-.27-.26-.28-.74-.12-1.08.17-.34.46-.59.75-.82 1.32-1.06 2.65-2.11 3.97-3.16-.06-21.05-5.95-49.86-7.48-56.99-.23-1.06-.36-1.64-.36-1.64 4.16-.6 8.15-2.36 11.38-5.05.12.34.24.68.37 1.03.24.69.47 1.38.71 2.09.12.36.24.71.35 1.08.1.37.21.73.31 1.1.42 1.48.83 3.01 1.23 4.59.21.78.37 1.59.54 2.41.04.22.09.45.14.67l.36 1.8c.17.82.33 1.67.5 2.52z"/><path class="st18" d="M263.71 462.76a431.538 431.538 0 00-2.06-26.16c-.07-.66-.15-1.32-.22-1.99-.22-1.9-.45-3.81-.7-5.73-.21-1.65-.43-3.32-.67-4.99-.37-2.59-.76-5.2-1.18-7.83-.19-1.19-.38-2.38-.59-3.58-.02-.14-.05-.29-.07-.44l-.33-1.91-15.66-.33-24.06-.51c.22 1.66.5 3.96.78 6.92.06.63.11 1.3.17 1.99l.03.38c.09 1.1.18 2.28.26 3.54l.06.85a339.484 339.484 0 01.56 12.79c.11 4.35.16 9.21.13 14.59-.02 3.73-.1 7.7-.22 11.94-.57 19.78-2.3 45.21-6.21 76.94 4.45.57 9.73 1.38 14.15 1.88 3.89-13.76 9.01-38.3 12.65-79.62.56-6.32 1.08-13.04 1.56-20.17 1.01 6.01 1.99 12.8 2.85 20.24 2.55 22.11 3.94 49.95 1.18 80.21h14.17c2.33-16.33 5.09-44.41 3.42-79.01z"/><path class="st255" d="M246.13 541.76h2.55c7.33-43.52.23-102.14.23-102.14l-6.81 1.7c1 6.01 1.99 12.8 2.85 20.23 2.54 22.11 3.94 49.95 1.18 80.21z"/><path class="st35" d="M227.55 325.2c.84 3.15 1.69 6.3 2.53 9.45.59 2.2 1.29 4.56 3.1 5.94 1.67 1.27 4.13 1.37 5.9.25-2.57-2.41-4.51-5.34-5.58-8.7-.5-1.57-.83-3.23-1.66-4.65-.85-1.43-2.65-2.45-4.29-2.29z"/><path class="st257" d="M258.61 408.68c.66 4.16 1.44 8.46 2.36 12.84-3.33.41-6.68.72-10.02.93-10.95.67-21.98.23-32.84-1.34a842.407 842.407 0 00-.75-20.36c-.19-3.92-.41-7.91-.67-11.7-.39-5.7-.84-10.96-1.38-14.86-.85-6.28-1.67-13.42 2.39-18.29 2.34-2.8 5.86-4.26 9.25-5.62 1.29-.52 2.58-1.04 3.87-1.55.04-.02.07-.04.11-.05 2.31-.93 4.61-1.85 6.93-2.78 2.67 1.36 5.67 2.71 8.64 4.07l1.98.9c.01 0 .01.01.02.01.56.09 11.59 2.19 15.71 19.02 0 0-3.84 2.17-8.97 2.31.22 8.09.86 18.43 2.42 30 .1.72.2 1.46.3 2.19.21 1.41.42 2.84.65 4.28z"/><path class="st12" d="M233.88 343.3c-.12 2.55-.72 5.07-1.82 7.42 4.58 1.17 9.41 1.32 14.1.47a26.393 26.393 0 01-1.22-7.48c-.01-.47-.01-.94.01-1.41.04-1.07.14-2.15.31-3.21-2.43-4.22-8.34-6.44-13.76-6.28 1.2 2.22 1.96 4.63 2.26 7.09.14 1.1.18 2.2.13 3.3-.01.03-.01.06-.01.1z"/><path class="st12" d="M248.49 350.86c-.28.67-.65 1.3-1.11 1.87-1.81 2.24-4.8 3.39-7.67 3.19-2.83-.2-5.55-1.67-7.26-3.94a9.745 9.745 0 01-1.61-3.26c.04-.02.07-.03.11-.05 2.31-.93 4.61-1.85 6.92-2.78 2.67 1.36 5.67 2.72 8.65 4.07.66.31 1.31.61 1.97.9z"/><path class="st35" d="M247.01 318.09c1.12 3.09.82 6.68-.82 9.53-.35-2.3-.72-4.52-1.07-6.82-.16-1.07-.27-2.32.51-3.07.24-.23.58-.39.9-.31.31.09.65.39.48.67z"/><path class="st13" d="M233.75 339.9c.14 1.1.18 2.2.13 3.3 0 .04 0 .07-.01.11 1.01-.35 2.08-.52 3.15-.49 1.55.04 3.05.47 4.57.75 1.1.2 2.25.32 3.34.15-.01-.47-.01-.94.01-1.41.04-1.07.14-2.15.31-3.21-2.43-4.22-8.34-6.44-13.76-6.28a19.9 19.9 0 012.26 7.08z"/><path class="st12" d="M246.09 317.06c-.75 4.53.01 9.29 2.14 13.35 1.21 2.3 2.89 4.61 2.66 7.2-.31 3.41-4.13 5.71-7.53 5.29-3.4-.42-6.23-2.86-8.22-5.65-3.64-5.1-5.09-11.71-3.92-17.87 4.28-2.17 10.14-3.08 14.87-2.32z"/><path class="st35" d="M232.08 330.97c1.27-3.12 1.6-6.61.93-9.91 3.13 1.34 6.94 1.19 10.03-.24 1.79-.82 3.35-2.1 4.55-3.65 1.43-1.86.63-4.59-1.57-5.4-2.61-.96-5.38-1.55-8.13-1.67-1.73-.08-3.56.03-5.05.92-1.97 1.17-3.02 3.7-2.46 5.93-1.43-.38-2.89.76-3.5 2.11-.61 1.34-.49 2.91-.13 4.34.82 3.22 2.64 5.61 5.33 7.57z"/><path class="st12" d="M232.33 330.71c.05-.67-.53-1.3-1.2-1.4-.67-.1-1.35.27-1.72.83-.37.56-.45 1.28-.33 1.94.13.66.45 1.27.84 1.83.57.82 1.33 1.56 2.28 1.86.95.3 2.13.04 2.69-.79-1.2-1.27-2.68-2.52-2.56-4.27zm-19.92 48.42c-.01.87-.02 1.74-.02 2.63v2.68c0 .45 0 .9.01 1.35.01.45.04.91.06 1.36.09 1.82.19 3.67.31 5.54.18 1.87.37 3.71.58 5.52l.15 1.35c.07.45.14.9.21 1.34.14.89.28 1.77.41 2.64.14.87.28 1.73.42 2.59.17.85.35 1.69.51 2.53.17.83.35 1.65.52 2.47.18.81.33 1.61.54 2.4l1.2 4.59c.1.37.2.74.3 1.1.1.37.22.72.33 1.08.22.71.44 1.41.66 2.1.22.69.44 1.36.65 2.03.12.35.22.7.33 1.04-.96 2.43-.95 5.3.09 7.69 1.25 2.88 3.95 4.96 6.89 5.3.99.11 2.11-.02 2.75-.84.7-.9.54-2.26.13-3.35-.41-1.09-1.02-2.12-1.11-3.3-.09-1.17.63-2.55 1.72-2.52.66.01 1.46.48 1.89-.06.24-.3.18-.77-.03-1.09-.21-.32-.54-.52-.86-.71-1.46-.87-2.91-1.73-4.36-2.59-2.8-20.86-.88-50.21-.34-57.48.08-1.09.13-1.68.13-1.68-4.2-.02-8.4-1.23-11.96-3.46-.07.35-.15.71-.22 1.07-.14.71-.28 1.44-.42 2.17-.07.37-.14.74-.2 1.11-.05.38-.11.75-.16 1.13-.21 1.52-.41 3.1-.6 4.71-.11.81-.15 1.63-.21 2.46-.01.23-.03.45-.04.68l-.12 1.84c-.05.85-.1 1.71-.14 2.58z"/><path class="st257" d="M217.7 355.9s-6.38 6.81-5.61 22.61c0 0 6.71 4.45 16.93-1.07l-2.57-21.54h-8.75z"/><path d="M227 543.75l-2.89-1.92s-2.13 1.87-.09 3.77c2.03 1.91 2.98-1.85 2.98-1.85z"/><path class="st11" d="M240.24 551.03s.26-1.63-1.18-2.17-4.69-1.42-7.11-2.53c-3.36-1.54-5.39-3.96-6.86-4.02-1.47-.06-1.14 2.31-4.35 2.5-3.21.18-5.7-1.4-5.85-1.45-.71.45-1.85 5.4-.94 6.6.92 1.2 8.78 1.49 8.78 1.49l6.33 1.03 6.29.03 4.89-1.48z"/><path d="M240.74 550.74s-3.91 1.11-8.9 1.17c-4.98.06-9.69-1.23-12.02-1.55-2.42-.33-6.62-.67-6.62-.67l-.15 2.58s4.07.56 7.98.45c.02-.54-.03-1.2-.03-1.2s4.41.69 6.51 1.2c2.1.51 11.35.21 13.45-1.05-.05-.27-.22-.93-.22-.93z"/><path class="st260" d="M229.47 545.75c-.1.17-.04.39.13.49.17.1.39.04.5-.13a.36.36 0 00-.13-.49c-.18-.1-.4-.04-.5.13zm-.98-.57c-.1.17-.04.4.13.5.17.1.39.04.5-.13.1-.17.04-.4-.13-.5-.18-.1-.4-.04-.5.13zm-.98-.56c-.1.17-.04.39.13.49.17.1.39.04.5-.13.1-.17.04-.39-.13-.5a.375.375 0 00-.5.14zm-.97-.57c-.1.17-.04.4.13.5.17.1.4.04.5-.13.1-.17.04-.4-.13-.5-.18-.1-.4-.04-.5.13zm-.98-.57c-.1.17-.04.4.13.5.17.1.39.04.5-.13a.36.36 0 00-.13-.49.357.357 0 00-.5.12z"/><path d="M226.07 543.71c-.04.06-.11.1-.18.1-.03 0-.06-.01-.09-.03-.09-.05-.12-.17-.07-.27l.61-1.05c.11.06.22.13.34.2l-.61 1.05zm.98.57a.2.2 0 01-.18.1c-.03 0-.06-.01-.09-.03a.194.194 0 01-.07-.27l.58-1c.1.07.21.15.32.23l-.56.97zm1.48-.31l-.51.87a.2.2 0 01-.18.1c-.03 0-.06-.01-.09-.03-.09-.05-.12-.17-.07-.27l.53-.91c.11.09.21.16.32.24zm.47 1.44c-.04.06-.11.1-.18.1-.03 0-.06-.01-.09-.03-.09-.05-.12-.17-.07-.27l.48-.82c.11.07.21.15.32.22l-.46.8zm.98.57a.2.2 0 01-.18.1c-.03 0-.06-.01-.09-.03-.09-.05-.12-.17-.07-.27l.44-.76c.11.07.22.14.33.2l-.43.76zm29.82-1.82l-2.85-1.98s-2.17 1.82-.17 3.77 3.02-1.79 3.02-1.79z"/><path class="st11" d="M272.88 551.74s.3-1.62-1.13-2.2c-1.43-.57-4.66-1.52-7.06-2.69-3.32-1.62-5.3-4.08-6.77-4.18-1.46-.1-1.19 2.29-4.41 2.4-3.22.11-5.66-1.53-5.81-1.58-.72.43-1.97 5.36-1.09 6.58.89 1.22 8.75 1.69 8.75 1.69l6.3 1.17 6.29.17 4.93-1.36z"/><path d="M273.39 551.46s-3.93 1.02-8.92.97c-4.98-.05-9.66-1.45-11.99-1.82-2.41-.39-6.6-.82-6.6-.82l-.21 2.58s4.06.65 7.96.63c.04-.54 0-1.2 0-1.2s4.4.79 6.49 1.35 11.34.47 13.47-.75c-.05-.27-.2-.94-.2-.94z"/><path class="st260" d="M262.23 546.22c-.1.17-.05.39.12.5.17.1.39.05.5-.12a.37.37 0 00-.12-.5c-.18-.1-.4-.05-.5.12zm-.96-.59c-.1.17-.05.39.12.5.17.1.39.05.5-.12a.37.37 0 00-.12-.5c-.18-.1-.4-.05-.5.12zm-.97-.59c-.1.17-.05.39.12.5.17.1.39.05.5-.12a.37.37 0 00-.12-.5.37.37 0 00-.5.12zm-.96-.58c-.1.17-.05.39.12.5.17.1.39.05.5-.12a.37.37 0 00-.12-.5.36.36 0 00-.5.12zm-.96-.59c-.1.17-.05.39.12.5.17.1.39.05.5-.12a.37.37 0 00-.12-.5.357.357 0 00-.5.12z"/><path d="M258.88 544.11c-.04.06-.11.1-.18.09-.03 0-.06-.01-.09-.03a.195.195 0 01-.06-.27l.63-1.03c.11.06.22.13.33.21l-.63 1.03zm.97.59c-.04.06-.11.1-.18.09-.03 0-.06-.01-.09-.03a.193.193 0 01-.06-.27l.6-.99c.1.08.21.15.31.23l-.58.97zm1.48-.28l-.53.86c-.04.06-.11.1-.18.09-.03 0-.06-.01-.09-.03a.195.195 0 01-.06-.27l.55-.9c.1.09.21.17.31.25zm.44 1.45c-.04.06-.11.1-.18.09-.03 0-.06-.01-.09-.03a.195.195 0 01-.06-.27l.49-.81c.1.08.21.15.32.23l-.48.79zm.96.59c-.04.06-.11.1-.18.09-.03 0-.06-.01-.09-.03a.195.195 0 01-.06-.27l.46-.75.33.21-.46.75z"/><path class="st70" d="M107.99 547.68s-10.83.6-12.8-7.65c-1.53-6.4 4.59-14.66 7.86-19.75.51-.8-.53-1.73-1.33-1.23-1.62.99-3.74 2.54-5.74 4.75-6.18 6.84-9.37 18.44-3.85 23.97 5.53 5.53 17.2 1.98 17.2 1.98l-1.34-2.07z"/><path class="st265" d="M113.77 551.11c2.22.53 12.85.07 15.96-.04.53-.02 1-.35 1.2-.84.2-.5.24-1.14-.51-1.57-1.44-.83-4.51-1.49-4.51-1.49s2.87-.97 3.82-4.18c0 0 1-3.08-.61-5.87-1.61-2.79-2.51-2.79-2.51-2.79l-12.02 8.51V547l-.82 4.11z"/><path d="M141.02 490.86c-1.21.09-2.41-.26-3.39-.97-1.47-1.07-3.77-2.01-6.58-1.85-5.31.3-8.75 5.15-8.75 9.4 0 6.87 8.09 12.48 2.63 16.14-14 9.41-23.72 19.29-23.09 27.83.62 8.51 5.15 10.62 7.69 11.22 2.22.53 12.85.07 15.96-.04.53-.02 1-.35 1.2-.84.2-.5.04-1.21-1.04-1.84-1.44-.83-3.98-1.22-3.98-1.22s3.59-1.62 3.82-4.18c.19-2.18 0-2.39 0-2.39l7.3-4.21s1.18 10.18 1.18 11.62.27 3.68 1.31 3.94c1.07.27 3.93.65 4.59-.49.66-1.14-1.08-2.13-1.72-2.5-.64-.37.41-5.44.41-5.44l-.53 5.74s-.43 2.2 1.33 2.18c1.64-.02 3.13.11 3.67-.82.54-.93-1.89-2.19-1.89-2.19s1.84-15.77 2.17-19.51c.69-7.84.83-9.65-2.13-19.13-1.48-4.74 1.02-9.64 2.86-10.7 1.85-1.07 4.02-3.62 4.02-5.83s-.6-4.12-2.75-4.12c-1.16-.01-2.92.1-4.29.2z" fill="#c8731c"/><path class="st70" d="M129.73 496.75s3.75 14.17 1.78 17.58c-1.97 3.41-4.81 3.67-7.6 2.06-2.79-1.61-2.37-7.78-1.78-12.56.6-4.82 1.57-7.62 2.28-8.32 2.04-2.04 4.74-1.78 5.32 1.24z"/><path d="M144.93 490.66s1.22 2.71 3.12 3.04c0 0 .42-1.69-.42-2.53-.83-.84-2.7-.51-2.7-.51z" fill="#2d3a48"/><path class="st265" d="M125.79 542.6a.24.24 0 01-.24-.22c-.31-3.68-3.74-5.74-3.78-5.76a.24.24 0 01-.08-.33.24.24 0 01.33-.08c.15.09 3.68 2.21 4.01 6.13.01.13-.09.25-.22.26h-.02zm15.39-13.44l-2.62 15.88-.56 5.06c-.02.22.09.44.29.54.67.34 2.06 1.2 1.58 2.33.39 0 .73-.04.95-.04.17-1.83-2.03-2.81-2.03-2.81l2.39-20.96z"/><path d="M133.86 493.62c.44-.22 1.04.08 1.34.67.3.59.18 1.25-.26 1.47-.44.22-1.04-.08-1.34-.67-.29-.59-.18-1.25.26-1.47z" fill="#233c45"/><path class="st265" d="M147.08 497.34c-.26.06-.52.09-.78.09-1.21 0-2.28-.6-2.34-.63a.324.324 0 01-.12-.43c.09-.15.28-.2.43-.12.02.01 1.86 1.04 3.22.25.04-.02.14-.06.17-.08.01.01-.26.58-.58.92z"/><path class="st12" d="M206.09 440.18l2.91 9.65 14.8-17.98 3.13 4.77s-15.34 26.16-17.63 25.66c-2.29-.49-5.01-2.75-5.01-2.75l-3.16-17.7 4.96-1.65z"/><path class="st13" d="M228.57 429.58s5.59 3.92 2.56 6.17-4.75.72-5.06-.42c-.3-1.14 2.5-5.75 2.5-5.75z"/></g></svg>