<svg width="200" height="200" fill="none" xmlns="http://www.w3.org/2000/svg"><path d="M100 196.093c55.228 0 100-9.302 100-20.777 0-11.475-44.772-20.777-100-20.777S0 163.841 0 175.316c0 11.475 44.772 20.777 100 20.777z" fill="#EAF1FC"/><path d="M190.1 166.293c12.808-38.6 13.577-112.584-12.608-138.769-24.83-24.83-37.084 4.615-56.507 5.546-15.239.77-41.231-6.815-54.977-11.8C29.969 8.193-20.915 35.932 9.9 166.293c62.323-.261 117.869.254 180.2 0z" fill="#F8F8FF"/><path d="M15.43 91.978c5.498 0 9.955-4.456 9.955-9.954 0-5.497-4.457-9.954-9.954-9.954-5.497 0-9.954 4.457-9.954 9.954 0 5.498 4.457 9.954 9.954 9.954zm9.955-72.918a3.438 3.438 0 100-6.876 3.438 3.438 0 000 6.877zm142.8 62.026A6.19 6.19 0 01171 78.932a2.977 2.977 0 001.723-1.477 3.432 3.432 0 016.485.9 3.333 3.333 0 01-.239 1.931 3.077 3.077 0 00-.061 2.308 6.163 6.163 0 01-.954 6.005 6.158 6.158 0 01-5.647 2.254 6.152 6.152 0 01-5.273-6.81 6.153 6.153 0 011.151-2.926v-.03zm17.523 48.806a1.568 1.568 0 10.001-3.137 1.568 1.568 0 00-.001 3.137z" fill="#52B82D"/><path d="M117.485 90.623a10.464 10.464 0 01-10.439 10.477 10.47 10.47 0 01-10.454-10.454V63.723" stroke="#0B2B46" stroke-width="5" stroke-linecap="round" stroke-linejoin="round"/><path d="M52.577 65.76c8.977 0 17.015 1.454 22.508 3.754 5.492-2.308 13.538-3.754 22.507-3.754 8.97 0 17.223 1.492 22.716 3.846 5.5-2.307 13.638-3.846 22.723-3.846 5.698-.047 11.381.6 16.923 1.93-4.216-24.014-30.816-42.53-63.03-42.53-32.416 0-59.17 18.77-63.078 43.023a67.876 67.876 0 0118.731-2.423z" fill="#FFDA35"/><path d="M98.508 25.16c27.923 17.415 21.853 44.354 21.853 44.354s-20.284-8.461-45.276 0c0 0-6.077-26.923 21.853-44.354" fill="#FFC435"/><path d="M100.538 23.621H94.9a.692.692 0 00-.693.692v.216c0 .382.31.692.693.692h5.638c.383 0 .693-.31.693-.692v-.216a.693.693 0 00-.693-.692z" fill="#0B2B46"/><path d="M97.877 20.063h-.3a1 1 0 00-1 1v2.692a1 1 0 001 1h.3a1 1 0 001-1v-2.692a1 1 0 00-1-1z" fill="#0B2B46"/><path d="M138.615 171.048a11.96 11.96 0 00-20.422-8.448 11.959 11.959 0 00-2.589 13.035 11.963 11.963 0 0011.05 7.382 11.937 11.937 0 0011.961-11.916v-.053zm-65.538.146a11.86 11.86 0 00-14.192-11.607 11.86 11.86 0 00-8.624 16.18 11.865 11.865 0 0010.962 7.312 11.904 11.904 0 0011.854-11.885z" fill="#0F222C"/><path d="M63.454 110.047H23.207v53.646h40.247v-53.646z" fill="#289917"/><path d="M63.454 163.691H171.26a1.992 1.992 0 011.885 2.093v4.53a1.996 1.996 0 01-1.885 2.093H63.454v-8.716z" fill="#1D4259"/><path d="M170.354 163.725h-49.069v-40.108H145.9a14.485 14.485 0 0111.962 6.385l10.046 14.854a14.622 14.622 0 012.477 8.092v10.769l-.031.008z" fill="#64CE38"/><path d="M133.077 147.332v-19.23h12.8a9.93 9.93 0 018.231 4.361l10.046 14.854-31.077.015z" fill="#0F222C"/><path d="M127.177 123.578h-5.931v40.108h5.931v-40.108z" fill="#52B82D"/><path d="M69.069 154.199h-5.615v5.339h5.615v-5.339z" fill="#FF524F"/><path d="M138.377 151.03h-4.331a.98.98 0 01-.977-.977v-1.115h6.316v1.115a1.023 1.023 0 01-1.008.977z" fill="#52B82D"/><path d="M138.377 150.507h-4.331a.98.98 0 01-.977-.977v-.592h6.316v.592a1 1 0 01-1.008.977z" fill="#222846"/><path d="M166.554 158.601a3.847 3.847 0 013.8-3.8v7.638a3.845 3.845 0 01-3.8-3.846v.008z" fill="#FFDA35"/><path d="M23.377 163.691h40.077a2.57 2.57 0 011.824.75 2.573 2.573 0 01.76 1.82v3.523a2.576 2.576 0 01-2.569 2.584H23.377a2.573 2.573 0 01-2.608-2.538v-3.562a2.6 2.6 0 012.608-2.577z" fill="#0B2B46"/><path d="M58.785 168.053a1.843 1.843 0 011.14-1.705 1.845 1.845 0 11.706 3.551 1.859 1.859 0 01-1.846-1.846z" fill="#FF524F"/><path d="M55.608 168.056a.937.937 0 01.907-.947.96.96 0 01.939.947.898.898 0 01-.9.9.873.873 0 01-.908-.831l-.038-.069z" fill="#FFDA35"/><path d="M26.923 168.053a1.848 1.848 0 01-2.21 1.802 1.841 1.841 0 01-1.447-1.452 1.848 1.848 0 011.811-2.204 1.877 1.877 0 011.846 1.854z" fill="#FF524F"/><path d="M30.077 168.056a.907.907 0 01-1.815 0 .937.937 0 01.907-.947.988.988 0 01.908.947z" fill="#FFDA35"/><path d="M63.454 110.047H23.207v53.646h40.247v-53.646z" fill="#52B82D"/><path d="M127.146 155.078l20.154 6.454a15.787 15.787 0 00-2.646 2.162h-17.508v-8.616z" fill="#F2F2F2"/><path d="M147.338 161.538l-20.161-6.454v-4.393l23.684 9.416a10.291 10.291 0 00-3.523 1.431z" fill="#FFDA35"/><path d="M122.607 110.047H63.454v53.646h59.153v-53.646z" fill="#64CE38"/><path d="M63.454 152.879l59.153 1.677v9.138H63.454v-10.815z" fill="#F2F2F2"/><path d="M89.546 159.715a12.69 12.69 0 00-12.623 12.661h25.323a12.645 12.645 0 00-12.615-12.661h-.085z" fill="#0F222C"/><path d="M87.87 161.699a10.66 10.66 0 10-.593 21.315h3.554v-21.346h-2.962v.031z" fill="#0F222C"/><path d="M100.669 172.306a10.674 10.674 0 00-12.781-10.436A10.677 10.677 0 0090 183.014a10.664 10.664 0 007.538-3.11 10.642 10.642 0 003.131-7.528v-.07z" fill="#0B2B46"/><path d="M90.03 177.571a5.23 5.23 0 100-10.462 5.23 5.23 0 000 10.462z" fill="#F2F2F2"/><path d="M122.607 154.552l-59.153-1.677v-5.477l59.192 2.685-.039 4.469z" fill="#FFDA35"/><path d="M107.3 130.869l-4.746-7.953a3.62 3.62 0 00-4.392-1.323l-19.954 10.43a1.867 1.867 0 00-1.008 1.67v4.815a1.047 1.047 0 00.954 1.131c.135.008.27-.008.4-.046l19.746-5.385a3.56 3.56 0 014.215 1.331l3.354 3.307c.593.839 1.777.354 1.777-.73v-6.154a1.796 1.796 0 00-.346-1.093z" fill="#FD0"/><path d="M153.892 159.715a12.696 12.696 0 00-8.944 3.717 12.696 12.696 0 00-3.717 8.944h25.323a12.64 12.64 0 00-3.693-8.946 12.659 12.659 0 00-4.099-2.747 12.657 12.657 0 00-4.839-.968h-.031z" fill="#0F222C"/><path d="M152.185 161.699a10.657 10.657 0 00-7.623 2.912 10.66 10.66 0 007.03 18.403h3.554v-21.346h-2.961v.031z" fill="#0F222C"/><path d="M165.023 172.306a10.679 10.679 0 00-12.76-10.472 10.676 10.676 0 002.083 21.149 10.668 10.668 0 0010.677-10.677z" fill="#0B2B46"/><path d="M154.385 177.571a5.23 5.23 0 10-.002-10.462 5.23 5.23 0 00.002 10.462z" fill="#F2F2F2"/><path d="M70.039 40.355l.769.139a5.27 5.27 0 013.977 4.17c.055.343.083.69.084 1.038v6.877a5.154 5.154 0 01-2.969 4.823 4.054 4.054 0 01-.77.292 1.098 1.098 0 01-.353.054H61.74a3.262 3.262 0 01-1.539-.385 5.177 5.177 0 01-2.877-4.092v-8.193c.047-.19.083-.382.108-.576a5.178 5.178 0 014.108-4.054c.144-.012.286-.043.423-.093h8.077zm-1.485 5.731c0-.061-.07-.13-.1-.192a4.085 4.085 0 00-4.97-2.192 4.907 4.907 0 00-3.268 2.8 6.152 6.152 0 00-.1 5.077 4.962 4.962 0 008.653 1.1l.147-.177v.1c.116.443.306.865.561 1.246a1.815 1.815 0 001.854.769 1.669 1.669 0 001.361-1.315 7.037 7.037 0 00.147-1.885c0-.1-.062-.085-.123-.085h-.97c-.107 0-.146 0-.161.139a.57.57 0 01-.892.461.862.862 0 01-.254-.215 3.078 3.078 0 01-.439-.77.5.5 0 010-.392l1.9-6.707c0-.123 0-.162-.115-.154H69.23c-.115 0-.146 0-.17.138-.076.385-.16.77-.238 1.162l-.269 1.092z" fill="#E21836"/><path d="M101.039 41.953h.4c.092 0 .123 0 .115.123-.008.123 0 .254 0 .385 0 .13 0 .138.138.138.348-.018.696.003 1.039.062a2.477 2.477 0 011.954 2.146 3.24 3.24 0 01-.193 1.73 2.444 2.444 0 01-2.007 1.485 4.275 4.275 0 01-.769 0c-.116 0-.154 0-.139.139v.1a.395.395 0 01-.361.423h-.831c-.1 0-.123 0-.116-.123.008-.123 0-.27 0-.4 0-.131 0-.147-.138-.147a3.777 3.777 0 01-1.1-.084 2.462 2.462 0 01-1.908-2.193 3.522 3.522 0 01.139-1.469 2.446 2.446 0 012.23-1.692h.647c.1 0 .13 0 .13-.13 0-.393.139-.508.539-.508l.231.015zm.5 3.354v1.4c0 .1 0 .13.13.13h.562a1.115 1.115 0 001.023-.769 2.22 2.22 0 00.038-1.361 1.135 1.135 0 00-.984-.862h-.631c-.208 0-.123 0-.123.131l-.015 1.33zm-1.331 0v-1.385c0-.1 0-.138-.123-.138h-.462a1.184 1.184 0 00-1.2 1c-.069.34-.069.69 0 1.03a1.17 1.17 0 001.016.993h.623c.207 0 .146 0 .146-.146v-1.354zm12.238 7.656v-2.192c0-.385.131-.508.5-.516h3.077a1.795 1.795 0 011.308.493 1.535 1.535 0 01.138 2.069c-.038 0-.053.07 0 .115a1.455 1.455 0 01.377 1.77 1.533 1.533 0 01-1.492 1h-3.515a.389.389 0 01-.423-.354v-.085l.03-2.3zm2.585.53h-1.185c-.1 0-.13 0-.13.132v.823c0 .1 0 .13.13.13h2.308a.54.54 0 00.339-.892.54.54 0 00-.339-.177c-.392-.023-.769-.015-1.123-.015zm-.054-2.115h-1.131c-.092 0-.123 0-.123.123v.808c0 .085 0 .116.108.116h2.215a.537.537 0 00.321-.878.537.537 0 00-.321-.184h-1.069v.015z" fill="#E21937"/><path d="M134.869 52.093l-1.023 1.493-1.2 1.7a.907.907 0 01-.769.415h-.769c-.123 0-.17 0-.162-.162v-5.115c0-.138 0-.192.177-.185h1.008c.123 0 .146 0 .146.162v3.4a.446.446 0 00.131-.139l2.107-2.992a.92.92 0 01.823-.43h.77c.092 0 .13 0 .13.122v5.216c0 .1 0 .123-.123.123h-1.053c-.124 0-.154 0-.154-.154v-3.454h-.039z" fill="#E21836"/><path d="M108.815 50.124c.479-.039.959.03 1.408.2a2.641 2.641 0 011.639 2.238 3.085 3.085 0 01-.308 1.83 2.56 2.56 0 01-2.085 1.4 4.393 4.393 0 01-1.677-.084 2.65 2.65 0 01-1.954-2.307c-.068-.542 0-1.093.201-1.6a2.592 2.592 0 012.307-1.662c.154-.015.316-.015.469-.015zm0 4.569a1.377 1.377 0 001.539-1.093 2.302 2.302 0 000-1.33 1.334 1.334 0 00-1.123-1.008 2.421 2.421 0 00-.577 0 1.271 1.271 0 00-1.1.639 2.02 2.02 0 00-.269 1.284 1.46 1.46 0 00.864 1.41c.178.08.371.124.566.129h.1v-.031zm28.3-1.723v-2.247c0-.33.146-.485.485-.485h4.146c.108 0 .138 0 .138.146a2.63 2.63 0 01-.061.6.468.468 0 01-.523.408h-2.646c-.154 0-.216 0-.208.192.015.239.015.478 0 .716 0 .123.038.154.162.146h2.776c.177 0 .208.054.2.215-.015.22-.015.442 0 .662 0 .161-.046.192-.2.184h-2.761c-.131 0-.185 0-.177.17.008.169 0 .492 0 .769 0 .115.038.146.154.146h2.561c.554 0 .639.185.716.685.007.12.007.24 0 .361 0 .093 0 .116-.108.116h-4.215a.409.409 0 01-.439-.377v-2.408zm-12.969 2.722h-.977a.508.508 0 01-.469-.4c-.054-.239-.108-.47-.154-.708a.108.108 0 00-.031-.076.11.11 0 00-.077-.032h-2.307a.125.125 0 00-.054.008.116.116 0 00-.044.03.123.123 0 00-.033.1l-.139.632a.552.552 0 01-.576.476h-.77c-.123 0-.154 0-.13-.146.192-.846.384-1.692.569-2.538.092-.416.192-.839.284-1.254a1.876 1.876 0 012.047-1.646 2.85 2.85 0 01.623.054 1.702 1.702 0 011.315 1.346c.315 1.354.615 2.715.915 4.077a.25.25 0 01.008.077zm-2.908-2.362h.893c.115 0 .13 0 .107-.13-.1-.431-.192-.87-.292-1.3a.722.722 0 00-1.423 0c-.1.43-.185.869-.285 1.3 0 .092 0 .122.093.122l.907.008zm-42.507-5.292c.315-1.4.615-2.785.938-4.162a1.8 1.8 0 011.708-1.407c.296-.031.594-.016.885.046a1.693 1.693 0 011.384 1.4c.308 1.33.6 2.669.9 4 0 .107 0 .13-.115.13h-.77a.53.53 0 01-.553-.438l-.139-.646c0-.093-.046-.131-.153-.131h-2.308c-.092 0-.13 0-.146.123-.016.123-.1.462-.154.692a.516.516 0 01-.47.4l-1.007-.007zm2.915-2.362h.923c.07 0 .116 0 .093-.1-.108-.461-.2-.93-.323-1.392a.715.715 0 00-1.385 0c-.108.454-.2.908-.3 1.361 0 .093 0 .123.1.123l.892.008zM99.608 55.7h-.377a.508.508 0 01-.508-.407 10.12 10.12 0 01-.161-.693c0-.084 0-.115-.131-.115h-2.354c-.085 0-.108 0-.123.108l-.139.63a.546.546 0 01-.584.485h-.77c-.13 0-.16 0-.13-.154.238-1.038.461-2.069.692-3.077.07-.315.139-.63.223-.946a1.8 1.8 0 011.677-1.407c.433-.05.87.005 1.277.161a1.677 1.677 0 011.03 1.254c.316 1.346.608 2.7.909 4.054 0 .107 0 .123-.108.123l-.423-.016zm-2.362-2.369h.87c.115 0 .146 0 .123-.138-.1-.423-.193-.854-.293-1.285a.723.723 0 00-1.423 0c-.1.423-.184.854-.292 1.285 0 .115 0 .13.123.13l.892.008zm12.816-5.293h-.377a.516.516 0 01-.539-.423 19.224 19.224 0 01-.153-.684c0-.085-.047-.108-.131-.108h-2.346c-.093 0-.116.038-.139.115-.024.225-.07.447-.138.662a.527.527 0 01-.554.438h-.769c-.108 0-.116 0-.1-.123.3-1.33.584-2.661.892-3.984a1.847 1.847 0 011.985-1.47c.522-.04 1.04.117 1.453.439.309.287.515.669.585 1.085.292 1.3.577 2.6.877 3.9 0 .146 0 .169-.139.161l-.407-.008zm-2.369-2.361h.915c.069 0 .115 0 .092-.108-.107-.454-.2-.923-.307-1.377a.661.661 0 00-.462-.5.705.705 0 00-.915.431.464.464 0 00-.039.146c-.092.423-.177.854-.284 1.285 0 .115 0 .123.107.123h.893zm-16.362-.514v-2.408c0-.13 0-.17.162-.17h1.038c.108 0 .146 0 .138.14V43.8c0 .131 0 .177.17.177h1.946a1.854 1.854 0 011.83 1.777 2.008 2.008 0 01-2.015 2.277h-2.792a.416.416 0 01-.477-.47v-2.4zm2.37 0h-.893c-.108 0-.139 0-.139.138v1.354c0 .108 0 .139.139.139h1.73a.808.808 0 000-1.616l-.838-.015z" fill="#E21937"/><path d="M89.146 53.116v-2.392c0-.339.138-.477.485-.477h2.784a1.962 1.962 0 011.916 1.354 2.139 2.139 0 01-.608 2.307 2 2 0 01-1.292.416h-1.785c-.139 0-.177 0-.17.177v1.069c0 .123 0 .146-.145.146h-1.039c-.115 0-.146 0-.146-.146v-2.454zm2.385-1.646H90.6c-.085 0-.123 0-.123.115v1.4c0 .077 0 .108.1.108h1.838a.779.779 0 10-.108-1.554l-.776-.07z" fill="#E21836"/><path d="M130 52.977v2.561c0 .13 0 .162-.162.162h-.992c-.131 0-.169 0-.169-.162v-1.8c0-.13 0-.161-.169-.161H126.2c-.115 0-.146 0-.146.146v1.83c0 .116 0 .147-.154.147h-1.054c-.1 0-.131 0-.131-.131V50.36c0-.092 0-.13.123-.123h1.085c.115 0 .123 0 .123.13v1.886c0 .123 0 .153.154.153h2.308c.123 0 .161 0 .161-.153v-1.847c0-.146 0-.176.177-.176h1.008c.123 0 .154 0 .154.161-.008.861-.008 1.723-.008 2.585zm-39.562-7.661v2.577c0 .123 0 .154-.161.154H89.23c-.123 0-.154 0-.154-.154v-3.892c0-.162-.046-.192-.193-.185H87.07c-.13 0-.154 0-.154.154v2.539a1.538 1.538 0 01-1.17 1.484 1.124 1.124 0 01-.553 0c-.184-.077-.123-.323-.17-.492-.045-.17-.076-.37-.122-.562-.046-.192 0-.123.077-.13h.13a.577.577 0 00.5-.631v-2.8a.768.768 0 01.724-.816h3.93c.116 0 .139.047.131.147l.046 2.607zm9.724 4.922h1.446a.601.601 0 01.438.323l.9 1.416c.123.192.223.192.339 0 .3-.462.6-.923.884-1.393a.772.772 0 01.685-.377h1.154c0 .085-.046.116-.077.162l-1.654 2.385a.21.21 0 00-.047.231.21.21 0 00.047.069c.569.769 1.123 1.623 1.685 2.438a.368.368 0 01.092.17h-1.377a.654.654 0 01-.492-.355l-.9-1.4c-.116-.184-.223-.184-.339 0-.292.462-.592.916-.877 1.377a.77.77 0 01-.707.393h-1.123a.257.257 0 01.069-.162c.554-.77 1.107-1.615 1.669-2.415a.192.192 0 000-.262c-.569-.815-1.131-1.63-1.692-2.454l-.123-.146zm-17.585 5.46h-1.43a2.546 2.546 0 01-2.308-2.261 3.078 3.078 0 01.215-1.646 2.516 2.516 0 012.423-1.539h1.87c.1 0 .13 0 .1.123-.032.123-.1.439-.155.662a.538.538 0 01-.569.446h-1.077a1.323 1.323 0 00-1.484 1.154 1.243 1.243 0 000 .292c-.01.189.009.378.053.562a1.285 1.285 0 001.324.977h1.784a.546.546 0 01.608.461c.046.208.077.415.138.615.062.2 0 .131-.115.131l-1.377.023zm3.692-5.46h2.4c.115 0 .154 0 .123.139l-.138.63a.546.546 0 01-.554.462h-.992c-.131 0-.154 0-.154.162v3.892c0 .138 0 .192-.177.184h-1.008c-.139 0-.162-.046-.162-.169v-3.846c0-.177-.053-.215-.215-.208h-.946a.546.546 0 01-.585-.469c-.046-.2-.077-.407-.13-.608-.054-.2 0-.153.138-.153l2.4-.016z" fill="#E21937"/><path d="M68.554 46.085l.23-1.062c.078-.392.162-.77.24-1.162 0-.1.053-.146.168-.138h2.593c.138 0 .154 0 .115.154L70 50.554a.501.501 0 000 .392c.109.276.256.535.439.77.07.087.156.16.254.215a.57.57 0 00.892-.462c0-.108.054-.146.161-.138h.977c.062 0 .123 0 .123.084A7.038 7.038 0 0172.7 53.3a1.67 1.67 0 01-1.361 1.315 1.816 1.816 0 01-1.854-.769 4.119 4.119 0 01-.562-1.207v-.1l-.146.176a4.962 4.962 0 01-8.684-1.177 6.153 6.153 0 01.1-5.076 4.909 4.909 0 013.269-2.8 4.077 4.077 0 015 2.215c0 .061.061.13.1.192l-.008.016zm-5.846 3.076a8.588 8.588 0 00.161 1.777c.106.633.371 1.229.77 1.731a1.877 1.877 0 002.638.3l.115-.1a3.23 3.23 0 00.77-1.1c.348-.916.606-1.864.769-2.83a.347.347 0 000-.178 12.136 12.136 0 00-.485-1.638 4.732 4.732 0 00-.838-1.47 1.931 1.931 0 00-2.616-.245c-.368.309-.65.71-.815 1.161a6.785 6.785 0 00-.47 2.562v.03z" fill="#FEFEFE"/><path d="M62.708 49.13a6.775 6.775 0 01.423-2.593 2.79 2.79 0 01.815-1.154 1.93 1.93 0 012.615.246c.366.436.65.933.839 1.47.2.534.362 1.081.485 1.638a.347.347 0 010 .177 14.903 14.903 0 01-.77 2.83 3.231 3.231 0 01-.769 1.1 1.885 1.885 0 01-2.654-.084l-.1-.115a3.792 3.792 0 01-.769-1.731 8.665 8.665 0 01-.115-1.785z" fill="#E21836"/></svg>