<?xml version="1.0" encoding="utf-8"?>
<!-- Generator: Adobe Illustrator 23.1.0, SVG Export Plug-In . SVG Version: 6.00 Build 0)  -->
<svg version="1.1" id="Layer_1" xmlns="http://www.w3.org/2000/svg" xmlns:xlink="http://www.w3.org/1999/xlink" x="0px" y="0px"
	 viewBox="0 0 910 567" style="enable-background:new 0 0 910 567;" xml:space="preserve">
<style type="text/css">
	.st0{fill:url(#SVGID_1_);}
	.st1{fill:url(#SVGID_2_);}
	.st2{fill:#EFF7FB;}
	.st3{fill:#C4E5ED;}
	.st4{fill:#FAB853;}
	.st5{fill:url(#SVGID_3_);}
	.st6{fill:#FFF5E9;}
	.st7{fill:url(#SVGID_4_);}
	.st8{fill:#58B14B;}
	.st9{fill:url(#SVGID_5_);}
	.st10{fill:url(#SVGID_6_);}
	.st11{fill:url(#SVGID_7_);}
	.st12{fill:url(#SVGID_8_);}
	.st13{fill:url(#SVGID_9_);}
	.st14{fill:#EC6643;}
	.st15{fill:url(#SVGID_10_);}
	.st16{fill:#F7B293;}
	.st17{fill:#18596E;}
	.st18{fill:#1C617D;}
	.st19{fill:url(#SVGID_11_);}
	.st20{fill:url(#SVGID_12_);}
	.st21{fill:url(#SVGID_13_);}
	.st22{fill:#D5ECF3;}
	.st23{fill:#37A538;}
	.st24{fill:#3F95B7;}
	.st25{fill:#035D78;}
	.st26{fill:#60A3BF;}
	.st27{fill:#C7E6EE;}
	.st28{fill:#FBD2B4;}
	.st29{fill:url(#SVGID_14_);}
	.st30{fill:url(#SVGID_15_);}
	.st31{fill:#FDCD6A;}
	.st32{fill:#016A89;}
	.st33{fill:#F18674;}
	.st34{opacity:0.11;fill:#FFFFFF;enable-background:new    ;}
	.st35{opacity:0.42;fill:#EFF7FB;enable-background:new    ;}
	.st36{fill:url(#SVGID_16_);}
	.st37{fill:url(#SVGID_17_);}
	.st38{fill:url(#SVGID_18_);}
	.st39{fill:url(#SVGID_19_);}
	.st40{fill:#FFFFFF;}
</style>
<g>
	
		<linearGradient id="SVGID_1_" gradientUnits="userSpaceOnUse" x1="429.0905" y1="184.5408" x2="830.4521" y2="835.0941" gradientTransform="matrix(1 0 0 -1 0 567.6063)">
		<stop  offset="0" style="stop-color:#F9FCFF;stop-opacity:0"/>
		<stop  offset="0.091" style="stop-color:#F3FAFC;stop-opacity:0.091"/>
		<stop  offset="0.3626" style="stop-color:#E4F3F6;stop-opacity:0.3626"/>
		<stop  offset="0.6545" style="stop-color:#DCEFF2;stop-opacity:0.6545"/>
		<stop  offset="1" style="stop-color:#D9EEF1"/>
	</linearGradient>
	<path class="st0" d="M896.54,567.75c8.81-35.47,13.49-72.58,13.49-110.79c0-56.73-10.32-111.05-29.16-161.16
		c5.95-18.06,9.17-37.36,9.17-57.42c0-101.06-81.67-182.98-182.42-182.98c-10.58,0-20.95,0.91-31.03,2.65
		c-65.65-36.82-141.31-57.8-221.87-57.8c-61.87,0-120.85,12.38-174.62,34.8c-28.36-18.22-62.08-28.79-98.26-28.79
		C81.09,6.26-0.59,88.19-0.59,189.25c0,37.74,11.4,72.82,30.92,101.95C10.37,342.58-0.59,398.48-0.59,456.95
		c0,38.21,4.68,75.32,13.49,110.79L896.54,567.75z"/>
	
		<linearGradient id="SVGID_2_" gradientUnits="userSpaceOnUse" x1="-204.7912" y1="275.9463" x2="751.3429" y2="275.9463" gradientTransform="matrix(1 0 0 -1 0 567.6063)">
		<stop  offset="0" style="stop-color:#FFFFFF;stop-opacity:0"/>
		<stop  offset="1" style="stop-color:#C4E5ED"/>
	</linearGradient>
	<path class="st1" d="M893.94,291.66c0-102.93-81.9-186.68-184.07-189.77v-0.15H211.81v0.16c-2.12-0.07-4.24-0.16-6.38-0.16
		c-104.89,0-189.92,85.03-189.92,189.92s85.03,189.92,189.92,189.92c2.14,0,4.26-0.09,6.38-0.16v0.16h498.05v-0.15
		C812.04,478.34,893.94,394.59,893.94,291.66z"/>
	<path class="st2" d="M729.68,176.6c-2.68,0-5.13-0.18-7.76,0c-1.17,0.08-4.31,0-3.73,0.13c0.6,0.14-1.24-0.13-1.87-0.13H605.9
		c-7.86,0-14.23,6.37-14.23,14.23l0,0c0,7.86,6.37,14.23,14.23,14.23h47.82h10.83c7.86,0,14.23,6.37,14.23,14.23l0,0
		c0,7.86-6.37,14.23-14.23,14.23h-34.48h-28.49c-7.86,0-14.23,6.37-14.23,14.23l0,0c0,7.86,6.37,14.23,14.23,14.23h10.7
		c2.92,0,5.08,2.69,4.45,5.54c-2.34,10.76-3.19,22.07-2.3,33.73c4.49,58.25,52.79,104.45,111.18,106.44
		c65.69,2.25,119.64-50.33,119.64-115.52C845.27,228.35,793.52,176.6,729.68,176.6z"/>
	<path class="st3" d="M177.79,396.64c2.56,0,4.9,0.17,7.41,0c1.12-0.08,4.12,0,3.57-0.13c-0.58-0.13,1.18,0.13,1.79,0.13H296
		c7.51,0,13.59-6.09,13.59-13.59l0,0c0-7.51-6.09-13.59-13.59-13.59h-45.67h-10.35c-7.51,0-13.59-6.09-13.59-13.59l0,0
		c0-7.51,6.09-13.59,13.59-13.59h32.93h27.2c7.51,0,13.59-6.09,13.59-13.59l0,0c0-7.51-6.09-13.59-13.59-13.59h-9.04
		c-3.39,0-5.87-3.12-5.19-6.44c2.05-9.93,2.77-20.35,1.95-31.06c-4.28-55.63-50.42-99.75-106.18-101.65
		C118.93,173.78,67.4,224,67.4,286.25C67.4,347.22,116.83,396.64,177.79,396.64z"/>
	<circle class="st4" cx="842.33" cy="140.33" r="38.86"/>
	
		<linearGradient id="SVGID_3_" gradientUnits="userSpaceOnUse" x1="842.33" y1="398.9174" x2="842.33" y2="358.6028" gradientTransform="matrix(1 0 0 -1 0 567.6063)">
		<stop  offset="0" style="stop-color:#FED275"/>
		<stop  offset="1" style="stop-color:#FAB853"/>
	</linearGradient>
	<circle class="st5" cx="842.33" cy="140.33" r="33.96"/>
	<path class="st6" d="M856.32,148.95l-15.08-0.08l0.02-3.7l6.47,0.03c1.76,0.01,3.47-0.15,5.13-0.46c1.65-0.32,3.12-0.88,4.4-1.69
		s2.31-1.89,3.09-3.26s1.17-3.09,1.18-5.18c0.01-2.07-0.5-3.97-1.54-5.68c-1.04-1.72-2.43-2.91-4.17-3.59
		c-1.73-0.69-4.28-1.05-7.65-1.07l-11.79-0.06l-0.08,16.62l-2.57-0.01l-0.02,4.32l2.57,0.01l-0.02,3.7l-2.57-0.01l-0.02,3.54
		l2.57,0.01l-0.05,9.48l4.98,0.02l0.05-9.48l15.08,0.08L856.32,148.95z M841.28,140.86l0.06-12.46l7.01,0.04
		c1.13,0.01,2.18,0.12,3.16,0.35c0.98,0.23,1.83,0.59,2.55,1.08c0.73,0.49,1.3,1.12,1.71,1.9c0.42,0.77,0.62,1.72,0.62,2.83
		c-0.01,1.28-0.24,2.33-0.71,3.14c-0.47,0.81-1.09,1.45-1.88,1.93s-1.71,0.8-2.75,0.98c-1.05,0.17-2.14,0.26-3.29,0.25
		L841.28,140.86z"/>
	
		<linearGradient id="SVGID_4_" gradientUnits="userSpaceOnUse" x1="631.7192" y1="482.2763" x2="1069.4063" y2="482.2763" gradientTransform="matrix(1 0 0 -1 0 567.6063)">
		<stop  offset="0" style="stop-color:#6AB75A"/>
		<stop  offset="1" style="stop-color:#01717D"/>
		<stop  offset="1" style="stop-color:#009D90"/>
	</linearGradient>
	<path class="st7" d="M647.01,35.23h-5.55h-48.85c-8.99,0-16.73,6.91-17.15,15.89c-0.45,9.59,7.19,17.51,16.68,17.51h49.32h5.08
		c8.99,0,16.73,6.91,17.15,15.89c0.45,9.59-7.19,17.51-16.68,17.51h-5.55h-23.51c-8.99,0-16.73,6.91-17.15,15.89
		c-0.45,9.59,7.19,17.51,16.68,17.51h23.98h30.89h152.82c27.67,0,50.1-22.43,50.1-50.1l0,0c0-27.67-22.43-50.1-50.1-50.1
		C825.17,35.23,647.01,35.23,647.01,35.23z"/>
	<circle class="st8" cx="539.52" cy="51.93" r="16.7"/>
	<circle class="st8" cx="751.45" cy="85.34" r="35.13"/>
	<path class="st6" d="M763.59,93.55l-16.98-0.08l0.02-4.17l7.29,0.04c1.99,0.01,3.91-0.16,5.77-0.52c1.86-0.36,3.51-0.99,4.96-1.9
		c1.44-0.91,2.6-2.13,3.47-3.67c0.88-1.54,1.32-3.48,1.33-5.84c0.01-2.33-0.57-4.47-1.73-6.4c-1.17-1.93-2.73-3.28-4.69-4.04
		c-1.94-0.78-4.82-1.18-8.61-1.2l-13.28-0.07l-0.09,18.71l-2.89-0.01l-0.02,4.86l2.89,0.01L741,93.44l-2.89-0.01l-0.02,3.99
		l2.89,0.01l-0.05,10.67l5.61,0.03l0.05-10.67l16.98,0.08L763.59,93.55z M746.66,84.44l0.07-14.03l7.9,0.04
		c1.27,0.01,2.46,0.14,3.56,0.39c1.1,0.26,2.06,0.66,2.87,1.21c0.82,0.55,1.46,1.27,1.93,2.14s0.7,1.93,0.69,3.19
		c-0.01,1.45-0.27,2.63-0.8,3.54c-0.53,0.91-1.23,1.64-2.12,2.17s-1.92,0.9-3.1,1.1s-2.41,0.29-3.7,0.29L746.66,84.44z"/>
	<g>
		
			<linearGradient id="SVGID_5_" gradientUnits="userSpaceOnUse" x1="682.92" y1="482.2763" x2="867.16" y2="482.2763" gradientTransform="matrix(1 0 0 -1 0 567.6063)">
			<stop  offset="0" style="stop-color:#58B14B;stop-opacity:0"/>
			<stop  offset="1" style="stop-color:#6AB75A"/>
		</linearGradient>
		<path class="st9" d="M820.45,132.04H682.92v-8.18h137.54c21.24,0,38.53-17.28,38.53-38.53S841.71,46.8,820.46,46.8H682.92v-8.18
			h137.54c25.75,0,46.7,20.95,46.7,46.71S846.21,132.04,820.45,132.04z"/>
	</g>
	<circle class="st4" cx="149.27" cy="487.74" r="16.52"/>
	
		<linearGradient id="SVGID_6_" gradientUnits="userSpaceOnUse" x1="149.27" y1="67.8113" x2="149.27" y2="50.6665" gradientTransform="matrix(1 0 0 -1 0 567.6063)">
		<stop  offset="0" style="stop-color:#FED275"/>
		<stop  offset="1" style="stop-color:#FAB853"/>
	</linearGradient>
	<circle class="st10" cx="149.27" cy="487.74" r="14.44"/>
	<path class="st6" d="M153.68,490.62l-6.14-0.03l0.01-1.51l2.63,0.01c0.72,0,1.41-0.06,2.09-0.19c0.67-0.13,1.27-0.36,1.79-0.69
		c0.52-0.33,0.94-0.77,1.26-1.33c0.32-0.56,0.48-1.26,0.48-2.11c0-0.84-0.2-1.61-0.63-2.31c-0.42-0.7-0.99-1.19-1.7-1.46
		c-0.7-0.28-1.74-0.43-3.11-0.43l-4.8-0.02l-0.03,6.76l-1.05-0.01l-0.01,1.76l1.05,0.01l-0.01,1.51l-1.05-0.01l-0.01,1.44l1.05,0.01
		l-0.02,3.86l2.03,0.01l0.02-3.86l6.14,0.03L153.68,490.62z M147.56,487.33l0.03-5.07l2.85,0.01c0.46,0,0.89,0.05,1.29,0.14
		c0.4,0.09,0.74,0.24,1.04,0.44c0.3,0.2,0.53,0.46,0.7,0.77s0.25,0.7,0.25,1.15c0,0.52-0.1,0.95-0.29,1.28
		c-0.19,0.33-0.45,0.59-0.77,0.79c-0.32,0.19-0.7,0.33-1.12,0.4c-0.43,0.07-0.87,0.11-1.34,0.1L147.56,487.33z"/>
	
		<linearGradient id="SVGID_7_" gradientUnits="userSpaceOnUse" x1="49.8016" y1="57.8913" x2="256.232" y2="57.8913" gradientTransform="matrix(1 0 0 -1 0 567.6063)">
		<stop  offset="0" style="stop-color:#6AB75A"/>
		<stop  offset="1" style="stop-color:#01717D"/>
		<stop  offset="1" style="stop-color:#009D90"/>
	</linearGradient>
	<path class="st11" d="M71.95,490.05h-2.18H50.61c-3.53,0-6.56,2.71-6.73,6.24c-0.18,3.76,2.82,6.87,6.55,6.87h19.35h1.99
		c3.53,0,6.56,2.71,6.73,6.24c0.18,3.76-2.82,6.87-6.55,6.87h-2.18h-9.22c-3.53,0-6.56,2.71-6.73,6.24
		c-0.18,3.76,2.82,6.87,6.55,6.87h9.41H81.9h59.96c10.86,0,19.66-8.8,19.66-19.66l0,0c0-10.86-8.8-19.66-19.66-19.66L71.95,490.05
		L71.95,490.05z"/>
	<circle class="st8" cx="29.78" cy="496.6" r="6.55"/>
	<circle class="st8" cx="112.93" cy="509.71" r="13.78"/>
	<path class="st6" d="M117.7,512.93l-6.66-0.03l0.01-1.63l2.86,0.01c0.78,0,1.53-0.06,2.27-0.2c0.73-0.14,1.38-0.39,1.94-0.74
		c0.57-0.36,1.02-0.84,1.36-1.44c0.34-0.6,0.52-1.37,0.52-2.29s-0.22-1.75-0.68-2.51s-1.07-1.29-1.84-1.59
		c-0.76-0.31-1.89-0.46-3.38-0.47l-5.21-0.03l-0.04,7.34l-1.13-0.01l-0.01,1.91l1.13,0.01l-0.01,1.63l-1.13-0.01l-0.01,1.57
		l1.13,0.01l-0.02,4.19l2.2,0.01l0.02-4.19l6.66,0.03L117.7,512.93z M111.05,509.36l0.03-5.5l3.1,0.02c0.5,0,0.96,0.05,1.4,0.15
		c0.43,0.1,0.81,0.26,1.13,0.48s0.57,0.5,0.76,0.84c0.18,0.34,0.27,0.76,0.27,1.25c0,0.57-0.11,1.03-0.31,1.39
		c-0.21,0.36-0.48,0.64-0.83,0.85s-0.75,0.35-1.22,0.43c-0.46,0.08-0.95,0.11-1.45,0.11L111.05,509.36z"/>
	<g>
		
			<linearGradient id="SVGID_8_" gradientUnits="userSpaceOnUse" x1="86.04" y1="57.8963" x2="158.16" y2="57.8963" gradientTransform="matrix(1 0 0 -1 0 567.6063)">
			<stop  offset="0" style="stop-color:#58B14B;stop-opacity:0"/>
			<stop  offset="1" style="stop-color:#6AB75A"/>
		</linearGradient>
		<path class="st12" d="M140.01,527.86H86.04v-2.87H140c8.43,0,15.28-6.86,15.28-15.28c0-8.42-6.86-15.28-15.28-15.28H86.04v-2.87
			H140c10.01,0,18.16,8.15,18.16,18.16C158.16,519.72,150.02,527.86,140.01,527.86z"/>
	</g>
	<path class="st3" d="M728.91,296.54L728.91,296.54c-5.12,0-9.27-4.15-9.27-9.27v-49.32c0-5.12,4.15-9.27,9.27-9.27l0,0
		c5.12,0,9.27,4.15,9.27,9.27v49.32C738.18,292.39,734.03,296.54,728.91,296.54z"/>
	<path class="st3" d="M758.21,336.71L758.21,336.71c-4.44,2.56-10.11,1.04-12.67-3.39l-24.66-42.72
		c-2.56-4.44-1.04-10.11,3.39-12.67l0,0c4.44-2.56,10.11-1.04,12.67,3.39l24.66,42.72C764.17,328.48,762.65,334.15,758.21,336.71z"
		/>
	<path class="st2" d="M173.71,293.39L173.71,293.39c-4.89,0-8.86-3.97-8.86-8.86v-47.1c0-4.89,3.97-8.86,8.86-8.86l0,0
		c4.89,0,8.86,3.97,8.86,8.86v47.1C182.57,289.42,178.6,293.39,173.71,293.39z"/>
	<path class="st2" d="M225.19,306.61L225.19,306.61c-1.92,4.5-7.12,6.59-11.62,4.67l-43.33-18.47c-4.5-1.92-6.59-7.12-4.67-11.62
		l0,0c1.92-4.5,7.12-6.59,11.62-4.67l43.33,18.47C225.02,296.91,227.11,302.11,225.19,306.61z"/>
	
		<linearGradient id="SVGID_9_" gradientUnits="userSpaceOnUse" x1="474.59" y1="391.0963" x2="493.13" y2="391.0963" gradientTransform="matrix(1 0 0 -1 0 567.6063)">
		<stop  offset="0" style="stop-color:#3F95B7"/>
		<stop  offset="1" style="stop-color:#60A3BF"/>
	</linearGradient>
	<path class="st13" d="M483.86,185.78c-5.11,0-9.27-4.16-9.27-9.27s4.16-9.27,9.27-9.27s9.27,4.16,9.27,9.27
		C493.12,181.62,488.97,185.78,483.86,185.78z M483.86,171.4c-2.82,0-5.11,2.29-5.11,5.11s2.29,5.11,5.11,5.11
		c2.82,0,5.11-2.29,5.11-5.11S486.68,171.4,483.86,171.4z"/>
	<path class="st14" d="M824.71,479.83l-3.86-0.02l0.02-4.35c0-0.72-0.79-1.3-1.78-1.31c-0.99,0-1.79,0.57-1.79,1.29l-0.02,4.35
		l-3.86-0.02c-0.99,0-1.79,0.79-1.79,1.78s0.79,1.79,1.78,1.79l3.86,0.02l-0.02,4.35c0,0.72,0.79,1.3,1.78,1.31
		c0.99,0,1.79-0.57,1.79-1.29l0.02-4.35l3.86,0.02c0.99,0,1.79-0.79,1.79-1.78S825.7,479.83,824.71,479.83z"/>
	
		<linearGradient id="SVGID_10_" gradientUnits="userSpaceOnUse" x1="72.9" y1="116.3713" x2="87.76" y2="116.3713" gradientTransform="matrix(1 0 0 -1 0 567.6063)">
		<stop  offset="0" style="stop-color:#3F95B7"/>
		<stop  offset="1" style="stop-color:#60A3BF"/>
	</linearGradient>
	<path class="st15" d="M85.98,449.48l-3.86-0.02l0.02-4.35c0-0.72-0.79-1.3-1.78-1.31c-0.99,0-1.79,0.57-1.79,1.29l-0.02,4.35
		l-3.86-0.02c-0.99,0-1.79,0.79-1.79,1.78s0.79,1.79,1.78,1.79l3.86,0.02l-0.02,4.35c0,0.72,0.79,1.3,1.78,1.31
		c0.99,0,1.79-0.57,1.79-1.29l0.02-4.35l3.86,0.02c0.99,0,1.79-0.79,1.79-1.78C87.76,450.29,86.97,449.49,85.98,449.48z"/>
	<path class="st3" d="M87.34,66.35c-0.83,0-1.67-0.32-2.3-0.95L68.2,48.56c-1.27-1.27-1.27-3.33,0-4.61c1.27-1.27,3.33-1.27,4.61,0
		l14.54,14.54l14.54-14.54c1.27-1.27,3.33-1.27,4.61,0c1.27,1.27,1.27,3.33,0,4.61L89.64,65.4C89.01,66.04,88.17,66.35,87.34,66.35z
		"/>
	<path class="st3" d="M54.22,107.87c-0.5,0-1-0.19-1.38-0.57L42.08,96.54c-0.76-0.76-0.76-2,0-2.76s2-0.76,2.76,0l9.38,9.38
		l9.38-9.38c0.76-0.76,2-0.76,2.76,0c0.76,0.76,0.76,2,0,2.76L55.61,107.3C55.22,107.68,54.72,107.87,54.22,107.87z"/>
	<path class="st3" d="M118.12,123.65c-0.5,0-1-0.19-1.38-0.57l-13.93-13.93c-0.76-0.76-0.76-2,0-2.76s2-0.76,2.76,0l12.55,12.55
		l12.55-12.55c0.76-0.76,2-0.76,2.76,0s0.76,2,0,2.76l-13.94,13.93C119.12,123.46,118.62,123.65,118.12,123.65z"/>
	<circle class="st16" cx="330.29" cy="375.7" r="12.31"/>
	<path class="st17" d="M569.29,547.26H555.2c-7.15,0-12.96-5.8-12.96-12.96v-43.03c0-7.15,5.8-12.96,12.96-12.96h14.09
		c7.15,0,12.96,5.8,12.96,12.96v43.03C582.24,541.46,576.44,547.26,569.29,547.26z"/>
	<path class="st17" d="M331.76,547.68h-14.09c-7.15,0-12.96-5.8-12.96-12.96V491.7c0-7.15,5.8-12.96,12.96-12.96h14.09
		c7.15,0,12.96,5.8,12.96,12.96v43.03C344.71,541.88,338.91,547.68,331.76,547.68z"/>
	<rect x="570.6" y="331.49" class="st18" width="21.38" height="13.05"/>
	<path class="st18" d="M602.33,354.66h-9.91c-5.03,0-9.11-4.08-9.11-9.11V311.8c0-5.03,4.08-9.11,9.11-9.11h9.91
		c5.03,0,9.11,4.08,9.11,9.11v33.76C611.44,350.58,607.36,354.66,602.33,354.66z"/>
	<rect x="291.93" y="334.06" class="st17" width="21.38" height="13.05"/>
	<path class="st17" d="M285.61,357.24h9.91c5.03,0,9.11-4.08,9.11-9.11v-33.76c0-5.03-4.08-9.11-9.11-9.11h-9.91
		c-5.03,0-9.11,4.08-9.11,9.11v33.76C276.5,353.16,280.58,357.24,285.61,357.24z"/>
	
		<linearGradient id="SVGID_11_" gradientUnits="userSpaceOnUse" x1="448.31" y1="401.2657" x2="448.31" y2="101.0086" gradientTransform="matrix(1 0 0 -1 0 567.6063)">
		<stop  offset="0" style="stop-color:#6AB75A"/>
		<stop  offset="1" style="stop-color:#01717D"/>
		<stop  offset="1" style="stop-color:#009D90"/>
	</linearGradient>
	<path class="st19" d="M551.8,158.25H344.82c-14.24,0-25.78,11.54-25.78,25.78v154.12h258.54V184.03
		C577.58,169.8,566.04,158.25,551.8,158.25z"/>
	
		<linearGradient id="SVGID_12_" gradientUnits="userSpaceOnUse" x1="444.015" y1="184.7551" x2="444.015" y2="1096.4298" gradientTransform="matrix(1 0 0 -1 0 567.6063)">
		<stop  offset="0" style="stop-color:#6AB75A"/>
		<stop  offset="1" style="stop-color:#01717D"/>
		<stop  offset="1" style="stop-color:#009D90"/>
	</linearGradient>
	<path class="st20" d="M562.1,251.14c-2.59-14.01-14.87-24.63-29.64-24.63H355.88c-14.11,0-28.56,9.57-31.84,22.67
		c-0.19,0.12-23.97,157.74-23.97,157.74l287.89-1.1C587.97,405.82,562.21,251.15,562.1,251.14z"/>
	
		<linearGradient id="SVGID_13_" gradientUnits="userSpaceOnUse" x1="443.89" y1="-112.4364" x2="443.89" y2="517.3669" gradientTransform="matrix(1 0 0 -1 0 567.6063)">
		<stop  offset="0" style="stop-color:#6AB75A"/>
		<stop  offset="1" style="stop-color:#01717D"/>
		<stop  offset="1" style="stop-color:#009D90"/>
	</linearGradient>
	<polygon class="st21" points="298.28,460.15 300.08,406.82 587.98,405.75 589.5,469.04 	"/>
	<rect x="671.98" y="354.65" class="st22" width="3.04" height="14.71"/>
	<polygon class="st23" points="701.43,379 677.58,336.17 696.55,326.41 720.41,369.24 	"/>
	<polygon class="st8" points="588.39,378.69 622.22,340.52 605.78,326.92 571.96,365.08 	"/>
	<circle class="st23" cx="579.87" cy="370.64" r="11.74"/>
	<polygon class="st23" points="536.25,382.32 579.97,382.36 579.31,361.03 535.59,361 	"/>
	<circle class="st8" cx="618.34" cy="329.66" r="13.31"/>
	<circle class="st23" cx="684.6" cy="328.67" r="12.17"/>
	<circle class="st8" cx="712.11" cy="376.54" r="11.07"/>
	<polygon class="st8" points="676.52,398.17 704.58,369.32 719.41,384.66 691.35,413.51 	"/>
	<circle class="st16" cx="682.35" cy="409.16" r="12.96"/>
	<path class="st8" d="M625.88,404.83h50.69l15.58-69.75c1.42-8.34-4.96-15.97-13.38-15.97H622.1c-8.58,0-15.01,7.92-13.3,16.38
		L625.88,404.83z"/>
	<path class="st24" d="M644.86,540.83l14.27,5.44c1.69,0.65,3.59-0.2,4.24-1.9l23.33-61.23c0.65-1.69-0.2-3.59-1.9-4.24l-14.27-5.44
		c-1.69-0.65-3.59,0.2-4.24,1.9l-23.33,61.23C642.31,538.29,643.16,540.19,644.86,540.83z"/>
	<path class="st25" d="M667.84,545.18c-0.01-6.34-5.53-11.47-12.33-11.46c-6.8,0.01-12.29,5.17-12.28,11.51L667.84,545.18"/>
	<polyline class="st24" points="667.84,547.15 643.23,547.2 643.22,544.85 667.83,544.8 	"/>
	<path class="st26" d="M631.33,429.75h39.81c3.01,0,5.44-2.44,5.44-5.44v-14.04c0-3.01-2.44-5.44-5.44-5.44h-39.81
		c-3.01,0-5.44,2.44-5.44,5.44v14.04C625.88,427.32,628.32,429.75,631.33,429.75z"/>
	<circle class="st4" cx="650.55" cy="341.58" r="1.39"/>
	<circle class="st4" cx="650.44" cy="351.63" r="1.47"/>
	<rect x="625.88" y="404.83" class="st18" width="50.7" height="4.72"/>
	<rect x="646.94" y="404.83" class="st27" width="10" height="4.72"/>
	<rect x="635.48" y="404.83" class="st26" width="2.54" height="6.04"/>
	<rect x="665.16" y="404.83" class="st26" width="2.54" height="5.79"/>
	<path class="st26" d="M670.18,482.97l15.05-2.55c1.79-0.3,2.99-2,2.69-3.79l-11.37-67.06l-18.29,3.1c-1.79,0.3-2.99,2-2.69,3.79
		l10.83,63.83C666.7,482.07,668.4,483.27,670.18,482.97z"/>
	<path class="st26" d="M629.1,544.54h15.27c1.81,0,3.28-1.47,3.28-3.28v-62.97c0-1.81-1.47-3.28-3.28-3.28H629.1
		c-1.81,0-3.28,1.47-3.28,3.28v62.97C625.81,543.07,627.28,544.54,629.1,544.54z"/>
	<path class="st26" d="M629.11,480.86h15.27c1.81,0,3.28-1.47,3.28-3.28v-64.74c0-1.81-1.47-3.28-3.28-3.28h-15.27
		c-1.81,0-3.28,1.47-3.28,3.28v64.74C625.83,479.39,627.3,480.86,629.11,480.86z"/>
	<path class="st23" d="M656.72,342.8h9.63c0.56,0,1.01-0.45,1.01-1.01v-1.1c0-0.56-0.45-1.01-1.01-1.01h-9.63
		c-0.56,0-1.01,0.45-1.01,1.01v1.1C655.7,342.35,656.16,342.8,656.72,342.8z"/>
	<path class="st24" d="M636.88,414.68h-11.03c0,8.34,0,15.09,0,15.09C631.94,429.78,636.88,423.02,636.88,414.68z"/>
	<circle class="st26" cx="677.09" cy="478.05" r="10.92"/>
	<circle class="st26" cx="636.69" cy="476.87" r="10.92"/>
	<path class="st18" d="M648.41,544.88c-0.01-6-5.25-10.86-11.7-10.85s-11.67,4.89-11.66,10.89L648.41,544.88"/>
	<polyline class="st24" points="648.33,547.19 624.98,547.24 624.97,544.88 648.33,544.83 	"/>
	<path class="st24" d="M666.53,416.47l10.87-1.84c1.39,8.22,2.52,14.88,2.52,14.88C673.93,430.52,667.93,424.69,666.53,416.47z"/>
	<circle class="st28" cx="536.82" cy="375.78" r="14.81"/>
	<path class="st16" d="M653.55,330.22l-6.17-0.19c-3.13-0.1-5.6-2.72-5.5-5.85l0.7-22.79c0.1-3.13,2.72-5.6,5.85-5.5l6.17,0.19
		c3.13,0.1,5.6,2.72,5.5,5.85l-0.7,22.79C659.3,327.86,656.69,330.32,653.55,330.22z"/>
	<path class="st23" d="M642,316.84l8.54,13.29l-3.17,5.17c-0.77,1.25-2.61,1.17-3.27-0.14l-8.29-15.96L642,316.84z"/>
	<path class="st23" d="M659.61,317.22l-9.07,12.93l2.96,5.3c0.71,1.28,2.56,1.28,3.27,0l9.03-16.32L659.61,317.22z"/>
	<path class="st22" d="M654.88,307.34l-3.02,0.1c-1.54,0.05-2.82-1.16-2.87-2.69l-1.17-36.35c-0.05-1.54,1.16-2.82,2.69-2.87
		l3.02-0.1c1.54-0.05,2.82,1.16,2.87,2.69l1.17,36.35C657.62,306.01,656.41,307.3,654.88,307.34z"/>
	<path class="st28" d="M656.92,312.09l-11.18,1.52c-5.68,0.77-10.91-3.21-11.68-8.88l-4.19-30.82c-0.77-5.68,3.21-10.91,8.88-11.68
		l11.18-1.52c5.68-0.77,10.91,3.21,11.68,8.88l4.19,30.82C666.58,306.09,662.6,311.32,656.92,312.09z"/>
	
		<linearGradient id="SVGID_14_" gradientUnits="userSpaceOnUse" x1="632.2275" y1="373.6157" x2="649.1702" y2="373.6157" gradientTransform="matrix(0.9995 0.0308 0.0308 -0.9995 -13.8958 632.2036)">
		<stop  offset="0" style="stop-color:#1C617D"/>
		<stop  offset="1" style="stop-color:#6395B4"/>
	</linearGradient>
	<path class="st29" d="M646.85,267.05c-6.27,5.9-11.08,5.24-13.6,4.12c-1.22-0.54-3.08,0.12-3.33,1.43c-0.95,4.82,0.73,13.7,1,15.66
		c0.34,2.47,4.74,2.44,5.05-0.03c0.01-0.08,0.02-0.16,0.02-0.24c0.19-6.29-0.91-8.22,4.29-10.56"/>
	<circle class="st28" cx="631.42" cy="291.87" r="4.53"/>
	<circle class="st16" cx="632.7" cy="292.4" r="1.5"/>
	<circle class="st8" cx="642.91" cy="260.75" r="2.71"/>
	<path class="st8" d="M662.09,272.41c-0.24-1.73-0.57-2.33-1.3-3.82c-2.99-6.11-9.74-9.91-16.95-8.93l0,0
		c-8.97,1.22-15.27,9.36-14.07,18.19L662.09,272.41z"/>
	<path class="st23" d="M629.77,277.85c0,0,41.85,0.35,43.74-3.87s-17.89-0.57-17.89-0.57L629.77,277.85z"/>
	
		<linearGradient id="SVGID_15_" gradientUnits="userSpaceOnUse" x1="866.1334" y1="430.4507" x2="866.1334" y2="420.856" gradientTransform="matrix(0.9223 0.0439 0.0152 -0.9969 -159.2476 656.9029)">
		<stop  offset="0" style="stop-color:#1C617D"/>
		<stop  offset="1" style="stop-color:#6395B4"/>
	</linearGradient>
	<path class="st30" d="M651.3,270l-9.84,1.67c-0.63,0.11-1.22-0.32-1.33-0.94l-0.21-1.24c-0.11-0.63,0.32-1.22,0.94-1.33l9.84-1.67
		c0.63-0.11,1.22,0.32,1.33,0.94l0.21,1.24C652.35,269.3,651.93,269.9,651.3,270z"/>
	<circle class="st18" cx="645.53" cy="288.56" r="1.38"/>
	<circle class="st18" cx="656.34" cy="286.76" r="1.38"/>
	<path class="st28" d="M662.55,311.52l-16.81,1.99c-4.17,0.49-7.96-2.49-8.45-6.66l-0.97-8.21c-0.49-4.17,2.49-7.96,6.66-8.45
		l16.81-1.99c4.17-0.49,7.96,2.49,8.45,6.66l0.97,8.21C669.71,307.25,666.73,311.03,662.55,311.52z"/>
	<path class="st26" d="M660.67,282.31l-5.64,0.77c-0.51,0.07-0.98-0.29-1.05-0.8l-0.14-1.01c-0.07-0.51,0.29-0.98,0.8-1.05
		l5.64-0.77c0.51-0.07,0.98,0.29,1.05,0.8l0.14,1.01C661.54,281.77,661.19,282.24,660.67,282.31z"/>
	<path class="st26" d="M646.27,284.3l-5.64,0.77c-0.51,0.07-0.98-0.29-1.05-0.8l-0.14-1.01c-0.07-0.51,0.29-0.98,0.8-1.05l5.64-0.77
		c0.51-0.07,0.98,0.29,1.05,0.8l0.14,1.01C647.15,283.76,646.79,284.23,646.27,284.3z"/>
	<path class="st16" d="M655.99,296.25l-5.04,0.68c-0.53,0.07-1.01-0.3-1.09-0.83l-0.22-1.64c-0.15-1.14,0.64-2.19,1.78-2.34
		l2.83-0.38c1.14-0.15,2.19,0.64,2.34,1.78l0.22,1.64C656.88,295.69,656.51,296.18,655.99,296.25z"/>
	<path class="st18" d="M585.79,446.52c-10.26,3.67-34.78,7.71-66.08,10.58c-4.3,0.39-8.01-2.99-8.01-7.31v-3.82
		c0-9.57-7.76-17.33-17.33-17.33h-104.4c-9.57,0-17.33,7.76-17.33,17.33v4.32c0,4.36-3.78,7.75-8.12,7.3
		c-23.96-2.51-46.08-6.58-64.02-12.69c-2.53-0.86-5.15,1.03-5.15,3.7v29.54c0,15.66,12.69,28.35,28.35,28.35h238.96
		c15.66,0,28.35-12.69,28.35-28.35V450.2C591.02,447.49,588.34,445.61,585.79,446.52z"/>
	<path class="st18" d="M535.33,240.35H352c-7.52,0-14.21,5.83-16.69,14.54l-13.18,69.14c-5.51,20.25,2.14,32.63,15.75,32.63
		l205.66-0.02c13.54,0,22.73-13.93,18.7-32.09l-10.17-69.49C549.63,246.26,542.9,240.35,535.33,240.35z"/>
	<path class="st31" d="M539.34,441.55c-5.86-0.23-9.55-6.43-7.07-11.75c5.59-11.98,19.66-36.93,39.84-36.93
		c0,0,8.55-2.48,8.55,23.63c0,11.36-3.75,20.99-23.65,23.68C550.86,441.01,544.43,441.75,539.34,441.55z"/>
	<g>
		<path class="st32" d="M648.24,300.08c-6.64-2.43-8.99-5.37-8.99-2.5c0,0.21,0.06,0.5,0.16,0.85c6.42,0.54,11.7,5.07,13.37,11.09
			c2.3-0.62,4.73-2.53,7.17-6.42C665.96,293.51,656.27,303.02,648.24,300.08z"/>
		<path class="st33" d="M639.41,298.44c0.99,3.43,6.59,12.91,13.37,11.09C651.11,303.5,645.83,298.98,639.41,298.44z"/>
	</g>
	<path class="st31" d="M350.47,442.48c5.86-0.23,9.55-6.43,7.07-11.75c-5.59-11.98-19.66-36.93-39.84-36.93
		c0,0-8.55-2.48-8.55,23.63c0,11.36,3.75,20.99,23.65,23.68C338.96,441.94,345.39,442.68,350.47,442.48z"/>
	<path class="st34" d="M479.57,444.62H406.8c-10.47,0-18.96,8.49-18.96,18.96v42.91h110.71v-42.91
		C498.54,453.11,490.05,444.62,479.57,444.62z"/>
	<path class="st17" d="M483.12,459.25h-81.9c-1.43,0-2.59-1.16-2.59-2.59l0,0c0-1.43,1.16-2.59,2.59-2.59h81.9
		c1.43,0,2.59,1.16,2.59,2.59l0,0C485.71,458.09,484.55,459.25,483.12,459.25z"/>
	<path class="st17" d="M483.12,469.18h-81.9c-1.43,0-2.59-1.16-2.59-2.59l0,0c0-1.43,1.16-2.59,2.59-2.59h81.9
		c1.43,0,2.59,1.16,2.59,2.59l0,0C485.71,468.02,484.55,469.18,483.12,469.18z"/>
	<path class="st17" d="M483.26,478.29h-81.9c-1.43,0-2.59-1.16-2.59-2.59l0,0c0-1.43,1.16-2.59,2.59-2.59h81.9
		c1.43,0,2.59,1.16,2.59,2.59l0,0C485.85,477.13,484.69,478.29,483.26,478.29z"/>
	<path class="st3" d="M480.37,500.79h-76.4c-2.95,0-5.34-2.39-5.34-5.34v-5.8c0-2.95,2.39-5.34,5.34-5.34h76.4
		c2.95,0,5.34,2.39,5.34,5.34v5.8C485.71,498.4,483.32,500.79,480.37,500.79z"/>
	<path class="st35" d="M430.8,240.29L324.01,349.7c3.51,4.21,8.32,6.89,13.79,6.89h30.43l113.52-116.3L430.8,240.29L430.8,240.29z"
		/>
	<polygon class="st35" points="505.19,240.29 391.68,356.59 412.62,356.59 526.13,240.29 	"/>
	<path class="st8" d="M203.1,32.04h103.49c24.11,0,43.66,19.55,43.66,43.66l0,0c0,1.2-0.06,2.39-0.16,3.56l0.01-0.01v54.44
		c0,3.71-3.94,6.09-7.22,4.38l-34.75-18.16c-0.71-0.37-1.48-0.56-2.28-0.56c-10.78,0-102.74,0.01-102.74,0.01
		c-24.11,0-43.66-19.55-43.66-43.66l0,0C159.44,51.59,178.99,32.04,203.1,32.04z"/>
</g>
<g>
	<path class="st16" d="M299.9,412.2c-1.06-0.38-2.08-0.93-3.04-1.65c-5.16-3.91-6.23-11.41-2.37-16.75c2.06-2.86,8.78-8.02,8.3-4.86
		C300.08,406.92,299.9,412.2,299.9,412.2z"/>
	<polygon class="st16" points="301.11,400.82 303.9,381.57 300.91,375.94 283.63,385.03 292.85,405.03 	"/>
	
		<rect x="276.79" y="351.2" transform="matrix(0.9143 -0.4051 0.4051 0.9143 -124.8724 147.8978)" class="st23" width="20.44" height="35.59"/>
	<circle class="st23" cx="283.31" cy="355.35" r="12.8"/>
	<path class="st8" d="M218.6,417.45h60.34l14.18-60.3c1.7-7.21-6.01-13.88-16.04-13.88l-59.36,0.08c-10.23,0-17.9,6.85-15.86,14.16
		L218.6,417.45z"/>
	<path class="st26" d="M224.04,450.01h49.54c3.01,0,5.44-2.44,5.44-5.44v-20.79c0-3.01-2.44-5.44-5.44-5.44h-49.54
		c-3.01,0-5.44,2.44-5.44,5.44v20.79C218.6,447.57,221.04,450.01,224.04,450.01z"/>
	<rect x="218.6" y="417.46" class="st18" width="60.43" height="6.35"/>
	<rect x="231.47" y="417.46" class="st26" width="3.03" height="6.85"/>
	<rect x="265.42" y="417.46" class="st26" width="3.03" height="7.3"/>
	<path class="st26" d="M256.2,487.6h19.46c1.81,0,3.28-1.47,3.28-3.28v-57.23c0-1.81-1.47-3.28-3.28-3.28H256.2
		c-1.81,0-3.28,1.47-3.28,3.28v57.23C252.92,486.13,254.39,487.6,256.2,487.6z"/>
	<path class="st26" d="M221.98,544.94h19.46c1.81,0,3.28-1.47,3.28-3.28v-55.93c0-1.81-1.47-3.28-3.28-3.28h-19.46
		c-1.81,0-3.28,1.47-3.28,3.28v55.93C218.7,543.47,220.17,544.94,221.98,544.94z"/>
	<path class="st26" d="M221.98,487.6h19.46c1.81,0,3.28-1.47,3.28-3.28v-57.23c0-1.81-1.47-3.28-3.28-3.28h-19.46
		c-1.81,0-3.28,1.47-3.28,3.28v57.23C218.7,486.13,220.17,487.6,221.98,487.6z"/>
	<path class="st24" d="M231.71,428.39h-13.15c0,11.07,0,20.05,0,20.05C225.82,448.44,231.71,439.46,231.71,428.39z"/>
	<path class="st24" d="M256.2,547.33h19.46c1.81,0,3.28-1.47,3.28-3.28v-58.32c0-1.81-1.47-3.28-3.28-3.28H256.2
		c-1.81,0-3.28,1.47-3.28,3.28v58.32C252.92,545.86,254.39,547.33,256.2,547.33z"/>
	<path class="st18" d="M244.97,544.5c-0.02-6.86-5.94-12.42-13.23-12.41s-13.19,5.58-13.17,12.44L244.97,544.5"/>
	<polyline class="st26" points="244.98,547.29 218.57,547.33 218.57,544.5 244.97,544.47 	"/>
	<path class="st18" d="M283.19,544.43c-0.02-6.82-5.86-12.34-13.04-12.34c-7.18,0.01-12.99,5.55-12.98,12.37L283.19,544.43"/>
	<path class="st24" d="M265.8,428.39h13.15c0,11.07,0,20.05,0,20.05C271.68,448.44,265.8,439.46,265.8,428.39z"/>
	<polyline class="st24" points="283.19,547.29 257.18,547.32 257.17,544.47 283.18,544.44 	"/>
	<circle class="st4" cx="248" cy="365.26" r="1.66"/>
	<path class="st23" d="M232.08,366.87h8.83c0.95,0,1.72-0.77,1.72-1.72l0,0c0-0.95-0.77-1.72-1.72-1.72h-8.83
		c-0.95,0-1.72,0.77-1.72,1.72l0,0C230.36,366.1,231.13,366.87,232.08,366.87z"/>
	
		<ellipse transform="matrix(0.9469 -0.3214 0.3214 0.9469 -111.1765 106.1798)" class="st28" cx="266" cy="389.81" rx="10.66" ry="10.97"/>
	<polygon class="st28" points="271.54,381.87 250.11,367.36 239.14,384.65 260.57,399.15 	"/>
	<polygon class="st8" points="255.36,370.41 219.3,347.23 220.03,371.76 243.59,387.75 	"/>
	<circle class="st26" cx="265.93" cy="482.88" r="13.01"/>
	<circle class="st26" cx="231.71" cy="484.22" r="13.01"/>
	<circle class="st8" cx="213.35" cy="354.92" r="12.71"/>
	<path class="st16" d="M248.08,354.17L248.08,354.17c-4.81,0.14-8.82-3.65-8.96-8.46l-0.37-12.77c-0.14-4.81,3.65-8.82,8.46-8.96
		l0,0c4.81-0.14,8.82,3.65,8.96,8.46l0.37,12.77C256.68,350.02,252.89,354.03,248.08,354.17z"/>
	<path class="st23" d="M238.95,340.99l8.5,13.25l-3.16,5.15c-0.76,1.24-2.6,1.17-3.25-0.14l-8.25-15.91L238.95,340.99z"/>
	<path class="st23" d="M256.49,341.39l-9.05,12.88l2.94,5.28c0.71,1.28,2.55,1.28,3.26,0l9.01-16.25L256.49,341.39z"/>
	<path class="st28" d="M266.74,324.46c0.21-5.29-2.62-9.98-6.94-12.42l-4.37-10.92c-3.78-11.09-8.44-12.98-14.94-11.49l-3.76,0.86
		c-6.51,1.49-14.59,8.27-12.48,17.75l4.82,21.68c1.57,7.05,8.12,11.56,14.63,10.08l11.16-2.54c0.09-0.02,0.17-0.05,0.26-0.07
		C261.47,336.45,266.47,331.11,266.74,324.46z"/>
	<circle class="st18" cx="243.2" cy="314.74" r="1.62"/>
	<circle class="st18" cx="253.72" cy="312.22" r="1.61"/>
	
		<ellipse transform="matrix(0.0403 -0.9992 0.9992 0.0403 -101.7256 533.0355)" class="st28" cx="226.62" cy="319.47" rx="5.3" ry="5.25"/>
	
		<ellipse transform="matrix(0.0403 -0.9992 0.9992 0.0403 -101.2313 534.8746)" class="st16" cx="227.83" cy="320.14" rx="2.17" ry="2.15"/>
	<g>
		<path class="st18" d="M249.34,335.51c6.35-0.35,9.75-8.8,4.81-7.06c-5.92,2.08-10.6-4.64-10.6-4.64
			c-1.19-1.98-3.12-0.74-3.74,1.64c1.43,0.31,2.84,0.88,4.13,1.73C246.95,329.15,248.81,332.22,249.34,335.51z"/>
		<path class="st33" d="M245.29,334.64c1.44,0.7,2.8,0.94,4.05,0.87c-0.53-3.29-2.39-6.35-5.39-8.32c-1.3-0.85-2.7-1.42-4.13-1.73
			C239.12,328.08,240.03,332.09,245.29,334.64z"/>
	</g>
	
		<linearGradient id="SVGID_16_" gradientUnits="userSpaceOnUse" x1="554.2313" y1="411.4121" x2="562.475" y2="411.4121" gradientTransform="matrix(-0.9849 0.1733 -0.1733 -0.9849 848.9002 613.2091)">
		<stop  offset="0" style="stop-color:#1C617D"/>
		<stop  offset="1" style="stop-color:#6395B4"/>
	</linearGradient>
	<path class="st36" d="M225.23,314.4L225.23,314.4c3.24-0.58,7.27-6.11,6.7-9.38l-1.72-9.89l-6.55,10.01L225.23,314.4z"/>
	
		<linearGradient id="SVGID_17_" gradientUnits="userSpaceOnUse" x1="-2743.885" y1="1563.91" x2="-2745.8992" y2="1537.4393" gradientTransform="matrix(0.9467 0.3222 -0.3222 0.9467 3350.5571 -288.5381)">
		<stop  offset="0" style="stop-color:#1C617D"/>
		<stop  offset="1" style="stop-color:#6395B4"/>
	</linearGradient>
	<path class="st37" d="M258.16,299.18c0.97,3.69-5.1,5.54-8.69,4.31s-5.5-5.16-4.28-8.78C245.19,294.71,257.59,297.01,258.16,299.18
		z"/>
	<path class="st8" d="M223.52,304.76c-1.7-7.64,4.35-15.52,12-17.26c8.54-1.94,16.09,1.61,18.2,9.35L223.52,304.76z"/>
	
		<linearGradient id="SVGID_18_" gradientUnits="userSpaceOnUse" x1="520.7528" y1="277.064" x2="519.5735" y2="261.564" gradientTransform="matrix(-0.9945 0.1051 -0.1051 -0.9945 784.0839 511.2449)">
		<stop  offset="0" style="stop-color:#1C617D"/>
		<stop  offset="1" style="stop-color:#6395B4"/>
	</linearGradient>
	<path class="st38" d="M234.48,298.03l7.86-1.89c1.08-0.26,1.75-1.34,1.49-2.42l0,0c-0.26-1.09-1.35-1.76-2.44-1.5l-7.86,1.89
		c-1.08,0.26-1.75,1.34-1.49,2.42l0,0C232.3,297.62,233.39,298.3,234.48,298.03z"/>
	<circle class="st8" cx="235.06" cy="288.82" r="2.53"/>
	<path class="st23" d="M245.97,298.87c0,0-14.91,14.04-27.04,13.55c-8.54-0.34,4.59-7.65,4.59-7.65L245.97,298.87z"/>
	
		<ellipse transform="matrix(0.9897 -0.1433 0.1433 0.9897 -42.9158 39.2646)" class="st16" cx="251.14" cy="317.58" rx="3.72" ry="2.53"/>
	
		<linearGradient id="SVGID_19_" gradientUnits="userSpaceOnUse" x1="-1749.082" y1="508.6514" x2="-1749.082" y2="500.9831" gradientTransform="matrix(-0.9943 -0.107 0.107 -0.9943 -1543.5571 639.123)">
		<stop  offset="0" style="stop-color:#1C617D"/>
		<stop  offset="1" style="stop-color:#6395B4"/>
	</linearGradient>
	<path class="st39" d="M257.01,322.23c-3.11,0.45-8.43,0.93-14.83,0.2c-3.51-0.39-5.68,3.71-6.15,6.03
		c-0.12,0.59,0.25,1.16,0.8,1.21c4.58,0.44,14.03,2.22,24.82-1.05C263.84,327.96,260.16,321.78,257.01,322.23z"/>
	<path class="st26" d="M238.91,312.74l3.76-1.26c1.14-0.38,1.76-1.62,1.38-2.77l0,0c-0.38-1.14-1.62-1.76-2.77-1.38l-3.76,1.26
		c-1.14,0.38-1.76,1.62-1.38,2.77l0,0C236.53,312.5,237.77,313.12,238.91,312.74z"/>
	<path class="st26" d="M251.09,309.69l3.93-0.57c1.19-0.17,2.02-1.28,1.85-2.48l0,0c-0.17-1.19-1.28-2.02-2.48-1.85l-3.93,0.57
		c-1.19,0.17-2.02,1.28-1.85,2.48l0,0C248.79,309.04,249.9,309.86,251.09,309.69z"/>
	<rect x="241.68" y="417.46" class="st27" width="14.26" height="6.35"/>
	<polygon class="st28" points="312.96,365.86 266.01,379.65 273.27,397.77 313.04,386.09 	"/>
	<circle class="st28" cx="314.53" cy="378" r="12.14"/>
</g>
<g>
	<path class="st40" d="M217.37,81.18c0.68,0.07,1.3,0.07,2.38,0c1.66-0.11,3.35-0.58,4.61-1.44c1.51-1.04,2.52-2.56,2.95-4.32
		l-0.11-0.04c-1.04,1.08-2.56,1.69-4.68,1.69c-3.96,0-7.31-2.77-7.31-7.31c0-4.57,3.67-8.42,8.82-8.42c6.01,0,8.85,4.61,8.85,10.08
		c0,4.86-1.55,8.42-4.1,10.76c-2.23,2.02-5.29,3.13-8.93,3.28c-0.94,0.07-1.87,0.04-2.48,0V81.18z M220.68,69.45
		c0,2.02,1.08,3.74,3.31,3.74c1.48,0,2.52-0.72,3.02-1.55c0.18-0.32,0.29-0.68,0.29-1.37c0-2.48-0.94-4.93-3.42-4.93
		C222.01,65.35,220.64,67,220.68,69.45z"/>
	<path class="st40" d="M237.35,81.18c0.68,0.07,1.3,0.07,2.38,0c1.66-0.11,3.35-0.58,4.61-1.44c1.51-1.04,2.52-2.56,2.95-4.32
		l-0.11-0.04c-1.04,1.08-2.56,1.69-4.68,1.69c-3.96,0-7.31-2.77-7.31-7.31c0-4.57,3.67-8.42,8.82-8.42c6.01,0,8.85,4.61,8.85,10.08
		c0,4.86-1.55,8.42-4.1,10.76c-2.23,2.02-5.29,3.13-8.93,3.28c-0.94,0.07-1.87,0.04-2.48,0V81.18z M240.66,69.45
		c0,2.02,1.08,3.74,3.31,3.74c1.48,0,2.52-0.72,3.02-1.55c0.18-0.32,0.29-0.68,0.29-1.37c0-2.48-0.94-4.93-3.42-4.93
		C241.99,65.35,240.62,67,240.66,69.45z"/>
	<path class="st40" d="M272.88,73.34c0,7.24-2.92,12.2-8.89,12.2c-6.05,0-8.71-5.44-8.75-12.06c0-6.77,2.88-12.13,8.93-12.13
		C270.43,61.35,272.88,66.93,272.88,73.34z M260.75,73.48c-0.04,5.36,1.26,7.92,3.38,7.92c2.12,0,3.28-2.66,3.28-7.99
		c0-5.18-1.12-7.92-3.31-7.92C262.08,65.49,260.71,68.05,260.75,73.48z"/>
	<path class="st40" d="M276.26,73.45c0-2.3-0.07-4.28-0.14-5.9h4.75l0.25,2.45h0.07c1.3-1.87,3.31-2.84,5.87-2.84
		c3.85,0,7.31,3.35,7.31,8.96c0,6.41-4.07,9.43-7.99,9.43c-2.12,0-3.78-0.86-4.57-2.02h-0.07v8.75h-5.47V73.45z M281.73,77.59
		c0,0.43,0.04,0.83,0.11,1.15c0.36,1.48,1.62,2.59,3.2,2.59c2.38,0,3.78-1.98,3.78-4.97c0-2.81-1.26-4.93-3.71-4.93
		c-1.55,0-2.92,1.15-3.28,2.77c-0.07,0.29-0.11,0.65-0.11,0.97V77.59z"/>
</g>
</svg>
