<svg id="Layer_1" data-name="Layer 1" xmlns="http://www.w3.org/2000/svg" viewBox="0 0 910 567"><defs><clipPath id="clip-path"><path class="cls-1" d="M870.38 501.71s-1.82 10.68-11.38 8.77l-8 37.92 34-41.11z"/></clipPath><clipPath id="clip-path-2"><path class="cls-1" d="M761.52 525.54s-10.24 3.55-13.17-5.74l-37.1 11.2 52.39 10z"/></clipPath><clipPath id="clip-path-3"><path class="cls-1" d="M542.35 248.85h151.3a1.38 1.38 0 011.38 1.38v93.41a1.37 1.37 0 01-1.37 1.37H542.35a1.37 1.37 0 01-1.37-1.37v-93.42a1.37 1.37 0 011.37-1.37z" transform="rotate(-3.37 617.128 296.633)"/></clipPath><clipPath id="clip-path-12"><path class="cls-1" d="M573.45 489.41s-.47 10.82-10.18 10.13L560 538.17l28.56-45z"/></clipPath><clipPath id="clip-path-13"><path class="cls-1" d="M468.44 525s-9.8 4.61-13.7-4.31L419 535.73l53.15 4.36z"/></clipPath><style>.cls-1{fill:none}.cls-2{fill:#eaf1fb}.cls-4{fill:#fff}.cls-5{fill:#d6e0f0}.cls-6{fill:#e8edf4}.cls-7{fill:#cde4f7}.cls-8{fill:#fdfcfd}.cls-9{fill:#f19a77}.cls-10{fill:#132c45}.cls-11{fill:#0b1f2e}.cls-12{fill:#ffda36}.cls-13{fill:#e9825f}.cls-14{fill:#0682a0}.cls-15{fill:#ea505e}.cls-16{fill:#067487}.cls-17{fill:#010202;opacity:.3;isolation:isolate}.cls-20{fill:#09626c}.cls-22{fill:#9ed2f2}.cls-26{clip-path:url(#clip-path-3)}.cls-27{fill:#5f96d0}.cls-28{fill:#7db3e2}</style></defs><ellipse class="cls-2" cx="455" cy="505.2" rx="454.06" ry="65.05"/><path d="M827.57 480.71c51.79-107.62 80.29-313.63-31.9-382-73.43-44.71-149.93 12.81-228.46 15.45-61.63 2.06-121-46.61-176.66-60.5-145.71-36.42-374.93 58.27-274.14 427.05 252-.71 459.16.72 711.16 0z" fill="#f8f9fd"/><path class="cls-4" d="M682 320.34H534.06a3.55 3.55 0 01-3.55-3.55V100.33A75.36 75.36 0 01605.88 25h4.2a75.42 75.42 0 0175.42 75.42v216.37a3.55 3.55 0 01-3.5 3.55z"/><path class="cls-5" d="M682.58 323.51H531.83a4.5 4.5 0 01-4.5-4.5V70.34a47 47 0 0147-47h65.79a47 47 0 0147 47V319a4.5 4.5 0 01-4.54 4.51zm-150.49-4.75h150.23V70.37a42.29 42.29 0 00-42.23-42.24H574.3a42.26 42.26 0 00-42.21 42.21v248.42z"/><path class="cls-5" d="M607.21 321.61a2.37 2.37 0 01-2.38-2.38V25.76a2.38 2.38 0 114.75 0v293.47a2.37 2.37 0 01-2.37 2.38z"/><path class="cls-5" d="M684.7 253.77h-155a2.38 2.38 0 110-4.75h155a2.38 2.38 0 110 4.75zm0-147.32h-155a2.38 2.38 0 110-4.75h155a2.38 2.38 0 110 4.75zm0 73.66h-155a2.38 2.38 0 110-4.75h155a2.38 2.38 0 110 4.75z"/><path class="cls-6" d="M785.21 216.62h8.24v-47a9.32 9.32 0 00-8.24 0v47z"/><path class="cls-7" d="M760.11 216.48h7.15v-47a7.14 7.14 0 00-7.15 0v47z"/><path class="cls-4" d="M813.23 216.59l6.54-3-19.7-42.65a7.25 7.25 0 00-6.54 3zm-45.97-.14h8.24v-47a9.32 9.32 0 00-8.24 0v47z"/><path class="cls-7" d="M775.48 216.62h9.73v-47a12.81 12.81 0 00-9.73 0v47z"/><path class="cls-5" d="M748.19 216.82a.84.84 0 00-.83.84v2.19a.83.83 0 00.83.83h82.1a.84.84 0 00.84-.83v-2.19a.85.85 0 00-.84-.84z"/><path class="cls-2" d="M206.51 3.26h3.08v91.48h-3.08z"/><path class="cls-5" d="M231.2 123.92a23.78 23.78 0 00-47.56 0z"/><path class="cls-5" d="M215.88 100.31c0 7-3.94 12.64-8.81 12.64s-8.82-5.66-8.82-12.64 3.95-12.65 8.82-12.65 8.81 5.66 8.81 12.65z"/><circle class="cls-5" cx="412.79" cy="175.36" r="27.75"/><circle class="cls-8" cx="412.79" cy="175.36" r="21.05"/><path class="cls-5" d="M418.92 188.9l-5.1-14a1.43 1.43 0 00-1.68-.9l-15 3.51a1.43 1.43 0 10.65 2.79l13.76-3.3 4.67 12.84a1.46 1.46 0 001.35 1 1.37 1.37 0 00.49-.09 1.43 1.43 0 00.86-1.85z"/><circle class="cls-5" cx="412.47" cy="175.36" r="2.87"/><path class="cls-5" d="M410.84 524.86l-52.87-168.81 10.56-2.81 46.98 171.62h-4.67z"/><path class="cls-5" d="M317.13 524.86l39.81-171.99 10.63 2.53-45.78 169.46h-4.66z"/><path class="cls-5" d="M395.46 470.76l-63.8.03v-5.83l62.14-.03 1.66 5.83zm-266.45 54.1l52.87-168.81-10.56-2.81-46.98 171.62h4.67z"/><path class="cls-5" d="M222.73 524.86l-39.82-171.99-10.63 2.53 45.78 169.46h4.67z"/><path class="cls-5" d="M144.39 470.76l63.8.03v-5.83l-62.14-.03-1.66 5.83zM123.6 357.61h291.89v-16.88H123.6v16.88z"/><path class="cls-6" d="M671.69 381.29h147.62V511.9H671.69z"/><path class="cls-5" d="M684.46 391.23h120.82v45.79H684.46zm0 55.36h120.82v52.97H684.46zm-6.6 65.3h13.19v11.49h-13.19zm120.82 0h13.19v11.49h-13.19z"/><circle class="cls-8" cx="696.49" cy="456.97" r="6.46" transform="rotate(-.72 692.668 454.773)"/><path class="cls-6" transform="rotate(-.06 754.17 430.113)" d="M692.17 399.61h59.99v15.95h-59.99z"/><path class="cls-8" d="M704.57 416.13h66.15v20.85h-66.15z"/><path class="cls-6" d="M759.9 320.34h15.66s19.19 43.79 2 61h-18.34s-18.22-9.34.68-61zm-28.26 60.95h-11.87l-2.43-25.82h16.6l-2.3 25.82z"/><path class="cls-5" d="M731.64 381.29h-11.87l-1.46-15.16h14.68l-1.35 15.16z"/><path class="cls-6" d="M273.03 282.53h91.84v58.33h-91.84z"/><path class="cls-8" d="M325.55 314.11a6.45 6.45 0 01-4.79-10.77 8.27 8.27 0 00-1.66-.17 8.53 8.53 0 108.23 10.68 6.13 6.13 0 01-1.78.26z"/><path class="cls-9" d="M220.48 288.22q.53 3.55 1.05 7.17c.33 2.43.67 4.86 1 7.32.16 1.22.32 2.46.48 3.7s.23 2.5.36 3.75c.44 5 .86 10.12 1.23 15.27q.31 7.76.5 15.31c0 1.26 0 2.51.08 3.76l-.06 3.74c0 2.49-.1 4.94-.14 7.38s-.13 4.85-.19 7.24-.31 4.76-.46 7.1-.33 4.66-.5 7-.29 4.54-.58 6.77q-.81 6.68-1.57 13c-.13 1.05-.26 2.1-.39 3.13s-.33 2.07-.49 3.09q-.51 3-1 6t-1 5.79c-.18 1-.35 2-.52 3a28.35 28.35 0 012.64 21.06c-2.33 8.35-8.94 15.06-16.84 17.08-2.66.68-5.79.75-7.85-1.26-2.26-2.2-2.32-6-1.62-9.11s2-6.19 1.79-9.43-2.68-6.74-5.65-6.25c-1.8.28-3.81 1.86-5.18.53a2.67 2.67 0 01-.32-3 6.92 6.92 0 012.08-2.26l11-8.74c-.17-58.12-16.42-137.68-20.64-157.37-.64-2.93-1-4.54-1-4.54a63.25 63.25 0 0031.42-14c.33.94.67 1.88 1 2.84l2 5.78c.32 1 .66 2 1 3l.87 3q1.73 6.14 3.4 12.68c.59 2.16 1 4.39 1.49 6.64.12.62.25 1.24.37 1.85.34 1.65.67 3.31 1 5q.56 3.44 1.24 6.98z"/><path class="cls-10" d="M171.49 567c-1.18-15.65-2.63-30.57-4.25-44.64a1109.89 1109.89 0 00-7.87-55.88q-2 29.53-4.29 55.7-2.08 23.72-4.4 44.82H96.47q1.22-22.71 1.76-42.61.49-17.53.61-33c.1-14.87 0-28.28-.35-40.3q-.1-3.92-.22-7.62c-.35-10.37-.81-19.59-1.32-27.71-.06-.8-.11-1.59-.16-2.36q-.35-5.19-.73-9.77c0-.35 0-.71-.07-1.06-.17-1.9-.32-3.73-.48-5.48-.76-8.19-1.53-14.52-2.15-19.11l66.43 1.41 43.23.92.93 5.28c.05.4.13.82.19 1.21.56 3.31 1.09 6.6 1.62 9.88q1.74 10.89 3.25 21.63 1 6.93 1.84 13.78c.69 5.31 1.32 10.58 1.93 15.83q.3 2.75.61 5.48 2 18 3.33 35.46 1.5 18.79 2.34 36.79 1 21.27 1.28 41.3"/><path class="cls-11" d="M167 520.56l4.49 46.44H189c-2.19-60.18-10.87-105.2-10.87-105.2l-18.79 4.69c2.77 16.6 5.49 35.33 7.86 55.87"/><path class="cls-12" d="M119.2 145.84q3.49 13 7 26.1c1.62 6.07 3.55 12.6 8.55 16.4A14.69 14.69 0 00151 189a56.51 56.51 0 01-15.42-24c-1.39-4.34-2.29-8.91-4.59-12.85s-7.25-6.74-11.79-6.31z"/><path class="cls-10" d="M205 376.37c1.82 11.5 4 23.35 6.53 35.45q-13.8 1.71-27.68 2.56a444.47 444.47 0 01-90.69-3.7c-.11-4.64-.26-10-.44-15.77-.38-12-.92-26.06-1.63-40.45-.52-10.82-1.14-21.84-1.84-32.31-1.07-15.75-2.34-30.27-3.8-41-2.36-17.36-4.62-37.06 6.59-50.5 6.45-7.74 16.19-11.77 25.55-15.53l10.7-4.28a1.69 1.69 0 01.31-.13c6.37-2.57 12.74-5.11 19.12-7.67 7.38 3.74 15.65 7.49 23.88 11.23 1.82.84 3.64 1.66 5.46 2.48h.05c1.55.25 63.7-8.79 46.17 198.48a135.12 135.12 0 00-26-1.86c.61 22.34.85-86.82 5.15-54.87q.39 3 .84 6.05.73 5.84 1.73 11.82z"/><path class="cls-9" d="M136.68 195.83a54.22 54.22 0 01-5 20.49 91.93 91.93 0 0038.94 1.31 73.42 73.42 0 01-3.41-20.63v-3.9a73 73 0 01.85-8.86c-6.71-11.66-23-17.79-38-17.34a55.69 55.69 0 016.6 28.68c.04.05.03.15.02.25z"/><path class="cls-12" d="M172.94 126.23a31.91 31.91 0 01-2.26 26.33c-1-6.37-2-12.47-3-18.84-.45-2.94-.74-6.4 1.41-8.47a2.77 2.77 0 012.48-.85c.91.23 1.84 1.04 1.37 1.83z"/><path class="cls-13" d="M136.33 186.43a55.35 55.35 0 01.37 9.1v.3a24.94 24.94 0 018.69-1.36c4.27.1 8.43 1.29 12.62 2.06a28.64 28.64 0 009.22.42v-3.9a73 73 0 01.85-8.86c-6.71-11.66-23-17.79-38-17.34a55.38 55.38 0 016.25 19.58z"/><path class="cls-9" d="M170.41 123.37a59.22 59.22 0 005.92 36.87c3.33 6.36 8 12.73 7.35 19.88-.85 9.42-11.42 15.76-20.8 14.61s-17.22-7.91-22.71-15.61a65.08 65.08 0 01-10.83-49.35 72 72 0 0141.07-6.4z"/><path class="cls-12" d="M131.71 161.78a47.71 47.71 0 002.58-27.37 35 35 0 0027.71-.65 34 34 0 0012.57-10.09 9.65 9.65 0 00-4.34-14.91 75.43 75.43 0 00-22.46-4.62c-4.79-.22-9.82.09-13.94 2.53A15.24 15.24 0 00127 123c-3.94-1-8 2.11-9.65 5.82s-1.34 8-.35 12c2.27 8.95 7.28 15.54 14.71 20.96z"/><path class="cls-9" d="M132.41 161.06a3.88 3.88 0 00-3.31-3.86 5 5 0 00-4.76 2.31 7.29 7.29 0 00-.9 5.37 13.29 13.29 0 002.31 5 12.7 12.7 0 006.3 5.13c2.64.82 5.88.12 7.42-2.17-3.32-3.48-7.39-6.95-7.06-11.78z"/><path class="cls-6" d="M133.97 218.37h32.22l-10.2 88.4-22.02-88.4z"/><path class="cls-4" d="M145.68 218.73l-10.56-6.95.75-8.78-13.6 10.19 18.18 31.25 5.23-25.71m13.64.23l9.81-3.18-.76-8.78 13.6 10.2-18.53 26.34-4.12-24.58"/><path class="cls-14" d="M144 227.2h16.65l1.91 11.06a8.88 8.88 0 01-3.33 8.56l-5.49 4.25-7.15-3.58a8.9 8.9 0 01-4.74-9.73z"/><path class="cls-11" d="M207.57 413.36l-13.44-163.23 8.32 27.92 5.12 135.31z"/><path class="cls-15" d="M204 365.7h-26.73a2.46 2.46 0 01-2.46-2.46v-40.52a5.13 5.13 0 015.13-5.13h21.34a5.13 5.13 0 015.13 5.13v40.52a2.46 2.46 0 01-2.41 2.46z"/><path class="cls-16" d="M146.55 247.49l-.64 18.81 10.08 40.47 5.1-44.2-2.25-15.48h-12.93"/><circle class="cls-11" cx="152.77" cy="320.27" r="2.68"/><circle class="cls-11" cx="152.77" cy="366.73" r="2.68"/><circle class="cls-11" cx="153.5" cy="389.47" r="2.68"/><path class="cls-11" d="M121.71 440.06l88.99-9.11.42 3.28-89.41 5.83z"/><path class="cls-9" d="M79 357.28c1.25.12 2.49.26 3.73.39l3.73.25 7.37.46 7.23.41 7.12.13 7 .07c2.29 0 4.55.09 6.8 0l13.1-.49 3.15-.14c1 0 2.08-.15 3.11-.23l6.06-.51 5.85-.53 3-.28a28.3 28.3 0 0020.75 4.35c8.51-1.64 15.74-7.67 18.42-15.38.89-2.59 1.21-5.7-.62-7.92-2-2.44-5.77-2.81-9-2.37s-6.33 1.47-9.54 1-6.49-3.23-5.77-6.15c.43-1.77 2.17-3.64 1-5.12a2.66 2.66 0 00-2.95-.56 6.86 6.86 0 00-2.42 1.88l-9.61 10.21"/><path class="cls-9" d="M121.5 334.25l35.87 2.7-35.19 10.48-.68-13.18z"/><path class="cls-2" d="M208.32 413.54l14.94 1.68-1.68 4.1-12.57-.97-.69-4.81z"/><path class="cls-17" d="M201.32 323.61H179.9a2.32 2.32 0 01-2.32-2.32v-.23a2.32 2.32 0 012.32-2.33h21.42a2.32 2.32 0 012.32 2.33v.23a2.32 2.32 0 01-2.32 2.32z"/><path class="cls-10" d="M92 230.61S8 314.39 45.32 343s99.26 17.66 99.26 17.66l1.33-27.66s-65.3-6.75-66.91-21.8c-.81-7.64 21.29-23.75 21.29-23.75z"/><path class="cls-2" d="M145.91 332.97h4.91l-.05 27.73h-6.19l1.33-27.73z"/><path class="cls-11" d="M91.81 361s29.7 7.45 52.77-.33c0 0-25.09 14.08-52.77 3.54"/><path class="cls-4" d="M776 301.94c-1.77 15.26 1.38 30.57 1.49 45.92a84 84 0 0041.94 5.42c1.59-15.51 3.18-31 3.83-46.59.34-8.2.4-16.52-1.61-24.44-1.81-7.09-5.47-13.9-11.09-18.28a24.18 24.18 0 00-2-1.44c-3.56 2.72-10.9 3.47-14.79 1.47a27.23 27.23 0 00-5.87 4.84 37.84 37.84 0 00-7.29 11.88c-2.67 6.72-3.78 14-4.61 21.22z"/><path class="cls-9" d="M787.9 268.8a23.95 23.95 0 0017.77-1.57 24.52 24.52 0 004.24-2.73c.05-.31.09-.61.13-.91 0-.13 0-.25.05-.38-.07-.43-.12-.87-.18-1.3-.56-4.36-1-8.76-1.5-13.16-.42-4.06-.81-8.11-1.2-12.15A79.9 79.9 0 00794 244c-.17 2.73-.42 5.46-.77 8.16q-.43 3.42-1 6.81c-.23 1.26-.48 2.51-.75 3.76s-.53 2.34-.82 3.5a26.35 26.35 0 00-2.76 2.57z"/><path class="cls-13" d="M792.13 259c4.78-1.3 10.29-2.4 16.28-10.26-.42-4.06-.81-8.11-1.2-12.15a79.25 79.25 0 00-13.21 7.46c-.17 2.72-.42 5.45-.77 8.15q-.48 3.42-1.1 6.8z"/><path class="cls-10" d="M870.38 501.71s-1.82 10.68-11.38 8.77l-8 37.92 34-41.11z"/><g clip-path="url(#clip-path)"><path class="cls-4" d="M846.58 536.77s9.95-8.83 21.86 2.45L849 552.69z"/></g><path class="cls-4" d="M855.45 550.29l32.2-38.95a1.41 1.41 0 00-.19-2l-2.52-2.08L851 548.4l2.52 2.08a1.4 1.4 0 001.93-.19zm7.77-30.99a.87.87 0 01-.45.1 18.43 18.43 0 00-5.8.59.83.83 0 01-1.07-.57.94.94 0 01.62-1.1 19.54 19.54 0 016.41-.67.81.81 0 01.78.91.93.93 0 01-.49.74zm-1.13 4.7a.85.85 0 01-.45.1 18.55 18.55 0 00-5.8.59.82.82 0 01-1.06-.57.92.92 0 01.61-1.1 19.66 19.66 0 016.41-.67.83.83 0 01.79.91.94.94 0 01-.5.74zm-1.09 4.78a.87.87 0 01-.45.1 18.43 18.43 0 00-5.8.59.83.83 0 01-1.07-.57.93.93 0 01.62-1.1 19.87 19.87 0 016.41-.67.81.81 0 01.78.91.93.93 0 01-.49.74z"/><path class="cls-10" d="M761.52 525.54s-10.24 3.55-13.17-5.74l-37.1 11.2 52.39 10z"/><g clip-path="url(#clip-path-2)"><path class="cls-4" d="M719.33 521.57s12.53 4.48 8.38 20.34l-21.15-10.52z"/></g><path class="cls-4" d="M712.11 535.93l48.89 9.32a1.76 1.76 0 002.05-1.4l.55-2.85-52.39-10-.54 2.86a1.75 1.75 0 001.44 2.07zm30.54-8.19a.86.86 0 01-.3-.35 18.5 18.5 0 00-3.35-4.79.83.83 0 010-1.21.93.93 0 011.26 0 19.51 19.51 0 013.68 5.29.83.83 0 01-.42 1.13.94.94 0 01-.87-.07zM738 529a.88.88 0 01-.31-.35 18.63 18.63 0 00-3.31-4.8.82.82 0 010-1.2.94.94 0 011.26 0 20 20 0 013.67 5.3.82.82 0 01-.42 1.13.92.92 0 01-.89-.08zm-4.74 1.34a1 1 0 01-.26-.34 18.4 18.4 0 00-3.31-4.8.84.84 0 010-1.21.93.93 0 011.26 0 19.93 19.93 0 013.68 5.3.82.82 0 01-.42 1.12 1 1 0 01-.95-.07z"/><path class="cls-16" d="M819.21 376.28s-14.91 71.34 56 125.29l-20.43 20.6s-79.41-59-68.32-130.73z"/><path class="cls-20" d="M820.55 418.39c-1.17 1.44-2.38 2.87-3.52 4.36a84.89 84.89 0 00-7.64 12.6 149.93 149.93 0 00-9.63 22.86c-10.43-19.59-17.08-42.45-13.32-66.77l32.77-15.16s-3.7 17.72 1.34 42.11z"/><path class="cls-14" d="M776.2 289c-3.82 21.93 1.26 54.05 2.89 76.26 0 0-50 77.21-44.28 156.37l30.19 8.79s11-103.28 54.46-154.12l3.82-51.8-32.7-6.66-1.8-27.91z"/><path class="cls-16" d="M821 330.14c.24.06.55-.27.93-1a13.3 13.3 0 00.62-1.29c.22-.52.42-1.12.65-1.81l.35-1.09c.11-.39.22-.79.33-1.22s.23-.87.34-1.33.21-.95.32-1.45.21-1 .31-1.56.18-1.1.28-1.68c.2-1.15.32-2.37.48-3.66.25-2.57.42-5.41.42-8.47a88.9 88.9 0 00-2.48-20.35 40.21 40.21 0 00-4.3-11.27 23 23 0 00-4.07-5 18 18 0 00-5.45-3.51 13.62 13.62 0 00-3.13-.88l-.8-.13-.8-.05h-1.58a16.4 16.4 0 00-5.81 1.38 20.43 20.43 0 00-4.68 2.87c-.33.29-.67.56-1 .85l-.92.89-.84.94c-.28.3-.52.64-.78.95a23.32 23.32 0 00-2.47 4 31.59 31.59 0 00-1.58 3.9 39.26 39.26 0 00-1.51 6.9 47.4 47.4 0 00-.4 5.23c0 2.86.12 4.44.41 4.47s.69-1.52 1.29-4.26c.31-1.38.67-3.05 1.18-5a45.6 45.6 0 012.14-6.21 24 24 0 014.07-6.43c.23-.24.45-.5.7-.74l.75-.7.8-.67c.27-.22.56-.41.84-.62a16.66 16.66 0 013.76-2 12.16 12.16 0 014.16-.74h.53c.17 0 .34 0 .52.05l.52.06.51.12a8.79 8.79 0 012 .67 15.5 15.5 0 016.67 6.55 37.9 37.9 0 013.51 9.75c.8 3.42 1.43 6.77 1.87 10s.74 6.28.92 9.16.22 5.58.24 8c0 1.23 0 2.41-.06 3.52v1.63c0 .53 0 1-.06 1.52s0 1-.05 1.43 0 .91-.06 1.33 0 .83 0 1.22v4.39c-.01.85.15 1.29.41 1.34z"/><path class="cls-14" d="M793.18 211.2a10.52 10.52 0 016.18-6.51 14.3 14.3 0 019.12-.3 15.93 15.93 0 017.92 5 13.69 13.69 0 013.22 8.78c0 5-3 9.52-5.89 13.66a63.33 63.33 0 00-20.55-20.63z"/><path class="cls-4" d="M790.24 205.41c-1.42-.86-3-1.74-4.63-1.54-2.29.28-3.87 2.73-3.81 5a9.54 9.54 0 003 6.08 18.86 18.86 0 0020.2 4.7c.89-.33 3.22-1 3.69-1.86.77-1.4-.73-1.73-1.94-2.45z"/><path class="cls-10" d="M806.68 246.21a21.86 21.86 0 006.57-24.13 18.36 18.36 0 00-1-1.76 19 19 0 00-2.65-3.22 27.68 27.68 0 00-4.51 9.79 29.94 29.94 0 001.59 19.32zm-18.12-22.58a10.74 10.74 0 001.25 10.52 20.09 20.09 0 003.56-8.25 2.69 2.69 0 00-.3-2.28 2.46 2.46 0 00-2.14-.61c-.77.08-1.62.82-2.37.62z"/><path class="cls-9" d="M791.07 222.28c.6 4-1.35 7.89-3.07 11.56s-3.28 7.84-1.93 11.66c1.4 4 5.89 6.38 10.08 6a13.53 13.53 0 0010-6.9 22.39 22.39 0 002.56-12.19 66.5 66.5 0 00-2.16-12.41c-4.97-2.85-11-1.26-15.48 2.28z"/><path class="cls-9" d="M807.59 233.56a7.5 7.5 0 011.78-1.34 2.93 2.93 0 012.17-.2 3.05 3.05 0 011.78 2.16 4.68 4.68 0 01-6.91 5.24 26.37 26.37 0 001.18-5.86z"/><path class="cls-10" d="M788.05 225.27a31 31 0 0017.14-3.73 10.33 10.33 0 00-.13 5.35 11.81 11.81 0 004.1 6.5c2.39-3.28 3.87-7.76 3.34-11.65a11.5 11.5 0 00-.28-1.42 19 19 0 00-2.65-3.22 17.92 17.92 0 00-5.37-3.65 18.88 18.88 0 00-16.53.92 15.71 15.71 0 00-1.23 1.07 11.57 11.57 0 00-2.34 3.32 4.63 4.63 0 003.95 6.51z"/><path class="cls-9" d="M750.91 374.89a15.63 15.63 0 001.67.34l1.07.15c.38 0 .79 0 1.22.06.85 0 1.81 0 2.87.05s2.18-.15 3.42-.24 2.53-.33 3.93-.55 2.85-.56 4.39-.93l1.17-.29c.39-.1.78-.23 1.17-.35l2.43-.77c.85-.25 1.66-.61 2.51-.93s1.71-.67 2.58-1.05l2.62-1.24c.44-.22.9-.42 1.34-.66l1.32-.74c.89-.5 1.8-1 2.7-1.55l2.69-1.77c.93-.58 1.78-1.28 2.68-1.95s1.82-1.36 2.67-2.14L798 358l2.53-2.58a64.1 64.1 0 009-12.32 63 63 0 005.7-14.43c.29-1.22.57-2.43.84-3.64s.38-2.42.55-3.61.25-2.38.34-3.56.18-2.34.15-3.48 0-2.29 0-3.4-.18-2.22-.29-3.3c0-.54-.11-1.08-.17-1.61s-.17-1.05-.26-1.57c-.16-.9-.33-1.78-.5-2.65a37.15 37.15 0 01-25.47-1.2c0 .28 0 .57.08.86.09.63.08 1.29.13 1.95s.11 1.33.17 2 0 1.37.09 2.07c0 .35 0 .7.07 1.06s0 .71 0 1.07c0 .72.06 1.45.07 2.18s0 1.49 0 2.25 0 1.51-.07 2.29 0 1.56-.11 2.34-.13 1.58-.17 2.39-.21 1.6-.3 2.42a69.12 69.12 0 01-2.11 10 61.63 61.63 0 01-4 9.72l-1.27 2.27-1.38 2.19c-.43.76-1 1.42-1.44 2.12s-1 1.41-1.5 2l-1.56 1.95c-.53.63-1.09 1.22-1.63 1.83l-.8.9-.84.84-1.72 1.65c-.57.53-1.15 1-1.71 1.51s-1.1 1-1.69 1.44l-1.68 1.31c-.28.21-.55.44-.83.64l-.84.57c-1.11.76-2.17 1.54-3.24 2.14s-2 1.29-3 1.77-1.88 1-2.73 1.46-1.66.78-2.38 1.14c-.36.18-.7.37-1 .52s-.63.28-.91.42a15.13 15.13 0 00-1.44.77c-.78.48-1.18.9-1.15 1.26s.47.69 1.38.94z"/><path class="cls-15" transform="rotate(-3.37 644.027 382.652)" d="M626.66 370.53h36.7v25.24h-36.7z"/><path class="cls-17" d="M626.63 383.09l36.43-5.78-.46-7.82-36.64 2.15.67 11.45z"/><path class="cls-10" d="M608.55 397.56l74.37-4.38a4.27 4.27 0 014.51 4l.25 4.25-82.88 4.87-.25-4.25a4.25 4.25 0 014-4.49z"/><path class="cls-15" d="M520.52 222.33a4.48 4.48 0 00-4.2 4.73l8.9 151.42a4.49 4.49 0 004.73 4.21l229.29-13.49a4.46 4.46 0 004.2-4.73l-8.9-151.42a4.47 4.47 0 00-4.73-4.2l-229.29 13.48z"/><path class="cls-10" d="M530.63 364.44l225.8-13.28a2.49 2.49 0 002.34-2.63L751 215.76a2.49 2.49 0 00-2.63-2.34L522.53 226.7a2.49 2.49 0 00-2.34 2.63L528 362.1a2.49 2.49 0 002.63 2.34z"/><path d="M639.6 366.55a4.43 4.43 0 104.17-4.69 4.44 4.44 0 00-4.17 4.69z" fill="#f5f5f5"/><path class="cls-22" d="M537.87 357.37L748.78 345a2.29 2.29 0 002.14-2.41l-7.06-120a2.26 2.26 0 00-2.4-2.13l-210.91 12.4a2.28 2.28 0 00-2.14 2.4l7.06 120a2.27 2.27 0 002.4 2.11z"/><path class="cls-4" d="M542.75 352.78L743.4 341a2 2 0 001.85-2.08l-6.59-112a2 2 0 00-2.08-1.85l-200.65 11.8a2 2 0 00-1.85 2.08l6.59 112a2 2 0 002.08 1.83z"/><circle class="cls-22" cx="566.9" cy="240.98" r="3.29"/><circle class="cls-22" cx="554.26" cy="241.72" r="3.29"/><circle class="cls-22" cx="541.61" cy="242.46" r="3.29"/><path stroke="#9ed2f2" stroke-linecap="round" stroke-miterlimit="10" fill="none" d="M538.7 248.97l196.89-11.58"/><path d="M702.28 340.13l37.84-2.22a1.39 1.39 0 001.3-1.46l-5.49-93.24a1.38 1.38 0 00-1.45-1.3l-37.85 2.23a1.38 1.38 0 00-1.29 1.45l5.49 93.25a1.36 1.36 0 001.45 1.29zm-156.97 9.23l151-8.88a1.38 1.38 0 001.3-1.45l-5.49-93.25a1.36 1.36 0 00-1.45-1.29l-151 8.88a1.37 1.37 0 00-1.29 1.45l5.48 93.25a1.38 1.38 0 001.45 1.29z" style="isolation:isolate" opacity=".46" fill="#9ed2f2"/><g opacity=".62"><g class="cls-26"><path class="cls-27" d="M661.39 255.5v.41a2 2 0 002.07 1.85l14.08-.83a2 2 0 012.08 1.85l1.12 19.13a2 2 0 01-1.84 2.08l-28.67 1.69a2 2 0 01-2.08-1.85l-1.38-23.47a2.06 2.06 0 011.93-2.17l10.5-.62a2.06 2.06 0 012.19 1.93z"/><path class="cls-28" d="M652.93 279.59l.12-.6 2.51-12.64a2.69 2.69 0 012.47-2.16l24.68-1.45a1.29 1.29 0 011.33 1.53l-2.65 13.33a3 3 0 01-2.76 2.41l-25 1.47-1.09.06-2.14.13a2.69 2.69 0 002.53-2.08z"/></g><g class="cls-26"><path class="cls-27" d="M613.47 258.32v.41a2 2 0 002.08 1.85l14.08-.83a2 2 0 012.07 1.84l1.13 19.14a2 2 0 01-1.85 2.08l-28.67 1.68a2 2 0 01-2.07-1.84l-1.38-23.48a2 2 0 011.94-2.17l10.51-.62a2.06 2.06 0 012.16 1.94z"/><path class="cls-28" d="M605 282.41l.12-.61 2.51-12.64a2.69 2.69 0 012.47-2.15l24.68-1.45a1.28 1.28 0 011.33 1.53l-2.65 13.33a3 3 0 01-2.76 2.4l-25 1.47-1.08.07-2.14.12a2.67 2.67 0 002.52-2.07z"/></g><g class="cls-26"><path class="cls-27" d="M565.55 261.13v.42a2 2 0 002.07 1.84l14.08-.82a2 2 0 012.08 1.84l1.12 19.14a2 2 0 01-1.84 2.08l-28.67 1.68a2 2 0 01-2.08-1.84L551 262a2 2 0 011.92-2.16l10.51-.62a2 2 0 012.12 1.91z"/><path class="cls-28" d="M557.1 285.23l.12-.61 2.51-12.62a2.68 2.68 0 012.47-2.15l24.68-1.45a1.27 1.27 0 011.32 1.52l-2.64 13.34a3 3 0 01-2.77 2.4l-25 1.47-1.08.07-2.14.12a2.69 2.69 0 002.53-2.09z"/></g><g class="cls-26"><path class="cls-27" d="M663.56 292.55v.42a2 2 0 002.07 1.85l14.08-.83a2 2 0 012.08 1.84l1.15 19.17a2 2 0 01-1.84 2.08l-28.67 1.68a2 2 0 01-2.08-1.84L649 293.41a2.05 2.05 0 011.93-2.16l10.5-.62a2 2 0 012.13 1.92z"/><path class="cls-28" d="M655.11 316.65l.12-.61 2.51-12.64a2.68 2.68 0 012.47-2.15l24.68-1.45a1.28 1.28 0 011.33 1.52l-2.65 13.34a3 3 0 01-2.77 2.4l-25 1.47-1.08.07-2.14.12a2.69 2.69 0 002.53-2.07z"/></g><g class="cls-26"><path class="cls-27" d="M615.65 295.37v.42a2 2 0 002.08 1.84l14.08-.82a2 2 0 012.07 1.84l1.12 19.14a2 2 0 01-1.85 2.07l-28.67 1.69a2 2 0 01-2.07-1.85l-1.38-23.47a2 2 0 011.92-2.16l10.51-.62a2 2 0 012.19 1.92z"/><path class="cls-28" d="M607.19 319.47l.12-.61 2.51-12.64a2.69 2.69 0 012.47-2.15l24.71-1.45a1.27 1.27 0 011.33 1.52l-2.65 13.33a3 3 0 01-2.76 2.41l-25 1.47-1.09.07-2.13.12a2.67 2.67 0 002.49-2.07z"/></g><g class="cls-26"><path class="cls-27" d="M567.73 298.19v.42a2 2 0 002.07 1.84l14.08-.83a2 2 0 012.08 1.85l1.12 19.14a2 2 0 01-1.84 2.07l-28.67 1.69a2 2 0 01-2.08-1.85l-1.38-23.47a2 2 0 011.92-2.16l10.51-.62a2 2 0 012.19 1.92z"/><path class="cls-28" d="M559.28 322.29l.12-.61 2.51-12.68a2.66 2.66 0 012.47-2.15l24.68-1.45a1.27 1.27 0 011.32 1.52l-2.64 13.33a3 3 0 01-2.74 2.45l-25 1.47-1.08.06-2.14.13a2.7 2.7 0 002.5-2.07z"/></g><g class="cls-26"><path class="cls-27" d="M665.74 329.61v.42a2 2 0 002.07 1.84l14.08-.83a2 2 0 012.08 1.85l1.15 19.11a2 2 0 01-1.84 2.07l-28.67 1.69a2 2 0 01-2.08-1.85l-1.38-23.47a2 2 0 011.92-2.16l10.51-.62a2 2 0 012.16 1.95z"/><path class="cls-28" d="M657.29 353.71l.12-.61 2.51-12.64a2.67 2.67 0 012.47-2.15l24.68-1.45a1.28 1.28 0 011.33 1.52l-2.65 13.33a3 3 0 01-2.77 2.41l-25 1.47-1.08.06-2.14.13a2.69 2.69 0 002.53-2.07z"/></g><g class="cls-26"><path class="cls-27" d="M617.83 332.43v.42a2 2 0 002.08 1.84l14.08-.83a2 2 0 012.07 1.85l1.13 19.14a2 2 0 01-1.85 2.07l-28.67 1.69a2 2 0 01-2.07-1.85l-1.38-23.47a2 2 0 011.92-2.17l10.5-.61a2 2 0 012.19 1.92z"/><path class="cls-28" d="M609.37 356.53l.12-.61 2.51-12.64a2.67 2.67 0 012.47-2.15l24.68-1.45a1.27 1.27 0 011.33 1.52l-2.65 13.33a3 3 0 01-2.76 2.41l-25 1.47-1.09.06-2.13.13a2.68 2.68 0 002.52-2.07z"/></g><g class="cls-26"><path class="cls-27" d="M569.91 335.25v.41a2 2 0 002.07 1.85l14.08-.83a2 2 0 012.08 1.85l1.12 19.13a2 2 0 01-1.84 2.08l-28.67 1.69a2 2 0 01-2.08-1.85l-1.38-23.47a2 2 0 011.92-2.17l10.51-.62a2 2 0 012.19 1.93z"/><path class="cls-28" d="M561.45 359.34l.13-.6 2.51-12.64a2.68 2.68 0 012.47-2.16l24.68-1.45a1.28 1.28 0 011.32 1.53l-2.65 13.33a3 3 0 01-2.76 2.41l-25 1.47-1.08.06-2.14.13a2.68 2.68 0 002.52-2.08z"/></g></g><path class="cls-4" d="M545.73 347.88l1.55-.1a.48.48 0 00.45-.51l-5.41-92.06a.49.49 0 00-.52-.46l-1.54.09a.5.5 0 00-.46.51l5.42 92.07a.48.48 0 00.51.46z"/><path d="M542.33 289.13l1.44-.08a.54.54 0 00.5-.57l-.81-13.88a.54.54 0 00-.57-.51l-1.44.08a.55.55 0 00-.51.58l.82 13.87a.54.54 0 00.57.51z" fill="#93c3db"/><path class="cls-4" d="M733.44 247.22l-.11-1.86a.33.33 0 00-.35-.31l-34.49 2a.33.33 0 00-.31.34l.11 1.87a.32.32 0 00.34.3l34.5-2a.34.34 0 00.31-.34zm.28 4.87l-.11-1.87a.32.32 0 00-.34-.3l-34.5 2a.32.32 0 00-.3.34l.11 1.86a.32.32 0 00.34.31l34.5-2a.32.32 0 00.3-.34zM734 257l-.11-1.86a.32.32 0 00-.34-.31l-34.5 2a.32.32 0 00-.31.34l.11 1.87a.33.33 0 00.35.3l34.49-2a.32.32 0 00.31-.34zm.3 4.82l-.11-1.87a.33.33 0 00-.35-.3l-34.49 2a.33.33 0 00-.31.35l.11 1.86a.32.32 0 00.34.31l34.5-2a.33.33 0 00.31-.35zm.28 4.86l-.11-1.86a.32.32 0 00-.34-.31l-34.5 2a.32.32 0 00-.3.34l.11 1.87a.32.32 0 00.34.3l34.5-2a.32.32 0 00.3-.34zm.29 4.86l-.11-1.86a.33.33 0 00-.35-.31l-34.49 2a.33.33 0 00-.31.35l.11 1.86a.33.33 0 00.35.31l34.49-2a.33.33 0 00.31-.35zm.28 4.87l-.11-1.87a.32.32 0 00-.34-.3l-34.5 2a.32.32 0 00-.3.34l.11 1.87a.32.32 0 00.34.3l34.5-2a.32.32 0 00.3-.34zm.29 4.86l-.11-1.86a.32.32 0 00-.34-.31l-34.5 2a.33.33 0 00-.31.35l.11 1.86a.33.33 0 00.35.31l34.49-2a.33.33 0 00.31-.35zm.29 4.87l-.11-1.87a.33.33 0 00-.35-.3l-34.49 2a.32.32 0 00-.31.34l.11 1.87a.32.32 0 00.34.3l34.5-2a.32.32 0 00.31-.34zM736 291l-.11-1.86a.32.32 0 00-.34-.31l-34.5 2a.33.33 0 00-.3.35l.11 1.86a.32.32 0 00.34.31l34.5-2a.33.33 0 00.3-.35zm.3 4.87l-.11-1.87a.32.32 0 00-.34-.3l-34.5 2a.32.32 0 00-.31.34l.11 1.86a.33.33 0 00.35.31l34.49-2a.32.32 0 00.31-.34zm.28 4.86l-.1-1.86a.34.34 0 00-.35-.31l-34.5 2a.33.33 0 00-.3.35l.11 1.86a.31.31 0 00.34.3l34.5-2a.32.32 0 00.3-.34zm.29 4.87l-.11-1.87a.32.32 0 00-.34-.3l-34.5 2a.32.32 0 00-.31.34l.11 1.86a.33.33 0 00.35.31l34.5-2a.32.32 0 00.3-.34zm.29 4.86l-.11-1.86a.33.33 0 00-.35-.31l-34.49 2a.32.32 0 00-.31.34l.11 1.87a.32.32 0 00.34.3l34.5-2a.32.32 0 00.31-.34zm.28 4.87l-.11-1.87a.32.32 0 00-.34-.3l-34.5 2a.33.33 0 00-.3.35l.11 1.86a.32.32 0 00.34.31l34.5-2a.32.32 0 00.3-.35zm.29 4.86l-.11-1.86a.32.32 0 00-.34-.31l-34.5 2a.32.32 0 00-.31.34l.11 1.87a.33.33 0 00.35.3l34.49-2a.32.32 0 00.31-.34zm.27 4.86l-.11-1.86a.32.32 0 00-.35-.3l-34.5 2a.33.33 0 00-.3.35l.11 1.86a.32.32 0 00.34.31l34.5-2a.33.33 0 00.31-.36zm.3 4.87l-.11-1.86a.32.32 0 00-.34-.31l-34.5 2a.31.31 0 00-.3.34l.1 1.87a.33.33 0 00.35.3l34.5-2a.32.32 0 00.3-.34zm.29 4.86l-.11-1.86a.33.33 0 00-.35-.31l-34.49 2a.33.33 0 00-.31.35l.11 1.86a.33.33 0 00.34.31l34.5-2a.33.33 0 00.31-.35z"/><path class="cls-9" d="M740.5 369.21a10 10 0 0019.83-.81c-6.25-2.81-13.65-2.14-19.83.81z"/><path class="cls-4" d="M456.67 306.21c.05 15.36 1.72 30.58 3.65 45.8a97.27 97.27 0 0045.58 0c-.27-15.58-.53-31.17-1.74-46.7-.64-8.19-1.57-16.46-4.51-24.08-2.63-6.83-7.08-13.15-13.18-16.84a23.25 23.25 0 00-2.2-1.18c-3.19 3.11-10.34 4.74-14.45 3.17a26.91 26.91 0 00-5.26 5.5 38 38 0 00-5.82 12.67c-1.85 7.03-2.09 14.38-2.07 21.66z"/><path class="cls-14" d="M482.21 223.41a9.1 9.1 0 004.67-9.27c-.56-3.39-3-6-5.89-7.89a15.23 15.23 0 00-11.15-2.46c-5.66 1.13-10.52 6.66-10.54 12 8.33.54 16.58 3.11 22.91 7.62z"/><path class="cls-4" d="M491 225.14c1.45.8 3 1.7 3.66 3.22.91 2.13-.41 4.73-2.43 5.84a9.58 9.58 0 01-6.76.49 18.87 18.87 0 01-14.24-15.15c-.16-.93-.75-3.29-.25-4.12.82-1.38 1.86-.24 3.1.44q8.42 4.65 16.92 9.28z"/><path class="cls-9" d="M464.56 271.88a24.16 24.16 0 0011.75-.87 24.13 24.13 0 009.59-6v-1.29l-.33-1.27a503.23 503.23 0 01-3.06-12.89c-.9-4-1.76-8-2.63-11.93a79.84 79.84 0 00-12.29 9c.16 2.73.24 5.47.21 8.19q0 3.45-.24 6.89c-.08 1.28-.18 2.55-.3 3.83s-.25 2.38-.4 3.56a30.19 30.19 0 00-2.3 2.78z"/><path class="cls-13" d="M467.59 261.65c5.72.21 11.23-5.3 15-12.12-.9-4-1.76-7.95-2.63-11.92a79.25 79.25 0 00-12.29 9c.16 2.72.23 5.46.21 8.18-.06 2.28-.14 4.58-.29 6.86z"/><path class="cls-10" d="M459.85 225.3a10.75 10.75 0 002.49 10.3 20.21 20.21 0 002.56-8.6 2.76 2.76 0 00-.57-2.24 2.51 2.51 0 00-2.21-.34c-.75.15-1.5 1-2.27.88z"/><path class="cls-9" d="M462.18 225.32c1.07 3.9-.4 8-1.67 11.84s-2.33 8.18-.54 11.81 6.61 5.63 10.72 4.72a13.55 13.55 0 009.11-8.05 22.18 22.18 0 001.09-12.4 65.7 65.7 0 00-3.62-12.07c-5.27-2.17-11.06.1-15.09 4.15z"/><path class="cls-10" d="M573.45 489.41s-.47 10.82-10.18 10.13L560 538.17l28.56-45z"/><g clip-path="url(#clip-path-12)"><path class="cls-4" d="M554.22 527.18s8.78-10 22-.3l-17.57 15.78z"/></g><path class="cls-4" d="M564.72 539.48l27.07-42.67a1.4 1.4 0 00-.43-1.93l-2.76-1.75-28.56 45 2.76 1.74a1.38 1.38 0 001.92-.39zm3.83-31.72a.87.87 0 01-.44.16 18.45 18.45 0 00-5.68 1.31.82.82 0 01-1.12-.43.93.93 0 01.47-1.17 19.66 19.66 0 016.28-1.47.82.82 0 01.89.81.93.93 0 01-.4.79zm-.55 4.84a.87.87 0 01-.44.16 18.7 18.7 0 00-5.68 1.31.83.83 0 01-1.13-.43.93.93 0 01.47-1.17 20.19 20.19 0 016.28-1.47.84.84 0 01.9.81.93.93 0 01-.4.79zm-.5 4.85a.9.9 0 01-.43.16 18.25 18.25 0 00-5.68 1.31.83.83 0 01-1.13-.43.93.93 0 01.47-1.17 19.66 19.66 0 016.28-1.47.81.81 0 01.89.81.94.94 0 01-.4.79z"/><path class="cls-9" d="M479.92 234.56a7 7 0 011.61-1.55 2.93 2.93 0 012.13-.45 3.05 3.05 0 012 1.93 4.68 4.68 0 01-6.24 6 26.32 26.32 0 00.5-5.93z"/><path class="cls-16" d="M507.88 363.31s-6.33 79.53 70.48 124.69l-17.84 22.88s-85.86-56.09-83.37-128.6z"/><path class="cls-20" d="M514.29 408.63c-1.28 3.52-2.95 6.88-4.52 10.3a113 113 0 00-5.13 13.79c-1.88 6.06-3.45 12.2-4.8 18.39-13.46-19.75-23.57-43.28-22.69-68.85l30.73-18.95s-1.58 19.84 6.41 45.32z"/><path class="cls-10" d="M468.44 525s-9.8 4.61-13.7-4.31L419 535.73l53.15 4.36z"/><g clip-path="url(#clip-path-13)"><path class="cls-4" d="M426.07 525.48s12.94 3.12 10.49 19.33l-22.15-8.21z"/></g><path class="cls-4" d="M420.41 540.53l49.65 4.06A1.75 1.75 0 00472 543l.24-2.89-53.24-4.38-.23 2.9a1.76 1.76 0 001.64 1.9zm29.51-11.39a.89.89 0 01-.35-.32 18.61 18.61 0 00-3.8-4.42.82.82 0 01-.14-1.19.93.93 0 011.26-.13 20.1 20.1 0 014.22 4.87.83.83 0 01-.31 1.17 1 1 0 01-.88.02zm-4.53 1.79a1 1 0 01-.35-.32 18.61 18.61 0 00-3.8-4.42.82.82 0 01-.14-1.19.92.92 0 011.25-.13 19.86 19.86 0 014.22 4.87.83.83 0 01-.3 1.17 1 1 0 01-.88.02zm-4.53 1.78a.87.87 0 01-.35-.31 18.61 18.61 0 00-3.8-4.42.81.81 0 01-.14-1.19.92.92 0 011.25-.13 19.62 19.62 0 014.22 4.87.83.83 0 01-.3 1.17.92.92 0 01-.88.01z"/><path class="cls-14" d="M455.35 293.33c-1.19 22.23.83 54.57 5.09 76.43 0 0-34.55 75.89-19.44 153.8l31.06 5.14s-.53-98.18 36.62-153.83L506.31 323l-33.26-2.73-5.1-27.5z"/><path class="cls-16" d="M504.7 328.86c.24 0 .52-.34.81-1.07a13.85 13.85 0 00.46-1.35c.16-.54.29-1.17.44-1.88.07-.35.14-.73.21-1.12s.12-.82.19-1.25.11-.89.18-1.36.09-1 .14-1.48.09-1 .12-1.59.05-1.11.08-1.7c.06-1.16 0-2.39 0-3.69-.06-2.59-.22-5.42-.59-8.46a89.35 89.35 0 00-1.74-9.59 90.48 90.48 0 00-3.1-10.32 40.21 40.21 0 00-5.61-10.67 22.84 22.84 0 00-4.64-4.52 18.16 18.16 0 00-5.83-2.84 14 14 0 00-3.21-.5H481c-.27 0-.53 0-.79.06l-.78.12a16.31 16.31 0 00-5.61 2.07 20.29 20.29 0 00-4.3 3.4c-.29.32-.6.63-.88 1l-.81 1-.73 1c-.24.34-.44.7-.66 1a23.37 23.37 0 00-2 4.24 32.46 32.46 0 00-1.1 4.06 38.25 38.25 0 00-.68 7 48.56 48.56 0 00.23 5.24c.28 2.85.65 4.39.93 4.39s.51-1.59.78-4.39c.14-1.4.3-3.1.58-5.05a44.27 44.27 0 011.39-6.42 24 24 0 013.27-6.87c.21-.27.39-.55.61-.81l.66-.79.72-.76c.24-.25.5-.47.76-.72a16.37 16.37 0 013.5-2.41 11.83 11.83 0 014-1.23l.52-.06h1.58a9.14 9.14 0 012.09.43 15.45 15.45 0 017.39 5.7 37.46 37.46 0 014.65 9.27c1.21 3.3 2.22 6.55 3.05 9.68s1.48 6.15 2 9 .88 5.52 1.19 8c.12 1.22.28 2.39.37 3.5.05.56.1 1.1.16 1.62s.08 1 .12 1.52.08 1 .12 1.43.06.9.09 1.32.08.83.11 1.22.06.76.08 1.11c.06.7.14 1.32.2 1.87a11.81 11.81 0 00.22 1.38c.22.83.42 1.24.67 1.27z"/><path class="cls-9" d="M477.76 303.5c0 .89 0 1.81.07 2.74s.12 1.88.2 2.83c0 .48.07 1 .13 1.45s.12 1 .17 1.46c.13 1 .26 2 .41 3s.36 2 .56 3 .43 2.06.67 3.1.48 2.1.8 3.15.6 2.11.91 3.18.71 2.13 1.06 3.2a108.88 108.88 0 005.5 12.89 114.32 114.32 0 007.14 12l1.91 2.73c.66.88 1.33 1.74 2 2.6s1.34 1.68 2 2.49 1.31 1.62 2 2.37 1.36 1.52 2 2.26 1.36 1.44 2 2.13c.33.35.66.7 1 1s.69.67 1 1l2 1.91c.66.62 1.33 1.2 2 1.78s1.27 1.16 1.93 1.68c1.23 1 2.38 2 3.56 2.87a1.09 1.09 0 00.17.13l1.14.87a47.85 47.85 0 009 5 23 23 0 006.1 1.52c-.17-.22-.36-.47-.57-.72l-.65-.79-.74-.9c-.52-.63-1.1-1.33-1.74-2.07l-2-2.47c-.69-.81-1.37-1.72-2.11-2.65l-.16-.21c-.8-1-1.6-2.11-2.44-3.25s-1.67-2.38-2.55-3.64c-.45-.62-.86-1.3-1.3-2s-.88-1.35-1.32-2l-1.3-2.15c-.22-.37-.45-.73-.66-1.1l-.64-1.13c-.43-.77-.88-1.53-1.3-2.32l-1.27-2.4c-.44-.8-.83-1.65-1.25-2.49s-.84-1.67-1.23-2.54l-1.2-2.62c-.38-.9-.77-1.79-1.15-2.7-1.51-3.64-2.93-7.44-4.23-11.36s-2.38-7.82-3.38-11.55c-.24-.93-.47-1.86-.7-2.78s-.42-1.83-.62-2.73-.39-1.79-.58-2.67-.4-1.75-.55-2.62-.34-1.72-.51-2.56-.31-1.68-.46-2.5l-.24-1.21c-.07-.41-.14-.81-.2-1.21-.14-.8-.29-1.59-.43-2.36s-.26-1.54-.39-2.28-.22-1.21-.32-1.8a27.21 27.21 0 01-19.24.83c-.02.86 0 1.72 0 2.61z"/><path class="cls-9" d="M518.67 380.36l1.41 1a47.85 47.85 0 009 5 23 23 0 006.1 1.52 16.56 16.56 0 005.66-.33 13 13 0 007.29-4.71 2.32 2.32 0 00-1.23-3.62 46.21 46.21 0 00-19.56-.94 50.53 50.53 0 00-8.66 2.15z"/><path class="cls-10" d="M455.32 224.88a31.32 31.32 0 0021.86-3 10.43 10.43 0 00-.13 5.35 11.8 11.8 0 004.11 6.5c2.38-3.28 3.86-7.76 3.33-11.65a5.29 5.29 0 00-1.05-2.5 19.83 19.83 0 00-1.87-2.12 17.91 17.91 0 00-5.38-3.65 18.88 18.88 0 00-16.53.92 15.71 15.71 0 00-1.23 1.07 10.34 10.34 0 00-3.11 9.08z"/><path class="cls-15" d="M175.13 325.75l-3.36 1.36-1.35 3.81-.02 1.37 4.73-2.03v-4.51z"/></svg>