<svg id="Layer_1" data-name="Layer 1" xmlns="http://www.w3.org/2000/svg" viewBox="0 0 910 567"><defs><clipPath id="clip-path"><path class="cls-1" d="M-52.67 31.48h496.36v536.53H-52.67z"/></clipPath><clipPath id="clip-path-4"><path class="cls-1" d="M42.46 323.93h229.19v176.95H42.46z"/></clipPath><clipPath id="clip-path-5"><path class="cls-1" d="M152.51 291.31h33.03v209.57h-33.03z"/></clipPath><style>.cls-1{fill:none}.cls-2{fill:#eaf1fc}.cls-4{fill:#fff}.cls-5{fill:#d6e0f0}.cls-7{fill:#cde4f7}.cls-8{fill:#e8815f}.cls-9{fill:#f09976}.cls-10{fill:#0b2b46}.cls-11{fill:#ffda35}.cls-12{fill:#ef265b}.cls-13{fill:#590600}.cls-17{fill:#ce8d4d}.cls-19{fill:#ac5c15}.cls-20{fill:#c8731c}.cls-21{fill:#02819f}.cls-22{fill:#bd6618}.cls-25{clip-path:url(#clip-path)}.cls-26{fill:#f9d8b7}.cls-28{fill:#ebbc8f}.cls-30{fill:#febf00}.cls-32{fill:#666}.cls-34{fill:#e0a207}</style></defs><g id="Layer_15" data-name="Layer 15"><ellipse class="cls-2" cx="454.02" cy="502.09" rx="454.82" ry="65.16"/><path d="M830.24 468.72c51.88-107.81 80.43-314.16-32-382.64-73.56-44.83-150.18 12.84-228.85 15.48-61.72 2.07-121.25-46.68-177-60.6C246.54 4.48 17 99.32 117.9 468.72c252.42-.72 459.92.71 712.34 0z" fill="#f8f8ff"/><path class="cls-4" d="M403.75 316.76H255.82a3.65 3.65 0 01-3.65-3.65V98.45c-5.62-80.29 26.54-77.57 77.57-77.57h.05c81.09-5.25 77.62 34.75 77.62 77.62v214.6a3.66 3.66 0 01-3.66 3.66z"/><path class="cls-5" d="M404.48 319.94h-151a4.51 4.51 0 01-4.51-4.51V66.34a47.09 47.09 0 0147-47h65.9A47.13 47.13 0 01409 66.37v249.06a4.52 4.52 0 01-4.52 4.51zm-150.73-4.77h150.48V66.37a42.36 42.36 0 00-42.31-42.31H296a42.33 42.33 0 00-42.28 42.28v248.83z"/><path class="cls-5" d="M329 318a2.38 2.38 0 01-2.38-2.38v-294a2.38 2.38 0 014.76 0v294A2.39 2.39 0 01329 318z"/><path class="cls-5" d="M406.61 250.08H251.36a2.38 2.38 0 010-4.76H406.6a2.38 2.38 0 010 4.76zm0-147.57H251.36a2.38 2.38 0 010-4.76H406.6a2.38 2.38 0 010 4.76zm0 73.78H251.36a2.38 2.38 0 010-4.76H406.6a2.38 2.38 0 010 4.76z"/><path class="cls-4" d="M681.32 316.76H533.18a3.55 3.55 0 01-3.55-3.55v-217A75.36 75.36 0 01605 20.88h4.46a75.42 75.42 0 0175.42 75.42v216.9a3.57 3.57 0 01-3.56 3.56z"/><path class="cls-5" d="M682 319.94H531a4.51 4.51 0 01-4.51-4.51V66.34a47.09 47.09 0 0147-47h65.9a47.13 47.13 0 0147.07 47.07v249.02a4.51 4.51 0 01-4.46 4.51zm-150.74-4.77h150.43V66.37a42.36 42.36 0 00-42.31-42.31h-65.9a42.33 42.33 0 00-42.28 42.28v248.83z"/><path class="cls-5" d="M606.45 318a2.38 2.38 0 01-2.38-2.38v-294a2.38 2.38 0 014.76 0v294a2.38 2.38 0 01-2.38 2.38z"/><path class="cls-5" d="M684.07 250.08H528.83a2.38 2.38 0 110-4.76h155.24a2.38 2.38 0 010 4.76zm0-147.57H528.83a2.38 2.38 0 110-4.76h155.24a2.38 2.38 0 010 4.76zm0 73.78H528.83a2.38 2.38 0 010-4.76h155.24a2.38 2.38 0 010 4.76z"/><path d="M775.76 214.34H784v-47.06a9.36 9.36 0 00-8.26 0v47.06z" fill="#e9edf4"/><path class="cls-7" d="M750.61 214.2h7.16v-47.06a7.16 7.16 0 00-7.16 0v47.06z"/><path class="cls-4" d="M803.82 214.31l6.55-3-19.73-42.72a7.65 7.65 0 00-3.68.64 7.73 7.73 0 00-2.87 2.39zm-46.05-.14H766v-47.06a9.36 9.36 0 00-8.26 0v47.06z"/><path class="cls-7" d="M766 214.34h9.75v-47.06a12.88 12.88 0 00-9.76 0v47.06z"/><path class="cls-5" d="M738.67 214.55a.83.83 0 00-.83.83v2.19a.83.83 0 00.83.83h82.24a.83.83 0 00.83-.83v-2.19a.83.83 0 00-.83-.83z"/><path class="cls-2" d="M478.33-.61h3.09v30.95h-3.09z"/><path class="cls-5" d="M503.83 62.13a23.82 23.82 0 00-47.64 0z"/><path class="cls-5" d="M488.49 38.48c0 7-3.95 12.66-8.83 12.66s-8.83-5.67-8.83-12.66 3.95-12.66 8.83-12.66 8.83 5.66 8.83 12.66z"/><path class="cls-2" d="M439.2-.86h3.09v90.55h-3.09z"/><path class="cls-5" d="M463.94 118.93a23.82 23.82 0 00-47.64 0z"/><path class="cls-5" d="M448.6 95.27c0 7-4 12.66-8.83 12.66s-8.83-5.67-8.83-12.66 3.95-12.66 8.83-12.66 8.83 5.67 8.83 12.66zm-78.83 425.27l-52.95-169.1 10.57-2.81 47.06 171.91h-4.68z"/><path class="cls-5" d="M275.91 520.54l39.88-172.29 10.64 2.54-45.85 169.75h-4.67z"/><path class="cls-5" d="M354.37 466.35l-63.9.02v-5.84l62.24-.02 1.66 5.84zM87.48 520.54l52.96-169.1-10.58-2.81L82.8 520.54h4.68z"/><path class="cls-5" d="M181.35 520.54l-39.88-172.29-10.65 2.54 45.85 169.75h4.68z"/><path class="cls-5" d="M102.88 466.35l63.91.02v-5.84l-62.25-.02-1.66 5.84zM82.06 353h292.37v-16.91H82.06V353z"/><path class="cls-8" d="M574.26 224.9c-11.68 9.42-28.53 17.14-44.14 18.28-17-7.26-56-26-52.7-29 16 .45 35.59 8.45 54.47 14.38 7.36-3.23 64.67-29.23 42.37-3.66zm236.95 40.68c-1.94-.76-4.1-7.33-7.65-6.69-2.39 2.74-1.13 8.63-6.34 7-7.72-5.24-19-5.12-10 5 8.78 6.71 24.01 8.85 23.99-5.31z"/><path class="cls-9" d="M494.36 217.72c-2.7-1.41-4.21-9.33-6.5-9.54-1 1.85 2.68 6.32-2 5.64-10-6.36-14.33.63-6.39 8.25 4.75 3.1 15.98 3.1 14.89-4.35z"/><path class="cls-10" d="M805.24 223.67c10.88 6.09-.13 15.15 7.35 21.63 19 18.5 25.08 53-3 61.82C779 313 746.25 281 772.62 261.77c2.58-2.2 3.52-2.81 4.3-6.3-6.27-26.21 6.85-33.47 28.32-31.8z"/><path class="cls-9" d="M797.69 406.56c-.13 28.71-1.41 59.55-2.68 86-1.51 7.32 2.72 18.7-6.33 22.7-4.17-30.77-22.73-135.19-14.59-130.66 33.23-8.54 21.45-1.44 23.6 21.96z"/><path class="cls-9" d="M821.91 411.26c-.24 27.55-1.44 56.13-2.65 81.26-1.41 7.55 2.45 19.68-6.3 22.86C806.1 473 799 426 795.34 381.27c36.54.02 24.72 3.65 26.57 29.99zM805.62 281.5c-3.33 3.41-18.1 4.64-17.53-.49 2.09-3-.41-8 2.85-9.66a39.91 39.91 0 0014.31-5.45 58.59 58.59 0 00.37 15.6z"/><path class="cls-8" d="M804.89 272.41c3.17 7.75-22.66 5.79-13.95-1.05a39.91 39.91 0 0014.31-5.45 56 56 0 00-.36 6.5z"/><path class="cls-9" d="M808.82 255.91c1.37 12.4-13.35 26.94-23.61 15-4.19-7.05-1-13.6.38-21.62a13.8 13.8 0 005.84-6.62 37.43 37.43 0 0017.39 13.24z"/><path class="cls-9" d="M807 260.47c1.09-3.52 6.28-.22 2.68 3.93-4.68 4.18-6.12.4-2.68-3.93z"/><path class="cls-11" d="M830.14 420.34c-16.76 3.4-43 7.25-67.84-1.65 1.07-20.56 7.4-69.28 12.82-97.67-2.86-1.95-10.55-.79-8-5.72 7.6-27.55 17.75-31.11 18.23-31.57-.22-.15 1.54-.65 1.71-1 26.39-3.8 40.22 7 42.43 36.33 1.11.78-7.73 2.62-6.87 5.69 1.38 27.33 3.81 69.98 7.52 95.59z"/><path class="cls-9" d="M824.8 350.72c-6.47 18.14-21 33.55-32.82 49-15.63 8.89-8.13-5-5.58-11.53-3.29.71-8.24-1-.32-2.68 10.32.51 10.22-10 14.64-17.94 10.29-20.69 8.36-44.87 19.71-66.32 14.8-6.01 10.39 38.99 4.37 49.47z"/><path class="cls-11" d="M800 285.41s23.54-2.74 32.79 30.44c0 0-4.41 8.35-20.47 8.6z"/><path class="cls-9" d="M807.26 282.74c-2.58 10.55-23.68 9.69-19.63-.46 2.12.34 18.62-2 19.63.46z"/><path class="cls-10" d="M762.44 521.36c4.66 3.48 32.75-.89 35.53-.51 4-5.71-9.69-1.72-20-1.66-6.87 1.81-16.51-2.54-15.53 2.17z"/><path class="cls-4" d="M797.78 517.72c1.11-1.86-1.61-8.63-2.19-12.05-.26-5 1.17-8.65 0-11.24-1.21-2.09-13.74-6.38-12.44-1.24 1 5.18.32 22.85-17.46 23.43-13.2 6.1 34.83.55 32.09 1.1z"/><path class="cls-12" d="M783.18 493.18c-1.43-5.25 12.94-.72 12.81 2.36.38 1.71-.82 8-.22 11.87 1.29 2.31 2.81 9.65 2 10.31-.19-.25-20.67 2-30 1.89a4.58 4.58 0 012.77-3.52c14.06-3.84 13.24-19.55 12.64-22.91z"/><path class="cls-4" d="M773.45 517c-.48-1.32 2.58-1.15 1 .47-.28.09-.51.13-1-.47z"/><path class="cls-13" d="M773.76 516.93c.32.34.54.27 0 0-.37-.31 1.3-1.06 0 0z"/><path class="cls-4" d="M773 514.74c-.08-.22 0 0 .26-.54.38-.05 1.63 1.8.88 2.6-.52.2-.83-1.23-1.14-2.06zm3.6.79c-.82-1.15 2.18-1.81 1.06.2-.22.11-.43.21-1.06-.2z"/><path class="cls-13" d="M776.88 515.34c.4.24.59.11 0 0-.44-.2.96-1.34 0 0z"/><path class="cls-4" d="M775.57 513.43c-.13-.19 0 0 .11-.59.35-.15 2.06 1.29 1.55 2.26-.48.3-1.15-.95-1.66-1.67zm4.02-.07c-1.1-.87 1.59-2.34 1.07-.11-.18.17-.35.33-1.07.11z"/><path class="cls-13" d="M779.81 513.1c.44.12.59-.06 0 0s.53-1.58 0 0z"/><path class="cls-4" d="M778 511.63c-.18-.15 0 0-.06-.6.3-.25 2.33.67 2.12 1.74-.36.43-1.36-.58-2.06-1.14zm3.93-1.3c-1.27-.61 1-2.63 1-.33-.12.19-.25.38-1 .33z"/><path class="cls-13" d="M782.09 510c.46 0 .56-.19 0 0s.18-1.64 0 0z"/><path class="cls-4" d="M780 509c-.21-.1 0 0-.19-.57.24-.3 2.42.14 2.45 1.24-.26.47-1.45-.3-2.26-.67zm3.63-2.38c-1.34-.43.66-2.75 1-.48-.15.22-.26.42-1 .48z"/><path class="cls-13" d="M783.73 506.3c.47-.05.54-.27 0 0-.47.11-.05-1.68 0 0z"/><path class="cls-4" d="M781.54 505.55c-.22-.07 0 0-.26-.53.19-.34 2.42-.2 2.6.88-.21.53-1.5-.07-2.34-.35zm3.28-2.55c-1.39-.21.22-2.82.88-.62-.08.23-.15.45-.88.62z"/><path class="cls-13" d="M784.88 502.66c.44-.11.48-.34 0 0-.46.19-.32-1.66 0 0z"/><path class="cls-4" d="M782.59 502.27c-.23 0 0 0-.34-.49.14-.36 2.36-.58 2.7.46-.12.56-1.49.18-2.36.03zm2.75-3.27c-1.41 0-.13-2.83.8-.72-.05.28-.14.5-.8.72z"/><path class="cls-13" d="M785.35 498.71c.43-.17.45-.41 0 0-.42.23-.51-1.6 0 0z"/><path class="cls-4" d="M783 498.6c-.23 0 0 0-.4-.44.09-.38 2.27-.86 2.74.13-.01.56-1.42.34-2.34.31zm26.75-.28c-1.41-.07-.07-2.83.81-.71-.06.24-.11.47-.81.71z"/><path class="cls-13" d="M809.77 498c.43-.16.45-.39 0 0-.43.21-.49-1.62 0 0z"/><path class="cls-8" d="M588 473.28c2.15-53 5.23-113.43-2.28-167.35-2.34-9.93.52-37.45-11.2-28.9-29.72 22.11-.07 161.08 1.07 180.37 3 14.6 4.82 40.31 9.59 50.16 2.48-9.56 1.75-20.63 2.82-34.28z"/><path d="M585.36 511.44c-2 8.78-26 10.12-23.79 2.39 3.66-3.37 9.62-3.41 14.17-6.3 7.97-5.14 11.78-6.65 9.62 3.91z" fill="#0a273a"/><path class="cls-9" d="M603.47 473.28c2.15-53 5.23-113.43-2.28-167.35-2.34-9.93.52-37.45-11.2-28.9-29.72 22.11-.07 161.08 1.07 180.37 3 14.6 4.82 40.31 9.59 50.16 2.51-9.56 1.77-20.63 2.82-34.28z"/><path class="cls-10" d="M601.63 511.44c-2 8.78-26 10.12-23.79 2.39 3.66-3.37 9.62-3.41 14.17-6.3 7.99-5.14 11.78-6.65 9.62 3.91zm-33.2-246.27c-12.51 37.61-11.06 117.08-10.92 122.83 12.94 6.66 61 9.07 57.63-4.15 2.14-66.17-15.85-113-17.94-118.7 1.74-.92-15.55-2.64-28.77.02zm35.7-112.57c1.16 5.09 0 11.76 4.78 15.65 33.49 24.45-10.19 49.47-33.87 32.42-10.65-8.08.31-16.68-2.86-25.47-25.3-33.61 24.59-44.76 31.95-22.6z"/><path class="cls-9" d="M577.39 203.91c5 3.08 18.57 1.61 18.35-5.48a73.56 73.56 0 01-2.33-30.21c-3.76 2.72-11.21 5.26-12.15 10.5a69.85 69.85 0 01-3.87 25.19z"/><path d="M609 218.69c-1.36 2.27-2.77 10.59-6.54 11.74-7.84 16.17-2.34 34.49-7.64 35.06-7.19 2.12-15.77 1.89-23.69.18-5-.25-3.89-6-6.06-10.26-2.25-7.42-4.62-17.74-4.55-28.35a25.92 25.92 0 01-7-5.68c-1.65-1.56-.62-1.07 1-4.56 17.37-31.17 64.59-35.52 54.48 1.87z" fill="#4fa52b"/><path class="cls-9" d="M596.13 192.29c-5.28 18-37.83 11.84-19.81 3.87 6.26-2.77 7.88-5.49 19.81-3.87z"/><path class="cls-8" d="M580.68 190.11c12.43-4.09 12.21-11.49 12.73-21.9-14.69 9.06-11.23 5.92-12.73 21.9z"/><path class="cls-9" d="M593.36 172.26c.9 10.63-16.59 20.24-20.3 7-1.83-8.76 6.74-15.07 2.64-24 6.5 4.66 20.73 5.09 17.66 17z"/><path class="cls-9" d="M593.14 170.49c1.15-4.61 6.1 1.85 2.58 4.94-5.8 3.96-3.27-1.23-2.58-4.94z"/><path class="cls-4" d="M592.59 176.41c1.06 3.5 5.83-1 1.36-1.89a1.86 1.86 0 00-1.36 1.89z"/><path class="cls-10" d="M825.45 525.09l-.17-4.55c-4.62 3.48-11.33.86-16-1-3.87 4.74 3.66 11.87 16.17 5.55z"/><path class="cls-12" d="M806.36 493.21c.17-3.8 16.63-4.51 16.42-2.68-4 16.23-4.41 21.6 2.48 30-.15 2.44-16.08 5.51-16.48-.94 4.35-6.71-.98-20.69-2.42-26.38z"/><path class="cls-4" d="M812 497.8c-1.33-.45.71-2.74 1-.46-.1.22-.21.42-1 .46z"/><path class="cls-13" d="M812.15 497.48c.46 0 .54-.25 0 0-.47.1-.02-1.67 0 0z"/><path class="cls-4" d="M817 497.54c-1.33-.45.71-2.74 1-.46-.18.22-.29.42-1 .46z"/><path class="cls-13" d="M817.07 497.22c.46 0 .54-.25 0 0-.47.1-.02-1.67 0 0z"/><path class="cls-4" d="M812.73 497.48a.43.43 0 01-.45-.4c0-.47 4.57-1.17 5-.24.31.69-3.99.54-4.55.64zm-.45 3.52c-1.33-.45.71-2.74 1-.46-.14.21-.28.46-1 .46z"/><path class="cls-13" d="M812.4 500.68c.46 0 .54-.26 0 0-.48.1-.03-1.68 0 0z"/><path class="cls-4" d="M817.2 500.73c-1.33-.45.71-2.74 1-.46-.14.22-.2.42-1 .46z"/><path class="cls-13" d="M817.32 500.42c.46 0 .54-.26 0 0-.48.09-.03-1.68 0 0z"/><path class="cls-4" d="M813 500.67a.43.43 0 01-.45-.4c0-.47 4.57-1.17 5-.24.29.69-4.02.55-4.55.64zm-.45 3.64c-1.33-.45.71-2.74 1-.46-.14.22-.25.42-1 .46z"/><path class="cls-13" d="M812.67 504c.46 0 .54-.25 0 0-.48.09-.03-1.68 0 0z"/><path class="cls-4" d="M817.47 504c-1.33-.45.71-2.74 1-.46-.14.26-.25.46-1 .46z"/><path class="cls-13" d="M817.59 503.73c.46 0 .54-.26 0 0-.48.1-.03-1.68 0 0z"/><path class="cls-4" d="M813.25 504a.43.43 0 01-.45-.4c0-.47 4.57-1.17 5-.24.31.64-4 .53-4.55.64zm-.63 3.85c-1.33-.45.71-2.74 1-.46-.14.22-.25.42-1 .46z"/><path class="cls-13" d="M812.73 507.53c.46 0 .54-.25 0 0s-.02-1.67 0 0z"/><path class="cls-4" d="M817.54 507.59c-1.33-.45.71-2.74 1-.46-.14.22-.25.42-1 .46z"/><path class="cls-13" d="M817.65 507.27c.46 0 .54-.25 0 0s-.02-1.67 0 0z"/><path class="cls-4" d="M813.31 507.53a.43.43 0 01-.45-.4c0-.47 4.57-1.17 5-.24.31.69-3.99.54-4.55.64zm-.37 3.86c-1.33-.45.71-2.74 1-.46-.15.22-.25.42-1 .46z"/><path class="cls-13" d="M813.05 511.08c.46 0 .54-.26 0 0-.47.09-.05-1.68 0 0z"/><path class="cls-4" d="M817.86 511.13c-1.33-.45.71-2.74 1-.46-.15.22-.25.42-1 .46z"/><path class="cls-13" d="M818 510.81c.46 0 .54-.25 0 0s0-1.67 0 0z"/><path class="cls-4" d="M813.63 511.07a.43.43 0 01-.45-.4c0-.47 4.57-1.17 5-.24.31.69-4 .57-4.55.64zm-.44 3.93c-1.33-.45.71-2.74 1-.46-.14.25-.25.46-1 .46z"/><path class="cls-13" d="M813.31 514.71c.46 0 .54-.25 0 0-.48.1-.03-1.71 0 0z"/><path class="cls-4" d="M818.11 514.77c-1.33-.45.71-2.74 1-.46-.11.22-.25.42-1 .46z"/><path class="cls-13" d="M818.23 514.45c.46 0 .54-.25 0 0-.48.1-.03-1.67 0 0z"/><path class="cls-4" d="M813.89 514.71a.43.43 0 01-.45-.4c0-.47 4.57-1.17 5-.24.3.69-4 .54-4.55.64zm-.31 2.68c.83 0 1-.3 0 0-.83.09-.17-2.02 0 0z"/><path class="cls-13" d="M813.69 517.18c.46 0 .54-.17 0 0s-.05-1.12 0 0z"/><path class="cls-4" d="M818.5 517.22c.83 0 1-.31 0 0-.83.09-.17-2.03 0 0z"/><path class="cls-13" d="M818.61 517c.46 0 .54-.17 0 0s-.05-1.11 0 0z"/><path class="cls-4" d="M814.27 517.18c-.23 0-.43-.11-.45-.27s4.53-.81 5-.16c.23.46-4.08.37-4.55.43z"/><path fill="#e5b571" d="M719.25 320.87h52.52v40.52h-52.52z"/><path class="cls-17" d="M798.04 312.12l-26.27 7.04v42.23l26.27-7.04v-42.23z"/><path d="M719.25 320.87l26.26-8.75h52.53l-26.27 8.75h-52.52zm60.53 26.55v11.77l7.86-2.05v-11.83l-7.86 2.11z" fill="#c07632"/><path class="cls-8" d="M744.6 361.81c.38 1.81 2.3 2.89 4.68 3.11 23.2 3.68-6.09-30.77-4.68-3.11z"/><path class="cls-19" d="M754.82 281.35c.54 11.75-15.71 12.43-17.08 1.72-.54-11.75 15.71-12.43 17.08-1.72zm36.67 4.28c-1.64-10.34-15.86-8-15.17 1.53 1.68 10.34 15.85 8.01 15.17-1.53zm-7.02 31.15c-10.35-15.39-8.14-14.74-21.84-16.28-24.74-4.59-27 13.33-30.93 20.37h40.06z"/><path class="cls-20" d="M745.74 280.19c9.31-9.16 42.53-2.39 39.11 10.23s-8.75 19.18-27.35 16.88c-19-2.36-16.32-22.63-11.76-27.11zm31.18 25.29c46 2.25 16.13 40.93-.44 0M742 303.55s-28 9.8-19.53 18.6C734 333 741.86 304.13 742 303.55z"/><path class="cls-19" d="M755.41 290.76c10.47 0 21 1.54 5.48 9.51-2.6.6-8.54-8.4-5.48-9.51z"/><path class="cls-17" d="M719.25 320.87l-9.71 15.37 9.96-.12-.25-15.25z"/><path class="cls-21" d="M469 271c-8-25.65 7.82-49.71 2-83.34a36.63 36.63 0 00-9-18.27 5.88 5.88 0 012.61-9.57l11.3-3.5a5.87 5.87 0 017.56 6.41 36.54 36.54 0 002.9 20.16c14.19 31 40.79 42 48.74 67.63a31.55 31.55 0 01-8.37 32.37l1.36 4.4a5.07 5.07 0 01-3.35 6.35l-22.81 7.07a5.07 5.07 0 01-6.35-3.35l-1.36-4.4A31.54 31.54 0 01469 271z"/><path class="cls-9" d="M471.64 215.17s-13.06 1.82-8.3 11.44 12.56 4.33 12.13-.35-3.03-11.26-3.83-11.09zm131.21 15.16c-4 8-9.84 18.65-16.18 25.27-19.29 6.61-62.75 19.54-62.33 15.15 6.65-6.71 25-14 34.61-18.87 5.91-2.69 12.11-5.4 18.59-8.06 3.13-7.22 6.15-14.61 9.65-22.28a25.25 25.25 0 0015.66 8.79z"/><path class="cls-9" d="M535.68 264.14c-2 1.09-13.28-6.19-10.68-2.16.91 1.72 5.35 2.35 1.7 4.8-11.87 1.82-10.31 9.88.59 10.41 5.71-.79 14.09-8.19 8.39-13.05z"/><path class="cls-19" d="M395.06 513s-19.9 1.11-23.52-14.06C368.73 487.14 380 472 386 462.6c.94-1.47-1-3.18-2.45-2.26a48.6 48.6 0 00-10.55 8.74c-11.37 12.57-17.23 33.89-7.07 44.05s31.61 3.64 31.61 3.64z"/><path class="cls-22" d="M405.68 519.28c4.08 1 23.61.12 29.33-.07a2.46 2.46 0 002.21-1.54 2.1 2.1 0 00-.94-2.88c-2.64-1.52-8.29-2.73-8.29-2.73a12 12 0 007-7.68 14.57 14.57 0 00-1.12-10.79c-3-5.13-4.61-5.13-4.61-5.13l-22.07 15.64v7.63z"/><path class="cls-20" d="M455.77 408.55a9.46 9.46 0 01-6.23-1.79 18.9 18.9 0 00-12.09-3.4c-9.76.56-16.08 9.46-16.08 17.27 0 12.63 14.86 22.94 4.84 29.67-25.73 17.29-43.59 35.44-42.44 51.14s9.47 19.51 14.13 20.62c4.08 1 23.61.12 29.33-.07a2.46 2.46 0 002.21-1.54c.37-.93.07-2.23-1.91-3.37-2.64-1.52-7.32-2.25-7.32-2.25s6.6-3 7-7.68c.36-4 0-4.39 0-4.39l13.43-7.76s2.17 18.72 2.17 21.35.5 6.76 2.41 7.24 7.22 1.19 8.43-.9-2-3.91-3.16-4.59.75-10 .75-10l-1 10.54s-.8 4 2.45 4c3 0 5.75.2 6.74-1.51s-3.47-4-3.47-4 3.38-29 4-35.85c1.27-14.41 1.52-17.74-3.91-35.15-2.72-8.72 1.87-17.71 5.26-19.67s7.39-6.65 7.39-10.72-1.1-7.57-5-7.57c-2.18 0-5.42.2-7.93.38z"/><path class="cls-19" d="M435 419.36s6.9 26 3.27 32.31-8.84 6.74-14 3.78-4.36-14.3-3.26-23.09 2.89-14 4.19-15.3c3.8-3.73 8.8-3.23 9.8 2.3z"/><path d="M463 408.17s2.23 5 5.74 5.59c0 0 .77-3.1-.77-4.64s-4.97-.95-4.97-.95z" fill="#2d3a48"/><path class="cls-22" d="M427.77 503.63a.44.44 0 01-.44-.4c-.57-6.76-6.88-10.55-6.95-10.59a.44.44 0 01.44-.76c.28.16 6.77 4.07 7.38 11.27a.44.44 0 01-.4.47zm28.29-24.69l-4.82 29.18-1 9.29a1 1 0 00.54 1c1.23.62 3.79 2.21 2.9 4.28.71 0 1.34-.07 1.75-.07.31-3.36-3.73-5.17-3.73-5.17z"/><path d="M442.61 413.61a2.31 2.31 0 11-.48 2.71 2 2 0 01.48-2.71z" fill="#233c45"/><path class="cls-22" d="M466.91 420.46a6.42 6.42 0 01-1.43.17 9.62 9.62 0 01-4.3-1.16.58.58 0 11.57-1s3.42 1.9 5.92.46l.32-.14a8.66 8.66 0 01-1.08 1.67z"/><g class="cls-25"><path class="cls-21" d="M160 715.74h-45.64l-5.65-238.48h61.33L160 715.74z"/></g><g class="cls-25"><path class="cls-21" d="M229.34 715.74h-52L167.3 477.26h62.04v238.48z"/></g><g class="cls-25"><path class="cls-4" d="M242.36 254.36l-44.88-17.7h-46.81l-51.9 26.64c-4.4 2.64-3.57 8-2 12.84l12.69 150 140.78-1.94 9.17-152.43c1.25-5-12.41-15.16-17.05-17.41z"/><path class="cls-4" d="M236.1 252.23c35.11 10.65 59.4 39.34 59.4 39.34L269.09 344l-60.62-28.13zM98.78 263.3S63.39 275.12 56.1 338l70 20.85 19.49-60.76z"/><path class="cls-10" d="M146.93 151.23a107.52 107.52 0 015.29 41.9c-.29 4-.8 8 .18 11.88s3.85 7.56 7.79 8.12c1.63-10.82 3.15-21.64 4.79-32.47.61-4 1.21-8.22.11-12.15a19.44 19.44 0 00-7-9.68 73.42 73.42 0 00-11.16-7.6z"/><path class="cls-9" d="M164.05 252.11c6.83 3.41 14.95 3.7 22.32 1.73s14.2-7.19 19.88-13.72c-2.88-4.23-5.43-6.12-7.44-11-.36-.88-.72-1.77-1-2.66a61.62 61.62 0 01-3.12-11.77c-14.09-4.42-27.14-17.43-37.94-27.53 1.08 10.69.32 27.41-2.59 37.75a.53.53 0 01-.05.18 80.24 80.24 0 01-3.33 9.53c-2.98 7.07 6.45 14.08 13.27 17.49z"/><path class="cls-8" d="M153.91 225l.16.11a40.87 40.87 0 0012.78 6c.54.14 1.09.27 1.64.39a38.66 38.66 0 005.65.82 40.24 40.24 0 0021.05-4.36c.88-.44 1.73-.92 2.58-1.44a61.62 61.62 0 01-3.12-11.77c-14.09-4.42-27.14-17.43-37.94-27.53 1.08 10.69.32 27.41-2.59 37.75z"/><path class="cls-10" d="M201.18 146.51a39.86 39.86 0 01-3 27.61c-3.72-8.48-2.27-20.01 3-27.61z"/><path class="cls-9" d="M157.47 173.26a18.28 18.28 0 00-2.27-3.93 6.17 6.17 0 00-3.79-2.32c-2.74-.36-5.3 1.93-6.1 4.57s-.24 5.51.55 8.16a19.18 19.18 0 002.62 5.81 8.78 8.78 0 005.13 3.59 5.76 5.76 0 005.74-1.95c-1.27-4.7-2.35-9.07-1.88-13.93z"/><path class="cls-9" d="M157 185c.06.55.14 1.09.21 1.64 1.39 9.79 4.3 19.85 11.22 26.92 6.15 6.29 15.44 9.59 24.06 7.85s16.13-8.78 17.7-17.44c1.07-5.83-.46-11.84-2.65-17.35s-5.07-10.74-6.93-16.37-3.19-13.38-1.07-18.92l-.7-.42c-12.68-7.56-27.12-9.25-40.55-3A115.86 115.86 0 00157 185z"/><path class="cls-10" d="M209.22 139.86a22.13 22.13 0 01-9.49 11.37 28.66 28.66 0 01-11.27 4c-9 1.22-18.11-1.3-26.47-4.85-.31.46-7.65 11.38-2.12 28.12l-7.61-16.33a35.53 35.53 0 00-3-7c-1.41-2.48-3.19-4.8-4.12-7.5s-.79-6 1.27-8c2.53-2.45 6.65-1.85 10-3.06 5.55-2 7.79-8.44 11.12-13.32a25.78 25.78 0 014.37-4.9 25.12 25.12 0 0113.58-6.13 23 23 0 0119.6 7.3 21 21 0 014.14 20.3z"/><path class="cls-21" d="M237.87 425.75H124.15S117 294.09 112.36 277.4c-6.41-22.92 48.05 23.81 125.51 0 19.83-6.09 0 148.35 0 148.35z"/><path class="cls-21" d="M133.78 285.73h-11.74v-37.19l11.74-4.31v41.5zm88.27 1.82h11.24v-37.19l-11.24-4.31v41.5z"/><path class="cls-26" d="M30.33 292.08h252.49v32.07H30.33z"/><g clip-path="url(#clip-path-4)"><path class="cls-26" d="M42.46 323.93h229.19v176.95H42.46z"/></g><path class="cls-28" d="M42.46 324.15h228.38v10.05H42.46z"/><path class="cls-28" d="M270.84 323.93h45.34v176.95h-45.34z"/><path class="cls-28" d="M282.82 292.08h41.65v32.07h-41.65z"/><path id="SVGID" class="cls-11" d="M152.51 291.31h33.03v209.57h-33.03z"/><g clip-path="url(#clip-path-5)"><path class="cls-30" d="M152.51 291.31h33.03v209.57h-33.03z"/></g><path fill="#d1a586" d="M270.84 324.15h45.34v10.05h-45.34z"/><path class="cls-32" d="M120 453.7h.25l.07 1.53a8.26 8.26 0 011 .14 20.13 20.13 0 012.14.36 11.83 11.83 0 014.13 1.5 13.28 13.28 0 012.5 2.25 24.18 24.18 0 012.36 2.9 4.86 4.86 0 00-.82-.05h-.22a5.38 5.38 0 00-2 .49 6 6 0 00-.93.57h-.24a22.05 22.05 0 00-3.54-.25 16.47 16.47 0 00-2.15.17 20.08 20.08 0 00-2.13.42l.08 5.5h.21v2.45a.63.63 0 000 .14.69.69 0 00.13.35.59.59 0 00.48.2 1.76 1.76 0 00.29 0 .86.86 0 00.6-.64 1 1 0 00-.09-.4V471c0-.12.12-.27.25-.28s.11.07.16.15a1.53 1.53 0 01.11.25v.07a1 1 0 010 .29 1.45 1.45 0 01-.06.39 1.57 1.57 0 01-.09.23 1.39 1.39 0 01-.64.65 1.33 1.33 0 01-.57.14H121a1.17 1.17 0 01-.28-.13l-.1-.08-.08-.08-.07-.09a1.49 1.49 0 01-.24-.54v-2.73h.13l-.21-5.47a19 19 0 00-2.22-.39 14.43 14.43 0 00-1.82-.11h-4.14a4.46 4.46 0 00-.92-.55 5.33 5.33 0 00-2-.45h-.22a5.84 5.84 0 00-.82.07 25.24 25.24 0 012.27-2.95 13.22 13.22 0 012.43-2.31 11.62 11.62 0 014.08-1.6 18.12 18.12 0 012.25-.43 8.11 8.11 0 01.88-.15zm-36.25-4.64l1.79 4.64 1.79 4.63-2.26.02-1.24.01h-1.36l-2.13.02 1.7-4.66 1.71-4.66z"/><path class="cls-32" d="M82.47 458.36h1.36l1.24-.01.12 12.41-2.6.02-.12-12.42zm-11.89.09l1.36-.01 1.23-.01.12 12.41-2.59.02-.12-12.41zm-3.51 16.36l21.96-.16.02 2.45-21.96.16-.02-2.45z"/><path class="cls-32" d="M71.85 449.15l1.8 4.63 1.79 4.63-2.27.02-1.23.01-1.36.01-2.13.01 1.7-4.65 1.7-4.66z"/><path class="cls-32" d="M98.13 483.4h-38.3v-38.29h38.29v38.29zm-36.74-1.56h35.18v-35.18H61.39zm77.98 1.56h-38.29v-38.29h38.29zm-36.74-1.56h35.18v-35.18h-35.18z"/><path class="cls-9" d="M50.57 379.41c-10 .35-19.71-7.39-21.58-17.24s4.29-20.61 13.74-24c8.76 11.55 10.94 27.1 7.84 41.24zm258.54-36.09c10-.35 19.71 7.39 21.58 17.24s-4.29 20.61-13.74 24c-8.77-11.56-10.95-27.1-7.84-41.24z"/></g><g class="cls-25"><path class="cls-34" d="M179.37 386.2c9.34-1.15 30.19-5.18 35.72-6.82 13-3.83 21.35-8 25.55-11.28 2.28-1.76 3.34-3.23 3.29-4.21a2 2 0 00-.05-.26v-.08a.45.45 0 00-.11-.17c-1.78-2.15-19 1.54-35.36 7.55-16.83 6.18-34.53 12.85-33.59 15.4.09.29 1.84.2 4.55-.13z"/><path class="cls-30" d="M208.4 370.93c16.37-6 33.58-9.71 35.36-7.55a1 1 0 01.11.17c-.36-1.27-.8-2.66-1.34-4.13-1.77-4.81-5.53-15.05-7.62-19.35-.51-1-1-2.82-3.9-3.09-3.34-.31-11.88.09-23.66 6.09a72.86 72.86 0 00-23.66 18.67c-4.74 5.91-3.88 7.09-10.2 9.12l-3.88 1.28 5.21 14.18c-.95-2.54 16.74-9.2 33.58-15.39zm-67.62 29.8s-27.8 15.64-21 52.95l24.86 11s-19.65-47 21.33-70.92zm56.62-.91s28.29 14.75 22.73 52.25l-24.49 11.76s18.14-47.64-23.59-70.2z"/><path class="cls-34" d="M172.56 394.58c9 2.83 29.62 7.82 35.33 8.63 13.44 1.92 22.76 1.55 27.93.35 2.8-.65 4.38-1.55 4.74-2.46a1.22 1.22 0 00.06-.26.22.22 0 000-.08.69.69 0 000-.2c-.73-2.7-17.91-6.48-35.3-7.81-17.88-1.36-36.74-2.65-37 .06.01.31 1.68.95 4.24 1.77z"/><path class="cls-30" d="M205.3 392.75c17.39 1.33 34.58 5.11 35.3 7.81a.75.75 0 010 .2c.2-1.31.37-2.75.49-4.31.39-5.11 1.22-16 1.1-20.77 0-1.16.26-3-2.26-4.43-2.91-1.67-10.84-4.85-24.06-4.29a72.81 72.81 0 00-29.28 7.16c-6.76 3.41-6.47 4.84-13.07 4.06l-4.06-.44-1.15 15.07c.25-2.7 19.11-1.42 36.99-.06z"/><path class="cls-34" d="M158.08 386.54c-9.37-.85-30.34-4.22-35.92-5.67-13.14-3.42-21.6-7.35-25.9-10.46-2.33-1.68-3.45-3.12-3.42-4.1a1.26 1.26 0 010-.27.24.24 0 010-.08.81.81 0 01.1-.18c1.71-2.21 19 .93 35.58 6.42 17 5.64 34.92 11.74 34.06 14.32-.03.3-1.77.26-4.5.02z"/><path class="cls-30" d="M128.58 372.21c-16.58-5.49-33.87-8.63-35.58-6.42a.64.64 0 00-.1.18c.32-1.29.72-2.68 1.21-4.17 1.61-4.86 5-15.22 7-19.59.47-1.06.91-2.85 3.8-3.21 3.33-.42 11.87-.29 23.85 5.33A72.64 72.64 0 01153 362.24c4.92 5.75 4.1 7 10.49 8.79l3.92 1.16-4.75 14.34c.84-2.53-17.05-8.68-34.08-14.32z"/><path class="cls-34" d="M165.17 394.7c-8.88 3.12-29.35 8.77-35 9.76-13.37 2.35-22.7 2.28-27.9 1.24-2.82-.56-4.43-1.41-4.82-2.31a.84.84 0 01-.07-.26v-.08a1.5 1.5 0 010-.2c.64-2.72 17.69-7.05 35-8.94 17.83-1.94 36.64-3.82 36.93-1.12.04.31-1.56 1.01-4.14 1.91z"/><path class="cls-30" d="M132.38 393.92c-17.34 1.88-34.4 6.22-35 8.94a1.5 1.5 0 000 .2c-.24-1.3-.46-2.74-.63-4.29-.55-5.09-1.73-15.94-1.76-20.73 0-1.16-.36-3 2.12-4.5 2.86-1.76 10.68-5.2 23.91-5.06a72.79 72.79 0 0129.49 6.22c6.87 3.19 6.62 4.63 13.19 3.64l4-.57 1.63 15c-.33-2.67-19.12-.77-36.95 1.15z"/><path d="M156.11 397.1c2.61 3.79 23.44 3.13 26.66-.44 1.54-1.7-2-13.11-.92-24 .83-8.12 1.21-9.27-8.08-10.3-5.56-.62-15.73-.63-18 4.17-.24.51.58 7.82.62 15.21s-.65 14.81-.28 15.36z" fill="#eaa813"/></g></g></svg>