<?xml version="1.0" encoding="utf-8"?>
<!-- Generator: Adobe Illustrator 23.1.0, SVG Export Plug-In . SVG Version: 6.00 Build 0)  -->
<svg version="1.1" xmlns="http://www.w3.org/2000/svg" xmlns:xlink="http://www.w3.org/1999/xlink" x="0px" y="0px"
	 viewBox="0 0 910 567" style="enable-background:new 0 0 910 567;" xml:space="preserve">
<style type="text/css">
	.st0{fill:#D8EFF4;}
	.st1{fill:url(#SVGID_1_);}
	.st2{fill:#CEECF4;}
	.st3{fill:url(#SVGID_2_);}
	.st4{fill:#C3E8EF;}
	.st5{fill:url(#SVGID_3_);}
	.st6{fill:url(#SVGID_4_);}
	.st7{fill:url(#SVGID_5_);}
	.st8{fill:url(#SVGID_6_);}
	.st9{fill:url(#SVGID_7_);}
	.st10{fill:url(#SVGID_8_);}
	.st11{fill:#FFAE96;}
	.st12{fill:#7DBACF;}
	.st13{fill:#FF9984;}
	.st14{fill:#FFB392;}
	.st15{fill:url(#SVGID_9_);}
	.st16{fill:url(#SVGID_10_);}
	.st17{fill:#F5F8F8;}
	.st18{fill:#3E95B6;}
	.st19{fill:#00939D;}
	.st20{fill:#FFCD69;}
	.st21{fill:url(#SVGID_11_);}
	.st22{fill:#00767D;}
	.st23{opacity:0.19;fill:#FFFFFF;}
	.st24{fill:none;stroke:#00B94C;stroke-miterlimit:10;}
	.st25{fill:#37A537;}
	.st26{fill:#50B848;}
	.st27{fill:#5FA2BE;}
	.st28{fill:#19607C;}
	.st29{fill:#FFB95C;}
	.st30{fill:#FFD2B3;}
	.st31{fill:#C6EBF2;}
	.st32{fill:#3784A8;}
	.st33{fill:#005777;}
	.st34{fill:#FF8872;}
	.st35{fill:url(#SVGID_12_);}
	.st36{fill:url(#SVGID_13_);}
	.st37{fill:url(#SVGID_14_);}
	.st38{fill:#00C25C;}
	.st39{fill:url(#SVGID_15_);}
	.st40{fill:url(#SVGID_16_);}
	.st41{fill:#FCAA39;}
	.st42{fill:url(#SVGID_17_);}
	.st43{fill:url(#SVGID_18_);}
	.st44{fill:#FFFFFF;}
	.st45{fill:#CDEAF1;}
	.st46{fill:url(#SVGID_19_);}
	.st47{fill:#FFB851;}
	.st48{fill:#F8C571;}
	.st49{fill:#FF633B;}
	.st50{fill:#81B0C7;}
	.st51{fill:#C2E7EE;}
	.st52{fill:url(#SVGID_20_);}
	.st53{fill:url(#SVGID_21_);}
	.st54{fill:#15586D;}
	.st55{fill:url(#SVGID_22_);}
	.st56{fill:url(#SVGID_23_);}
	.st57{fill:url(#SVGID_24_);}
	.st58{fill:url(#SVGID_25_);}
	.st59{fill:url(#SVGID_26_);}
	.st60{fill:url(#SVGID_27_);}
	.st61{fill:url(#SVGID_28_);}
	.st62{fill:url(#SVGID_29_);}
	.st63{fill:url(#SVGID_30_);}
	.st64{fill:url(#SVGID_31_);}
	.st65{fill:url(#SVGID_32_);}
	.st66{fill:url(#SVGID_33_);}
	.st67{fill:url(#SVGID_34_);}
	.st68{fill:url(#SVGID_35_);}
	.st69{fill:url(#SVGID_36_);}
	.st70{fill:url(#SVGID_37_);}
	.st71{fill:#F7F9F9;}
	.st72{fill:#294F5B;}
	.st73{fill:none;stroke:#29C16C;stroke-miterlimit:10;}
	.st74{opacity:0.11;fill:#FFFFFF;}
	.st75{fill:url(#SVGID_38_);}
	.st76{fill:url(#SVGID_39_);}
	.st77{fill:url(#SVGID_40_);}
	.st78{fill:none;}
	.st79{fill:url(#SVGID_41_);}
	.st80{fill:url(#SVGID_42_);}
	.st81{fill:url(#SVGID_43_);}
	.st82{fill:url(#SVGID_44_);}
	.st83{fill:url(#SVGID_45_);}
	.st84{fill:url(#SVGID_46_);}
	.st85{fill:url(#SVGID_47_);}
	.st86{fill:url(#SVGID_48_);}
	.st87{fill:url(#SVGID_49_);}
	.st88{fill:url(#SVGID_50_);}
	.st89{fill:url(#SVGID_51_);}
	.st90{fill:url(#SVGID_52_);}
	.st91{fill:#FFD98E;}
	.st92{fill:url(#SVGID_53_);}
	.st93{fill:url(#SVGID_54_);}
	.st94{fill:url(#SVGID_55_);}
	.st95{fill:url(#SVGID_56_);}
	.st96{fill:url(#SVGID_57_);}
	.st97{fill:url(#SVGID_58_);}
	.st98{fill:#226F87;}
	.st99{fill:#38849B;}
	.st100{fill:url(#SVGID_59_);}
	.st101{fill:url(#SVGID_60_);}
	.st102{fill:url(#SVGID_61_);}
	.st103{fill:url(#SVGID_62_);}
	.st104{fill:url(#SVGID_63_);}
	.st105{fill:url(#SVGID_64_);}
	.st106{fill:url(#SVGID_65_);}
	.st107{fill:url(#SVGID_66_);}
	.st108{fill:url(#SVGID_67_);}
	.st109{fill:url(#SVGID_68_);}
	.st110{fill:url(#SVGID_69_);}
	.st111{fill:#4896A3;}
	.st112{fill:url(#SVGID_70_);}
	.st113{fill:url(#SVGID_71_);}
	.st114{fill:#308396;}
	.st115{fill:url(#SVGID_72_);}
	.st116{fill:url(#SVGID_73_);}
	.st117{fill:url(#SVGID_74_);}
	.st118{fill:url(#SVGID_75_);}
	.st119{fill:url(#SVGID_76_);}
	.st120{fill:url(#SVGID_77_);}
	.st121{fill:url(#SVGID_78_);}
	.st122{fill:url(#SVGID_79_);}
	.st123{fill:url(#SVGID_80_);}
	.st124{fill:url(#SVGID_81_);}
	.st125{fill:url(#SVGID_82_);}
	.st126{fill:url(#SVGID_83_);}
	.st127{fill:url(#SVGID_84_);}
	.st128{fill:url(#SVGID_85_);}
	.st129{opacity:0.25;fill:#FFFFFF;}
	.st130{opacity:0.77;fill:none;stroke:#29C16C;stroke-miterlimit:10;}
	.st131{fill:url(#SVGID_86_);}
	.st132{fill:url(#SVGID_87_);}
	.st133{opacity:0.4;}
	.st134{fill:#FFF5E8;}
	.st135{fill:#EFF7FB;}
	.st136{fill:url(#SVGID_88_);}
	.st137{fill:url(#SVGID_89_);}
	.st138{fill:url(#SVGID_90_);}
	.st139{fill:url(#SVGID_91_);}
	.st140{opacity:0.31;fill:#FFB95C;}
	.st141{opacity:0.43;fill:#FFB95C;}
	.st142{fill:url(#SVGID_92_);}
	.st143{fill:#008F7F;}
	.st144{fill:#FFCDAB;}
	.st145{fill:url(#SVGID_93_);}
	.st146{fill:url(#SVGID_94_);}
	.st147{fill:url(#SVGID_95_);}
	.st148{fill:url(#SVGID_96_);}
	.st149{fill:url(#SVGID_97_);}
	.st150{fill:url(#SVGID_98_);}
	.st151{fill:url(#SVGID_99_);}
	.st152{fill:url(#SVGID_100_);}
	.st153{fill:url(#SVGID_101_);}
	.st154{fill:#FF653B;}
	.st155{fill:#FFD273;}
	.st156{fill:url(#SVGID_102_);}
	.st157{fill:url(#SVGID_103_);}
	.st158{fill:url(#SVGID_104_);}
	.st159{fill:#FFDBC0;}
	.st160{fill:#FF7A56;}
	.st161{fill:#75AFC6;}
	.st162{fill:#FF8A6C;}
	.st163{fill:#87B8CD;}
	.st164{fill:#FFD884;}
	.st165{fill:url(#SVGID_105_);}
	.st166{fill:url(#SVGID_106_);}
	.st167{fill:url(#SVGID_107_);}
	.st168{fill:url(#SVGID_108_);}
	.st169{fill:#E64932;}
	.st170{fill:url(#SVGID_109_);}
	.st171{fill:url(#SVGID_110_);}
	.st172{fill:url(#SVGID_111_);}
	.st173{fill:url(#SVGID_112_);}
	.st174{fill:url(#SVGID_113_);}
	.st175{fill:url(#SVGID_114_);}
	.st176{fill:url(#SVGID_115_);}
	.st177{fill:url(#SVGID_116_);}
	.st178{fill:url(#SVGID_117_);}
	.st179{fill:url(#SVGID_118_);}
	.st180{fill:url(#SVGID_119_);}
	.st181{fill:#F5FDFF;}
	.st182{fill:url(#SVGID_120_);}
	.st183{fill:url(#SVGID_121_);}
	.st184{fill:#D4EEF4;}
	.st185{fill:#00A76C;}
	.st186{fill:url(#SVGID_122_);}
	.st187{fill:url(#SVGID_123_);}
	.st188{fill:url(#SVGID_124_);}
	.st189{fill:url(#SVGID_125_);}
	.st190{fill:url(#SVGID_126_);}
	.st191{fill:url(#SVGID_127_);}
	.st192{fill:url(#SVGID_128_);}
	.st193{fill:url(#SVGID_129_);}
	.st194{fill:url(#SVGID_130_);}
	.st195{fill:url(#SVGID_131_);}
	.st196{fill:url(#SVGID_132_);}
	.st197{fill:url(#SVGID_133_);}
	.st198{fill:url(#SVGID_134_);}
	.st199{fill:url(#SVGID_135_);}
	.st200{fill:url(#SVGID_136_);}
	.st201{fill:url(#SVGID_137_);}
	.st202{fill:url(#SVGID_138_);}
	.st203{fill:url(#SVGID_139_);}
	.st204{fill:url(#SVGID_140_);}
	.st205{fill:url(#SVGID_141_);}
	.st206{fill:url(#SVGID_142_);}
	.st207{fill:url(#SVGID_143_);}
	.st208{fill:url(#SVGID_144_);}
	.st209{fill:url(#SVGID_145_);}
	.st210{fill:url(#SVGID_146_);}
	.st211{fill:url(#SVGID_147_);}
	.st212{fill:url(#SVGID_148_);}
	.st213{fill:url(#SVGID_149_);}
	.st214{fill:url(#SVGID_150_);}
	.st215{fill:url(#SVGID_151_);}
	.st216{fill:url(#SVGID_152_);}
	.st217{fill:url(#SVGID_153_);}
	.st218{fill:url(#SVGID_154_);}
	.st219{fill:url(#SVGID_155_);}
	.st220{fill:url(#SVGID_156_);}
	.st221{fill:url(#SVGID_157_);}
	.st222{fill:url(#SVGID_158_);}
	.st223{fill:url(#SVGID_159_);}
	.st224{fill:url(#SVGID_160_);}
	.st225{fill:url(#SVGID_161_);}
	.st226{fill:url(#SVGID_162_);}
	.st227{fill:url(#SVGID_163_);}
	.st228{fill:url(#SVGID_164_);}
	.st229{fill:url(#SVGID_165_);}
	.st230{fill:url(#SVGID_166_);}
	.st231{fill:url(#SVGID_167_);}
	.st232{fill:url(#SVGID_168_);}
	.st233{fill:url(#SVGID_169_);}
	.st234{fill:url(#SVGID_170_);}
	.st235{fill:url(#SVGID_171_);}
	.st236{fill:url(#SVGID_172_);}
	.st237{fill:#FF512F;}
	.st238{fill:#FFCBA0;}
	.st239{fill:url(#SVGID_173_);}
	.st240{fill:url(#SVGID_174_);}
	.st241{fill:url(#SVGID_175_);}
	.st242{fill:url(#SVGID_176_);}
	.st243{fill:url(#SVGID_177_);}
	.st244{fill:url(#SVGID_178_);}
	.st245{fill:url(#SVGID_179_);}
	.st246{fill:url(#SVGID_180_);}
	.st247{fill:url(#SVGID_181_);}
	.st248{fill:url(#SVGID_182_);}
	.st249{fill:url(#SVGID_183_);}
	.st250{fill:url(#SVGID_184_);}
	.st251{fill:#F8FDFF;}
	.st252{fill:url(#SVGID_185_);}
	.st253{fill:url(#SVGID_186_);}
	.st254{fill:url(#SVGID_187_);}
	.st255{opacity:0.68;fill:url(#SVGID_188_);}
	.st256{fill:url(#SVGID_189_);}
	.st257{opacity:0.68;fill:url(#SVGID_190_);}
	.st258{fill:url(#SVGID_191_);}
	.st259{opacity:0.68;fill:url(#SVGID_192_);}
	.st260{fill:url(#SVGID_193_);}
	.st261{fill:url(#SVGID_194_);}
	.st262{fill:#0F4657;}
	.st263{fill:url(#SVGID_195_);}
	.st264{fill:url(#SVGID_196_);}
	.st265{fill:url(#SVGID_197_);}
	.st266{fill:url(#SVGID_198_);}
	.st267{fill:url(#SVGID_199_);}
	.st268{fill:url(#SVGID_200_);}
	.st269{fill:url(#SVGID_201_);}
	.st270{fill:url(#SVGID_202_);}
	.st271{fill:url(#SVGID_203_);}
	.st272{fill:url(#SVGID_204_);}
	.st273{fill:url(#SVGID_205_);}
	.st274{fill:url(#SVGID_206_);}
	.st275{fill:url(#SVGID_207_);}
	.st276{fill:#FFA27F;}
	.st277{fill:url(#SVGID_208_);}
	.st278{fill:#006988;}
	.st279{fill:url(#SVGID_209_);}
	.st280{fill:url(#SVGID_210_);}
	.st281{fill:url(#SVGID_211_);}
	.st282{fill:url(#SVGID_212_);}
	.st283{fill:url(#SVGID_213_);}
	.st284{fill:url(#SVGID_214_);}
	.st285{fill:url(#SVGID_215_);}
	.st286{fill:url(#SVGID_216_);}
	.st287{fill:url(#SVGID_217_);}
	.st288{fill:url(#SVGID_218_);}
	.st289{fill:url(#SVGID_219_);}
	.st290{fill:url(#SVGID_220_);}
	.st291{fill:url(#SVGID_221_);}
	.st292{fill:url(#SVGID_222_);}
	.st293{fill:url(#SVGID_223_);}
	.st294{fill:url(#SVGID_224_);}
	.st295{fill:url(#SVGID_225_);}
	.st296{fill:url(#SVGID_226_);}
	.st297{opacity:0.65;}
	.st298{fill:url(#SVGID_227_);}
	.st299{fill:url(#SVGID_228_);}
	.st300{fill:url(#SVGID_229_);}
	.st301{fill:url(#SVGID_230_);}
	.st302{fill:url(#SVGID_231_);}
	.st303{fill:url(#SVGID_232_);}
	.st304{fill:url(#SVGID_233_);}
	.st305{fill:url(#SVGID_234_);}
	.st306{fill:url(#SVGID_235_);}
	.st307{fill:url(#SVGID_236_);}
	.st308{fill:url(#SVGID_237_);}
	.st309{fill:url(#SVGID_238_);}
	.st310{fill:url(#SVGID_239_);}
	.st311{fill:url(#SVGID_240_);}
	.st312{fill:url(#SVGID_241_);}
	.st313{opacity:0.46;fill:#C3E8EF;}
	.st314{fill:#005567;}
	.st315{fill:url(#SVGID_242_);}
	.st316{fill:url(#SVGID_243_);}
	.st317{fill:url(#SVGID_244_);}
	.st318{fill:url(#SVGID_245_);}
	.st319{fill:url(#SVGID_246_);}
	.st320{fill:url(#SVGID_247_);}
	.st321{fill:url(#SVGID_248_);}
	.st322{fill:url(#SVGID_249_);}
	.st323{fill:url(#SVGID_250_);}
	.st324{fill:url(#SVGID_251_);}
	.st325{fill:url(#SVGID_252_);}
	.st326{fill:url(#SVGID_253_);}
	.st327{fill:#FFDA8A;}
	.st328{fill:url(#SVGID_254_);}
	.st329{fill:url(#SVGID_255_);}
	.st330{fill:url(#SVGID_256_);}
	.st331{fill:url(#SVGID_257_);}
	.st332{fill:url(#SVGID_258_);}
	.st333{fill:url(#SVGID_259_);}
	.st334{opacity:0.76;fill:#C3E8EF;}
	.st335{fill:url(#SVGID_260_);}
	.st336{fill:url(#SVGID_261_);}
	.st337{fill:url(#SVGID_262_);}
	.st338{fill:url(#SVGID_263_);}
	.st339{fill:url(#SVGID_264_);}
	.st340{fill:url(#SVGID_265_);}
	.st341{fill:url(#SVGID_266_);}
	.st342{fill:url(#SVGID_267_);}
	.st343{fill:url(#SVGID_268_);}
	.st344{fill:url(#SVGID_269_);}
	.st345{fill:url(#SVGID_270_);}
	.st346{fill:url(#SVGID_271_);}
	.st347{fill:url(#SVGID_272_);}
	.st348{fill:url(#SVGID_273_);}
	.st349{fill:url(#SVGID_274_);}
	.st350{fill:url(#SVGID_275_);}
	.st351{fill:url(#SVGID_276_);}
	.st352{fill:url(#SVGID_277_);}
	.st353{fill:url(#SVGID_278_);}
	.st354{fill:url(#SVGID_279_);}
	.st355{fill:url(#SVGID_280_);}
	.st356{fill:url(#SVGID_281_);}
	.st357{fill:url(#SVGID_282_);}
	.st358{fill:url(#SVGID_283_);}
	.st359{fill:url(#SVGID_284_);}
	.st360{fill:url(#SVGID_285_);}
	.st361{fill:url(#SVGID_286_);}
	.st362{fill:url(#SVGID_287_);}
	.st363{fill:url(#SVGID_288_);}
	.st364{fill:url(#SVGID_289_);}
	.st365{fill:url(#SVGID_290_);}
	.st366{fill:url(#SVGID_291_);}
	.st367{fill:url(#SVGID_292_);}
	.st368{fill:url(#SVGID_293_);}
	.st369{fill:url(#SVGID_294_);}
	.st370{fill:url(#SVGID_295_);}
	.st371{fill:url(#SVGID_296_);}
	.st372{fill:url(#SVGID_297_);}
	.st373{fill:url(#SVGID_298_);}
	.st374{fill:url(#SVGID_299_);}
	.st375{fill:#DFF0F4;}
	.st376{fill:url(#SVGID_300_);}
	.st377{fill:url(#SVGID_301_);}
	.st378{fill:url(#SVGID_302_);}
	.st379{fill:url(#SVGID_303_);}
	.st380{fill:url(#SVGID_304_);}
	.st381{fill:#D7EEF3;}
	.st382{fill:url(#SVGID_305_);}
	.st383{fill:url(#SVGID_306_);}
	.st384{opacity:0.71;fill:url(#SVGID_307_);}
	.st385{opacity:0.71;fill:#FFB392;}
	.st386{opacity:0.71;fill:url(#SVGID_308_);}
	.st387{fill:url(#SVGID_309_);}
	.st388{fill:url(#SVGID_310_);}
	.st389{fill:url(#SVGID_311_);}
	.st390{fill:url(#SVGID_312_);}
	.st391{fill:#FFDABF;}
	.st392{fill:url(#SVGID_313_);}
	.st393{fill:url(#SVGID_314_);}
	.st394{fill:url(#SVGID_315_);}
	.st395{fill:#FF7855;}
	.st396{fill:#76AEC5;}
	.st397{fill:#FF8667;}
	.st398{fill:#FF896C;}
	.st399{fill:#84B6CB;}
	.st400{fill:#FFD784;}
	.st401{fill:#D1ECF1;}
	.st402{fill:#ECF6FB;}
	.st403{fill:#D6EEF2;}
	.st404{fill:#DBF0F4;}
	.st405{fill:#DAF0F3;}
	.st406{fill:#FF715E;}
	.st407{fill:url(#SVGID_316_);}
	.st408{fill:url(#SVGID_317_);}
	.st409{fill:url(#SVGID_318_);}
	.st410{fill:url(#SVGID_319_);}
	.st411{fill:url(#SVGID_320_);}
	.st412{fill:#2FC86D;}
	.st413{fill:url(#SVGID_321_);}
	.st414{fill:url(#SVGID_322_);}
	.st415{fill:url(#SVGID_323_);}
	.st416{fill:url(#SVGID_324_);}
	.st417{fill:url(#SVGID_325_);}
	.st418{fill:url(#SVGID_326_);}
	.st419{fill:url(#SVGID_327_);}
	.st420{fill:#FF9D7A;}
	.st421{fill:url(#SVGID_328_);}
	.st422{fill:url(#SVGID_329_);}
	.st423{fill:url(#SVGID_330_);}
	.st424{fill:url(#SVGID_331_);}
	.st425{fill:url(#SVGID_332_);}
	.st426{fill:url(#SVGID_333_);}
	.st427{fill:url(#SVGID_334_);}
	.st428{fill:url(#SVGID_335_);}
	.st429{fill:url(#SVGID_336_);}
	.st430{fill:url(#SVGID_337_);}
	.st431{fill:#FFB951;}
	.st432{fill:url(#SVGID_338_);}
	.st433{fill:url(#SVGID_339_);}
	.st434{fill:url(#SVGID_340_);}
	.st435{fill:url(#SVGID_341_);}
	.st436{fill:url(#SVGID_342_);}
	.st437{fill:url(#SVGID_343_);}
	.st438{fill:url(#SVGID_344_);}
	.st439{fill:url(#SVGID_345_);}
	.st440{fill:url(#SVGID_346_);}
	.st441{fill:url(#SVGID_347_);}
	.st442{opacity:0.68;fill:url(#SVGID_348_);}
	.st443{fill:url(#SVGID_349_);}
	.st444{opacity:0.68;fill:url(#SVGID_350_);}
	.st445{fill:url(#SVGID_351_);}
	.st446{opacity:0.68;fill:url(#SVGID_352_);}
	.st447{fill:url(#SVGID_353_);}
	.st448{fill:url(#SVGID_354_);}
	.st449{fill:url(#SVGID_355_);}
	.st450{fill:url(#SVGID_356_);}
	.st451{fill:url(#SVGID_357_);}
	.st452{fill:url(#SVGID_358_);}
	.st453{fill:url(#SVGID_359_);}
	.st454{fill:url(#SVGID_360_);}
	.st455{fill:url(#SVGID_361_);}
	.st456{fill:url(#SVGID_362_);}
	.st457{fill:url(#SVGID_363_);}
	.st458{fill:url(#SVGID_364_);}
	.st459{fill:#00A031;}
	.st460{fill:#FFD5B6;}
	.st461{fill:url(#SVGID_365_);}
	.st462{fill:url(#SVGID_366_);}
	.st463{fill:url(#SVGID_367_);}
	.st464{fill:#FFD6B7;}
	.st465{fill:#FF5E39;}
	.st466{fill:#FFBE8D;}
	.st467{fill:#009A57;}
	.st468{fill:url(#SVGID_368_);}
	.st469{fill:url(#SVGID_369_);}
	.st470{fill:url(#SVGID_370_);}
	.st471{fill:url(#SVGID_371_);}
	.st472{fill:url(#SVGID_372_);}
	.st473{fill:url(#SVGID_373_);}
	.st474{fill:url(#SVGID_374_);}
	.st475{fill:url(#SVGID_375_);}
	.st476{fill:url(#SVGID_376_);}
	.st477{fill:none;stroke:#50B848;stroke-width:5;stroke-linecap:round;stroke-miterlimit:10;}
	.st478{fill:none;stroke:#D4EEF4;stroke-width:5;stroke-miterlimit:10;}
	.st479{fill:none;stroke:#F8FDFF;stroke-width:4;stroke-linecap:round;stroke-linejoin:round;stroke-miterlimit:10;}
	.st480{fill:url(#SVGID_377_);}
	.st481{fill:url(#SVGID_378_);}
	.st482{fill:#3D94B5;}
	.st483{fill:#FAD0B3;}
	.st484{fill:#008E7F;}
	.st485{fill:#F6B092;}
	.st486{fill:#36A437;}
	.st487{fill:#40AD5C;}
	.st488{fill:url(#SVGID_379_);}
	.st489{fill:#5FA1BE;}
	.st490{fill:url(#SVGID_380_);}
	.st491{fill:#F9B75E;}
	.st492{fill:#FACBAB;}
	.st493{fill:#1B617D;}
	.st494{fill:#C6E5ED;}
	.st495{fill:url(#SVGID_381_);}
	.st496{fill:url(#SVGID_382_);}
	.st497{fill:url(#SVGID_383_);}
	.st498{fill:#025777;}
	.st499{fill:#C3E4EC;}
	.st500{fill:url(#SVGID_384_);}
	.st501{fill:url(#SVGID_385_);}
	.st502{fill:url(#SVGID_386_);}
	.st503{fill:url(#SVGID_387_);}
	.st504{fill:#F7C470;}
	.st505{fill:url(#SVGID_388_);}
	.st506{fill:#AED6DC;}
	.st507{fill:#EEF6FA;}
	.st508{fill:url(#SVGID_389_);}
	.st509{fill:url(#SVGID_390_);}
	.st510{fill:url(#SVGID_391_);}
	.st511{fill:url(#SVGID_392_);}
	.st512{fill:url(#SVGID_393_);}
	.st513{fill:url(#SVGID_394_);}
	.st514{fill:#EB6542;}
	.st515{fill:url(#SVGID_395_);}
	.st516{fill:url(#SVGID_396_);}
	.st517{fill:#57B04B;}
	.st518{fill:url(#SVGID_397_);}
	.st519{fill:url(#SVGID_398_);}
	.st520{fill:url(#SVGID_399_);}
	.st521{fill:#EF8573;}
	.st522{fill:#006987;}
	.st523{fill:#E95338;}
	.st524{fill:#E51E52;}
	.st525{fill:url(#SVGID_400_);}
	.st526{fill:#D4EBF2;}
	.st527{fill:#D7EDF2;}
	.st528{fill:#CEE9F2;}
	.st529{fill:url(#SVGID_401_);}
	.st530{fill:url(#SVGID_402_);}
	.st531{fill:#FBD4B6;}
	.st532{fill:#FACAA0;}
	.st533{fill:#F9B752;}
	.st534{fill:url(#SVGID_403_);}
	.st535{fill:url(#SVGID_404_);}
	.st536{fill:url(#SVGID_405_);}
	.st537{fill:url(#SVGID_406_);}
	.st538{fill:url(#SVGID_407_);}
	.st539{fill:#FDD174;}
	.st540{fill:url(#SVGID_408_);}
	.st541{fill:url(#SVGID_409_);}
	.st542{fill:#F7BA9D;}
	.st543{fill:url(#SVGID_410_);}
	.st544{fill:url(#SVGID_411_);}
	.st545{fill:#FBD3B5;}
	.st546{fill:url(#SVGID_412_);}
	.st547{fill:url(#SVGID_413_);}
	.st548{fill:url(#SVGID_414_);}
	.st549{fill:url(#SVGID_415_);}
	.st550{fill:url(#SVGID_416_);}
	.st551{fill:url(#SVGID_417_);}
	.st552{fill:#3E92B4;}
	.st553{fill:url(#SVGID_418_);}
	.st554{fill:url(#SVGID_419_);}
	.st555{fill:#F9B652;}
	.st556{fill:url(#SVGID_420_);}
	.st557{fill:url(#SVGID_421_);}
	.st558{fill:url(#SVGID_422_);}
	.st559{fill:url(#SVGID_423_);}
	.st560{fill:url(#SVGID_424_);}
	.st561{fill:url(#SVGID_425_);}
	.st562{fill:url(#SVGID_426_);}
	.st563{fill:url(#SVGID_427_);}
	.st564{fill:url(#SVGID_428_);}
	.st565{fill:url(#SVGID_429_);}
	.st566{fill:url(#SVGID_430_);}
	.st567{fill:url(#SVGID_431_);}
	.st568{fill:#CDE8EF;}
	.st569{fill:url(#SVGID_432_);}
	.st570{fill:url(#SVGID_433_);}
	.st571{fill:url(#SVGID_434_);}
	.st572{fill:url(#SVGID_435_);}
	.st573{fill:url(#SVGID_436_);}
	.st574{fill:url(#SVGID_437_);}
	.st575{fill:none;stroke:#50B848;stroke-width:3;stroke-miterlimit:10;}
	.st576{fill:none;stroke:#50B848;stroke-width:3;stroke-linecap:round;stroke-miterlimit:10;}
	.st577{fill:url(#SVGID_438_);}
	.st578{fill:url(#SVGID_439_);}
	.st579{fill:url(#SVGID_440_);}
	.st580{fill:none;stroke:#C3E8EF;stroke-width:2;stroke-linecap:round;stroke-miterlimit:10;}
	
		.st581{fill:none;stroke:#C3E8EF;stroke-width:2;stroke-linecap:round;stroke-miterlimit:10;stroke-dasharray:5.2201,10.4402,52.201,5.2201;}
	
		.st582{fill:none;stroke:#C3E8EF;stroke-width:2;stroke-linecap:round;stroke-miterlimit:10;stroke-dasharray:10.4402,52.201,5.2201,10.4402,52.201,5.2201;}
	.st583{fill:none;stroke:#C3E8EF;stroke-width:2;stroke-linecap:round;stroke-miterlimit:10;stroke-dasharray:10,50,5;}
	.st584{fill:url(#SVGID_441_);}
	.st585{fill:url(#SVGID_442_);}
	.st586{fill:url(#SVGID_443_);}
	.st587{fill:url(#SVGID_444_);}
	.st588{fill:url(#SVGID_445_);}
	.st589{fill:url(#SVGID_446_);}
	.st590{fill:url(#SVGID_447_);}
	.st591{fill:none;stroke:#D4EEF4;stroke-width:3;stroke-linecap:round;stroke-miterlimit:10;}
	.st592{fill:none;stroke:#C3E8EF;stroke-width:2;stroke-miterlimit:10;}
	
		.st593{fill:none;stroke:#C3E8EF;stroke-width:2;stroke-linecap:round;stroke-miterlimit:10;stroke-dasharray:4.7726,9.5453,47.7264,4.7726;}
	
		.st594{fill:none;stroke:#C3E8EF;stroke-width:2;stroke-linecap:round;stroke-miterlimit:10;stroke-dasharray:9.5453,47.7264,4.7726,9.5453,47.7264,4.7726;}
	.st595{fill:url(#SVGID_448_);}
	.st596{fill:url(#SVGID_449_);}
	.st597{fill:url(#SVGID_450_);}
	.st598{fill:url(#SVGID_451_);}
	.st599{fill:url(#SVGID_452_);}
	.st600{fill:url(#SVGID_453_);}
	.st601{fill:url(#SVGID_454_);}
	.st602{fill:url(#SVGID_455_);}
	.st603{fill:url(#SVGID_456_);}
	.st604{fill:url(#SVGID_457_);}
	.st605{fill:url(#SVGID_458_);}
	.st606{fill:url(#SVGID_459_);}
	.st607{fill:url(#SVGID_460_);}
	.st608{fill:url(#SVGID_461_);}
	.st609{fill:url(#SVGID_462_);}
	.st610{fill:url(#SVGID_463_);}
	.st611{fill:url(#SVGID_464_);}
	.st612{fill:url(#SVGID_465_);}
	.st613{fill:url(#SVGID_466_);}
	.st614{fill:#E1F1F4;}
	.st615{fill:url(#SVGID_467_);}
	.st616{fill:url(#SVGID_468_);}
	.st617{fill:url(#SVGID_469_);}
	.st618{fill:url(#SVGID_470_);}
	.st619{fill:url(#SVGID_471_);}
	.st620{fill:url(#SVGID_472_);}
	.st621{fill:url(#SVGID_473_);}
	.st622{fill:url(#SVGID_474_);}
	.st623{fill:url(#SVGID_475_);}
	
		.st624{fill:none;stroke:#C3E8EF;stroke-width:2;stroke-linecap:round;stroke-miterlimit:10;stroke-dasharray:5.2141,10.4282,52.1411,5.2141;}
	
		.st625{fill:none;stroke:#C3E8EF;stroke-width:2;stroke-linecap:round;stroke-miterlimit:10;stroke-dasharray:10.4282,52.1411,5.2141,10.4282,52.1411,5.2141;}
	.st626{fill:url(#SVGID_476_);}
	.st627{fill:url(#SVGID_477_);}
	.st628{fill:url(#SVGID_478_);}
	.st629{fill:url(#SVGID_479_);}
	.st630{fill:url(#SVGID_480_);}
	.st631{fill:url(#SVGID_481_);}
	.st632{fill:url(#SVGID_482_);}
	.st633{fill:url(#SVGID_483_);}
	.st634{fill:url(#SVGID_484_);}
	.st635{fill:url(#SVGID_485_);}
	.st636{fill:url(#SVGID_486_);}
	.st637{fill:url(#SVGID_487_);}
	.st638{fill:url(#SVGID_488_);}
	.st639{fill:url(#SVGID_489_);}
	.st640{fill:url(#SVGID_490_);}
	.st641{fill:url(#SVGID_491_);}
	.st642{fill:url(#SVGID_492_);}
	.st643{fill:url(#SVGID_493_);}
	.st644{fill:url(#SVGID_494_);}
	.st645{fill:url(#SVGID_495_);}
</style>
<g id="_x31_._Перевезем_за_540р">
	<g id="Задник">
	</g>
	<g id="машинка">
	</g>
	<g id="Мужик_2">
	</g>
	<g id="мужик1">
	</g>
	<g id="рубль">
	</g>
</g>
<g id="_x32_._Подача_за_15_минут">
	<g id="Задник_1_">
	</g>
	<g id="Машина_1">
	</g>
	<g id="Машина_2">
	</g>
	<g id="Машина_3">
	</g>
	<g id="Машина_4">
	</g>
	<g id="_x31_5_минут">
	</g>
</g>
<g id="_x33_._Планируйте_заранее">
	<g id="Задник_2_">
	</g>
	<g id="Рубли">
	</g>
	<g id="Папа">
	</g>
	<g id="Коробка">
		<g id="Слой_13">
		</g>
		<g id="Слой_6">
		</g>
	</g>
	<g id="Девочка">
	</g>
</g>
<g id="_x34_._Оценка_груза">
	<g id="Задник_3_">
	</g>
	<g id="Вещи">
	</g>
	<g id="Девочка_1_">
	</g>
	<g id="Кот">
	</g>
	<g id="Грузчик">
	</g>
	<g id="Мамка_1_">
	</g>
</g>
<g id="_x35_._Мобильные_перевозки">
	<g id="Задник_4_">
	</g>
	<g id="Машинка">
	</g>
	<g id="Девочка_2_">
	</g>
	<g id="Мамка">
	</g>
</g>
<g id="_x36_._Автопарк">
	<g id="Задник_5_">
	</g>
</g>
<g id="Слой_19">
</g>
<g id="all_shit">
</g>
<g id="Кв._переезд">
</g>
<g id="Слой_1">
	<linearGradient id="SVGID_1_" gradientUnits="userSpaceOnUse" x1="425.5501" y1="456.8521" x2="1643.6918" y2="-700.7388">
		<stop  offset="0" style="stop-color:#EBF5FA;stop-opacity:0.1"/>
		<stop  offset="0.2976" style="stop-color:#DAEEF4;stop-opacity:0.3678"/>
		<stop  offset="0.619" style="stop-color:#CFE9F0;stop-opacity:0.6571"/>
		<stop  offset="1" style="stop-color:#CCE8EF"/>
	</linearGradient>
	<path class="st1" d="M866.4,567.9c35.34-122.08,3.33-187.77-50.74-260.37c15.72-29.44,24.65-63.08,24.65-98.83
		C840.31,93.08,747-0.65,631.89-0.65c-88.86,0-164.72,55.86-194.7,134.53c-75.73,5.44-146.07,30.42-206.05,69.96
		c-12.69-4.4-26.31-6.79-40.49-6.79c-68.55,0-124.11,55.82-124.11,124.67c0,19.75,4.58,38.42,12.72,55.01
		C51.11,434.43,32.86,550.7,66.2,567.9H866.4z"/>
	<circle class="st526" cx="613.81" cy="104.69" r="47.83"/>
	<circle class="st527" cx="559.09" cy="348.42" r="14.55"/>
	<circle class="st527" cx="562.45" cy="329.06" r="8.92"/>
	<circle class="st527" cx="573.64" cy="322.68" r="5.4"/>
	<path class="st499" d="M505.44,323.66c0,0-25.67,0.68-20.32-35.85C490.47,251.28,499.92,318.31,505.44,323.66z"/>
	<path class="st499" d="M507.18,323.34c0,0,16.12,8.26,23.85-16.6C538.77,281.88,512.32,321.62,507.18,323.34z"/>
	<path class="st499" d="M510.57,327.91c0,0-30-16.43-12.58-69.9C515.4,204.54,519.49,311.73,510.57,327.91z"/>
	<path class="st499" d="M505.49,318.76c0,0,17.17-57.84,22.12-41.72s-10.45,40.07-16.76,45.03
		C504.54,327.04,505.49,318.76,505.49,318.76z"/>
	<circle class="st527" cx="544.54" cy="348.88" r="10.32"/>
	<circle class="st507" cx="614.44" cy="104.69" r="35.35"/>
	<path class="st528" d="M630.3,94.26L630.3,94.26c1.17,1.17,1.17,3.06,0,4.22l-13.75,13.75c-1.17,1.17-3.06,1.17-4.22,0l0,0
		c-1.17-1.17-1.17-3.06,0-4.22l13.75-13.75C627.24,93.1,629.13,93.1,630.3,94.26z"/>
	<path class="st527" d="M508.66,375.89h-0.49c-9.66,0-17.49-7.83-17.49-17.49v-41.27h35.47v41.27
		C526.15,368.06,518.32,375.89,508.66,375.89z"/>
	<path class="st499" d="M554.06,375.52h-0.49c-9.66,0-17.49-7.83-17.49-17.49v-3.11h35.47v3.11
		C571.55,367.69,563.72,375.52,554.06,375.52z"/>
	<path class="st526" d="M611.07,560.17H477c-5.52,0-10-4.48-10-10V381.44c0-5.52,4.48-10,10-10h134.07c5.52,0,10,4.48,10,10v168.73
		C621.07,555.69,616.59,560.17,611.07,560.17z"/>
	<path class="st507" d="M593.86,430.1H493.29c-5.52,0-10-4.48-10-10v-17.73c0-5.52,4.48-10,10-10h100.56c5.52,0,10,4.48,10,10v17.73
		C603.86,425.62,599.38,430.1,593.86,430.1z"/>
	<path class="st507" d="M595.18,487.59H494.62c-5.52,0-10-4.48-10-10v-17.73c0-5.52,4.48-10,10-10h100.56c5.52,0,10,4.48,10,10
		v17.73C605.18,483.11,600.71,487.59,595.18,487.59z"/>
	<path class="st507" d="M594.31,545.12H493.75c-5.52,0-10-4.48-10-10v-17.73c0-5.52,4.48-10,10-10h100.56c5.52,0,10,4.48,10,10
		v17.73C604.31,540.64,599.84,545.12,594.31,545.12z"/>
	<circle class="st526" cx="543.09" cy="412.72" r="6.9"/>
	<circle class="st526" cx="543.58" cy="470.85" r="6.9"/>
	<circle class="st526" cx="543.58" cy="527.61" r="6.9"/>
	
		<rect x="721.89" y="235.68" transform="matrix(-0.6493 0.7605 -0.7605 -0.6493 1400.0859 -124.0532)" class="st531" width="13.52" height="50.19"/>
	<path class="st484" d="M713.57,285.66l-10.35,2.84c-1.44,0.4-2.93-0.45-3.32-1.89l-0.02-0.07c-0.4-1.44,0.45-2.93,1.89-3.32
		l10.35-2.84c1.44-0.4,2.93,0.45,3.32,1.89l0.02,0.07C715.86,283.78,715.01,285.26,713.57,285.66z"/>
	
		<rect x="838.79" y="274.92" transform="matrix(-0.6116 0.7912 -0.7912 -0.6116 1596.7544 -189.2302)" class="st531" width="12.07" height="44.8"/>
	
		<rect x="830.6" y="278.95" transform="matrix(-0.6116 0.7912 -0.7912 -0.6116 1578.5388 -192.9555)" class="st514" width="12.07" height="24.08"/>
	<circle class="st531" cx="864.47" cy="312.51" r="6.65"/>
	
		<rect x="765.48" y="254.43" transform="matrix(0.123 -0.9924 0.9924 0.123 399.8499 1011.5229)" class="st485" width="13.52" height="50.19"/>
	
		<rect x="778.27" y="268.23" transform="matrix(0.123 -0.9924 0.9924 0.123 409.4897 1025.6006)" class="st169" width="13.52" height="25.77"/>
	<circle class="st531" cx="746.26" cy="276.08" r="6.78"/>
	<polygon class="st532" points="840.88,455.15 817.02,455.15 817.02,367.32 840.14,367.19 	"/>
	<rect x="786.49" y="367.32" class="st532" width="23.86" height="88.27"/>
	<circle class="st532" cx="828.95" cy="455.12" r="11.93"/>
	<polygon class="st531" points="828.95,553.19 816.81,553.19 817.02,455.15 840.88,455.15 	"/>
	<polygon class="st485" points="810.14,553.19 798.42,553.19 786.49,455.58 810.35,455.58 	"/>
	<circle class="st531" cx="798.42" cy="455.58" r="11.93"/>
	<path class="st517" d="M789.11,558.54c0.01-5.49,5.58-9.93,12.43-9.92s12.4,4.47,12.39,9.96L789.11,558.54"/>
	<polyline class="st486" points="789.1,560.13 813.92,560.17 813.93,557.91 789.11,557.87 	"/>
	<path class="st517" d="M813.93,558.54c0.01-5.49,5.58-9.93,12.43-9.92s12.4,4.47,12.39,9.96L813.93,558.54"/>
	<polyline class="st486" points="813.93,560.13 838.75,560.17 838.75,557.91 813.93,557.87 	"/>
	<circle class="st169" cx="797.9" cy="282.11" r="8.42"/>
	<path class="st514" d="M857.49,437.03l-22.74-92.38c-1.24-3.52-3.73-6.33-6.85-8.01c2.92-1.21,5.04-3.6,5.41-6.47l3.18-27.52
		c0.66-2.21,1.02-4.54,1.02-6.96c0-0.5-0.02-0.99-0.05-1.49c0.12-1.2-0.04-2.35-0.44-3.4c-2.27-11.17-12.19-19.57-24.08-19.57
		c-12.53,0-22.86,9.33-24.37,21.39c-0.02,0.11-0.03,0.21-0.04,0.32c-0.1,0.9-0.16,1.82-0.16,2.75c0,2.67,0.44,5.25,1.23,7.66
		l3.21,26.93c0.43,2.94,2.68,5.34,5.74,6.49c-3.08,1.72-5.52,4.56-6.7,8.1l-21.54,92.38c-3.17,9.48,3.79,19.32,13.67,19.32h59.93
		C853.88,456.57,860.85,446.55,857.49,437.03z"/>
	<polygon class="st533" points="832.77,340.88 793.54,340.88 793.54,332.53 832.7,332.73 	"/>
	<g>
		<path class="st532" d="M813.09,285.41c6.3,0,11.69-4.37,13.3-10.16c-3.85-2.51-8.58-4.05-13.6-4.03
			c-4.8,0.02-8.87,1.16-13.08,3.73C801.2,280.92,806.66,285.41,813.09,285.41z"/>
	</g>
	<g>
		<path class="st531" d="M813.09,285.36c6.3,0,11.69-4.37,13.3-10.16c-3.84-2.52-8.58-4.03-13.6-4.03c-4.79,0-8.98,1.19-13.08,3.73
			C801.2,280.86,806.66,285.36,813.09,285.36z"/>
	</g>
	<path class="st531" d="M696.47,244.48c0.03-6.4,5.29-11.57,11.74-11.54c6.45,0.03,11.66,5.25,11.63,11.65L696.47,244.48z"/>
	<path class="st533" d="M812.38,285.39c-10.49-0.73-12.68-10.44-12.68-10.44s-5.77,5.98-0.25,11.5S812.38,285.39,812.38,285.39z"/>
	<path class="st533" d="M813.7,285.41c10.49-0.77,12.68-10.16,12.68-10.16s5.77,5.96,0.25,11.48S813.7,285.41,813.7,285.41z"/>
	<circle class="st533" cx="813.04" cy="291.03" r="1.82"/>
	<circle class="st533" cx="813.04" cy="300.85" r="1.82"/>
	<linearGradient id="SVGID_2_" gradientUnits="userSpaceOnUse" x1="285.3259" y1="650.463" x2="285.3259" y2="12.8018">
		<stop  offset="0" style="stop-color:#FFE8BE"/>
		<stop  offset="1" style="stop-color:#EC6C4C"/>
	</linearGradient>
	<rect x="227.58" y="469.31" class="st3" width="115.5" height="90.75"/>
	<g>
		<path class="st485" d="M272.64,543.05h-35.53c-0.76,0-1.38-0.62-1.38-1.38s0.62-1.38,1.38-1.38h35.53c0.76,0,1.38,0.62,1.38,1.38
			S273.4,543.05,272.64,543.05z"/>
	</g>
	<g>
		<path class="st485" d="M257.47,551.13h-20.36c-0.76,0-1.38-0.62-1.38-1.38s0.62-1.38,1.38-1.38h20.36c0.76,0,1.38,0.62,1.38,1.38
			S258.23,551.13,257.47,551.13z"/>
	</g>
	
		<rect x="256.67" y="415.24" transform="matrix(0.8411 0.5408 -0.5408 0.8411 280.8535 -71.3222)" class="st531" width="10.34" height="54.36"/>
	
		<rect x="320.17" y="402.22" transform="matrix(0.3281 -0.9446 0.9446 0.3281 -187.0323 595.8431)" class="st531" width="10.34" height="54.36"/>
	<path class="st531" d="M268.99,426.65c0-9.99,8.1-18.09,18.09-18.09c9.99,0,18.09,8.1,18.09,18.09"/>
	<path class="st531" d="M351.92,436.75c-0.02-5.31,4.31-9.63,9.66-9.65s9.7,4.28,9.72,9.59L351.92,436.75z"/>
	<path class="st531" d="M231.98,469.3c0-5.37,4.39-9.71,9.8-9.71c5.41,0,9.79,4.36,9.78,9.72L231.98,469.3z"/>
	<path class="st491" d="M279.94,430.94h-8.85l-0.08-12.61c0,0,2.84-5.95,8.94-8.31C279.94,410.28,279.94,430.94,279.94,430.94z"/>
	<path class="st491" d="M302.82,430.94h-8.65c0,0,0-20.93,0-21.03c5.4,1.9,8.65,6.19,8.65,6.19
		C302.82,417.26,302.82,430.94,302.82,430.94z"/>
	<path class="st491" d="M297.8,423.72h-21.55c-2.54,0-4.71,1.3-5.14,3.08l-6.82,38.31c-0.54,2.26-0.44,4.32,2.79,4.32h40
		c3.23,0,3.3-2.07,2.76-4.33l-6.9-38.31C302.51,425.02,300.34,423.72,297.8,423.72z"/>
	<polygon class="st531" points="283.98,469.13 269.25,469.1 271.84,506.46 283.98,506.46 	"/>
	<circle class="st531" cx="276.62" cy="469.31" r="7.37"/>
	<polygon class="st531" points="306.19,469.43 291.37,469.43 291.42,507.86 302.94,507.86 	"/>
	<path class="st514" d="M311.05,506.32c-0.01-4.34-4.41-7.85-9.83-7.84c-5.42,0.01-9.8,3.54-9.79,7.88L311.05,506.32"/>
	<polyline class="st169" points="311.05,508.11 291.42,508.14 291.42,506.36 311.05,506.32 	"/>
	<path class="st514" d="M283.98,506.33c-0.01-4.34-4.41-7.85-9.83-7.84c-5.42,0.01-9.8,3.54-9.79,7.88L283.98,506.33"/>
	<polyline class="st169" points="283.98,508.11 264.36,508.15 264.35,506.36 283.98,506.33 	"/>
	<circle class="st531" cx="298.78" cy="469.43" r="7.41"/>
	<linearGradient id="SVGID_3_" gradientUnits="userSpaceOnUse" x1="384.1942" y1="606.0186" x2="384.1942" y2="275.6949">
		<stop  offset="0" style="stop-color:#FFE8BE"/>
		<stop  offset="1" style="stop-color:#EC6C4C"/>
	</linearGradient>
	<rect x="343.07" y="494" class="st5" width="82.24" height="66.17"/>
	<rect x="349.16" y="501.12" class="st485" width="11.9" height="11.9"/>
	<g>
		<path class="st485" d="M374.96,546.48h-26.49c-0.57,0-1.03-0.46-1.03-1.03s0.46-1.03,1.03-1.03h26.49c0.57,0,1.03,0.46,1.03,1.03
			S375.53,546.48,374.96,546.48z"/>
	</g>
	<g>
		<path class="st485" d="M363.66,552.13h-15.18c-0.57,0-1.03-0.46-1.03-1.03s0.46-1.03,1.03-1.03h15.18c0.57,0,1.03,0.46,1.03,1.03
			S364.22,552.13,363.66,552.13z"/>
	</g>
	<rect x="235.37" y="476.84" class="st485" width="16.19" height="16.19"/>
	<linearGradient id="SVGID_4_" gradientUnits="userSpaceOnUse" x1="871.4445" y1="289.4615" x2="775.4595" y2="416.991">
		<stop  offset="0" style="stop-color:#FFE8BE"/>
		<stop  offset="1" style="stop-color:#EC6C4C"/>
	</linearGradient>
	<polygon class="st6" points="849.66,366.55 803.36,330.21 832.11,293.58 878.41,329.93 	"/>
	<g>
		<path class="st485" d="M847.06,313.87l-14.91-11.7c-0.32-0.25-0.38-0.71-0.12-1.03c0.25-0.32,0.71-0.38,1.03-0.12l14.91,11.7
			c0.32,0.25,0.38,0.71,0.12,1.03C847.84,314.07,847.38,314.12,847.06,313.87z"/>
	</g>
	<g>
		<path class="st485" d="M838.64,311.49l-8.55-6.71c-0.32-0.25-0.38-0.71-0.12-1.03c0.25-0.32,0.71-0.38,1.03-0.12l8.55,6.71
			c0.32,0.25,0.38,0.71,0.12,1.03S838.96,311.74,838.64,311.49z"/>
	</g>
	
		<rect x="844.9" y="307.98" transform="matrix(0.7864 0.6177 -0.6177 0.7864 385.9442 -454.9765)" class="st531" width="12.07" height="45.32"/>
	<path class="st489" d="M713.32,397.01h-59.28c-3.01,0-5.44-2.44-5.44-5.44v-31.6c0-3.01,2.44-5.44,5.44-5.44h59.28
		c3.01,0,5.44,2.44,5.44,5.44v31.6C718.76,394.57,716.33,397.01,713.32,397.01z"/>
	
		<rect x="630.48" y="260.24" transform="matrix(-0.9727 -0.2319 0.2319 -0.9727 1195.1366 725.1436)" class="st485" width="19.41" height="64.18"/>
	<circle class="st485" cx="632.59" cy="323.6" r="9.97"/>
	
		<rect x="604.08" y="316.25" transform="matrix(-0.7272 -0.6865 0.6865 -0.7272 823.9974 1015.4921)" class="st485" width="19.44" height="55.48"/>
	<path class="st486" d="M646.12,304.92l-17.12-4.08c-0.61-0.15-0.99-0.76-0.85-1.38l10.44-43.82c0.4-1.68,2.08-2.71,3.76-2.31
		l15.19,3.62c1.68,0.4,2.71,2.08,2.31,3.76l-9.99,41.89C649.49,304.28,647.8,305.32,646.12,304.92z"/>
	<path class="st531" d="M820.88,351.68c0.19-5.71,5-10.19,10.76-10c5.76,0.19,10.27,4.97,10.09,10.68L820.88,351.68z"/>
	<path class="st487" d="M699.66,346.13h-32.07c-8.33,0-15.31-6.2-16.17-14.36l-13.07-69.62c-1-9.46,6.52-17.69,16.17-17.69h58.36
		c9.63,0,17.15,8.21,16.18,17.65l-13.22,69.62C714.99,339.9,708,346.13,699.66,346.13z"/>
	<rect x="648.59" y="315.98" class="st487" width="70.17" height="46.53"/>
	<rect x="648.59" y="362.51" class="st522" width="70.17" height="6.54"/>
	<rect x="676.28" y="362.51" class="st494" width="14.84" height="6.54"/>
	<rect x="701.97" y="362.51" class="st489" width="3.52" height="7.63"/>
	<rect x="660.88" y="362.51" class="st489" width="3.52" height="8.02"/>
	<circle class="st531" cx="750.63" cy="319.16" r="12.3"/>
	
		<rect x="727.51" y="256.56" transform="matrix(0.8703 -0.4925 0.4925 0.8703 -47.5834 400.7513)" class="st531" width="19.22" height="68.32"/>
	<path class="st487" d="M747.55,292.34l-14.34,8.36c-1.46,0.82-3.3,0.31-4.13-1.14l-21.3-37.64c-0.82-1.46-0.31-3.3,1.14-4.13
		l13.17-7.45c1.46-0.82,3.3-0.31,4.13,1.14l22.47,36.74C749.52,289.66,749,291.51,747.55,292.34z"/>
	<path class="st485" d="M571.92,371.4c0.01-8.21,6.72-14.86,15-14.85s14.97,6.67,14.96,14.88L571.92,371.4z"/>
	<path class="st489" d="M675.64,467.75h-23.66c-1.81,0-3.28-1.47-3.28-3.28v-92.13c0-1.81,1.47-3.28,3.28-3.28h23.66
		c1.81,0,3.28,1.47,3.28,3.28v92.13C678.92,466.28,677.45,467.75,675.64,467.75z"/>
	<path class="st489" d="M715.37,558.8h-23.66c-1.81,0-3.28-1.47-3.28-3.28v-92.45c0-1.81,1.47-3.28,3.28-3.28h23.66
		c1.81,0,3.28,1.47,3.28,3.28v92.45C718.65,557.33,717.18,558.8,715.37,558.8z"/>
	<path class="st489" d="M715.37,467.75h-23.66c-1.81,0-3.28-1.47-3.28-3.28v-92.13c0-1.81,1.47-3.28,3.28-3.28h23.66
		c1.81,0,3.28,1.47,3.28,3.28v92.13C718.65,466.28,717.18,467.75,715.37,467.75z"/>
	<path class="st486" d="M707.01,273.97h-10.73c-1.49,0-2.7-1.21-2.7-2.7v-0.08c0-1.49,1.21-2.7,2.7-2.7h10.73
		c1.49,0,2.7,1.21,2.7,2.7v0.08C709.71,272.76,708.5,273.97,707.01,273.97z"/>
	<path class="st482" d="M703.54,376.15h15.27c0,11.54,0,20.89,0,20.89C710.38,397.04,703.54,387.69,703.54,376.15z"/>
	<path class="st482" d="M675.64,557.8h-23.66c-1.81,0-3.28-1.47-3.28-3.28v-91.45c0-1.81,1.47-3.28,3.28-3.28h23.66
		c1.81,0,3.28,1.47,3.28,3.28v91.45C678.92,556.33,677.45,557.8,675.64,557.8z"/>
	<circle class="st489" cx="663.81" cy="462.63" r="15.11"/>
	<circle class="st489" cx="703.54" cy="462.24" r="15.11"/>
	<path class="st522" d="M686.32,556.88c0.02-7.95,7.27-14.37,16.2-14.36c8.93,0.02,16.15,6.47,16.14,14.42L686.32,556.88"/>
	<polyline class="st482" points="686.3,560.11 718.64,560.17 718.64,556.9 686.31,556.84 	"/>
	<path class="st522" d="M644.85,556.71c0.02-8.37,7.66-15.15,17.07-15.13c9.41,0.02,17.02,6.82,17,15.19L644.85,556.71"/>
	<path class="st482" d="M663.96,376.15H648.7c0,11.54,0,20.89,0,20.89C657.13,397.04,663.96,387.69,663.96,376.15z"/>
	
		<rect x="716.63" y="300.78" transform="matrix(-0.3192 -0.9477 0.9477 -0.3192 645.2564 1123.6711)" class="st531" width="19.22" height="58.58"/>
	<polyline class="st482" points="644.85,560.1 678.91,560.17 678.92,556.73 644.85,556.66 	"/>
	<path class="st489" d="M380.02,451.64v-19.27c0-2.06-2.49-3.09-3.94-1.63l-7.43,7.43c-0.86,0.86-0.91,2.23-0.11,3.14l7.43,11.84
		C377.37,454.77,380.02,453.78,380.02,451.64z"/>
	<path class="st489" d="M343.06,451.64v-19.27c0-2.06,2.49-3.09,3.94-1.63l7.43,7.43c0.86,0.86,0.91,2.23,0.11,3.14l-7.43,11.84
		C345.71,454.77,343.06,453.78,343.06,451.64z"/>
	<g>
		<path class="st482" d="M356.93,493.99h30.76c7.66,0,13.87-6.21,13.87-13.87v-9.22c0-7.66-6.21-13.87-13.87-13.87h-30.76
			c-7.66,0-13.87,6.21-13.87,13.87v9.22C343.06,487.78,349.27,493.99,356.93,493.99z"/>
	</g>
	<path class="st494" d="M377.61,457.1v-19.27c0-2.06-2.49-3.09-3.94-1.63l-7.43,7.43c-0.86,0.86-0.91,2.23-0.11,3.14l7.43,11.84
		C374.96,460.23,377.61,459.24,377.61,457.1z"/>
	<g>
		<path class="st482" d="M385.5,493.99c6.68,0,17.76-1.22,25.89-8.29c6.55-5.69,9.87-13.9,9.87-24.39c0-2.43-1.97-4.41-4.41-4.41
			s-4.41,1.97-4.41,4.41c0,7.82-2.29,13.78-6.81,17.72c-9.09,7.93-24.56,5.92-24.72,5.9c-2.41-0.33-4.63,1.35-4.96,3.76
			c-0.33,2.41,1.34,4.63,3.74,4.97C379.97,493.69,382.2,493.99,385.5,493.99z"/>
	</g>
	<path class="st494" d="M345.42,457.26v-19.27c0-2.06,2.49-3.09,3.94-1.63l7.43,7.43c0.86,0.86,0.91,2.23,0.11,3.14l-7.43,11.84
		C348.08,460.39,345.42,459.4,345.42,457.26z"/>
	<linearGradient id="SVGID_5_" gradientUnits="userSpaceOnUse" x1="361.5377" y1="512.5024" x2="361.5377" y2="463.4268">
		<stop  offset="0" style="stop-color:#3D94B5"/>
		<stop  offset="1" style="stop-color:#5FA1BE"/>
	</linearGradient>
	<path class="st7" d="M343.06,449.55v30.72c0,7.66,6.21,13.87,13.87,13.87h9.22c7.66,0,13.87-6.21,13.87-13.87v-30.72
		c0-7.66-6.21-13.87-13.87-13.87h-9.22C349.27,435.68,343.06,441.89,343.06,449.55z"/>
	<path class="st489" d="M343.07,469.31c0-4.78-3.87-8.65-8.65-8.65c-4.78,0-8.65,3.87-8.65,8.65H343.07z"/>
	<path class="st489" d="M378.83,493.99c0-4.78-3.87-8.65-8.65-8.65c-4.78,0-8.65,3.87-8.65,8.65H378.83z"/>
	<g>
		<path class="st522" d="M358.22,459.98c-0.69,0-1.35-0.15-1.96-0.44c-1.57-0.75-2.58-2.36-2.58-4.1c0-0.55,0.45-1,1-1s1,0.45,1,1
			c0,0.97,0.57,1.88,1.45,2.3c0.34,0.16,0.71,0.25,1.1,0.25c1.4,0,2.54-1.14,2.54-2.54c0-0.55,0.45-1,1-1s1,0.45,1,1
			C362.77,457.94,360.73,459.98,358.22,459.98z"/>
	</g>
	<g>
		<path class="st522" d="M365.18,459.65c-2.51,0-4.54-2.04-4.54-4.54c0-0.55,0.45-1,1-1s1,0.45,1,1c0,1.4,1.14,2.54,2.54,2.54
			c0.38,0,0.75-0.08,1.1-0.25c0.88-0.42,1.45-1.32,1.45-2.3c0-0.55,0.45-1,1-1s1,0.45,1,1c0,1.74-1.01,3.35-2.58,4.1
			C366.52,459.5,365.86,459.65,365.18,459.65z"/>
	</g>
	<path class="st522" d="M364.72,453.41l-1.92,1.92c-0.61,0.61-1.59,0.61-2.19,0l-1.92-1.92c-0.98-0.98-0.28-2.65,1.1-2.65h3.85
		C365.01,450.77,365.7,452.43,364.72,453.41z"/>
	<path class="st482" d="M358.56,442.68h-0.06c-1.13,0-2.04-0.91-2.04-2.04v-4.22c0-0.41,0.33-0.74,0.74-0.74h3.39v4.96
		C360.6,441.77,359.69,442.68,358.56,442.68z"/>
	<path class="st482" d="M364.98,442.68h-0.06c-1.13,0-2.04-0.91-2.04-2.04v-4.96h3.4c0.4,0,0.73,0.33,0.73,0.73v4.23
		C367.02,441.77,366.11,442.68,364.98,442.68z"/>
	<path class="st533" d="M298.26,440.2c0,5.95-4.83,10.78-10.78,10.78s-10.78-4.83-10.78-10.78"/>
	<path class="st539" d="M299.33,439.67c0,6.54-5.3,11.85-11.85,11.85s-11.85-5.3-11.85-11.85"/>
	<g>
		<path class="st522" d="M353.91,449.19c-0.08,0-0.17-0.01-0.25-0.03c-0.53-0.14-0.85-0.69-0.71-1.22c0.57-2.17,2.8-3.47,4.98-2.91
			c0.53,0.14,0.85,0.69,0.71,1.22s-0.69,0.85-1.22,0.71c-1.11-0.3-2.25,0.37-2.54,1.48C354.76,448.89,354.35,449.19,353.91,449.19z"
			/>
	</g>
	<g>
		<path class="st522" d="M369.28,449.22c-0.45,0-0.86-0.31-0.97-0.76c-0.13-0.54-0.46-0.99-0.94-1.28
			c-0.47-0.29-1.03-0.38-1.57-0.24c-0.54,0.13-1.08-0.2-1.21-0.73c-0.13-0.54,0.2-1.08,0.73-1.21c1.06-0.26,2.15-0.09,3.08,0.48
			c0.93,0.57,1.59,1.46,1.84,2.52c0.13,0.54-0.2,1.08-0.73,1.21C369.44,449.21,369.36,449.22,369.28,449.22z"/>
	</g>
	<circle class="st531" cx="695.78" cy="334.62" r="14.98"/>
	<path class="st531" d="M698.27,338.83c7.15-1.98,11.34-9.37,9.37-16.52c-1.98-7.15-9.37-11.34-16.52-9.37"/>
	<path class="st528" d="M592.07,87.92L592.07,87.92c1.12-1.12,2.93-1.12,4.05,0l20.35,20.35c1.12,1.12,1.12,2.93,0,4.05l0,0
		c-1.12,1.12-2.93,1.12-4.05,0l-20.35-20.35C590.95,90.85,590.95,89.04,592.07,87.92z"/>
	<path class="st542" d="M287.06,417.09L287.06,417.09c-3.17,0-5.74-2.57-5.74-5.74V398.9c0-3.17,2.57-5.74,5.74-5.74l0,0
		c3.17,0,5.74,2.57,5.74,5.74v12.44C292.81,414.52,290.23,417.09,287.06,417.09z"/>
	
		<linearGradient id="SVGID_6_" gradientUnits="userSpaceOnUse" x1="-245.1998" y1="2509.4709" x2="-211.4024" y2="2509.4709" gradientTransform="matrix(-0.6011 -0.5375 -0.5557 0.6215 1514.8683 -1324.5505)">
		<stop  offset="0" style="stop-color:#1B617D"/>
		<stop  offset="1" style="stop-color:#6294B3"/>
	</linearGradient>
	<path class="st8" d="M245.86,364.87L245.86,364.87c9.2,8.22,23.32,7.44,31.55-1.76l2.54-2.84l-2.46-2.2
		c-7.84-7.01-19.87-6.34-26.88,1.5L245.86,364.87z"/>
	<g>
		<path class="st545" d="M284.23,371.86c3.74,6.74,10.17,11.94,18.27,13.84c2.18,0.51,4.35,0.72,6.49,0.72l-2.77,7.48
			c-3.39,9.16-13.07,14.37-22.59,12.14c-9.4-2.2-15.75-10.98-14.89-20.6l0.99-11.12c0.14,0.04,0.28,0.09,0.42,0.12
			C275.2,375.62,280.24,374.53,284.23,371.86z"/>
		<path class="st545" d="M284.23,371.86c3.64-2.44,6.41-6.2,7.49-10.81c0.54-2.33,0.6-4.66,0.25-6.88c0.57,0.08,1.15,0.19,1.72,0.32
			l3.57,0.83c11.36,2.65,17.81,14.66,13.76,25.6l-2.03,5.49c-2.14,0-4.31-0.21-6.49-0.72C294.4,383.8,287.96,378.59,284.23,371.86z"
			/>
		<path class="st545" d="M280.72,355.99c-0.43,5.65,0.88,11.13,3.5,15.86c-3.99,2.68-9.03,3.77-14.08,2.59
			c-0.14-0.03-0.28-0.08-0.42-0.12l0.24-2.69C270.6,364.58,274.91,358.87,280.72,355.99z"/>
		
			<linearGradient id="SVGID_7_" gradientUnits="userSpaceOnUse" x1="144.245" y1="980.9869" x2="180.15" y2="980.9869" gradientTransform="matrix(-0.9737 -0.2276 -0.2276 0.9737 653.7012 -553.7908)">
			<stop  offset="0" style="stop-color:#1B617D"/>
			<stop  offset="1" style="stop-color:#6294B3"/>
		</linearGradient>
		<path class="st9" d="M280.72,355.99c-0.43,5.65,0.88,11.13,3.5,15.86c-3.99,2.68-9.03,3.77-14.08,2.59
			c-0.14-0.03-0.28-0.08-0.42-0.12l0.24-2.69C270.6,364.58,274.91,358.87,280.72,355.99z"/>
		<path class="st545" d="M284.23,371.86c-2.62-4.73-3.93-10.21-3.5-15.86c3.38-1.67,7.26-2.39,11.24-1.83
			c0.35,2.23,0.3,4.55-0.25,6.88C290.64,365.66,287.87,369.41,284.23,371.86z"/>
		
			<linearGradient id="SVGID_8_" gradientUnits="userSpaceOnUse" x1="99.8057" y1="975.9556" x2="156.4715" y2="975.9556" gradientTransform="matrix(-0.9737 -0.2276 -0.2276 0.9737 653.7012 -553.7908)">
			<stop  offset="0" style="stop-color:#1B617D"/>
			<stop  offset="1" style="stop-color:#6294B3"/>
		</linearGradient>
		<path class="st10" d="M284.23,371.86c-2.62-4.73-3.93-10.21-3.5-15.86c3.38-1.67,7.26-2.39,11.24-1.83
			c0.35,2.23,0.3,4.55-0.25,6.88C290.64,365.66,287.87,369.41,284.23,371.86z"/>
		
			<linearGradient id="SVGID_9_" gradientUnits="userSpaceOnUse" x1="125.5338" y1="991.5791" x2="147.1198" y2="968.951" gradientTransform="matrix(-0.9737 -0.2276 -0.2276 0.9737 653.7012 -553.7908)">
			<stop  offset="0" style="stop-color:#1B617D"/>
			<stop  offset="1" style="stop-color:#6294B3"/>
		</linearGradient>
		<path class="st15" d="M291.96,354.17c0.57,0.08,1.15,0.19,1.72,0.32l3.57,0.83c11.36,2.65,17.81,14.66,13.76,25.6l-2.03,5.49
			c-2.14,0-4.31-0.21-6.49-0.72c-8.1-1.89-14.53-7.1-18.27-13.84c-2.62-4.73-3.93-10.21-3.5-15.86
			C284.1,354.33,287.98,353.61,291.96,354.17z"/>
	</g>
	
		<linearGradient id="SVGID_10_" gradientUnits="userSpaceOnUse" x1="-5707.9927" y1="-833.3909" x2="-5674.1953" y2="-833.3909" gradientTransform="matrix(0.7378 -0.3255 0.3365 0.7628 4807.1123 -843.6898)">
		<stop  offset="0" style="stop-color:#1B617D"/>
		<stop  offset="1" style="stop-color:#6294B3"/>
	</linearGradient>
	<path class="st16" d="M336.88,383.21L336.88,383.21c-11.29,4.98-24.48-0.13-29.46-11.42l-1.54-3.49l3.02-1.33
		c9.62-4.24,20.86,0.11,25.1,9.73L336.88,383.21z"/>
	<circle class="st545" cx="307.91" cy="389.81" r="5.97"/>
	<circle class="st542" cx="306.76" cy="390.18" r="2.62"/>
	<path class="st517" d="M308.92,370.87l2.2-3.8c0.62-1.07,0.25-2.43-0.82-3.04l0,0c-1.07-0.62-2.43-0.25-3.04,0.82l-2.2,3.8
		c-0.62,1.07-0.25,2.43,0.82,3.04v0C306.94,372.3,308.3,371.94,308.92,370.87z"/>
	
		<linearGradient id="SVGID_11_" gradientUnits="userSpaceOnUse" x1="275.0506" y1="395.774" x2="265.2736" y2="385.9969" gradientTransform="matrix(-1 0 0 1 568.6064 0)">
		<stop  offset="0.0848" style="stop-color:#FBD3B5"/>
		<stop  offset="1" style="stop-color:#F6B092"/>
		<stop  offset="1" style="stop-color:#000000"/>
	</linearGradient>
	<circle class="st21" cx="296.67" cy="392.66" r="5.1"/>
	
		<linearGradient id="SVGID_12_" gradientUnits="userSpaceOnUse" x1="-634.1823" y1="-1299.5793" x2="-643.7866" y2="-1309.1836" gradientTransform="matrix(-0.6666 0.7454 0.7454 0.6666 818.3801 1731.5028)">
		<stop  offset="0.0848" style="stop-color:#FBD3B5"/>
		<stop  offset="1" style="stop-color:#F6B092"/>
		<stop  offset="1" style="stop-color:#000000"/>
	</linearGradient>
	<circle class="st35" cx="272.15" cy="388.15" r="5.01"/>
	<g>
		<path class="st521" d="M285.04,399.86c4.9,0.48,8.35-2.38,8.89-2.87c0.48-0.42,0.57-0.84,0.29-1.24c-0.24-0.33-0.7-0.43-1.06-0.23
			c-0.09,0.05-0.16,0.12-0.22,0.19c-0.45,0.43-7.07,6.35-15.43-1.32c-0.33-0.3-0.84-0.28-1.14,0.05c-0.3,0.33-0.28,0.84,0.05,1.14
			C279.55,398.45,282.49,399.61,285.04,399.86z"/>
	</g>
	<path class="st552" d="M281.05,379.34c0.37,0.2,0.78-0.18,0.58-0.55c-0.72-1.37-2.13-2.88-4.58-1.16
		C273.68,380,278.23,377.85,281.05,379.34z"/>
	<path class="st552" d="M290.11,381.24c-0.42,0.04-0.65-0.46-0.33-0.73c1.18-1,3.05-1.87,4.68,0.64
		C296.7,384.61,293.29,380.91,290.11,381.24z"/>
	<path class="st522" d="M279.5,383.78c0.4,0.23,0.85-0.24,0.59-0.62c-1.05-1.53-2.64-3.2-3.96-1.79
		C274.31,383.33,276.55,382.1,279.5,383.78z"/>
	<path class="st522" d="M289.51,385.59c-0.46-0.01-0.61-0.64-0.18-0.84c1.69-0.78,3.91-1.39,4.31,0.5
		C294.2,387.87,292.9,385.65,289.51,385.59z"/>
	<path class="st522" d="M275.15,382.48l1.7,0.36c0.31,0.06,0.61-0.13,0.67-0.44l0,0c0.06-0.31-0.13-0.61-0.44-0.67l-1.7-0.36
		c-0.31-0.06-0.61,0.13-0.67,0.44l0,0C274.65,382.12,274.85,382.42,275.15,382.48z"/>
	<path class="st522" d="M292.24,386.14l1.64,0.57c0.3,0.1,0.62-0.05,0.72-0.35l0,0c0.1-0.3-0.05-0.62-0.35-0.72l-1.64-0.57
		c-0.3-0.1-0.62,0.05-0.72,0.35l0,0C291.79,385.71,291.95,386.04,292.24,386.14z"/>
	<path class="st485" d="M282.34,389.27c-1.15-0.24-1.5-1.7-0.53-2.3c0.68-0.42,1.52-0.59,2.38-0.41c0.82,0.17,1.51,0.63,1.96,1.24
		c0.71,0.96-0.15,2.23-1.34,1.98L282.34,389.27z"/>
	<g>
		<path class="st521" d="M294.84,397.53c0.28,0.05,0.54,0.08,0.77,0.08c0.45,0.01,0.81-0.35,0.82-0.8c0.01-0.44-0.35-0.81-0.79-0.82
			c-0.22,0-2.17-0.1-2.3-1.82c-0.04-0.44-0.43-0.77-0.87-0.74c-0.44,0.04-0.77,0.43-0.74,0.87
			C291.89,396.42,293.55,397.28,294.84,397.53z"/>
	</g>
	<linearGradient id="SVGID_13_" gradientUnits="userSpaceOnUse" x1="679.1911" y1="193.4396" x2="675.5286" y2="209.0797">
		<stop  offset="0" style="stop-color:#1B617D"/>
		<stop  offset="1" style="stop-color:#6294B3"/>
	</linearGradient>
	<path class="st36" d="M695.66,199.76c0.17,12.75-7.75,23.2-17.69,23.33c-9.95,0.14-18.15-10.09-18.32-22.84
		c-0.17-12.75,7.75-23.2,17.69-23.33C687.28,176.79,695.49,187.01,695.66,199.76z"/>
	
		<linearGradient id="SVGID_14_" gradientUnits="userSpaceOnUse" x1="659.9755" y1="-144.2958" x2="669.4632" y2="-112.9306" gradientTransform="matrix(0.9911 0.133 -0.133 0.9911 11.9055 233.5356)">
		<stop  offset="0" style="stop-color:#1B617D"/>
		<stop  offset="1" style="stop-color:#6294B3"/>
	</linearGradient>
	<path class="st37" d="M706.73,199.81c0.17,12.64-7.75,23-17.69,23.14c-9.95,0.14-18.15-10-18.32-22.64
		c-0.17-12.64,7.75-23,17.69-23.14S706.56,187.17,706.73,199.81z"/>
	<ellipse class="st545" cx="683.02" cy="255.22" rx="10.58" ry="8.83"/>
	<path class="st542" d="M682.4,256.4h0.61c5.28,0,9.56-4.28,9.56-9.56v-14.2c0-5.28-4.28-9.56-9.56-9.56h-0.61
		c-5.28,0-9.56,4.28-9.56,9.56v14.2C672.84,252.11,677.12,256.4,682.4,256.4z"/>
	<path class="st486" d="M683.73,278.79h-1.35c-1.44,0-2.6-0.65-2.6-1.44v-12.21c0-0.8-1.55-1.89-0.12-1.89h6.91
		c1.44,0-0.24,1.09-0.24,1.89v12.21C686.33,278.15,685.16,278.79,683.73,278.79z"/>
	<path class="st545" d="M688.23,239.11L677.07,239c-8.38,0.11-15.27-6.61-15.38-15.02l1.16-25.9c-0.12-8.41,6.58-15.32,14.96-15.43
		l7.16,0.22c8.38-0.11,15.27,6.61,15.38,15.02l1.33,25.62C701.8,231.92,696.61,239,688.23,239.11z"/>
	<circle class="st545" cx="702.88" cy="210.88" r="6.03"/>
	<circle class="st542" cx="702.48" cy="211.59" r="2.4"/>
	<circle class="st555" cx="682.91" cy="272.4" r="1.91"/>
	<path class="st486" d="M684.57,266.43c0,0,6.03-6.77,7.55-21.98C692.12,244.45,710.68,264.22,684.57,266.43z"/>
	<path class="st486" d="M672.93,244.41c3.16,15.01,10.03,21.14,10.03,21.14C656.09,266.07,672.93,244.41,672.93,244.41"/>
	
		<linearGradient id="SVGID_15_" gradientUnits="userSpaceOnUse" x1="471.8416" y1="-783.0803" x2="494.9622" y2="-759.9597" gradientTransform="matrix(0.9183 0.3958 -0.3958 0.9183 -68.2912 705.709)">
		<stop  offset="0" style="stop-color:#1B617D"/>
		<stop  offset="1" style="stop-color:#6294B3"/>
	</linearGradient>
	<path class="st39" d="M658.47,183.41l12.31-5.83c12.43-5.89,27.28-0.59,33.17,11.84l0,0c0.49,1.03,0.05,2.27-0.98,2.76l-12.31,5.83
		c-12.43,5.89-27.28,0.59-33.17-11.84l0,0C656.99,185.14,657.43,183.9,658.47,183.41z"/>
	
		<linearGradient id="SVGID_16_" gradientUnits="userSpaceOnUse" x1="130.0296" y1="-1366.4204" x2="148.92" y2="-1347.53" gradientTransform="matrix(0.7734 0.6339 -0.6339 0.7734 -281.3513 1145.3096)">
		<stop  offset="0" style="stop-color:#1B617D"/>
		<stop  offset="1" style="stop-color:#6294B3"/>
	</linearGradient>
	<path class="st40" d="M670.14,175.1l10.98-1.81c11.09-1.82,21.56,5.69,23.38,16.78v0c0.15,0.92-0.47,1.79-1.39,1.94l-10.98,1.81
		c-11.09,1.82-21.56-5.69-23.38-16.78v0C668.59,176.12,669.22,175.25,670.14,175.1z"/>
	<path class="st552" d="M683.85,206.82c-1.15,0.1-1.26-1.22-0.26-1.81c2.07-1.23,7.3-2.07,6.7,1.39
		C689.63,210.16,689,206.36,683.85,206.82z"/>
	<path class="st552" d="M673.44,206.31c1.19,0.06,1.25-1.31,0.2-1.88c-2.18-1.19-7.61-1.86-6.85,1.68
		C667.61,209.97,668.12,206.03,673.44,206.31z"/>
	<path class="st542" d="M676.04,213.92c-1.01,2.18-4.8,8.21,1.94,10.41C684.73,226.52,681.28,202.65,676.04,213.92z"/>
	<circle class="st522" cx="685.68" cy="210.88" r="1.83"/>
	<circle class="st522" cx="671.44" cy="210.88" r="1.83"/>
	<path class="st521" d="M673.16,229.61c5.18,2.06,14.04,3.06,18.21-7.85c0.17-0.45-0.44-0.96-0.67-0.54
		c-2.06,3.66-8.35,8.86-17.43,7.53C672.75,228.67,672.68,229.42,673.16,229.61z"/>
	<path class="st521" d="M689.72,219.65c-0.19-0.31-0.64-0.16-0.5,0.17c0.45,1.08,2.55,3.53,4.21,1.79
		C694.94,220.03,691.08,221.87,689.72,219.65z"/>
	<path class="st542" d="M683.75,232.84c0.93,0,1.52,0.99,1.1,1.82c-0.66,1.29-2.01,2.17-3.56,2.17c-1.55,0-2.9-0.88-3.56-2.17
		c-0.43-0.83,0.16-1.82,1.1-1.82H683.75z"/>
	<linearGradient id="SVGID_17_" gradientUnits="userSpaceOnUse" x1="807.6466" y1="249.478" x2="845.2383" y2="249.478">
		<stop  offset="0" style="stop-color:#1B617D"/>
		<stop  offset="1" style="stop-color:#6294B3"/>
	</linearGradient>
	<circle class="st42" cx="826.44" cy="249.48" r="18.8"/>
	<linearGradient id="SVGID_18_" gradientUnits="userSpaceOnUse" x1="826.0408" y1="258.9693" x2="782.4525" y2="242.7004">
		<stop  offset="0" style="stop-color:#1B617D"/>
		<stop  offset="1" style="stop-color:#6294B3"/>
	</linearGradient>
	<circle class="st43" cx="800.61" cy="249.48" r="18.8"/>
	<path class="st485" d="M813.2,279.35h-0.42c-2.32,0-4.3-1.66-5.1-4.01c-0.24-0.71-0.37-1.48-0.37-2.29v-13.3
		c0-3.48,2.45-6.31,5.47-6.31h0.42c3.02,0,5.47,2.82,5.47,6.31v13.3C818.67,276.53,816.22,279.35,813.2,279.35z"/>
	<linearGradient id="SVGID_19_" gradientUnits="userSpaceOnUse" x1="851.2587" y1="203.3845" x2="805.9053" y2="233.5434">
		<stop  offset="0" style="stop-color:#1B617D"/>
		<stop  offset="1" style="stop-color:#6294B3"/>
	</linearGradient>
	<circle class="st46" cx="826.21" cy="220.04" r="18.8"/>
	<linearGradient id="SVGID_20_" gradientUnits="userSpaceOnUse" x1="881.1031" y1="253.0351" x2="823.0876" y2="240.6032">
		<stop  offset="0" style="stop-color:#1B617D"/>
		<stop  offset="1" style="stop-color:#6294B3"/>
	</linearGradient>
	<circle class="st52" cx="837.11" cy="243.61" r="18.8"/>
	<linearGradient id="SVGID_21_" gradientUnits="userSpaceOnUse" x1="807.8656" y1="238.3943" x2="784.8436" y2="246.9891">
		<stop  offset="0" style="stop-color:#1B617D"/>
		<stop  offset="1" style="stop-color:#6294B3"/>
	</linearGradient>
	<circle class="st53" cx="793.9" cy="243.61" r="18.8"/>
	<linearGradient id="SVGID_22_" gradientUnits="userSpaceOnUse" x1="818.0688" y1="199.6838" x2="804.2556" y2="223.8569">
		<stop  offset="0" style="stop-color:#1B617D"/>
		<stop  offset="1" style="stop-color:#6294B3"/>
	</linearGradient>
	<circle class="st55" cx="803.7" cy="224.82" r="18.8"/>
	<circle class="st483" cx="830.77" cy="243.16" r="4.32"/>
	<circle class="st485" cx="830.77" cy="243.16" r="2.01"/>
	<circle class="st483" cx="796.88" cy="243.36" r="4.32"/>
	<circle class="st485" cx="796.88" cy="243.36" r="2.01"/>
	<circle class="st517" cx="832.64" cy="249.48" r="4.26"/>
	<circle class="st517" cx="794.29" cy="249.48" r="4.34"/>
	<path class="st483" d="M831.19,251.55c0-0.05,0.01-0.1,0.01-0.15v-14.37c0-0.55-0.06-1.08-0.17-1.59
		c-1.16-9.59-8.37-16.97-17.1-16.97c-9.54,0-17.27,8.82-17.27,19.7c0,1.67,0.18,3.3,0.53,4.85c-2.05,2.38-3.29,5.47-3.29,8.86v0
		c0,7.5,6.08,13.57,13.57,13.57h10.15c7.5,0,13.57-6.08,13.57-13.57v0C831.2,251.76,831.19,251.66,831.19,251.55z"/>
	
		<linearGradient id="SVGID_23_" gradientUnits="userSpaceOnUse" x1="664.7062" y1="732.6229" x2="641.3772" y2="746.4362" gradientTransform="matrix(1.0577 -0.1985 0.1927 0.9917 -5.7211 -385.0963)">
		<stop  offset="0" style="stop-color:#1B617D"/>
		<stop  offset="1" style="stop-color:#6294B3"/>
	</linearGradient>
	<path class="st56" d="M823.11,236.03c-2-5.76-7.76-9.77-14.23-9.9c-4.28-0.09-8.09,1.37-10.97,3.76
		c0.11-7.83,6.62-14.66,15.35-15.22c7.98-0.52,15.23,4.75,16.69,12.12c1.16,5.87-1.43,11.53-6.07,14.96
		C824,239.89,823.77,237.96,823.11,236.03z"/>
	<linearGradient id="SVGID_24_" gradientUnits="userSpaceOnUse" x1="826.215" y1="232.134" x2="826.215" y2="251.7711">
		<stop  offset="0" style="stop-color:#ED7061"/>
		<stop  offset="1" style="stop-color:#FACAA7"/>
	</linearGradient>
	<circle class="st57" cx="826.21" cy="249.74" r="3.98"/>
	<linearGradient id="SVGID_25_" gradientUnits="userSpaceOnUse" x1="792.1336" y1="227.4806" x2="800.7668" y2="251.74">
		<stop  offset="0" style="stop-color:#ED7061"/>
		<stop  offset="1" style="stop-color:#FACAA7"/>
	</linearGradient>
	<circle class="st58" cx="800.05" cy="249.74" r="3.98"/>
	<path class="st485" d="M810.15,252.96c1.8,0,2.59-2.28,1.17-3.39c-0.74-0.58-1.67-0.92-2.67-0.92s-1.94,0.35-2.67,0.93
		c-1.41,1.12-0.61,3.39,1.19,3.39L810.15,252.96z"/>
	<g>
		<path class="st493" d="M821.02,254.8c-0.41-1.77-2.01-2.65-4.1-0.61c-2.21,2.17-5.54,2.87-8.13,2.84
			c-0.52-0.01-1.01-0.04-1.46-0.1c-1.48-0.2-2.36,1.68-1.2,2.63c1.28,1.04,3.06,1.69,4.86,2
			C812.78,257.63,816.65,254.98,821.02,254.8z"/>
		<path class="st521" d="M816.72,261.28c3.67-1.33,4.76-4.48,4.3-6.48c-4.37,0.18-8.24,2.83-10.02,6.76
			C813.11,261.92,815.26,261.81,816.72,261.28z"/>
	</g>
	<path class="st522" d="M802.06,245.53L802.06,245.53c-1.03-0.08-1.8-0.98-1.71-2.01l0.12-1.51c0.08-1.03,0.98-1.8,2.01-1.71l0,0
		c1.03,0.08,1.8,0.98,1.71,2.01l-0.12,1.51C803.99,244.84,803.09,245.61,802.06,245.53z"/>
	<path class="st522" d="M815.57,246.6L815.57,246.6c-1.03-0.08-1.8-0.98-1.71-2.01l0.12-1.51c0.08-1.03,0.98-1.8,2.01-1.71l0,0
		c1.03,0.08,1.8,0.98,1.71,2.01l-0.12,1.51C817.5,245.92,816.6,246.68,815.57,246.6z"/>
	<g>
		<path class="st489" d="M805.08,237.68c-0.27-0.02-0.53-0.15-0.7-0.39c-1.01-1.35-2.94-1.62-4.28-0.61
			c-0.43,0.32-1.04,0.24-1.36-0.19c-0.32-0.43-0.24-1.04,0.19-1.36c2.2-1.66,5.35-1.21,7,0.99c0.32,0.43,0.24,1.04-0.19,1.36
			C805.54,237.63,805.3,237.7,805.08,237.68z"/>
	</g>
	<g>
		<path class="st489" d="M813.88,238.43c-0.23-0.07-0.43-0.22-0.55-0.44c-0.27-0.46-0.11-1.06,0.35-1.33
			c2.39-1.39,5.45-0.58,6.84,1.8c0.27,0.46,0.11,1.06-0.35,1.33c-0.46,0.27-1.06,0.11-1.33-0.35c-0.85-1.46-2.73-1.95-4.18-1.1
			C814.41,238.48,814.13,238.51,813.88,238.43z"/>
	</g>
	<path class="st489" d="M159.71,432.18H92.13c-3.01,0-5.44-2.44-5.44-5.44V391.4c0-3.01,2.44-5.44,5.44-5.44h67.58
		c3.01,0,5.44,2.44,5.44,5.44v35.33C165.15,429.74,162.72,432.18,159.71,432.18z"/>
	<rect x="86.69" y="389.91" class="st493" width="78.47" height="8.24"/>
	<rect x="150.04" y="388.46" class="st489" width="3.94" height="10.34"/>
	<rect x="100.43" y="389.91" class="st489" width="3.94" height="9.48"/>
	<path class="st489" d="M117.31,480.98H90.09c-1.81,0-3.28-1.47-3.28-3.28v-76.27c0-1.81,1.47-3.28,3.28-3.28h27.23
		c1.81,0,3.28,1.47,3.28,3.28v76.27C120.6,479.51,119.13,480.98,117.31,480.98z"/>
	<path class="st485" d="M157.44,555.43h-19.9c-1.81,0-3.28-1.47-3.28-3.28v-76.99c0-1.81,1.47-3.28,3.28-3.28h19.9
		c1.81,0,3.28,1.47,3.28,3.28v76.99C160.72,553.96,159.25,555.43,157.44,555.43z"/>
	<path class="st489" d="M161.75,480.98h-27.23c-1.81,0-3.28-1.47-3.28-3.28v-76.27c0-1.81,1.47-3.28,3.28-3.28h27.23
		c1.81,0,3.28,1.47,3.28,3.28v76.27C165.03,479.51,163.56,480.98,161.75,480.98z"/>
	<path class="st482" d="M148.13,404.11h17.07c0,14.38,0,26.03,0,26.03C155.77,430.14,148.13,418.48,148.13,404.11z"/>
	<path class="st483" d="M113.73,556.09H93.65c-1.81,0-3.28-1.47-3.28-3.28v-80.2c0-1.81,1.47-3.28,3.28-3.28h20.08
		c1.81,0,3.28,1.47,3.28,3.28v80.2C117.01,554.62,115.54,556.09,113.73,556.09z"/>
	<circle class="st523" cx="72.57" cy="385.46" r="14.17"/>
	
		<rect x="68.78" y="333.98" transform="matrix(0.9231 0.3846 -0.3846 0.9231 145.2245 -4.058)" class="st523" width="27.96" height="54.08"/>
	<path class="st514" d="M130.92,554.86c0.02-8.91,7.72-16.12,17.18-16.11c9.47,0.01,17.12,7.24,17.1,16.15L130.92,554.86"/>
	<polyline class="st523" points="130.9,558.49 165.19,558.53 165.2,554.87 130.91,554.83 	"/>
	<path class="st482" d="M103.87,404.11H86.8c0,14.38,0,26.03,0,26.03C96.23,430.14,103.87,418.48,103.87,404.11z"/>
	<circle class="st483" cx="103.7" cy="474.86" r="16.9"/>
	<circle class="st523" cx="179.05" cy="388.08" r="14.17"/>
	
		<rect x="155.63" y="336.3" transform="matrix(-0.9342 0.3567 -0.3567 -0.9342 457.6611 642.2849)" class="st523" width="27.96" height="54.08"/>
	<path class="st514" d="M107.03,302.99h37.78c18.06,0,32.7,14.64,32.7,32.7v78.82c0,2.64-2.14,4.77-4.77,4.77H79.1
		c-2.64,0-4.77-2.14-4.77-4.77v-78.82C74.33,317.63,88.97,302.99,107.03,302.99z"/>
	<path class="st491" d="M168.46,499H83.38c-4.24,0-7.59-4.03-7.31-8.78l4.22-70.94h91.91l3.57,71.03
		C176.01,495.02,172.66,499,168.46,499z"/>
	
		<linearGradient id="SVGID_26_" gradientUnits="userSpaceOnUse" x1="-1598.4786" y1="247.9882" x2="-1642.9124" y2="295.2342" gradientTransform="matrix(-0.9829 0.1843 0.1843 0.9829 -1507.9814 300.0023)">
		<stop  offset="0" style="stop-color:#5FA1BE"/>
		<stop  offset="1" style="stop-color:#CDE8EF"/>
	</linearGradient>
	<circle class="st59" cx="153.1" cy="281.55" r="14.81"/>
	<circle class="st568" cx="113.26" cy="323.4" r="19.09"/>
	<circle class="st568" cx="145.43" cy="323.4" r="18.44"/>
	<path class="st514" d="M86.74,554.86c0.02-8.91,7.72-16.12,17.18-16.11s17.12,7.24,17.1,16.15L86.74,554.86"/>
	<polyline class="st523" points="86.73,558.49 121.01,558.53 121.02,554.87 86.74,554.83 	"/>
	<path class="st483" d="M132.64,330.63l5.33-1c13.29-2.49,22.04-15.28,19.55-28.57l-2.53-13.49c-2.49-13.29-15.28-22.04-28.57-19.55
		l-5.33,1c-13.29,2.49-22.04,15.28-19.55,28.57l2.53,13.49C106.56,324.37,119.35,333.13,132.64,330.63z"/>
	<circle class="st483" cx="133.59" cy="322.4" r="13.89"/>
	<circle class="st491" cx="129.2" cy="354.75" r="3.32"/>
	
		<linearGradient id="SVGID_27_" gradientUnits="userSpaceOnUse" x1="-1608.5011" y1="283.9611" x2="-1608.5011" y2="238.0081" gradientTransform="matrix(-0.9829 0.1843 0.1843 0.9829 -1507.9814 300.0023)">
		<stop  offset="0" style="stop-color:#5FA1BE"/>
		<stop  offset="1" style="stop-color:#CDE8EF"/>
	</linearGradient>
	<circle class="st60" cx="120.02" cy="254.57" r="17.73"/>
	
		<linearGradient id="SVGID_28_" gradientUnits="userSpaceOnUse" x1="-1621.8589" y1="246.3513" x2="-1536.7618" y2="321.8148" gradientTransform="matrix(-0.9829 0.1843 0.1843 0.9829 -1507.9814 300.0023)">
		<stop  offset="0" style="stop-color:#5FA1BE"/>
		<stop  offset="0.6314" style="stop-color:#CDE8EF"/>
	</linearGradient>
	<circle class="st61" cx="93.92" cy="291.72" r="14.09"/>
	<circle class="st483" cx="100.62" cy="306.35" r="7.23"/>
	
		<linearGradient id="SVGID_29_" gradientUnits="userSpaceOnUse" x1="-1608.5778" y1="247.1154" x2="-1609.4686" y2="286.0191" gradientTransform="matrix(-0.9829 0.1843 0.1843 0.9829 -1507.9814 300.0023)">
		<stop  offset="0" style="stop-color:#5FA1BE"/>
		<stop  offset="1" style="stop-color:#CDE8EF"/>
	</linearGradient>
	<path class="st62" d="M106.8,292.54l40.71-7.63c6.17-1.16,10.23-7.09,9.07-13.26l-1.4-7.49c-1.16-6.17-7.09-10.23-13.26-9.07
		l-40.71,7.63c-6.17,1.16-10.23,7.09-9.07,13.26l1.4,7.49C94.69,289.63,100.63,293.69,106.8,292.54z"/>
	<circle class="st491" cx="129.2" cy="377.27" r="3.32"/>
	<circle class="st491" cx="129.2" cy="399.19" r="3.32"/>
	<circle class="st485" cx="100.62" cy="306.35" r="2.91"/>
	<circle class="st485" cx="142.8" cy="372.51" r="14.41"/>
	
		<rect x="148.42" y="356.86" transform="matrix(0.4084 -0.9128 0.9128 0.4084 -250.6829 373.0037)" class="st523" width="27.96" height="46.04"/>
	<path class="st523" d="M142.6,360.97l-7.93,19.73c-1.33,3.31,0.27,7.07,3.58,8.4l6.7,2.7c3.31,1.33,7.07-0.27,8.4-3.58l7.93-19.73
		c1.33-3.31-0.27-7.07-3.58-8.4l-6.7-2.7C147.69,356.06,143.93,357.66,142.6,360.97z"/>
	<path class="st485" d="M139.56,306.98c-0.12-3.64,2.85-5.12,5.4-2.51c2.72,2.79,5.41,6.16,4.13,7.55
		c-2.36,2.55-7.23,2.72-8.33,1.61C140.24,313.11,139.67,310.08,139.56,306.98z"/>
	<g>
		<path class="st522" d="M126.1,317.24c-6.91-4.08-8.92-7.84-9.51-4.64c-0.04,0.23-0.04,0.57,0,0.99
			c7.05,1.93,12.01,8.06,12.63,15.13c2.69-0.21,5.8-1.85,9.33-5.69C147.23,313.56,134.45,322.17,126.1,317.24z"/>
		<path class="st521" d="M116.59,313.58c0.4,4.03,4.7,15.76,12.63,15.13C128.6,321.64,123.64,315.51,116.59,313.58z"/>
	</g>
	
		<linearGradient id="SVGID_30_" gradientUnits="userSpaceOnUse" x1="-357.2486" y1="57.2727" x2="-348.613" y2="65.9083" gradientTransform="matrix(0.9834 0.1815 -0.1815 0.9834 475.3286 314.7717)">
		<stop  offset="0.0848" style="stop-color:#FBD3B5"/>
		<stop  offset="1" style="stop-color:#F6B092"/>
		<stop  offset="1" style="stop-color:#000000"/>
	</linearGradient>
	<circle class="st63" cx="116.48" cy="310.41" r="6.09"/>
	<circle class="st493" cx="150.79" cy="297.86" r="2.68"/>
	<circle class="st493" cx="131.37" cy="300.54" r="2.68"/>
	<circle class="st485" cx="54.13" cy="426.41" r="14.41"/>
	<polygon class="st523" points="67.4,434.22 41.59,423.47 59.3,380.97 74.31,387.22 74.71,400.74 75.26,415.35 	"/>
	<path class="st523" d="M61.12,434.59l-17.75-8.21c-3.66-1.69-5.26-6.04-3.57-9.7l2.31-5c1.69-3.66,6.04-5.26,9.7-3.57l17.75,8.21
		c3.66,1.69,5.26,6.04,3.57,9.7l-2.31,5C69.13,434.68,64.78,436.28,61.12,434.59z"/>
	<g>
		<circle class="st533" cx="98.74" cy="174.37" r="4.09"/>
	</g>
	<g>
		<path class="st487" d="M174.28,68.42l-0.2,0.35c-0.42,0.74-1.35,0.99-2.09,0.58l-9.86-5.6c-0.74-0.42-0.99-1.35-0.58-2.09
			l0.2-0.35c0.42-0.74,1.35-0.99,2.09-0.58l9.86,5.6C174.44,66.74,174.69,67.68,174.28,68.42z"/>
	</g>
	<g>
		<path class="st487" d="M171.01,58.88l0.35,0.2c0.74,0.42,0.99,1.35,0.58,2.09l-5.6,9.86c-0.42,0.74-1.35,0.99-2.09,0.58l-0.35-0.2
			c-0.74-0.42-0.99-1.35-0.58-2.09l5.6-9.86C169.34,58.72,170.27,58.46,171.01,58.88z"/>
	</g>
	<g>
		<path class="st487" d="M359.87,249.86c-3.01-1.71-4.06-5.54-2.35-8.55c1.71-3.01,5.54-4.06,8.55-2.35
			c3.01,1.71,4.06,5.54,2.35,8.55C366.71,250.52,362.87,251.57,359.87,249.86z M364.54,241.64c-1.53-0.87-3.47-0.33-4.34,1.19
			c-0.87,1.53-0.33,3.47,1.19,4.34c1.53,0.87,3.47,0.33,4.34-1.19C366.6,244.46,366.06,242.51,364.54,241.64z"/>
	</g>
	<g>
		<circle class="st533" cx="398.59" cy="87.43" r="4.09"/>
	</g>
	<linearGradient id="SVGID_31_" gradientUnits="userSpaceOnUse" x1="126.525" y1="301.873" x2="151.4222" y2="278.2134">
		<stop  offset="0" style="stop-color:#EBF5FA;stop-opacity:0.1"/>
		<stop  offset="0.2976" style="stop-color:#DAEEF4;stop-opacity:0.3678"/>
		<stop  offset="0.619" style="stop-color:#CFE9F0;stop-opacity:0.6571"/>
		<stop  offset="1" style="stop-color:#CCE8EF"/>
	</linearGradient>
	<circle class="st64" cx="127.94" cy="300.53" r="8.86"/>
	<linearGradient id="SVGID_32_" gradientUnits="userSpaceOnUse" x1="146.1601" y1="303.4842" x2="168.3729" y2="276.2289">
		<stop  offset="0" style="stop-color:#EBF5FA;stop-opacity:0.1"/>
		<stop  offset="0.2976" style="stop-color:#DAEEF4;stop-opacity:0.3678"/>
		<stop  offset="0.619" style="stop-color:#CFE9F0;stop-opacity:0.6571"/>
		<stop  offset="1" style="stop-color:#CCE8EF"/>
	</linearGradient>
	<circle class="st65" cx="152.28" cy="295.98" r="8.86"/>
	<circle class="st575" cx="152.28" cy="296.37" r="9.26"/>
	<circle class="st575" cx="127.94" cy="300.92" r="9.26"/>
	<path class="st575" d="M137.11,299.69c0,0,2.62-2.39,6.7-1.06"/>
	<line class="st576" x1="104.92" y1="300.53" x2="118.69" y2="302.09"/>
</g>
</svg>
