<svg xmlns="http://www.w3.org/2000/svg" viewBox="0 0 910 567"><defs><clipPath id="clip-path"><path class="cls-1" d="M227.33 421.33l17 4.21-32.22 50.9 3.74-43.66c11 .7 11.44-11.45 11.44-11.45z"/></clipPath><clipPath id="clip-path-2"><path class="cls-1" d="M108.71 461.5l4.2 17-60-4.9 40.4-17.05c4.43 10 15.41 4.91 15.41 4.91z"/></clipPath><clipPath id="clip-path-3"><path class="cls-1" d="M536.25 460.1l2.34 17.27-59.08-11.2 41.8-12.61c3.5 10.51 14.94 6.54 14.94 6.54z"/></clipPath><style>.cls-1{fill:none}.cls-4{fill:#132c45}.cls-6{fill:#f18419}.cls-8{fill:#adbf5b}.cls-10{fill:#cde4f7}.cls-11{fill:#9eb7c7}.cls-12{fill:#0b2b46}.cls-14{fill:#05616b}.cls-15{fill:#02819f}.cls-16{fill:#84a1ab}.cls-18{fill:#e9edf4}.cls-19{fill:#fff}.cls-20{fill:#d6e0f0}.cls-21{fill:#f09976}.cls-22{fill:#e8815f}.cls-23{fill:#ffda35}.cls-25{fill:#047487}.cls-28{fill:#db3e3e}.cls-29{fill:#ff524f}.cls-30{fill:#eab624}.cls-31{fill:#ffeda1}</style></defs><g id="Слой_2" data-name="Слой 2"><g id="Layer_3" data-name="Layer 3"><path d="M838.9 472c56.2-116.7 87.1-340.2-34.7-414.3-79.6-48.6-162.6 13.9-247.7 16.7-66.8 2.2-131.3-50.5-191.7-65.6C206.9-30.7-41.7 72 67.6 472c273.3-.8 498 .8 771.3 0z" fill="#f8f8ff"/><ellipse cx="455.3" cy="502.6" rx="452.9" ry="64.9" fill="#eaf1fc"/><path class="cls-4" d="M771.1 300.9a.79.79 0 01-.8-.8v-8.9a1 1 0 01.7-.9c.4-.1.8.3.9.7v9.1c-.1.5-.4.8-.8.8zm-23.91-2.6V291h8.2v7.3z"/><path d="M761.8 250.1H741c0 11.7-9.8 31.5-26.9 40.9l37.2.1 37.2.1c-17.1-9.5-26.7-29.4-26.7-41.1z" fill="#ffda36"/><path class="cls-6" d="M759.8 311.1c-6.2-4.9-2.8-7.7 2.2-7.6 2.5 0 2.5-5.1 0-5.1h-21.4c-2.5 0-2.5 5.1 0 5.1 5 0 8.4 2.8 2.2 7.7s-11.3 10-11.3 16.9 3.7 13.3 12.1 13.4h15.2c8.4 0 12.2-6.2 12.2-13.3s-5-12.1-11.2-17.1z"/><circle cx="771.1" cy="303.6" r="3.5" fill="#f2f3f5"/><path class="cls-4" d="M772.1 351.2h.8a4.9 4.9 0 000-9.8l-40.1.1a4.9 4.9 0 100 9.8h.8l-16.1 160.2 3.7.4 2.6-26.1 27.6-.1v25.9h3.7l-.1-25.9 27.6-.1 2.8 26.1 3.6-.4-16.9-160.1zm9.5 125.2l-26.6.1-.2-80.3h18.4l8.4 80.2zm-8.8-84h-18l-.1-41.1h13.8zM751.4 482l-27.2.1.2-1.8 27-.1zm0-5.5l-26.6.1 8.1-80.3h18.4zm-.2-84h-18l4.1-41.1h13.8l.1 41.1zm3.9 89.5v-1.8l27-.1.2 1.8z"/><ellipse class="cls-8" cx="850.76" cy="454.16" rx="34.3" ry="15.6" transform="rotate(-46.61 850.743 454.16)"/><ellipse class="cls-8" cx="804.69" cy="454.35" rx="15.6" ry="34.3" transform="rotate(-44.04 804.694 454.35)"/><ellipse cx="825.07" cy="441.34" rx="19.4" ry="42.6" fill="#c8d540"/><path class="cls-6" d="M828.7 513.2a24 24 0 01-24.2-23.8v-4.1a7.68 7.68 0 017.6-7.7l32.7-.2a7.68 7.68 0 017.7 7.6v4a23.94 23.94 0 01-23.8 24.2z"/><path class="cls-10" d="M672.36 529.6h-178.8a8.45 8.45 0 01-8.4-8.4v-39.7a8.45 8.45 0 018.4-8.4h178.8a8.45 8.45 0 018.4 8.4v39.7a8.45 8.45 0 01-8.4 8.4z"/><path class="cls-11" d="M481.26 54.7h218.1V452h-218.1z"/><path class="cls-12" d="M493 66.1h194.6V452H493z"/><path d="M552 66.1l31 329.4h-90V66.1z" fill="#124160"/><path class="cls-14" d="M687.56 67v386.5L607 465.3V55.1z"/><path class="cls-15" d="M596.76 462.6l10.2 2.7V55.1l-10.2 2.7z"/><path class="cls-11" d="M598.86 242.9h6v49h-6z"/><path class="cls-16" d="M600.56 248.8h2.6v11.1h-2.6zm0 18.2h2.6v11.1h-2.6zM617 247.5c-1.5 0-2.6 2.5-2.6 5.7s1.2 5.7 2.6 5.7h4.1v-11.3H617z"/><path class="cls-11" d="M621.66 245.4c-2 0-3.6 3.5-3.6 7.8s1.6 7.8 3.6 7.8h5.6v-15.6z"/><path d="M631 253.2c0 4.3-1.6 7.8-3.6 7.8s-3.6-3.5-3.6-7.8 1.6-7.8 3.6-7.8 3.6 3.5 3.6 7.8zM620.06 271c0 3.7-1.4 6.6-3.1 6.6s-3.1-3-3.1-6.6 1.4-6.6 3.1-6.6 3.1 2.9 3.1 6.6z" fill="#bdd3dd"/><path class="cls-16" d="M617.46 270.1c0 .6-.2 1.1-.5 1.1s-.5-.5-.5-1.1.2-1.1.5-1.1.5.4.5 1.1z"/><path class="cls-16" d="M616.76 270.4h.4v2.6h-.4z"/></g><path class="cls-18" d="M194.7 111.94h8V66.23a9.09 9.09 0 00-8 0z"/><path class="cls-10" d="M170.28 111.81h6.95V66.1a7 7 0 00-6.95 0z"/><path class="cls-19" d="M222 111.91l6.37-2.94-19.22-41.49a7.05 7.05 0 00-6.36 2.93zm-44.77-.13h8V66.07a9 9 0 00-8 0z"/><path class="cls-10" d="M185.23 111.94h9.47V66.23a12.52 12.52 0 00-9.47 0z"/><path class="cls-20" d="M158.68 112.14a.81.81 0 00-.81.81v2.13a.81.81 0 00.81.81h79.88a.81.81 0 00.81-.81V113a.81.81 0 00-.81-.81z"/><g id="Layer_5" data-name="Layer 5"><path class="cls-19" d="M98 189.93a41.53 41.53 0 016.53-14.24 30 30 0 015.84-6.31c4.67 1.87 12.84 0 16.35-3.5a28.14 28.14 0 012.57 1.4c7 4 11.9 11.21 14.94 18.92 3.27 8.4 4.44 17.74 5.14 27.08 1.16 17.52 1.63 35.26 1.87 52.77a112.32 112.32 0 01-51.38 0c-2.33-17-4.2-34.32-4.2-51.6A87.29 87.29 0 0198 189.93z"/><path class="cls-15" d="M98.67 112.41c0-6.07 5.6-12.38 11.91-13.54a17.23 17.23 0 0112.6 2.8c3 2.1 5.84 5.14 6.54 8.87a10.74 10.74 0 01-5.37 10.51c-7.24-5.14-16.35-7.94-25.68-8.64z"/><path class="cls-14" d="M134.16 123.15L115 112.64c-1.4-.7-2.57-2.1-3.5-.46-.7.93 0 3.73.23 4.67a20.94 20.94 0 0016.11 17 9.82 9.82 0 007.71-.46c2.34-1.17 3.74-4.21 2.8-6.54-.7-1.87-2.57-2.8-4.2-3.74z"/><path class="cls-21" d="M104.5 175.92a18.72 18.72 0 012.57-3.27c.24-1.16.24-2.56.47-4 0-1.63.23-3 .23-4.43.24-2.57.24-5.14.24-7.71 0-3.27 0-6.3-.24-9.34a100.69 100.69 0 0113.78-10c1.17 4.67 2.1 9.11 3 13.54 1.16 4.91 2.33 9.58 3.5 14.48.23.47.23.94.47 1.4V168a35.43 35.43 0 01-4.44 3.74 26.45 26.45 0 01-19.62 4.2z"/><path class="cls-22" d="M107.77 164.25c.24-2.57.24-5.14.24-7.94 0-3.27 0-6.31-.24-9.34a99 99 0 0113.78-10c.93 4.67 2.1 9.1 3 13.54-4.21 7.71-10.28 14-16.82 13.78z"/><path class="cls-23" d="M99.13 123.15c.94.23 1.64-.7 2.34-1.17a3.25 3.25 0 012.57.47 2.65 2.65 0 01.7 2.57 24 24 0 01-2.8 9.81 12.56 12.56 0 01-2.81-11.68z"/><path class="cls-21" d="M101.7 123.15c4.67-4.44 11.21-7 17-4.67a83.68 83.68 0 014 13.54 26.11 26.11 0 01-1.17 14 15.4 15.4 0 01-10.27 9.11c-4.67.94-10-1.17-12.15-5.37-1.86-4-.7-8.87.7-13.31 1.41-4.2 3-8.87 1.87-13.31z"/><path class="cls-12" d="M227.33 421.33l17 4.21-32.22 50.9 3.74-43.66c11 .7 11.44-11.45 11.44-11.45z"/><g clip-path="url(#clip-path)"><path class="cls-19" d="M210.51 481.58l19.85-17.75c-14.94-11-24.75.24-24.75.24z"/></g><path class="cls-19" d="M215.42 478.54l-3-1.87 32.23-50.9 3 1.87a1.52 1.52 0 01.47 2.1l-30.59 48.1a1.59 1.59 0 01-2.11.7zm6.3-36.42c.47-.24.47-.47.47-.94a.85.85 0 00-.93-.93 25.44 25.44 0 00-7 1.63 1.13 1.13 0 00-.47 1.4.86.86 0 001.17.47 27.35 27.35 0 016.31-1.4c.23 0 .23-.23.46-.23zm-.46 5.37a1.24 1.24 0 00.46-.94.85.85 0 00-.93-.93 25.44 25.44 0 00-7 1.63 1.12 1.12 0 00-.46 1.4.85.85 0 001.16.47 27.47 27.47 0 016.31-1.4c.23 0 .23-.23.47-.23zm-.7 5.6a.93.93 0 00.46-.93.86.86 0 00-.93-.94 25.47 25.47 0 00-7 1.64 1.12 1.12 0 00-.46 1.4.84.84 0 001.16.46 28 28 0 016.31-1.4c.23 0 .23-.23.47-.23z"/><path class="cls-21" d="M121.78 133.66a33.53 33.53 0 01-.46 6.77 6.43 6.43 0 004.2 0 5.07 5.07 0 002.8-6.77 3.5 3.5 0 00-2.33-2.1 2.88 2.88 0 00-2.34.46 6.41 6.41 0 00-1.87 1.64z"/><path class="cls-25" d="M153.31 279.13l-34.56 21.48c-2.8 82 94.1 145.24 94.1 145.24l20.08-25.92c-86.86-50.9-79.62-140.8-79.62-140.8z"/><path class="cls-14" d="M153.31 279.13l-34.8 21.48c-.93 29 10.51 55.34 25.69 77.76a208.26 208.26 0 015.37-20.78 126.47 126.47 0 015.84-15.65c1.87-4 3.73-7.7 5.14-11.67-8.88-28.96-7.24-51.14-7.24-51.14z"/><path class="cls-12" d="M108.71 461.5l4.2 17-60-4.9 40.4-17.05c4.43 10 15.41 4.91 15.41 4.91z"/><g clip-path="url(#clip-path-2)"><path class="cls-19" d="M48 474.34l25 9.34C75.78 465.47 61.07 462 61.07 462z"/></g><path class="cls-19" d="M54.53 479a2.05 2.05 0 01-1.86-2.1l.23-3.27 60 4.9-.23 3.27a1.91 1.91 0 01-2.1 1.87l-56-4.67zm33.4-12.84a.58.58 0 00.93-.24c.47-.23.47-.7.23-1.16a21.14 21.14 0 00-4.67-5.61 1.1 1.1 0 00-1.4.24c-.23.46-.23 1.16.24 1.4a21.31 21.31 0 014.2 4.9c.23.23.23.47.47.47zm-5.14 2.1c.23.23.7 0 .93-.24.47-.23.47-.7.24-1.16a21.69 21.69 0 00-4.67-5.61 1.1 1.1 0 00-1.4.24c-.24.46-.24 1.16.23 1.4a21.31 21.31 0 014.2 4.9c.24.23.24.47.47.47zm-5.14 2.1a1.44 1.44 0 00.94-.23c.46-.24.46-.7.23-1.17a21.49 21.49 0 00-4.67-5.61 1.1 1.1 0 00-1.4.24c-.24.47-.24 1.17.23 1.4a20.84 20.84 0 014.2 4.9c.24.24.24.47.47.47z"/><path class="cls-15" d="M108.24 199.27l5.84 31.06 37.59 3 2.57 58.67c-42 62.82-41.33 173.73-41.33 173.73l-35-5.84c-17-88 21.94-173.72 21.94-173.72C94.93 261.62 92.6 225.19 94 200z"/><path class="cls-25" d="M149.8 240.14c-.23 0-.46-.47-.23-1.4 0-.71-.23-1.17-.23-1.64 0-.7-.24-1.4-.24-2.1v-1.17a3 3 0 01-.23-1.4V231a4.06 4.06 0 01-.23-1.64c-.24-.46 0-.93-.24-1.63a5.23 5.23 0 01-.23-1.87c-.23-1.17-.23-2.57-.47-4-.46-2.8-.7-5.83-1.4-9.1-.7-3-1.4-6.54-2.33-10s-2.1-7.24-3.51-11a36.49 36.49 0 00-5.13-10.51 17.63 17.63 0 00-8.41-6.53 8 8 0 00-2.33-.47h-2.11a15.53 15.53 0 00-4.67 1.4 15.32 15.32 0 00-4 2.8 3.25 3.25 0 00-.93.7l-.7.94-.7.93c-.23.23-.47.7-.7.93a23.59 23.59 0 00-3.74 7.71 39.93 39.93 0 00-1.63 7.24c-.47 2.1-.47 4-.7 5.6-.47 3-.47 4.91-.94 4.91s-.93-1.64-1.16-4.91a47.53 47.53 0 01-.24-5.84 46.19 46.19 0 01.7-7.93 27.48 27.48 0 011.17-4.67 28.29 28.29 0 012.34-4.67c.23-.47.46-.71.7-1.17l.93-1.17.93-1.17c.24-.46.71-.7.94-1.16A26.68 26.68 0 01115 171a18.56 18.56 0 016.31-2.34l.93-.23h2.8a17.77 17.77 0 013.74.47 21.58 21.58 0 016.54 3.27 26.8 26.8 0 015.13 5.13 50 50 0 016.31 12.15 95.41 95.41 0 013.5 11.67c.7 3.5 1.4 7 1.87 10.74a65.7 65.7 0 01.7 9.58v6.07a5.86 5.86 0 00-.23 1.86 3.9 3.9 0 00-.24 1.64c0 .7-.23 1.17-.23 1.63s-.23.94-.23 1.4a10.57 10.57 0 00-.24 1.17c-.23.7-.23 1.4-.46 2.1s-.24 1.17-.47 1.64c-.24.7-.7 1.17-.94 1.17z"/><path class="cls-21" d="M119.45 211.42a5.48 5.48 0 01.7-3.51 30.29 30.29 0 0021.71-.93c.24.7.24 1.17.47 2.1s.24 1.87.47 2.57.23 1.63.47 2.57c0 .46.23.93.23 1.4s.23.93.23 1.4a11.89 11.89 0 00.47 2.8 11.32 11.32 0 00.47 2.8c.23 1.17.46 2.1.7 3s.46 2.1.7 3 .46 2.11.7 3 .47 1.87.7 3c1.17 4.2 2.33 8.64 3.74 13.07s3 8.64 4.67 12.84c.46.94.93 2.11 1.4 3l1.4 3 1.4 2.8 1.4 2.8 1.4 2.8c.47.94.93 1.64 1.4 2.57l.7 1.17a4.67 4.67 0 01.7 1.17l1.4 2.33a18.77 18.77 0 011.4 2.34 20.72 20.72 0 001.41 2.33l2.8 4.2c.93 1.4 1.87 2.57 2.8 3.74l.23.23a35 35 0 002.34 3l2.33 2.8a21.76 21.76 0 001.87 2.34l.93.93a97.91 97.91 0 011.41 1.87 22 22 0 01-7-1.64 47.83 47.83 0 01-10-5.6l-1.4-.94-.23-.23c-1.17-.93-2.57-2.1-4-3.27a15.32 15.32 0 01-2.11-1.87 21.29 21.29 0 01-2.33-2.1l-2.34-2.1-1.19-.9-1.17-1.16a22.44 22.44 0 01-2.34-2.34 12.41 12.41 0 00-2.33-2.57 12.2 12.2 0 01-2.34-2.57 24.16 24.16 0 01-2.33-2.8l-2.34-3c-.7-.94-1.4-2.11-2.1-3-2.8-4.44-5.6-8.87-7.94-13.54a113.43 113.43 0 01-6.07-14.48c-.46-1.17-.7-2.33-1.16-3.5a19.52 19.52 0 00-.94-3.5 19 19 0 01-.93-3.51l-.7-3.5-.7-3.5c-.24-.94-.24-2.1-.47-3.27 0-.47-.23-1.17-.23-1.64a3.83 3.83 0 01-.24-1.63c0-1.17-.23-2.34-.23-3.27v-3z"/><path class="cls-21" d="M175 295.48a54.75 54.75 0 0122.19 1.16c.46.24.7.24.93.47a2.64 2.64 0 01.47 3.74 13.79 13.79 0 01-8.18 5.37 19.18 19.18 0 01-6.3.46 22.09 22.09 0 01-7-1.63 47.83 47.83 0 01-10-5.6l-1.63-1.17c3.24-1.17 6.52-1.87 9.52-2.8z"/><path class="cls-23" d="M97.5 112.18c.47-.47.93-.7 1.4-1.17a21.82 21.82 0 0118.68-.93 27.55 27.55 0 016.07 4.2 21.29 21.29 0 012.1 2.33 6 6 0 011.17 2.81 18.69 18.69 0 01-3.74 13.07 13.61 13.61 0 01-4.67-7.24 13.28 13.28 0 01.24-6.07 35.25 35.25 0 01-24.75 3.5c-.7-3.68.7-7.47 3.5-10.5z"/><path class="cls-19" d="M596.41 169.58a28.56 28.56 0 00-4.82-4.63c-.7-.47-1.63-1.17-2.33-1.64-4 3-12.15 4-16.58 1.64a24.41 24.41 0 00-6.54 5.37 43.38 43.38 0 00-8.14 13.31c-3 7.7-4.44 15.88-5.37 24.05-2.11 17.28-2.11 34.56-2.11 51.84a109.15 109.15 0 0045.92 6.56z"/><path class="cls-21" d="M566.14 170.09l2.8-2.81c.23-1.4.7-2.57.94-4a27.51 27.51 0 00.93-4.2c.47-2.57.93-5.14 1.17-7.7.46-3 .7-6.08.93-9.11a94.76 94.76 0 0114.94-8.41c.47 4.67.94 9.11 1.41 13.78.46 5.14.93 10 1.63 14.94 0 .47.23.94.23 1.4v.47c0 .23-.23.7-.23.94a32.53 32.53 0 01-4.67 3 23.35 23.35 0 01-6.77 2.34 28.46 28.46 0 01-13.31-.7z"/><path class="cls-22" d="M572 151.17c.46-3 .7-6.07.93-9.1a94 94 0 0114.94-8.41c.47 4.67.94 9.11 1.41 13.78-6.78 8.87-13.08 10.27-18.45 11.67.45-2.57.91-5.11 1.17-7.94z"/><path class="cls-12" d="M536.25 460.1l2.34 17.27-59.08-11.2 41.8-12.61c3.5 10.51 14.94 6.54 14.94 6.54z"/><g clip-path="url(#clip-path-3)"><path class="cls-19" d="M488.62 455.43l-14.25 11 23.82 11.91c4.67-17.75-9.57-22.88-9.57-22.88z"/></g><path class="cls-19" d="M479.28 469.44l.7-3.27 59.07 11.2-.7 3.27a1.93 1.93 0 01-2.33 1.64l-55.34-10.51a1.66 1.66 0 01-1.4-2.33zm35.72-7c.47.23.7.23.94 0a.85.85 0 00.46-1.17 28.13 28.13 0 00-4.2-6.07.87.87 0 00-1.4 0c-.47.47-.47 1.17 0 1.4a17.37 17.37 0 013.74 5.37c.23.24.23.47.46.47zm-5.13 1.64c.23 0 .46.23.93 0a.86.86 0 00.47-1.17 27.69 27.69 0 00-4.21-6.07 1 1 0 10-1.4 1.4 17.09 17.09 0 013.74 5.37c.23.23.23.47.47.47zm-5.38 1.4a.73.73 0 00.94 0 .86.86 0 00.47-1.17 27.93 27.93 0 00-4.21-6.07.87.87 0 00-1.4 0c-.47.46-.47 1.16 0 1.4A17.09 17.09 0 01504 465c.23.23.23.47.46.47z"/><path class="cls-25" d="M596.41 283.29l-30.5 14.29c-6 38.36 11 73.47 30.5 99.82z"/><path class="cls-14" d="M596.41 283.47l-30.74 14.11c-4.43 27.55 3.27 53.24 15 75.42a179 179 0 0111-25.92c1.51-2.87 3.11-5.73 4.82-8.51z"/><path class="cls-15" d="M596.41 231.22l-27.47-5.56-2.1-31.52-14-1.17c-4.44 24.75-6.3 61.18-4.67 86.39 0 0-48.57 86.87-42.26 176.3l34.09 9.81s11.53-108.53 56.42-167.74z"/><path class="cls-25" d="M596.41 169.91a24.35 24.35 0 00-5.29-3.33 19.48 19.48 0 00-3.5-.93 1.41 1.41 0 01-.93-.23h-2.8a20.68 20.68 0 00-6.54 1.63 25.14 25.14 0 00-5.37 3.27c-.47.23-.7.7-1.17.93l-1.87 1.87a5 5 0 00-.93 1.17 17.7 17.7 0 00-2.8 4.43 24.55 24.55 0 00-1.87 4.44 46.11 46.11 0 00-1.64 7.71 49.76 49.76 0 00-.46 5.83c0 3.27.23 4.91.46 5.14.24 0 .7-1.63 1.4-4.9a33.4 33.4 0 011.4-5.61c.71-2.33 1.41-4.67 2.34-7a24.07 24.07 0 014.67-7.24 3.25 3.25 0 00.7-.93l.93-.7.94-.7c.23-.24.7-.47.93-.71a37.48 37.48 0 014.21-2.33 15 15 0 014.67-.93H586l.46.23c.7.23 1.64.47 2.34.7a16.47 16.47 0 017.47 7.47l.15.29z"/><path class="cls-15" d="M596.41 101.39a18 18 0 00-7.15-3.92 17.22 17.22 0 00-10.28.46 11.92 11.92 0 00-7 7.24 68.42 68.42 0 0123.11 23.12l1.32-1.9z"/><path class="cls-14" d="M568.71 98.63l18.91 11c1.17.93 3 1.17 2.1 2.8-.46.93-3.27 1.63-4.2 2.1a21.34 21.34 0 01-22.88-5.14 10.34 10.34 0 01-3.27-6.77c-.24-2.57 1.63-5.37 4.2-5.6 1.87-.23 3.5.7 5.14 1.63z"/><path class="cls-12" d="M585.52 122.68a31.38 31.38 0 015.14-11 23.48 23.48 0 013 3.74 12.56 12.56 0 011.17 1.86 24.7 24.7 0 01-7.47 27.32 33.59 33.59 0 01-1.84-21.92zm-15.88-4.2a2.39 2.39 0 012.34.7 3.26 3.26 0 01.23 2.57 19.69 19.69 0 01-4 9.34 12.14 12.14 0 01-1.4-11.91c.96.24 1.9-.7 2.83-.7z"/><path class="cls-21" d="M569.64 117.78c5.14-4.2 11.91-5.84 17.51-2.57a97.53 97.53 0 012.34 14 23.76 23.76 0 01-2.8 13.78 15.45 15.45 0 01-11.21 7.7c-4.67.47-9.81-2.33-11.44-6.77-1.64-4.2 0-8.87 2.1-13.07 1.87-4.21 4.2-8.64 3.5-13.08z"/><path class="cls-21" d="M588.32 130.39c-.23 2.33-.7 4.44-.93 6.77a5.78 5.78 0 004 .47 5.51 5.51 0 003.73-6.54 4 4 0 00-2.1-2.33 3.18 3.18 0 00-2.57.23 3.4 3.4 0 00-2.1 1.4z"/><path class="cls-12" d="M566.37 121.05a2.13 2.13 0 01-1.87-.93 5.14 5.14 0 01-2.56-6.78 9.77 9.77 0 012.56-3.73c.47-.47.94-.7 1.41-1.17a21.85 21.85 0 0118.68-.93 28.13 28.13 0 016.07 4.2 23.48 23.48 0 013 3.74c0 .46.24 1.16.24 1.63a18.83 18.83 0 01-3.74 13.08 13.5 13.5 0 01-4.67-7.24 13.27 13.27 0 01.23-6.07 35.18 35.18 0 01-19.38 4.2z"/><path class="cls-21" d="M514.54 297.58c-.47-.47-.24-1.17 0-2.57a4.25 4.25 0 011.16-1.64l.7-.93.94-.93 2.1-2.1 2.57-2.57a32.31 32.31 0 002.8-2.81 37.74 37.74 0 013-3.26c1.16-.94 2.1-2.34 3.26-3.51a435.91 435.91 0 003.27-3.73 13.07 13.07 0 011.64-2.1l.93-1.17.94-1.17a20.63 20.63 0 011.86-2.33l1.64-2.34a19.23 19.23 0 001.63-2.33c.47-.94 1.17-1.64 1.64-2.57l1.63-2.57 1.64-2.57a87.4 87.4 0 006.53-11.21 127 127 0 005.61-11.44 13.9 13.9 0 011.17-2.8c.46-.94.7-1.87 1.16-2.8s.7-1.87 1.17-2.81a8.71 8.71 0 001.17-2.56c.23-.94.7-1.64.93-2.57l.94-2.57c.23-.24.23-.7.46-1.17l.47-1.17c.23-.7.7-1.63.93-2.33l.94-2.34a9.45 9.45 0 00.93-2.33c.24-.94.7-1.64.94-2.57a76.68 76.68 0 0022 11.91c0 .47-.24.93-.24 1.4a13.81 13.81 0 01-.46 3 3.9 3.9 0 01-.24 1.64c-.23.47-.23 1.17-.47 1.63a17.67 17.67 0 00-.93 3.27 24.27 24.27 0 01-.93 3.27 28.82 28.82 0 01-1.17 3.27c-.47.93-.94 2.1-1.4 3.27l-1.4 3.5c-.47 1.17-1.17 2.34-1.64 3.51a96.75 96.75 0 01-7.95 13.62 124.07 124.07 0 01-9.8 12.14l-2.57 2.8-2.57 2.8a23.68 23.68 0 00-2.57 2.26 12.16 12.16 0 01-2.57 2.33l-2.57 2.11c-.7.46-1.63 1.16-2.56 1.86l-1.41.94-1.4.93-2.57 1.64a15.85 15.85 0 01-2.56 1.63c-.94.47-1.64.94-2.57 1.4a46.13 46.13 0 01-4.67 2.57c-1.64.7-3 1.4-4.44 2.1s-2.8 1.17-4 1.64a20.79 20.79 0 01-3.5 1.16c-1.17.24-2.1.47-3 .7-.46 0-.93.24-1.4.24l-1.17.23h-1.86c-1.17-.23-1.87-.47-2.1-.93z"/><path class="cls-21" d="M523.17 291.74a15 15 0 00-4.67.7c-5.6 1.64-11.44 3-17.27 4.67a5 5 0 00-1.17.7 1.92 1.92 0 00.23 2.8 17.9 17.9 0 004.44 2.81 17.71 17.71 0 0023.35-8.88 6.65 6.65 0 00-4.91-2.8z"/></g><g id="Layer_15" data-name="Layer 15"><path class="cls-20" d="M445.65 347.78a10.54 10.54 0 0120.32-4l7 17.05v.23a10.28 10.28 0 01-6.07 13.31c-5.37 1.87-11.67-.7-13.78-5.84l-3-7.7-3.74-9.34a10.76 10.76 0 01-.7-3.74zm-216 13.54v-.23l7-17a10.67 10.67 0 0113.77-5.83 10.24 10.24 0 016.78 9.57 10.54 10.54 0 01-.71 3.74l-3.73 9.34-3 7.7a10.69 10.69 0 01-20.08-7.24z"/><ellipse class="cls-19" cx="504.96" cy="196" rx="31.76" ry="30.59"/><path class="cls-19" d="M478.34 181.53c12.38 0 22.65 9.8 22.65 21.95s-10 22-22.65 22c-12.37 0-22.65-9.81-22.65-22s10.31-21.95 22.65-21.95z"/><path class="cls-20" d="M444 180.83c12.37 0 22.65 9.8 22.65 21.95s-10 21.94-22.65 21.94c-12.38 0-22.65-9.8-22.65-21.94s10.29-21.95 22.65-21.95z"/><path class="cls-19" d="M419.5 148.6c9.57 0 17.51 7.48 17.51 16.82s-7.94 16.81-17.51 16.81-17.5-7.47-17.5-16.81 7.93-16.82 17.5-16.82z"/><path class="cls-19" d="M394.28 164.25c9.57 0 17.51 7.47 17.51 16.81s-7.94 16.81-17.51 16.81-17.51-7.47-17.51-16.81 7.94-16.81 17.51-16.81zm57.44-5.37c12.38 0 22.65 9.8 22.65 22s-10 21.95-22.65 21.95c-12.37 0-22.65-9.81-22.65-21.95s10.28-22 22.65-22z"/><ellipse class="cls-19" cx="417.16" cy="193.9" rx="22.65" ry="21.95"/><ellipse class="cls-19" cx="378.87" cy="203.48" rx="31.76" ry="30.59"/><path class="cls-19" d="M352.25 189.23c12.38 0 22.65 9.81 22.65 22s-10.27 21.95-22.65 21.95-22.65-9.81-22.65-21.95 10.28-22 22.65-22z"/><path class="cls-19" d="M335 168.92c12.38 0 22.65 9.8 22.65 22s-10.3 21.9-22.65 21.9-22.65-9.81-22.65-21.95 10.25-21.95 22.65-21.95z"/><path class="cls-19" d="M301.11 160.28c12.38 0 22.65 9.81 22.65 21.95s-10.27 22-22.65 22-22.65-9.81-22.65-22 10.04-21.95 22.65-21.95z"/><path class="cls-19" d="M286.87 176.39c12.38 0 22.65 9.81 22.65 22s-10 21.95-22.65 21.95c-12.38 0-22.65-9.81-22.65-21.95a22.23 22.23 0 0122.65-22z"/><ellipse class="cls-19" cx="199.77" cy="187.36" rx="31.76" ry="30.59"/><path class="cls-19" d="M226.39 173.12c-12.37 0-22.65 9.81-22.65 21.95s10 22 22.65 22c12.38 0 22.65-9.81 22.65-22a22.23 22.23 0 00-22.65-21.95z"/><path class="cls-19" d="M260.72 172.42c-12.38 0-22.65 9.81-22.65 22s10.27 21.95 22.65 21.95 22.65-9.81 22.65-21.95a22.24 22.24 0 00-22.65-22zm258-32.92a7.71 7.71 0 11-7.94 7.7 7.83 7.83 0 017.96-7.7zm19.85 24.05a4 4 0 010 7.94 4 4 0 010-7.94z"/><path class="cls-19" d="M538.82 207.68l-1.17 4.2-7.94 27.79-22.41 78.46c-5.14 18.68-21.72 31.75-41.33 33.39a21.71 21.71 0 01-4 .23h-222.5c-21.72 0-40.4-14.24-45.77-34.32l-20.55-77.76-7.23-27.79-1.17-4.2z"/><path class="cls-18" d="M164.75 198.34h373.84a13.91 13.91 0 0110 4 13 13 0 014.2 9.57c0 7.47-6.54 13.55-14.24 13.55h-373.8a14 14 0 01-10-4 13.06 13.06 0 01-4.21-9.58c-.04-7.47 6.27-13.54 14.21-13.54z"/><path class="cls-19" d="M437 174.05c9.58 0 17.52 7.48 17.52 16.82s-7.94 16.81-17.52 16.81-17.51-7.47-17.51-16.81 7.95-16.82 17.51-16.82z"/><path class="cls-23" d="M197.21 176.86c-4.44 4-10.28 21.71 9.8 21.95 26.85 0 37.36 1.16 33.16-18.68-2.57-11.91-4.44-3-11.91-5.37a32.86 32.86 0 00-8.17-1.64A18.09 18.09 0 00221 168a13.36 13.36 0 00-13.54-13.31 13.41 13.41 0 00-10.27 22.19z"/><path class="cls-28" d="M195.57 172.19s-10-4-9.34-1.17 10.27 4.44 10.27 4.44z"/><path class="cls-29" d="M193.94 166.12l1.4 6.3s-6.77-.47-8.88-1.17 7.48-5.13 7.48-5.13z"/><path class="cls-30" d="M198.61 178c12.84 3 21-3 21-3s-7.24 11.67-21 4"/><path class="cls-31" d="M228.49 183.39c-21.48-.7-11.67 9.81-11.67 9.81s-7.94.7-7-6.77 20.31-4.43 20.31-4.43"/><ellipse class="cls-12" cx="198.62" cy="164.93" rx="2.1" ry="1.63" transform="rotate(-70.29 198.61 164.93)"/><path class="cls-23" d="M262.12 182.23c-3.27 2.8-7.47 15.64 6.77 15.88 19.85 0 27.32.93 24.28-13.55-1.86-8.87-3-2.1-8.63-4a35.61 35.61 0 00-6.08-1.16 9.66 9.66 0 00.7-3.74 9.81 9.81 0 00-9.8-9.57 9.67 9.67 0 00-9.81 9.57 10.85 10.85 0 002.57 6.54z"/><path class="cls-28" d="M260.72 179s-7.24-3-6.77-.94c.7 2.11 7.7 3.27 7.7 3.27z"/><path class="cls-29" d="M261 179s-4.9-.24-6.54-.94c-1.63-.46 5.37-3.73 5.37-3.73z"/><path class="cls-30" d="M263.29 182.93c9.1 2.33 15.17-2.1 15.17-2.1s-5.13 8.4-15.17 2.8"/><path class="cls-31" d="M284.77 186.9c-15.65-.47-8.41 7.24-8.41 7.24s-5.84.7-5.13-4.91 14.94-3.23 14.94-3.23"/><ellipse class="cls-12" cx="263.25" cy="173.62" rx="1.63" ry="1.17" transform="rotate(-70.29 263.25 173.618)"/><path class="cls-23" d="M510.57 185.73c2.56 2.1 6.07 12.61-5.37 12.84-15.88 0-22.19.7-19.62-11 1.4-7 2.57-1.64 7-3a26.39 26.39 0 014.9-.93 6.46 6.46 0 01-.7-3 7.94 7.94 0 0115.88 0 8.45 8.45 0 01-2.1 5.14z"/><path class="cls-28" d="M510.8 184.8l.7-1.87s5.84-2.34 5.37-.7-6.07 2.57-6.07 2.57z"/><path class="cls-29" d="M512.43 179.19l-.7 3.74a32.19 32.19 0 005.14-.7c1.17-.47-4.44-3-4.44-3z"/><path class="cls-30" d="M509.63 186.43a16.35 16.35 0 01-12.37-1.87s4.2 6.77 12.37 2.34"/><path class="cls-31" d="M492.12 189.47c12.61-.47 6.77 5.83 6.77 5.83s4.67.47 4.2-4-11.91-2.56-11.91-2.56"/><ellipse class="cls-12" cx="509.53" cy="178.63" rx=".93" ry="1.17" transform="rotate(-19.71 509.59 178.634)"/></g></g></svg>