<svg id="Layer_1" data-name="Layer 1" xmlns="http://www.w3.org/2000/svg" viewBox="0 0 910 567"><defs><clipPath id="clip-path"><path class="cls-1" d="M90.2 90.8h344.3v476.6H90.2z"/></clipPath><clipPath id="clip-path-2"><path class="cls-1" d="M214.9 270.4l-8.7 5.4-1.4-2.3 5.4-3.4a10.2 10.2 0 004.8-5.8 8.43 8.43 0 00-6-10.3 4.33 4.33 0 01-.5-.1 10.44 10.44 0 00-7.3 1.8l-10.3 6.4 6.8 10.9-3.8 2.4 2.2 3.5 3.8-2.3 1.4 2.3-3.8 2.3 2.2 3.5 3.8-2.3 2.3 3.7 4.9-3-2.3-3.7 8.7-5.4zm-16.4-7l4.8-3a5.34 5.34 0 013.5-1 3.28 3.28 0 012.6 1.8 3.43 3.43 0 01.4 3.1 5.29 5.29 0 01-2.4 2.7l-4.8 3z"/></clipPath><style>.cls-1{fill:none}.cls-2{fill:#eaf1fc}.cls-4{fill:#fff}.cls-5{fill:#d6e0f0}.cls-6{fill:#e9edf4}.cls-7{fill:#cde4f7}.cls-8{fill:#fcfbfc}.cls-9{fill:#edf0f4}.cls-10{fill:#f8c47a}.cls-11{fill:#e19a54}.cls-12{fill:#ffdf9a}.cls-13{fill:#e4e6e6}.cls-14{fill:#ce8d4d}.cls-15{fill:#d38137}.cls-20{fill:#e5b571}.cls-21{fill:#eccf8f}.cls-22{fill:#c07632}.cls-24{fill:#02819f}.cls-25{fill:#0b2b46}.cls-26{fill:#f09976}.cls-28{fill:#f487b3}.cls-29{fill:#912a52}.cls-30{fill:#ffda35}.cls-31{fill:#febf00}.cls-33{fill:#fee401}.cls-34{fill:#fee501}.cls-35{fill:#fee601}.cls-36{fill:#fde701}.cls-37{fill:#fde801}.cls-38{fill:#fde901}.cls-39{fill:#fdea01}.cls-40{fill:#fdec01}.cls-41{fill:#fded01}.cls-42{fill:#fdee01}.cls-43{fill:#fdef01}.cls-44{fill:#fdf001}.cls-45{fill:#fcf101}.cls-46{fill:#fcf201}.cls-47{fill:#fcf301}.cls-48{fill:#fcf401}.cls-49{fill:#fcf501}.cls-50{fill:#fcf601}.cls-51{fill:#fcf701}.cls-52{fill:#fcf801}.cls-53{fill:#fcf901}.cls-54{fill:#fcfa01}.cls-55{fill:#ffd801}.cls-71{fill:#fbff01}</style></defs><ellipse class="cls-2" cx="457.5" cy="501.8" rx="452.9" ry="64.9"/><path d="M838.3 485.5c58-120.3 89.8-350.6-35.6-427.1-82.2-50-167.7 14.4-255.5 17.3C478.3 78 411.9 23.6 349.7 8.1 186.8-32.6-69.4 73.3 43.2 485.5c281.8-.8 513.4.8 795.1 0z" fill="#f8f8ff"/><path class="cls-4" d="M608.2 22.8h3.8a75.39 75.39 0 0175.4 75.4v215.6a3.48 3.48 0 01-3.5 3.5H536.4a3.48 3.48 0 01-3.5-3.5V98.2a75.3 75.3 0 0175.3-75.4z"/><path class="cls-5" d="M684.5 320.7H534.1a4.48 4.48 0 01-4.5-4.5v-248a46.8 46.8 0 0146.8-46.8H642a47 47 0 0146.9 46.9v248a4.31 4.31 0 01-4.4 4.4zm-150.1-4.8h149.8V68.1A42.1 42.1 0 00642.1 26h-65.6a42.17 42.17 0 00-42.1 42.1v247.8z"/><path class="cls-5" d="M609.3 318.7a2.43 2.43 0 01-2.4-2.4V23.7a2.4 2.4 0 014.8 0v292.7a2.35 2.35 0 01-2.4 2.3z"/><path class="cls-5" d="M686.6 251.1H532a2.35 2.35 0 010-4.7h154.6a2.35 2.35 0 010 4.7zm0-147H532a2.4 2.4 0 110-4.8h154.6a2.4 2.4 0 010 4.8zm0 73.5H532a2.4 2.4 0 110-4.8h154.6a2.4 2.4 0 010 4.8z"/><path class="cls-6" d="M810.8 177.9c-7.9 2.9-4.2 13.8.9 18.7 5.5 5.3 14 8.3 18.7 2.5a2.23 2.23 0 00-.1-3.2 2.21 2.21 0 00-1.9-.6c-3.4.1-6-.8-4.7-3.3s6.5 2.3 8.4 2.3c4.3.1 6-3.2 5-5.9-.8-2.2-6.8-3-5.3-4.8 2.1-2.6 5.2 1.5 7.3-.4 3.4-2.8 2.8-8.3 1.3-10.2-1.2-1.6-6.2-4-9.9-2.4-3.5 1.5-2.5 9.2-4.1 9.3-3.2.2-.6-6.6-3.1-8.6-1.5-1.2-5.9-.4-6.9 2.5-1.4 3.8 3.8 11 0 11.4-3.5.5-1.5-3.6-2.5-5.8-.3-.6-1.6-2.1-3.1-1.5z"/><path class="cls-7" d="M786 240.2h-.1c-.2-.1-.3-.3-.2-.4a117.31 117.31 0 0149.7-63 .36.36 0 11.4.6 116.76 116.76 0 00-49.3 62.7 1.34 1.34 0 01-.5.1z"/><path class="cls-6" d="M788.7 155.5c-5.8 6.1 2.4 14.2 9.2 16.3 7.3 2.3 16.2 1.1 17.9-6.2a2.18 2.18 0 00-1.5-2.8 2.09 2.09 0 00-1.9.3c-3 1.6-5.7 2-5.7-.8s6.8-.9 8.6-1.7c3.9-1.9 3.9-5.5 1.8-7.5-1.7-1.6-7.4.4-6.9-1.9.7-3.3 5.2-1 6.4-3.6 1.8-4.1-1.2-8.7-3.5-9.7-1.8-.9-7.3-.8-9.9 2.3-2.5 2.9 2 9.3.5 10.2-2.8 1.6-3.5-5.6-6.7-6.3-1.9-.4-5.5 2.3-5.1 5.3.5 4 8.4 8.1 5.2 10.2-2.9 2-2.9-2.6-4.9-4.1a2.69 2.69 0 00-3.5 0z"/><path class="cls-7" d="M794.4 222.4a.27.27 0 01-.3-.3 117.67 117.67 0 0116-78.6c.1-.2.3-.2.5-.1s.2.3.1.5a117.08 117.08 0 00-15.9 78.2c0 .1-.2.2-.4.3z"/><path class="cls-6" d="M782.7 169.4c7.2 4.4 1.3 14.3-4.7 18.1-6.5 4.1-15.4 5.3-18.9-1.3a2.26 2.26 0 01.8-3.1 2.54 2.54 0 011.9-.2c3.3.8 6 .4 5.2-2.2s-6.8.9-8.7.6c-4.2-.8-5.2-4.3-3.7-6.8 1.3-2 7.2-1.6 6.2-3.6-1.5-3-5.3.4-7.1-1.8-2.8-3.5-1.1-8.7.8-10.3 1.5-1.3 6.8-2.7 10.2-.4 3.2 2.2.5 9.5 2.2 10 3.1.8 2-6.4 4.8-7.8 1.7-.9 5.8.8 6.3 3.8.6 4-6 10-2.4 11.2 3.3 1.2 2.2-3.2 3.7-5.2.5-.7 2-1.9 3.4-1z"/><path class="cls-7" d="M794.4 235.5a.27.27 0 01-.3-.3 116.75 116.75 0 00-35.6-71.4.35.35 0 01.5-.5 117.75 117.75 0 0135.8 71.8.43.43 0 01-.4.4z"/><path class="cls-4" d="M780.4 248.2h25.8l3.9-35.3h-33.9l4.2 35.3z"/><path class="cls-6" d="M810.2 219.2h-34.1a.9.9 0 01-.9-.9l-.4-4.4a1 1 0 01.9-1h35a.9.9 0 01.9.9v.1l-.4 4.4a1.17 1.17 0 01-1 .9z"/><path class="cls-5" d="M744.7 248.6a.79.79 0 00-.8.8v2.2a.79.79 0 00.8.8h81.9a.79.79 0 00.8-.8v-2.2a.79.79 0 00-.8-.8h-81.9z"/><path class="cls-2" d="M162-.1h3.1v140.4H162z"/><path class="cls-5" d="M186.7 169.4a23.7 23.7 0 10-47.4 0z"/><path class="cls-5" d="M171.4 145.9c0 7-3.9 12.6-8.8 12.6s-8.8-5.6-8.8-12.6 3.9-12.6 8.8-12.6 8.8 5.6 8.8 12.6z"/><path class="cls-2" d="M123.1-.1h3.1v91.2h-3.1z"/><path class="cls-5" d="M147.7 120.2a23.7 23.7 0 10-47.4 0z"/><path class="cls-5" d="M132.4 96.7c0 7-3.9 12.6-8.8 12.6s-8.8-5.6-8.8-12.6 3.9-12.6 8.8-12.6 8.8 5.6 8.8 12.6z"/><circle class="cls-5" cx="383.4" cy="159.5" r="27.7"/><circle class="cls-8" cx="383.4" cy="159.5" r="21"/><path class="cls-5" d="M389.6 173l-5.1-14a1.39 1.39 0 00-1.7-.9l-15 3.5a1.43 1.43 0 00.6 2.8l13.7-3.2 4.7 12.8a1.33 1.33 0 001.4.9.9.9 0 00.5-.1 1.46 1.46 0 00.9-1.8z"/><circle class="cls-5" cx="383.1" cy="159.5" r="2.9"/><path class="cls-5" d="M327.8 521.4L275 353.1l10.6-2.8 46.8 171.1h-4.6z"/><path class="cls-5" d="M234.3 521.4L274 349.9l10.6 2.5-45.6 169h-4.7z"/><path class="cls-5" d="M312.4 467.5h-63.6v-5.8h62l1.6 5.8zM46.7 521.4l52.7-168.3-10.5-2.8L42 521.4h4.7z"/><path class="cls-5" d="M140.1 521.4l-39.7-171.5-10.6 2.5 45.7 169h4.6z"/><path class="cls-5" d="M62 467.5h63.6v-5.8H63.7l-1.7 5.8zM41.3 354.6h291.1v-16.8H41.3v16.8z"/><path class="cls-9" d="M64.8 307.8H104a.86.86 0 01.8.8v28.3a.86.86 0 01-.8.8H64.8a.86.86 0 01-.8-.8v-28.3a.86.86 0 01.8-.8z"/><path class="cls-5" d="M63.5 311.7v-6.9a1.37 1.37 0 011.5-1.3h38.8a1.32 1.32 0 011.5 1.3v6.9z"/><path class="cls-9" d="M109.3 298.4H167a1.16 1.16 0 011.2 1.2v37.1a1.16 1.16 0 01-1.2 1.2h-57.7a1.16 1.16 0 01-1.2-1.2v-37.1a1.22 1.22 0 011.2-1.2z"/><path class="cls-5" d="M108.1 303.3v-10.1a1.22 1.22 0 011.2-1.2H167a1.22 1.22 0 011.2 1.2v10.1zm20.7 14.6h34.7v14.4h-34.7z"/><path class="cls-6" d="M758.8 335h7.3v41.4h-7.3z"/><path class="cls-5" d="M788.7 378.2h-52.5a7.6 7.6 0 017.6-7.6H781a7.62 7.62 0 017.7 7.6z"/><path class="cls-7" d="M789 341.7h-53a3.78 3.78 0 01-3.8-3.7 4.53 4.53 0 01.3-1.6l16-35.8a3.6 3.6 0 013.4-2.2h20.9a3.76 3.76 0 013.4 2.2l16 35.8a3.77 3.77 0 01-1.9 5 4.15 4.15 0 01-1.3.3z"/><path class="cls-6" d="M673.6 378.2h147.2v130.3H673.6z"/><path class="cls-5" d="M686.4 388.2h120.5v45.7H686.4zm0 55.2h120.5v52.8H686.4zm-6.6 65.1H693V520h-13.2zm120.5 0h13.2V520h-13.2z"/><circle class="cls-8" cx="698.4" cy="453.7" r="6.4"/><path class="cls-6" transform="rotate(-.06 725.536 401.45)" d="M694 396.5h59.8v15.9H694z"/><path class="cls-8" transform="rotate(-.06 735.076 420.554)" d="M706.5 413h66v20.8h-66z"/><path class="cls-6" d="M254.6 268.2c-7.9 2.9-4.2 13.8.9 18.7 5.5 5.3 14 8.3 18.7 2.5a2.24 2.24 0 00-.1-3.2 2.21 2.21 0 00-1.9-.6c-3.4.1-6-.8-4.7-3.3s6.5 2.3 8.4 2.3c4.3.1 6-3.2 5-5.9-.8-2.2-6.8-3-5.3-4.8 2.1-2.6 5.1 1.5 7.3-.4 3.4-2.8 2.8-8.3 1.3-10.2-1.2-1.6-6.2-4-9.9-2.4-3.5 1.5-2.5 9.2-4.1 9.3-3.2.2-.6-6.6-3.1-8.6-1.5-1.2-5.9-.4-6.9 2.5-1.4 3.8 3.9 11 0 11.4-3.5.5-1.5-3.6-2.5-5.8-.3-.6-1.5-2.1-3.1-1.5z"/><path class="cls-7" d="M229.8 330.5h-.1c-.2-.1-.3-.2-.2-.4a117.59 117.59 0 0149.6-63c.2-.1.4-.1.5.1s.1.4-.1.5a117.4 117.4 0 00-49.4 62.7c0 .1-.1.1-.3.1z"/><path class="cls-6" d="M232.6 245.8c-5.8 6.1 2.4 14.2 9.2 16.3 7.3 2.3 16.2 1.1 17.9-6.2a2.18 2.18 0 00-1.5-2.8 2.09 2.09 0 00-1.9.3c-2.9 1.6-5.7 2-5.6-.8s6.8-.9 8.6-1.7c3.9-1.9 3.9-5.5 1.8-7.5-1.7-1.6-7.4.4-6.9-1.9.7-3.3 5.3-1 6.4-3.6 1.8-4.1-1.2-8.7-3.4-9.7-1.8-.9-7.3-.8-9.9 2.3-2.5 2.9 1.9 9.3.5 10.2-2.8 1.6-3.5-5.6-6.7-6.3-1.9-.4-5.4 2.3-5.1 5.3.5 4 8.4 8.1 5.2 10.2-2.9 2-2.9-2.6-4.9-4.1-.8-.5-2.6-1.2-3.7 0z"/><path class="cls-7" d="M238.3 312.7a.27.27 0 01-.3-.3 117.67 117.67 0 0116-78.6c.1-.2.3-.2.5-.1s.2.3.1.5a117.08 117.08 0 00-15.9 78.2 1.38 1.38 0 01-.4.3z"/><path class="cls-6" d="M226.5 259.7c7.2 4.4 1.3 14.3-4.7 18.1-6.5 4.1-15.4 5.3-18.9-1.3a2.26 2.26 0 01.8-3.1 2.54 2.54 0 011.9-.2c3.3.8 6 .4 5.2-2.2s-6.8.9-8.7.6c-4.2-.8-5.2-4.3-3.6-6.8 1.3-2 7.2-1.6 6.2-3.6-1.5-3-5.3.4-7.1-1.8-2.8-3.5-1.1-8.7.8-10.3 1.5-1.3 6.8-2.7 10.2-.4 3.1 2.2.5 9.5 2.1 10 3.1.8 1.9-6.4 4.8-7.8 1.7-.9 5.9.8 6.3 3.8.6 4-6 9.9-2.4 11.2 3.3 1.2 2.2-3.2 3.7-5.2.5-.7 2.1-1.9 3.4-1z"/><path class="cls-7" d="M238.2 325.8a.27.27 0 01-.3-.3 116.75 116.75 0 00-35.6-71.4.45.45 0 010-.5.45.45 0 01.5 0 117.75 117.75 0 0135.8 71.8.37.37 0 01-.4.4z"/><path class="cls-6" d="M224.2 338.5H250l3.9-35.3h-33.8l4.1 35.3z"/><path class="cls-6" d="M254 309.5h-34a.9.9 0 01-.9-.9l-.4-4.4a1 1 0 01.9-1h34.9a.9.9 0 01.9.9v.1l-.4 4.4a1.06 1.06 0 01-1 .9z"/><path class="cls-10" d="M468.3 436.5h100.8v100.8H468.3z"/><path class="cls-11" d="M619.6 419.7l-50.4 16.8v100.9l50.4-16.8V419.7z"/><path class="cls-12" d="M468.3 436.5l50.5-16.8h100.8l-50.4 16.8H468.3z"/><path class="cls-13" d="M530.6 443h34.2v14.8h-34.2z"/><path class="cls-13" d="M534 444.4h.7v11.7h-.7zm1.8 0h.7v11.7h-.7zm1.8 0h.7v11.7h-.7zm1.8 0h.7v11.7h-.7z"/><path class="cls-13" d="M539.5 444.4h.7v11.7h-.7zm1.8 0h.7v11.7h-.7zm1.8 0h.7v11.7h-.7zm1.8 0h.7v11.7h-.7zm1.1 0h.7v11.7h-.7zm1.8 0h.7v11.7h-.7zm1.7 0h.7v11.7h-.7zm1.9 0h.7v11.7h-.7zm1.8 0h.7v11.7h-.7zm1.8 0h.7v11.7h-.7z"/><path class="cls-13" d="M555 444.4h.7v11.7h-.7zm1.8 0h.7v11.7h-.7zm1.9 0h.7v11.7h-.7zm1.8 0h.7v11.7h-.7z"/><path class="cls-14" d="M551.8 419.7L510 436.5h17.5l40.5-16.8h-16.2zM510 436.5V456h17.3l.2-19.5H510zm0 81.9v19.5h17.3l.2-19.5H510z"/><path class="cls-10" d="M585.2 460.6h77.3v77.3h-77.3z"/><path class="cls-11" d="M701.2 447.7l-38.7 12.9v77.3l38.7-12.9v-77.3z"/><path class="cls-12" d="M585.2 460.6l38.7-12.9h77.3l-38.7 12.9h-77.3z"/><path class="cls-15" d="M674.3 512.3v21.6l11.6-3.8v-21.6l-11.6 3.8zm0-55.7v21.6l11.6-3.8v-21.6l-11.6 3.8z"/><path class="cls-11" d="M608.6 452.8l-1.6.5-2.5.8-8 2.5h77.8l11.6-3.8h-77.3z"/><path fill="#eab973" d="M597.8 398h57.3v57.4h-57.3z"/><path fill="#d3914f" d="M683.8 388.4l-28.6 9.6v57.3l28.6-9.5v-57.4z"/><path fill="#f1d392" d="M597.8 398l28.7-9.6h57.3l-28.6 9.6h-57.4z"/><path class="cls-13" d="M633.2 401.6h19.5v8.4h-19.5z"/><path class="cls-13" d="M635.2 402.4h.4v6.6h-.4zm1 0h.4v6.6h-.4zm1 0h.4v6.6h-.4zm1 0h.4v6.6h-.4z"/><path class="cls-13" d="M638.3 402.4h.4v6.6h-.4zm1 0h.4v6.6h-.4zm1 0h.4v6.6h-.4zm1.1 0h.4v6.6h-.4zm.6 0h.4v6.6h-.4zm1 0h.4v6.6h-.4zm1 0h.4v6.6h-.4zm1 0h.4v6.6h-.4zm1.1 0h.4v6.6h-.4zm1 0h.4v6.6h-.4z"/><path class="cls-13" d="M647.1 402.4h.4v6.6h-.4zm1.1 0h.4v6.6h-.4zm1 0h.4v6.6h-.4zm1 0h.4v6.6h-.4z"/><path d="M645.3 388.4l-23.8 9.6h10l23-9.6h-9.2zm-23.8 9.6v11.1h9.9l.1-11.1h-10zm0 46.5v11.1h9.9l.1-11.1h-10z" fill="#c08448"/><path class="cls-10" d="M667.2 437.1H768v100.8H667.2z"/><path class="cls-11" d="M818.4 420.3L768 437.1v100.8l50.4-16.8V420.3z"/><path class="cls-12" d="M667.2 437.1l50.4-16.8h100.8L768 437.1H667.2z"/><path class="cls-15" d="M783.4 504.5v28.2l15.1-4.9v-28.3l-15.1 5zm0-72.5v28.1l15.1-4.9v-28.3l-15.1 5.1z"/><path class="cls-11" d="M697.7 426.9l-2.1.7-3.2 1.1-10.5 3.3h101.5l15.1-5.1H697.7z"/><path class="cls-13" d="M729.5 443.5h34.2v14.8h-34.2z"/><path class="cls-13" d="M732.8 444.9h.7v11.7h-.7zm1.9 0h.7v11.7h-.7zm1.8 0h.7v11.7h-.7zm1.8 0h.7v11.7h-.7z"/><path class="cls-13" d="M738.3 444.9h.7v11.7h-.7zm1.8 0h.7v11.7h-.7zm1.9 0h.7v11.7h-.7zm1.8 0h.7v11.7h-.7zm1.1 0h.7v11.7h-.7zm1.8 0h.7v11.7h-.7zm1.7 0h.7v11.7h-.7zm1.8 0h.7v11.7h-.7zm1.8 0h.7v11.7h-.7zm1.8 0h.7v11.7h-.7z"/><path class="cls-13" d="M753.9 444.9h.7v11.7h-.7zm1.8 0h.7v11.7h-.7zm1.8 0h.7v11.7h-.7zm1.8 0h.7v11.7h-.7z"/><path class="cls-20" d="M666.3 352.4h86.4v86.4h-86.4z"/><path class="cls-14" d="M796 338l-43.2 14.4v86.4l43.2-14.4V338z"/><path class="cls-21" d="M666.3 352.4l43.3-14.4H796l-43.2 14.4h-86.5z"/><path class="cls-22" d="M765.9 410.2v24.1l13-4.2v-24.2l-13 4.3zm0-62.2v24.1l13-4.2v-24.2l-13 4.3z"/><path class="cls-14" d="M692.4 343.7l-1.7.6-2.8.9-9 2.8h87l13-4.3h-86.5z"/><path class="cls-13" d="M719.7 357.9H749v12.7h-29.3z"/><path class="cls-13" d="M722.6 359.1h.6v10h-.6zm1.5 0h.6v10h-.6zm1.6 0h.6v10h-.6zm1.6 0h.6v10h-.6z"/><path class="cls-13" d="M727.3 359.1h.6v10h-.6zm1.6 0h.6v10h-.6zm1.5 0h.6v10h-.6zm1.6 0h.6v10h-.6zm.9 0h.6v10h-.6zm1.5 0h.6v10h-.6zm1.5 0h.6v10h-.6zm1.6 0h.6v10h-.6zm1.5 0h.6v10h-.6zm1.6 0h.6v10h-.6z"/><path class="cls-13" d="M740.6 359.1h.6v10h-.6zm1.6 0h.6v10h-.6zm1.5 0h.6v10h-.6zm1.6 0h.6v10h-.6z"/><path class="cls-20" d="M485.4 360h71.9v71.9h-71.9z"/><path class="cls-14" d="M593.3 348l-36 12v72l36-12v-72z"/><path class="cls-21" d="M485.4 360l36-12h71.9l-36 12h-71.9z"/><path class="cls-22" d="M568.3 408.2v20l10.8-3.5v-20.1l-10.8 3.6zm0-51.8v20l10.8-3.5v-20.1l-10.8 3.6z"/><path class="cls-14" d="M507.1 352.8l-1.5.5-2.2.7-7.6 2.4h72.5l10.8-3.6h-72z"/><path class="cls-13" d="M529.8 364.6h24.4v10.6h-24.4z"/><path class="cls-13" d="M532.2 365.6h.5v8.3h-.5zm1.3 0h.5v8.3h-.5zm1.3 0h.5v8.3h-.5zm1.3 0h.5v8.3h-.5z"/><path class="cls-13" d="M536.1 365.6h.5v8.3h-.5zm1.3 0h.5v8.3h-.5zm1.3 0h.5v8.3h-.5zm1.3 0h.5v8.3h-.5zm.8 0h.5v8.3h-.5zm1.3 0h.5v8.3h-.5zm1.2 0h.5v8.3h-.5zm1.3 0h.5v8.3h-.5zm1.3 0h.5v8.3h-.5zm1.3 0h.5v8.3h-.5z"/><path class="cls-13" d="M547.2 365.6h.5v8.3h-.5zm1.3 0h.5v8.3h-.5zm1.3 0h.5v8.3h-.5zm1.3 0h.5v8.3h-.5z"/><g clip-path="url(#clip-path)"><path class="cls-24" d="M244.2 700.1h-45.5l-5.6-237.3h61.1l-10 237.3z"/><path class="cls-24" d="M313.2 700.1h-51.8l-10-237.3h61.8v237.3z"/><path class="cls-4" d="M326.1 255.2l-44.7-17.6h-46.6l-51.7 26.5c-4.4 2.6-3.6 7.9-2 12.8l12.6 149.3 140.1-1.9 9.1-151.7c1.4-5-12.1-15.2-16.8-17.4z"/><path class="cls-4" d="M319.9 253.1c34.9 10.6 59.1 39.2 59.1 39.2l-26.3 52.2-60.3-28zm-136.7 11s-35.2 11.8-42.5 74.3l69.7 20.8 19.4-60.5z"/><path class="cls-25" d="M231.2 152.6a107.27 107.27 0 015.3 41.7c-.3 4-.8 8 .2 11.8s3.8 7.5 7.8 8.1c1.6-10.8 3.1-21.6 4.8-32.3.6-4 1.2-8.2.1-12.1a19.11 19.11 0 00-6.9-9.6 79.84 79.84 0 00-11.3-7.6z"/><path class="cls-26" d="M248.2 253c6.8 3.4 14.9 3.7 22.2 1.7s14.1-7.2 19.8-13.7c-2.9-4.2-5.4-6.1-7.4-10.9-.4-.9-.7-1.8-1-2.6a59.38 59.38 0 01-3.1-11.7c-14-4.4-27-17.4-37.8-27.4 1.1 10.6.3 27.3-2.6 37.6 0 .1 0 .1-.1.2a82.17 82.17 0 01-3.3 9.5c-2.9 6.9 6.5 13.9 13.3 17.3z"/><path d="M238.1 226l.2.1A40.82 40.82 0 00251 232l1.6.4a36 36 0 005.6.8 40.17 40.17 0 0021-4.3c.9-.4 1.7-.9 2.6-1.4a59.38 59.38 0 01-3.1-11.7c-14-4.4-27-17.4-37.8-27.4 1.1 10.6.3 27.3-2.6 37.6z" fill="#e8815f"/><path class="cls-25" d="M285.1 147.9a39.68 39.68 0 01-3 27.5c-3.6-8.5-2.2-20 3-27.5z"/><path class="cls-26" d="M241.6 174.5a18.65 18.65 0 00-2.2-3.9 6.29 6.29 0 00-3.8-2.3c-2.7-.4-5.3 1.9-6.1 4.6s-.2 5.5.6 8.1a17.83 17.83 0 002.6 5.8 8.51 8.51 0 005.1 3.6 5.85 5.85 0 005.7-1.9c-1.3-4.8-2.3-9.2-1.9-14z"/><path class="cls-26" d="M241.1 186.2c.1.5.1 1.1.2 1.6 1.4 9.8 4.3 19.8 11.2 26.8 6.1 6.2 15.4 9.5 24 7.8s16-8.7 17.6-17.4c1.1-5.8-.5-11.8-2.6-17.3s-5-10.7-6.9-16.3-3.2-13.3-1.1-18.8l-.7-.4c-12.6-7.5-27-9.2-40.4-3a117.85 117.85 0 00-1.3 37z"/><path class="cls-25" d="M293.2 141.2a22.37 22.37 0 01-9.5 11.3 27.91 27.91 0 01-11.2 4c-9 1.2-18-1.3-26.3-4.8-.3.5-7.6 11.3-2.1 28l-7.6-16.2a36 36 0 00-3-7c-1.4-2.5-3.2-4.8-4.1-7.5s-.8-6 1.3-8c2.5-2.4 6.6-1.8 9.9-3 5.5-2 7.8-8.4 11.1-13.3a25.36 25.36 0 014.4-4.9 24.59 24.59 0 0113.5-6.1 23.09 23.09 0 0119.5 7.3 21.43 21.43 0 014.1 20.2z"/><path class="cls-24" d="M321.7 425.8H208.5s-7.1-131-11.7-147.6c-6.4-22.8 47.8 23.7 124.9 0 19.7-6.1 0 147.6 0 147.6z"/><path class="cls-24" d="M218.1 286.4h-11.7v-37l11.7-4.3v41.3zm87.8 1.8h11.2v-37l-11.2-4.3v41.3z"/><path class="cls-26" d="M175.9 449.7c-9.1 4-20.9.4-26.3-8s-3.6-20.6 3.9-27.2c12.3 7.5 20 21 22.4 35.2zm194-93.7c9.8 2.1 17.2 11.9 16.7 21.9s-9.1 18.8-19.1 19.8c-5.7-13.3-4-28.8 2.4-41.7z"/><path class="cls-28" d="M356 307.6a10.58 10.58 0 017.4-13.1c.1 0 .2-.1.3-.1l36.5-9.1a10.29 10.29 0 0112.5 7.3c.1.3.1.5.2.8l11 58.4a15.59 15.59 0 01-7.7 15.7l-28.3 14.3a8.68 8.68 0 01-11.8-3.2 8.54 8.54 0 01-.9-2.4z"/><path class="cls-28" d="M141.6 434.1c30 59.3 109.9 79.3 178.6 44.6s100-110.9 70.1-170.2-109.9-79.3-178.6-44.6-100 110.9-70.1 170.2z"/><path class="cls-28" d="M386 382.8a1.16 1.16 0 011.6-.4 1.56 1.56 0 01.6.8l20.3 58a2.41 2.41 0 01-1.2 3l-29.6 15a2.42 2.42 0 01-3.1-.9l-22.6-35a3.19 3.19 0 01.3-3.5zm-186.9 94.4a1.16 1.16 0 00-1.3 1.1 1.4 1.4 0 00.3.9l34.7 50.8a2.63 2.63 0 003.2.8l29.6-15a2.46 2.46 0 001.2-3L252 474a2.91 2.91 0 00-2.9-1.8zm-55.7-82.9s-15.5 12.7-26.4 5.1c-12.3-8.6-21.2-6.8-13.5 9s36.8 32.9 64.2 25.8 4-27.2 4-27.2zm138.2-139.2s6.5-17.6 26.9-29.5 30.1-12.8 30.1-12.8 24.3 38.4 2.7 70.1-49.7 6.8-49.7 6.8z"/><path class="cls-29" d="M327.9 314.7a7.89 7.89 0 103.5-10.6 7.92 7.92 0 00-3.5 10.6zm-143.4-8.8a70.1 70.1 0 015.5-4.6 36.59 36.59 0 0012.9 4 115 115 0 00-13.3 10.9 69.72 69.72 0 00-6.4 6.9l-8.8-6.5a78.54 78.54 0 0110.1-10.7zm59.4-31.5c2.6-.7 5.1-1.3 7.2-1.8a95.78 95.78 0 0110.7-1.9l1.2 10.9c-.1 0-2.6.3-6.8 1.1a142.16 142.16 0 00-17 4.6 39.21 39.21 0 004.7-12.9z"/><path class="cls-30" d="M190.4 235a37.2 37.2 0 0153.5 39.3q-2.85.75-6 1.8a31.7 31.7 0 10-43 21.4c-1.8 1.3-3.4 2.5-4.9 3.8a37.33 37.33 0 01-15.8-50.3 36.84 36.84 0 0116.2-16z"/><path class="cls-30" d="M211.6 299.7c-3.2 1.9-6.1 3.7-8.7 5.6a36.59 36.59 0 01-12.9-4c1.5-1.2 3.2-2.5 4.9-3.8a32.86 32.86 0 0016.7 2.2zm26.3-23.5q3.15-1.05 6-1.8a37.64 37.64 0 01-4.6 12.9c-3.1 1-6.4 2.2-9.8 3.6a32.79 32.79 0 008.4-14.7z"/><path class="cls-31" d="M199.5 272a3.93 3.93 0 01-2.9-1.3 3.39 3.39 0 01-1-3 6.25 6.25 0 011.9-3.1l4.2-3.7 5.2 5.9-4.2 3.7a5.33 5.33 0 01-3.2 1.5z"/><path class="cls-31" d="M178.9 282.6a31.71 31.71 0 0032.7 17.1c2.3-1.3 4.7-2.7 7.3-4q5.4-2.7 10.5-4.8a31.75 31.75 0 10-50.5-8.3zm43-14.4l-3.3 2.9 2.9 3.3-4.3 3.8-2.9-3.3-7.7 6.8-2.7-3.1 7.7-6.8-1.8-2-4.8 4.2a10.86 10.86 0 01-7 3 8.41 8.41 0 01-8.2-8.7v-.5a10.37 10.37 0 013.8-6.5l9.1-8 8.5 9.7 3.3-2.9 2.8 3.1-3.3 2.9 1.8 2 3.3-2.9z"/><path class="cls-31" d="M206.6 281.7l7.7-6.8 2.9 3.3 4.3-3.8-2.9-3.3 3.3-2.9-2.8-3.1-3.3 2.9-1.8-2 3.3-2.9-2.8-3.1-3.3 2.9-8.5-9.7-9.1 8a10.64 10.64 0 00-3.8 6.5 8.55 8.55 0 007.6 9.2h.5a10.86 10.86 0 007-3l4.8-4.2 1.8 2-7.7 6.9zm.4-15l-4.2 3.7a5.3 5.3 0 01-3.3 1.5 3.93 3.93 0 01-2.9-1.3 3.39 3.39 0 01-1-3 6.25 6.25 0 011.9-3.1l4.2-3.7z"/><g clip-path="url(#clip-path-2)"><path class="cls-33" d="M198.5 269.77l.24.23h-.24v-.23z"/><path class="cls-34" d="M198.5 268.72l1.35 1.28h-1.11l-.24-.23v-1.05z"/><path class="cls-35" d="M198.5 267.67l2.46 2.33h-1.11l-1.35-1.28v-1.05z"/><path class="cls-36" d="M198.5 266.62l3.57 3.38h-1.11l-2.46-2.33v-1.05z"/><path class="cls-37" d="M198.5 265.57l4.68 4.43h-1.11l-3.57-3.38v-1.05z"/><path class="cls-38" d="M198.5 264.53l5.79 5.47h-1.11l-4.68-4.43v-1.04z"/><path class="cls-39" d="M198.5 263.48l6.9 6.52h-1.11l-5.79-5.47v-1.05z"/><path class="cls-40" d="M198.5 262.43l8 7.57h-1.1l-6.9-6.52v-1.05z"/><path class="cls-41" d="M198.5 261.38l9.11 8.62h-1.11l-8-7.57v-1.05z"/><path class="cls-42" d="M198.5 260.49l.08-.09 9.68 9.16-.41.44h-.24l-9.11-8.62v-.89z"/><path class="cls-43" transform="rotate(-46.59 203.702 264.717)" d="M203.3 258.04h.76v13.33h-.76z"/><path class="cls-44" d="M199.1 259.85l.53-.55 9.68 9.16-.53.55-9.68-9.16z"/><path class="cls-45" d="M200.74 259.3l9.09 8.6-.52.56-9.68-9.16h1.11z"/><path class="cls-46" d="M201.85 259.3l8.35 7.9v.31l-.37.39-9.09-8.6h1.11z"/><path class="cls-47" d="M202.96 259.3l7.24 6.85v1.05l-8.35-7.9h1.11z"/><path class="cls-48" d="M204.07 259.3l6.13 5.8v1.05l-7.24-6.85h1.11z"/><path class="cls-49" d="M205.18 259.3l5.02 4.75v1.05l-6.13-5.8h1.11z"/><path class="cls-50" d="M206.28 259.3l3.92 3.7v1.05l-5.02-4.75h1.1z"/><path class="cls-51" d="M207.39 259.3l2.81 2.65V263l-3.92-3.7h1.11z"/><path class="cls-52" d="M208.5 259.3l1.7 1.61v1.04l-2.81-2.65h1.11z"/><path class="cls-53" d="M209.61 259.3l.59.56v1.05l-1.7-1.61h1.11z"/><path class="cls-54" d="M210.2 259.86l-.59-.56h.59v.56z"/><path class="cls-55" d="M190.9 276.22l10.44 9.88H190.9v-9.88z"/><path class="cls-55" d="M190.9 275.17l11.55 10.93h-1.11l-10.44-9.88v-1.05z"/><path fill="#ffd901" d="M190.9 274.12l12.66 11.98h-1.11l-11.55-10.93v-1.05z"/><path fill="#ffda01" d="M190.9 273.07l13.77 13.03h-1.11l-12.66-11.98v-1.05z"/><path fill="#ffdb01" d="M190.9 272.02l14.88 14.08h-1.11l-13.77-13.03v-1.05z"/><path fill="#ffdc01" d="M190.9 270.98l15.99 15.12h-1.11l-14.88-14.08v-1.04z"/><path fill="#fedd01" d="M190.9 269.93L208 286.1h-1.11l-15.99-15.12v-1.05z"/><path fill="#fede01" d="M190.9 268.88l18.21 17.22H208l-17.1-16.17v-1.05z"/><path fill="#fedf01" d="M190.9 267.83l19.32 18.27h-1.11l-18.21-17.22v-1.05z"/><path fill="#fee001" d="M190.9 266.78l20.05 18.97-.33.35h-.4l-19.32-18.27v-1.05z"/><path fill="#fee101" d="M190.9 265.73l20.57 19.46-.52.56-20.05-18.97v-1.05z"/><path fill="#fee201" d="M190.9 264.68l21.1 19.96-.53.55-20.57-19.46v-1.05z"/><path fill="#fee301" d="M190.9 263.63l21.62 20.45-.52.56-21.1-19.96v-1.05z"/><path class="cls-33" d="M190.9 262.58l22.15 20.95-.53.55-21.62-20.45v-1.05z"/><path class="cls-34" d="M190.9 261.53l22.67 21.45-.52.55-22.15-20.95v-1.05z"/><path class="cls-35" d="M190.9 260.48l23.19 21.94-.52.56-22.67-21.45v-1.05z"/><path class="cls-36" d="M190.9 259.44l23.72 22.43-.53.55-23.19-21.94v-1.04z"/><path class="cls-37" d="M190.9 259.19l.4-.42 23.84 22.55-.52.55-23.72-22.43v-.25z"/><path class="cls-38" transform="rotate(-46.59 203.493 269.775)" d="M203.1 253.36h.76v32.82h-.76z"/><path class="cls-39" transform="rotate(-46.59 204.021 269.218)" d="M203.63 252.8h.76v32.82h-.76z"/><path class="cls-40" transform="rotate(-46.59 204.55 268.661)" d="M204.15 252.25h.76v32.82h-.76z"/><path class="cls-41" d="M192.87 257.1l.53-.55 23.7 22.42v.28l-.39.4-23.84-22.55z"/><path class="cls-42" d="M193.4 256.55l.52-.55 23.18 21.92v1.05l-23.7-22.42z"/><path class="cls-43" d="M193.92 256l.52-.56 22.66 21.43v1.05L193.92 256z"/><path class="cls-44" d="M194.44 255.44l.53-.55 22.13 20.93v1.05l-22.66-21.43z"/><path class="cls-45" d="M194.97 254.89l.52-.55 21.61 20.44v1.04l-22.13-20.93z"/><path class="cls-46" d="M195.49 254.34l.52-.56 21.09 19.95v1.05l-21.61-20.44z"/><path class="cls-47" d="M196.01 253.78l.18-.18h.74l20.17 19.08v1.05l-21.09-19.95z"/><path class="cls-48" d="M198.04 253.6l19.06 18.03v1.05l-20.17-19.08h1.11z"/><path class="cls-49" d="M199.15 253.6l17.95 16.98v1.05l-19.06-18.03h1.11z"/><path class="cls-50" d="M200.26 253.6l16.84 15.93v1.05l-17.95-16.98h1.11z"/><path class="cls-51" d="M201.37 253.6l15.73 14.88v1.05l-16.84-15.93h1.11z"/><path class="cls-52" d="M202.48 253.6l14.62 13.83v1.05l-15.73-14.88h1.11z"/><path class="cls-53" d="M203.59 253.6l13.51 12.78v1.05l-14.62-13.83h1.11z"/><path class="cls-54" d="M204.69 253.6l12.41 11.73v1.05l-13.51-12.78h1.1z"/><path fill="#fbfb01" d="M205.8 253.6l11.3 10.69v1.04l-12.41-11.73h1.11z"/><path fill="#fbfc01" d="M206.91 253.6l10.19 9.64v1.05l-11.3-10.69h1.11z"/><path fill="#fbfd01" d="M208.02 253.6l9.08 8.59v1.05l-10.19-9.64h1.11z"/><path fill="#fbfe01" d="M209.13 253.6l7.97 7.54v1.05l-9.08-8.59h1.11z"/><path class="cls-71" d="M210.24 253.6l6.86 6.49v1.05l-7.97-7.54h1.11z"/><path class="cls-71" d="M217.1 260.09l-6.86-6.49h6.86v6.49z"/></g><path class="cls-29" d="M397.2 388.8c-.9 0-1.8-.1-2.7-.1-20.8-1.6-39.4-10-51.1-23l-1.7-1.9-3.7 3.3 1.7 1.9a67.55 67.55 0 0017.6 13.9 88.42 88.42 0 0036.9 10.7l1.7.1a17.81 17.81 0 001.3-4.9z"/><path class="cls-26" d="M131.4 395.2c-9.7-2.4-16.9-12.4-16.1-22.3s9.6-18.6 19.6-19.3c5.3 13.4 3.2 28.9-3.5 41.6zM361.8 448c4.9 8.7 2.6 20.8-5.2 27s-20.1 5.7-27.5-1c6.1-13.1 18.8-22.2 32.7-26z"/></g></svg>