<svg id="Layer_1" data-name="Layer 1" xmlns="http://www.w3.org/2000/svg" viewBox="0 0 910 567"><defs><style>.cls-2{fill:#d6e0f0}.cls-3{fill:#eaf1fc}.cls-4{fill:#fff}.cls-5{fill:#e9edf4}.cls-6{fill:#cde4f7}.cls-7{fill:#edf0f4}.cls-8{fill:#fcfbfc}.cls-9{fill:#f09976}.cls-10{fill:#02819f}.cls-11{fill:#05616b}.cls-13{fill:#75c945}.cls-15{fill:#52b82d}.cls-16{fill:#e8815f}.cls-17{fill:#0b2b46}.cls-19{fill:#f8c47a}.cls-20{fill:#e19a54}.cls-21{fill:#ffdf9a}.cls-22{fill:#e4e6e6}.cls-23{fill:#ce8d4d}.cls-27{fill:#c08448}.cls-31{fill:#ffda35}.cls-36{fill:#e9825f}.cls-37{fill:#132c45}.cls-38{fill:#f19a77}.cls-39{fill:#ffda36}.cls-41{fill:#57120c}</style></defs><path d="M835.9 484.9c58-120.3 89.8-350.6-35.6-427.1-82.1-50-167.6 14.3-255.4 17.3-68.9 2.3-135.4-52-197.5-67.6C184.5-33.2-71.8 72.6 40.9 484.9c281.7-.8 513.3.8 795 0z" fill="#f8f8ff"/><path class="cls-2" d="M677.4 507.9h13.2v11.5h-13.2zm120.6 0h13.2v11.5H798z"/><ellipse class="cls-3" cx="455.2" cy="501.2" rx="452.9" ry="64.9"/><path class="cls-4" d="M315.9 22.2h3.8a75.39 75.39 0 0175.4 75.4v215.6a3.48 3.48 0 01-3.5 3.5H244a3.48 3.48 0 01-3.5-3.5V97.6a75.39 75.39 0 0175.4-75.4z"/><path class="cls-2" d="M392.1 320.1H241.8a4.48 4.48 0 01-4.5-4.5v-248a46.8 46.8 0 0146.8-46.8h65.6a47 47 0 0146.9 46.9v248a4.53 4.53 0 01-4.5 4.4zm-150-4.8h149.8V67.5a42.1 42.1 0 00-42.1-42.1h-65.6a42.17 42.17 0 00-42.1 42.1z"/><path class="cls-2" d="M317 318.1a2.43 2.43 0 01-2.4-2.4V23.1a2.4 2.4 0 114.8 0v292.7a2.49 2.49 0 01-2.4 2.3z"/><path class="cls-2" d="M394.3 250.4H239.7a2.35 2.35 0 010-4.7h154.6a2.35 2.35 0 012.2 2.5 2.29 2.29 0 01-2.2 2.2zm0-146.9H239.7a2.4 2.4 0 110-4.8h154.6a2.4 2.4 0 010 4.8zm0 73.5H239.7a2.4 2.4 0 110-4.8h154.6a2.43 2.43 0 012.4 2.4 2.5 2.5 0 01-2.4 2.4z"/><path class="cls-5" d="M808.4 177.3c-7.9 2.9-4.2 13.8.9 18.7 5.5 5.3 14 8.3 18.7 2.5a2.23 2.23 0 00-.1-3.2 2.21 2.21 0 00-1.9-.6c-3.4.1-6-.8-4.7-3.3s6.5 2.3 8.4 2.3c4.3.1 6-3.2 5-5.9-.8-2.2-6.8-3-5.3-4.8 2.1-2.6 5.2 1.5 7.3-.4 3.4-2.8 2.8-8.3 1.3-10.2-1.2-1.6-6.2-4-9.9-2.4-3.5 1.5-2.5 9.2-4.1 9.3-3.2.2-.6-6.6-3.1-8.6-1.5-1.2-5.9-.4-6.9 2.5-1.4 3.8 3.8 11 0 11.4-3.5.5-1.5-3.6-2.5-5.8-.3-.6-1.5-2.1-3.1-1.5z"/><path class="cls-6" d="M783.6 239.6h-.1c-.2-.1-.3-.3-.2-.4a117.31 117.31 0 0149.7-63 .36.36 0 01.4.6 116.76 116.76 0 00-49.3 62.7 1.09 1.09 0 01-.5.1z"/><path class="cls-5" d="M786.4 154.9c-5.8 6.1 2.4 14.2 9.2 16.3 7.3 2.3 16.2 1.1 17.9-6.2a2.18 2.18 0 00-1.5-2.8 2.09 2.09 0 00-1.9.3c-3 1.6-5.7 2-5.7-.8s6.8-.9 8.6-1.7c3.9-1.9 3.9-5.5 1.8-7.5-1.7-1.6-7.4.4-6.9-1.9.7-3.3 5.2-1 6.4-3.6 1.8-4.1-1.2-8.7-3.5-9.7-1.8-.9-7.3-.8-9.9 2.3-2.5 2.9 2 9.3.5 10.2-2.8 1.6-3.5-5.6-6.7-6.3-1.9-.4-5.5 2.3-5.1 5.3.5 4 8.4 8.1 5.2 10.2-2.9 2-2.9-2.6-4.9-4.1-.6-.5-2.4-1.2-3.5 0z"/><path class="cls-6" d="M792.1 221.8a.27.27 0 01-.3-.3 117.67 117.67 0 0116-78.6c.1-.2.3-.2.5-.1s.2.3.1.5a117.08 117.08 0 00-15.9 78.2 1.38 1.38 0 01-.4.3z"/><path class="cls-5" d="M780.3 168.8c7.2 4.4 1.3 14.3-4.7 18.1-6.5 4.1-15.4 5.3-18.9-1.3a2.26 2.26 0 01.8-3.1 2.54 2.54 0 011.9-.2c3.3.8 6 .4 5.2-2.2s-6.8.9-8.7.6c-4.2-.8-5.2-4.3-3.7-6.8 1.3-2 7.2-1.6 6.2-3.6-1.5-3-5.3.4-7.1-1.8-2.8-3.5-1.1-8.7.8-10.3 1.5-1.3 6.8-2.7 10.2-.4 3.2 2.2.5 9.5 2.2 10 3.1.8 2-6.4 4.8-7.8 1.7-.9 5.8.8 6.3 3.8.6 4-6 10-2.4 11.2 3.3 1.2 2.2-3.2 3.7-5.2.5-.7 2-1.9 3.4-1z"/><path class="cls-6" d="M792 234.9a.27.27 0 01-.3-.3 116.75 116.75 0 00-35.6-71.4.35.35 0 01.5-.5 117.75 117.75 0 0135.8 71.8.37.37 0 01-.4.4z"/><path class="cls-4" d="M778 247.6h25.8l3.9-35.3h-33.8l4.1 35.3z"/><path class="cls-5" d="M807.9 218.6h-34.1a.9.9 0 01-.9-.9l-.4-4.4a1 1 0 01.9-1h35a.9.9 0 01.9.9v.1l-.4 4.4a1.47 1.47 0 01-1 .9z"/><path class="cls-2" d="M742.3 247.9a.79.79 0 00-.8.8v2.2a.79.79 0 00.8.8h81.9a.79.79 0 00.8-.8v-2.2a.79.79 0 00-.8-.8h-81.9z"/><path class="cls-3" d="M159.7-.8h3.1v140.4h-3.1z"/><path class="cls-2" d="M184.3 168.8a23.7 23.7 0 10-47.4 0z"/><path class="cls-2" d="M169 145.2c0 7-3.9 12.6-8.8 12.6s-8.8-5.6-8.8-12.6 3.9-12.6 8.8-12.6 8.8 5.7 8.8 12.6z"/><path class="cls-3" d="M120.7-.8h3.1v91.2h-3.1z"/><path class="cls-2" d="M145.4 119.6a23.7 23.7 0 00-47.4 0z"/><path class="cls-2" d="M130.1 96.1c0 7-3.9 12.6-8.8 12.6s-8.8-5.6-8.8-12.6 3.9-12.6 8.8-12.6 8.8 5.6 8.8 12.6zm195.3 424.7l-52.7-168.3 10.5-2.8 46.9 171.1h-4.7z"/><path class="cls-2" d="M232 520.8l39.7-171.5 10.6 2.5-45.7 169H232z"/><path class="cls-2" d="M310.1 466.9h-63.6v-5.8h61.9l1.7 5.8zM44.3 520.8l52.8-168.3-10.6-2.8-46.8 171.1h4.6z"/><path class="cls-2" d="M137.8 520.8L98.1 349.3l-10.6 2.5 45.7 169h4.6z"/><path class="cls-2" d="M59.7 466.9h63.6v-5.8h-62l-1.6 5.8zM38.9 354h291.2v-16.8H38.9V354z"/><path class="cls-7" d="M62.5 307.2h39.2a.86.86 0 01.8.8v28.3a.86.86 0 01-.8.8H62.5a.86.86 0 01-.8-.8V308a.79.79 0 01.8-.8z"/><path class="cls-2" d="M61.2 311.1v-6.9a1.37 1.37 0 011.5-1.3h38.8a1.32 1.32 0 011.5 1.3v6.9z"/><path class="cls-7" d="M107 297.7h57.7a1.16 1.16 0 011.2 1.2V336a1.16 1.16 0 01-1.2 1.2H107a1.16 1.16 0 01-1.2-1.2v-37.1a1.22 1.22 0 011.2-1.2z"/><path class="cls-2" d="M105.8 302.7v-10.1a1.22 1.22 0 011.2-1.2h57.7a1.22 1.22 0 011.2 1.2v10.1zm20.7 14.6h34.7v14.4h-34.7z"/><path class="cls-5" d="M756.5 334.3h7.3v41.4h-7.3z"/><path class="cls-2" d="M786.4 377.6h-52.5a7.6 7.6 0 017.6-7.6h37.2a7.62 7.62 0 017.7 7.6z"/><path class="cls-6" d="M786.6 341.1h-53a3.78 3.78 0 01-3.8-3.7 4.53 4.53 0 01.3-1.6l16-35.8a3.6 3.6 0 013.4-2.2h20.9a3.76 3.76 0 013.4 2.2l16 35.8a3.77 3.77 0 01-1.9 5 13 13 0 01-1.3.3z"/><path class="cls-5" d="M671.3 377.6h147.2v130.3H671.3z"/><path class="cls-2" d="M684 387.5h120.5v45.7H684zm0 55.3h120.5v52.8H684z"/><circle class="cls-8" cx="696.1" cy="453.1" r="6.4"/><path class="cls-5" transform="rotate(-.06 725.536 401.45)" d="M691.7 395.9h59.8v15.9h-59.8z"/><path class="cls-8" transform="rotate(-.06 735.076 420.554)" d="M704.1 412.4h66v20.8h-66z"/><path class="cls-5" d="M252.3 267.6c-7.9 2.9-4.2 13.8.9 18.7 5.5 5.3 14 8.3 18.7 2.5a2.24 2.24 0 00-.1-3.2 2.21 2.21 0 00-1.9-.6c-3.4.1-6-.8-4.7-3.3s6.5 2.3 8.4 2.3c4.3.1 6-3.2 5-5.9-.8-2.2-6.8-3-5.3-4.8 2.1-2.6 5.1 1.5 7.3-.4 3.4-2.8 2.8-8.3 1.3-10.2-1.2-1.6-6.2-4-9.9-2.4-3.5 1.5-2.5 9.2-4.1 9.3-3.2.2-.6-6.6-3.1-8.6-1.5-1.2-5.9-.4-6.9 2.5-1.4 3.8 3.9 11 0 11.4-3.5.5-1.5-3.6-2.5-5.8-.3-.6-1.5-2.1-3.1-1.5z"/><path class="cls-6" d="M227.5 329.9h-.1c-.2-.1-.3-.2-.2-.4a117.59 117.59 0 0149.6-63c.2-.1.4-.1.5.1s.1.4-.1.5a117.4 117.4 0 00-49.4 62.7c-.1 0-.2.1-.3.1z"/><path class="cls-5" d="M230.2 245.2c-5.8 6.1 2.4 14.2 9.2 16.3 7.3 2.3 16.2 1.1 17.9-6.2a2.18 2.18 0 00-1.5-2.8 2.09 2.09 0 00-1.9.3c-2.9 1.6-5.7 2-5.6-.8s6.8-.9 8.6-1.7c3.9-1.9 3.9-5.5 1.8-7.5-1.7-1.6-7.4.4-6.9-1.9.7-3.3 5.3-1 6.4-3.6 1.8-4.1-1.2-8.7-3.4-9.7-1.8-.9-7.3-.8-9.9 2.3-2.5 2.9 1.9 9.3.5 10.2-2.8 1.6-3.5-5.6-6.7-6.3-1.9-.4-5.4 2.3-5.1 5.3.5 4 8.4 8.1 5.2 10.2-2.9 2-2.9-2.6-4.9-4.1-.7-.5-2.5-1.2-3.7 0z"/><path class="cls-6" d="M235.9 312.1a.27.27 0 01-.3-.3 117.67 117.67 0 0116-78.6c.1-.2.3-.2.5-.1s.2.3.1.5a117.08 117.08 0 00-15.9 78.2.69.69 0 01-.4.3z"/><path class="cls-5" d="M224.2 259.1c7.2 4.4 1.3 14.3-4.7 18.1-6.5 4.1-15.4 5.3-18.9-1.3a2.26 2.26 0 01.8-3.1 2.54 2.54 0 011.9-.2c3.3.8 6 .4 5.2-2.2s-6.8.9-8.7.6c-4.2-.8-5.2-4.3-3.6-6.8 1.3-2 7.2-1.6 6.2-3.6-1.5-3-5.3.4-7.1-1.8-2.8-3.5-1.1-8.7.8-10.3 1.5-1.3 6.8-2.7 10.2-.4 3.1 2.2.5 9.5 2.1 10 3.1.8 1.9-6.4 4.8-7.8 1.7-.9 5.9.8 6.3 3.8.6 4-6 10-2.4 11.2 3.3 1.2 2.2-3.2 3.7-5.2.5-.7 2-1.9 3.4-1z"/><path class="cls-6" d="M235.9 325.2a.27.27 0 01-.3-.3 116.75 116.75 0 00-35.6-71.4.45.45 0 010-.5.45.45 0 01.5 0 117.75 117.75 0 0135.8 71.8c-.1.2-.2.4-.4.4z"/><path class="cls-5" d="M221.9 337.9h25.8l3.9-35.3h-33.8l4.1 35.3z"/><path class="cls-5" d="M251.7 308.9h-34.1a.9.9 0 01-.9-.9l-.4-4.4a1 1 0 01.9-1h34.9a.9.9 0 01.9.9v.1l-.4 4.4a.9.9 0 01-.9.9z"/><path class="cls-9" d="M231.9 326.8c-.1.5-.3 1.1-.4 1.6l-.6 1.8a57.52 57.52 0 01-4.3 8.6c-1 1.6-2 3.3-3.2 5l-1.9 2.7-1 1.4-1.1 1.4-2.4 2.7a17.41 17.41 0 01-1.2 1.4l-1.3 1.4a76.62 76.62 0 01-5.7 5.7l-3.1 2.9-3.4 2.8c-2.3 2-4.8 3.7-7.3 5.6a145.84 145.84 0 01-16.9 10.2l-2.3 1.2-2.4 1.1c-1.6.7-3.2 1.5-4.8 2.1l-5 2c-.8.3-1.7.6-2.5.9l-2.6.9-2.5.9c-.8.3-1.7.5-2.5.8l-2.5.7-2.5.7a15.35 15.35 0 01-18.6-9.3l-.4-1.1c-2.6-5.8-4.9-11.8-6.9-17.8a144.14 144.14 0 01-4.3-17.2 104.71 104.71 0 01-1.8-15.8 91 91 0 01.5-13.8c.2-2 .6-4 1-6a51.83 51.83 0 011.4-5.3c.5-1.5 1.1-3.1 1.7-4.5s1.3-2.5 2-3.7a16 16 0 014.7-5 8.69 8.69 0 015.2-1.4 8.48 8.48 0 015 2 18.71 18.71 0 014.3 5 39 39 0 011.9 3.5 31.67 31.67 0 011.7 4.1c.5 1.5 1.1 3 1.6 4.6s1 3.3 1.5 5.1c.9 3.6 1.8 7.5 2.6 11.6.5 2.3.9 4.8 1.4 7.3.4 2 .7 4 1.1 6.1.9 4.7 1.7 9.7 2.7 14.8l.3 1.4 1-.3c1.5-.5 2.9-1 4.4-1.5l2.2-.7 1.6-.6c5.4-1.9 10.4-4.1 15.3-6.2 2.4-1.2 4.8-2.2 7-3.4l3.3-1.7 3.2-1.8c2.1-1.1 4.1-2.3 6-3.4l1.4-.8 1.4-.9 2.7-1.7 1.3-.8 1.2-.8 2.4-1.6c1.6-1 3-2 4.4-3 2.8-1.8 5.2-3.6 7.4-4.9a26.87 26.87 0 015.3-2.8 3.73 3.73 0 013.3 0c.7.5 1 1.6.9 3.1-.4.9-.6 1.8-.9 2.7z"/><path class="cls-10" d="M153.1 567.3c-.2-7.8-.4-15.6-.8-23.5-.5-10.1-1.2-20.3-2-30.8-.8-9.7-1.7-19.6-2.8-29.7l-.5-4.6c-.5-4.4-1-8.8-1.6-13.2-.5-3.8-1-7.7-1.5-11.5-.8-6-1.8-12-2.7-18.1-.4-2.8-.9-5.5-1.4-8.3-.1-.3-.1-.7-.2-1-.2-1.5-.5-2.9-.8-4.4l-36.2-.8-55.7-1.2c.5 3.8 1.2 9.1 1.8 16 .1 1.5.2 3 .4 4.6a2.77 2.77 0 00.1.9c.2 2.6.4 5.3.6 8.2 0 .6.1 1.3.1 2 .4 6.8.8 14.5 1.1 23.2.1 2.1.1 4.2.2 6.4.2 10.1.4 21.3.3 33.8-.1 8.6-.2 17.8-.5 27.6q-.3 11.55-.9 24.6"/><path class="cls-10" d="M96.1 567.3c.9-8.5 1.7-17.4 2.5-26.5 1.3-14.6 2.5-30.2 3.6-46.7 2.3 13.9 4.6 29.6 6.6 46.8 1 8.2 1.8 17.1 2.5 26.3"/><path class="cls-11" d="M109.1 567.3c.3-18.7-4.5-59.2-6.8-73.1l11.8-3s4.3 32.1 7.1 76.5"/><path d="M117 285a14.54 14.54 0 01-2.6 4.3 21.19 21.19 0 01-17.8 7.4 23.31 23.31 0 01-16.8-9.1 21.91 21.91 0 01-3.7-7.5l.3-.1 16-6.4c6.2 3.1 13.1 6.3 20 9.4z" fill="#f68895"/><path class="cls-13" d="M26.7 336.4a54.7 54.7 0 0013.2 6.7q.45 3.6.9 7.8c3 29.6 4.9 76.9 5.5 101.8 8 1.2 16.1 2.1 24.4 2.7a406.79 406.79 0 0055.2.5c8-.5 15.9-1.2 23.9-2.2l2.5-1c.2-4.8.3-9.5.3-14.2a461 461 0 00-11.5-103.4l11.1-2.5a60.27 60.27 0 00-8.3-31.6 27.72 27.72 0 00-11.7-10.8c-3.5-1.7-9.6-3.7-12.2-4.9l-4.7-2.1c-7.1-3.2-14.2-6.5-20.6-9.7l-16.5 6.6c-.1 0-.2.1-.3.1l-9.2 3.7c-1.9.8-4 1.6-6 2.4a50.12 50.12 0 00-8.6 1.6c-5 1.4-9.8 3.8-13.2 7.7-3.8 4.4-5.5 10.2-7 15.9-2.4 8.4-4.9 16.5-7.2 24.9z"/><path d="M78 275s22-2.6 33.8 4.6c0 0-1.5 5.3-3.9 5.6-7.1.8-28.2-4-28.2-4z" fill="#49a822"/><path class="cls-9" d="M83.2 267.5a46.27 46.27 0 01-4.2 17.2 76.33 76.33 0 0032.6 1.1 60.31 60.31 0 01-2.8-17.4v-3.3a59.83 59.83 0 01.7-7.4c-5.6-9.8-19.3-14.9-31.8-14.5a45.63 45.63 0 015.5 24z"/><path class="cls-15" d="M78 275s7.2 12.2 26.4 11.7l-5.2 13s-18.7-2.6-25.2-16.4z"/><path class="cls-16" d="M82.9 259.6a48.32 48.32 0 01.3 7.6v.3a19.92 19.92 0 017.3-1.1c3.6.1 7.1 1.1 10.6 1.7a24.79 24.79 0 007.7.4v-3.3a59.83 59.83 0 01.7-7.4c-5.6-9.8-19.3-14.9-31.8-14.5a46.46 46.46 0 015.2 16.3z"/><path class="cls-15" d="M104.4 286.7a9.93 9.93 0 007.4-7l4.7 5.7s.2 9-4.2 12.9z"/><path class="cls-9" d="M222.3 336.1a19.25 19.25 0 0012.9 1.6 15.27 15.27 0 0010.1-7.9 13.33 13.33 0 00-.5-12.7c-5.3 4.8-13.6 4.9-18.3 10.3-2.3 2.6-3.3 5.4-4.2 8.7z"/><path class="cls-17" d="M305.5 234.5l-62.8-19.3a4.31 4.31 0 00-5.3 3L208.2 315a4.44 4.44 0 002.8 5.6l62.8 19.3a4.31 4.31 0 005.3-3l29.2-96.8a4.52 4.52 0 00-2.8-5.6z"/><path class="cls-4" d="M274.9 334.9l-62.3-19.2 28.8-95.4 62.4 19.1-28.9 95.5z"/><path d="M290.3 262.2l-29.2-9.4 1.8-5.3 29.1 9.4-1.7 5.3zm-3.1 9.4l-29.2-9.4 1.8-5.3 29.1 9.4-1.7 5.3zm-3.1 9.5l-29.2-9.5 1.8-5.3 29.1 9.4-1.7 5.4zm-3.1 9.4l-29.1-9.5 1.7-5.3 29.1 9.4-1.7 5.4zm-3.1 9.4l-29.1-9.4 1.7-5.4 29.2 9.4-1.8 5.4zm-3.1 9.4l-29.1-9.4 1.7-5.4 29.2 9.5-1.8 5.3z" fill="#ededed"/><path class="cls-15" d="M231.3 295.5l-4.1-7.3 2.5-1.7 2.7 4.7 12.1-7.6 1.4 2.8-14.6 9.1zm4.1-12l-4.1-7.3 2.6-1.7 2.6 4.6 12.1-7.5 1.5 2.7-14.7 9.2zm3.7-12.5l-4.2-7.3 2.6-1.7 2.7 4.6 12.1-7.5 1.4 2.7-14.6 9.2z"/><path class="cls-9" d="M216.3 325.6a14.74 14.74 0 01.2-7.8 10.09 10.09 0 014.9-6 7.89 7.89 0 017.6.1 4.14 4.14 0 011.8 1.9c.7 1.8-.8 3.9-2.6 4.6a10.4 10.4 0 01-5.8 0c1.1 1.7 2.8 4.3 2.6 6.3s-2.7 3.8-4.3 5.1a6 6 0 01-5.8.9c0-1.7 1.8-3.4 1.4-5.1z"/><path class="cls-10" d="M107.6 197.2a17.9 17.9 0 00-10.1-11.4 24 24 0 00-15.4-1.1 27.07 27.07 0 00-13.8 8.1 22.78 22.78 0 00-6 14.7c-.2 8.6 4.5 16.4 9.1 23.6a106.74 106.74 0 0136.2-33.9z"/><path class="cls-11" d="M113 187.5c2.5-1.4 5.2-2.8 8-2.3 3.9.6 6.4 4.9 6.1 8.8s-2.7 7.4-5.5 10.1a31.88 31.88 0 01-34.7 6.6c-1.5-.6-5.4-1.9-6.1-3.4-1.2-2.4 1.3-2.9 3.5-4z"/><path class="cls-17" d="M82.4 255.7a37 37 0 01-9.6-41.4c.6-1 1.2-2 1.8-2.9a33.66 33.66 0 014.7-5.3 47.37 47.37 0 017 16.9 50.45 50.45 0 01-3.9 32.7zm32.2-37.1a18.16 18.16 0 01-2.8 17.8 33.47 33.47 0 01-5.5-14.2c-.2-1.3-.3-2.9.7-3.9a4.14 4.14 0 013.7-.9c1.3.2 2.7 1.5 3.9 1.2z"/><path class="cls-9" d="M110.5 216.1c-1.3 6.8 1.8 13.5 4.5 19.8s5.1 13.5 2.5 19.9c-2.6 6.7-10.4 10.5-17.5 9.5s-13.2-6-16.5-12.4-4.2-13.7-3.6-20.9 2.5-14.1 4.5-20.9c8.6-4.4 18.7-1.3 26.1 5z"/><path class="cls-9" d="M81.7 234.2a11.26 11.26 0 00-2.9-2.4 5.23 5.23 0 00-3.7-.5 5.06 5.06 0 00-3.2 3.6 8 8 0 0011.4 9.3 47.43 47.43 0 01-1.6-10z"/><path class="cls-17" d="M115.4 221.4a53.33 53.33 0 01-28.9-7.4 17.56 17.56 0 01-.1 9.1 20.35 20.35 0 01-7.4 10.8c-3.8-5.7-6.1-13.4-4.9-20a10.55 10.55 0 01.6-2.4 33.66 33.66 0 014.7-5.3 30.51 30.51 0 019.4-5.9 32.14 32.14 0 0128 2.6 18 18 0 012 1.9 20.07 20.07 0 013.8 5.8 7.85 7.85 0 01-4.3 10.2 7.53 7.53 0 01-2.9.6z"/><path class="cls-9" d="M23.2 380.3c0 2.2.1 4.4.1 6.6s.1 4.5.2 6.7l.1 3.4c.1 1.1.2 2.3.2 3.4.4 4.5.7 9.2 1.2 13.8s1.2 9.2 1.9 13.8c.2 1.1.3 2.3.5 3.4l.6 3.3 1.2 6.6c.4 2.2.8 4.3 1.2 6.4s1 4.2 1.5 6.3l1.5 6.1c.5 2 .9 4 1.5 6 1.1 3.9 2.3 7.7 3.3 11.4.3.9.5 1.8.8 2.7l.9 2.7c.6 1.8 1.2 3.5 1.8 5.2l1.8 5c.3.9.6 1.7.9 2.6a25.52 25.52 0 00.8 19.2 22.22 22.22 0 0017.6 12.8c2.5.2 5.3-.2 6.8-2.3 1.7-2.3 1.2-5.7.1-8.4s-2.7-5.2-3-8.2 1.4-6.4 4.1-6.4c1.7 0 3.7 1.1 4.7-.3a2.42 2.42 0 00-.2-2.7 6.2 6.2 0 00-2.2-1.7L62 491.5c-8.5-52-5.9-125.5-5.1-143.8.1-2.7.2-4.2.2-4.2a58.2 58.2 0 01-30.2-7.8 25.58 25.58 0 01-.5 2.7c-.3 1.8-.6 3.6-.9 5.5-.1.9-.3 1.9-.4 2.8s-.2 1.9-.3 2.9c-.4 3.8-.8 7.8-1.1 11.8-.2 2-.2 4.1-.3 6.2l-.1 1.7c0 1.5-.1 3-.1 4.6.1 2.1 0 4.3 0 6.4z"/><path class="cls-19" d="M353.1 444.4h105.5v105.5H353.1z"/><path class="cls-20" d="M511.4 426.9l-52.8 17.5V550l52.8-17.6V426.9z"/><path class="cls-21" d="M353.1 444.4l52.7-17.5h105.6l-52.8 17.5H353.1z"/><path class="cls-22" d="M418.2 451.2H454v15.5h-35.8z"/><path class="cls-22" d="M421.8 452.6h.7v12.2h-.7zm1.9 0h.7v12.2h-.7zm1.9 0h.7v12.2h-.7zm1.9 0h.7v12.2h-.7z"/><path class="cls-22" d="M427.5 452.6h.7v12.2h-.7zm1.9 0h.7v12.2h-.7zm1.9 0h.7v12.2h-.7zm1.9 0h.7v12.2h-.7zm1.2 0h.7v12.2h-.7zm1.8 0h.7v12.2h-.7zm1.9 0h.7v12.2h-.7zm1.9 0h.7v12.2h-.7zm1.8 0h.7v12.2h-.7zm1.9 0h.7v12.2h-.7z"/><path class="cls-22" d="M443.8 452.6h.7v12.2h-.7zm1.9 0h.7v12.2h-.7zm1.9 0h.7v12.2h-.7zm1.9 0h.7v12.2h-.7z"/><path class="cls-23" d="M440.4 426.9l-43.7 17.5H415l42.3-17.5h-16.9zm-43.7 17.5v20.5h18.1l.2-20.5h-18.3zm0 85.7v20.4h18.1l.2-20.4h-18.3z"/><path class="cls-19" d="M475.4 469.6h80.9v80.9h-80.9z"/><path class="cls-20" d="M596.8 456.1l-40.5 13.5v80.9l40.5-13.5v-80.9z"/><path class="cls-21" d="M475.4 469.6l40.5-13.5h80.9l-40.5 13.5h-80.9z"/><path d="M568.7 523.8v22.5l12.1-3.9v-22.7l-12.1 4.1zm0-58.3V488l12.1-3.9v-22.7l-12.1 4.1z" fill="#d38137"/><path class="cls-20" d="M499.8 461.4l-1.6.6-2.6.8-8.4 2.7h81.5l12.1-4.1h-81z"/><path fill="#eab973" d="M488.6 404.1h60v62.6h-60z"/><path fill="#d3914f" d="M578.6 394.1l-30 10v62.6l30-10.6v-62z"/><path class="cls-27" d="M488.6 404.1l30-10h60l-30 10h-60z"/><path class="cls-22" d="M525.7 407.9h20.4v8.8h-20.4z"/><path class="cls-22" d="M527.7 408.8h.4v7h-.4zm1 0h.4v7h-.4zm1.1 0h.4v7h-.4zm1.1 0h.4v7h-.4z"/><path class="cls-22" d="M530.9 408.8h.4v7h-.4zm1.1 0h.4v7h-.4zm1.1 0h.4v7h-.4zm1.1 0h.4v7h-.4zm.6 0h.4v7h-.4zm1.1 0h.4v7h-.4zm1 0h.4v7h-.4zm1.1 0h.4v7h-.4zm1.1 0h.4v7h-.4zm1.1 0h.4v7h-.4z"/><path class="cls-22" d="M540.2 408.8h.4v7h-.4zm1.1 0h.4v7h-.4zm1 0h.4v7h-.4zm1.1 0h.4v7h-.4z"/><path class="cls-27" d="M514 455.1v11.6h10.3l.1-11.6H514z"/><path fill="#e5b571" d="M370.9 364.4h75.3v75.3h-75.3z"/><path class="cls-23" d="M483.9 351.8l-37.7 12.6v75.2l37.7-12.5v-75.3z"/><path fill="#eccf8f" d="M370.9 364.4l37.7-12.6h75.3l-37.7 12.6h-75.3z"/><path d="M457.7 414.7v21l11.3-3.6V411l-11.3 3.7zm0-54.2v21l11.3-3.6v-21.1l-11.3 3.7z" fill="#c07632"/><path class="cls-23" d="M393.7 356.8l-1.6.5-2.4.8-7.8 2.4h75.8l11.3-3.7h-75.3z"/><path class="cls-22" d="M417.4 369.1H443v11.1h-25.6z"/><path class="cls-22" d="M419.9 370.2h.5v8.7h-.5zm1.4 0h.5v8.7h-.5zm1.3 0h.5v8.7h-.5zm1.4 0h.5v8.7h-.5z"/><path class="cls-22" d="M424 370.2h.5v8.7h-.5zm1.4 0h.5v8.7h-.5zm1.3 0h.5v8.7h-.5zm1.4 0h.5v8.7h-.5zm.8 0h.5v8.7h-.5zm1.3 0h.5v8.7h-.5zm1.3 0h.5v8.7h-.5zm1.4 0h.5v8.7h-.5zm1.4 0h.5v8.7h-.5zm1.3 0h.5v8.7h-.5z"/><path class="cls-22" d="M435.7 370.2h.5v8.7h-.5zm1.3 0h.5v8.7h-.5zm1.4 0h.5v8.7h-.5zm1.3 0h.5v8.7h-.5z"/><circle class="cls-13" cx="540.5" cy="224.5" r="140.4"/><circle class="cls-4" cx="540.5" cy="224.5" r="123.6"/><circle class="cls-31" cx="540.5" cy="224.5" r="14.7"/><path class="cls-31" d="M540 233.5a9.1 9.1 0 01-7.6-4.1l-42.5-66a9 9 0 1115.1-9.7l39.2 60.9 36.7-6.9a9 9 0 113.3 17.7l-42.6 8a8.08 8.08 0 01-1.6.1zm.5 109.5a8.51 8.51 0 01-8.5-8.5v-10.7a8.5 8.5 0 1117 0v10.7a8.51 8.51 0 01-8.5 8.5zm0-209a8.51 8.51 0 01-8.5-8.5v-10.7a8.5 8.5 0 1117 0v10.7a8.51 8.51 0 01-8.5 8.5zM441 232.8h-10.7a8.5 8.5 0 010-17H441a8.5 8.5 0 010 17zm209.7 0h-10.8a8.5 8.5 0 010-17h10.8a8.5 8.5 0 010 17z"/><path d="M546.2 18l-4.9 163a9 9 0 01-16.5 4.6L436.1 48.8a9.38 9.38 0 012.5-12.9c14-9.5 47.7-27.9 98.3-27.6a9.43 9.43 0 019.3 9.7z" fill="#ff4f5b"/><path class="cls-4" d="M485.91 75.66l-6.65-25.95-4.39 7.58-5.52-3.44 8.36-14.2 6.65-1.7 9.16 35.76zm8.4-21.18c-2.36-9.22-.17-19.61 10.07-22.23s17.16 5.43 19.53 14.65.12 19.68-10.06 22.29-17.18-5.49-19.54-14.71zm21.82-5.59c-1.69-6.59-4.92-11.19-10-9.88s-5.77 6.9-4.08 13.49 4.94 11.25 10.09 9.93 5.68-6.94 3.99-13.54z"/><path class="cls-16" d="M772.6 521.1c1.9-46.3 4.6-99.2-2-146.3-2-8.7.5-32.8-9.8-25.3-26 19.3-.1 140.9.9 157.7 2.6 12.8 4.2 35.2 8.4 43.8 2.3-8.3 1.6-17.9 2.5-29.9z"/><path d="M770.4 554.5c-1.8 7.7-22.8 8.9-20.8 2.1 3.2-2.9 8.4-3 12.4-5.5 6.9-4.5 10.2-5.8 8.4 3.4z" fill="#0a273a"/><path class="cls-9" d="M786.2 521.1c1.9-46.3 4.6-99.2-2-146.3-2-8.7.5-32.8-9.8-25.3-26 19.3-.1 140.9.9 157.7 2.6 12.8 4.2 35.2 8.4 43.8 2.2-8.3 1.6-17.9 2.5-29.9z"/><path class="cls-17" d="M784.6 554.5c-1.7 7.7-22.8 8.9-20.8 2.1 3.2-2.9 8.4-3 12.4-5.5 6.9-4.5 10.3-5.8 8.4 3.4zm-29-215.3c-10.9 32.9-9.7 102.4-9.6 107.4 11.3 5.8 53.4 7.9 50.4-3.6 1.9-57.9-13.9-98.9-15.7-103.8 1.5-.9-13.6-2.4-25.1 0zm31.2-98.5c1 4.5 0 10.3 4.2 13.7 29.3 21.4-8.9 43.2-29.6 28.4-9.3-7.1.3-14.6-2.5-22.3-22.2-29.4 21.4-39.2 27.9-19.8z"/><path class="cls-9" d="M763.4 285.6c4.4 2.7 16.2 1.4 16-4.8a63.77 63.77 0 01-2-26.4c-3.3 2.4-9.8 4.6-10.6 9.2a61.37 61.37 0 01-3.4 22z"/><path d="M796.5 299.2c-1.2 2-9.3 5.3-12.6 6.4-6.9 14.1-.7 33.3-5.3 33.8-6.3 1.8-13.8 1.6-20.7.1-4.4-.2-3.4-5.2-5.3-9a86.9 86.9 0 01-4-24.8 22.67 22.67 0 01-6.1-5c-1.4-1.4-.5-.9.9-4 16-24.6 45.2-32.7 53.1 2.5z" fill="#4fa52b"/><path class="cls-9" d="M778.9 276c-4.6 15.7-33 10-17.2 3.1 5.4-2.4 6.5-5.6 17.2-3.1z"/><path class="cls-16" d="M766.3 273.5c10.9-3.6 10.7-10.1 11.2-19.2-12.9 8-9.9 5.2-11.2 19.2z"/><path class="cls-9" d="M777.4 257.9c.8 9.3-14.5 17.7-17.7 6.2-1.6-7.7 5.9-13.2 2.3-21 5.6 4 18 4.4 15.4 14.8z"/><path class="cls-9" d="M777.1 256.4c1-4 5.3 1.6 2.3 4.3-5.1 3.5-2.8-1.1-2.3-4.3z"/><path class="cls-4" d="M776.7 261.5c.9 3.1 5.1-.9 1.2-1.6a1.5 1.5 0 00-1.2 1.6z"/><path class="cls-9" d="M794.3 292.3c4.1 6.7 12.4 23.8 14.4 31.6-7.1 16-19.9 47.7-22.9 45.4-1.9-8.1 3-19.9 5.3-29 2.3-9.4 3.6-9.1 4.6-15.1-3.9-5.7-7.7-13.4-11.7-19.5 5.3-.8 11-9.2 10.3-13.4zm-52.5 8L728 321.9s-1.2-3.5-21.6-18.7c-1.2-.9-6.4 3.9-6.4 3.9s20.3 24.5 29.4 30.4c2.2 1.4 19.8-23.3 19.8-23.3l-.5-8.4z"/><path class="cls-9" d="M699.9 307.1l-4.5-4.2a2.67 2.67 0 01-.7-1.4l-.3-7.6a2.05 2.05 0 011.6-2.1l9.1.5 1.8 11.4-6 3.4"/><path class="cls-9" d="M703.3 285.2l-3.3 7.2 5.3.5-.4-7.3c-.1-.9-1.3-1.2-1.6-.4z"/><path class="cls-16" d="M703.6 295.6h-.15l-4.8-1.5a.5.5 0 01.3-1l4.8 1.5a.5.5 0 01-.15 1zm.1 2h-.05l-5-.5a.5.5 0 01.1-1l5 .5a.5.5 0 010 1zm-5 2.5a.49.49 0 01-.49-.43.51.51 0 01.42-.57l5-.69a.51.51 0 01.57.42.52.52 0 01-.43.57l-5 .69zm.6 2.8a.51.51 0 01-.48-.35.51.51 0 01.33-.63l4.7-1.5a.5.5 0 11.3 1l-4.7 1.5z"/><path class="cls-36" d="M663.9 364.3a56 56 0 01-4-4.7 1.29 1.29 0 00-2.3.7c-.2 2.1-1 4.1-2.4 4.3-2 .3-3.8-1.1-5.5-2a5.82 5.82 0 00-3.8-.9 2.76 2.76 0 00-1.9 1.2c-1 1.6.2 3.5 1.5 4.7a16.53 16.53 0 0017 3.3c.4-2.2.9-4.3 1.4-6.6z"/><path class="cls-37" d="M674.4 340.7a7.25 7.25 0 01.7 8.2c-.8 1.4-2.1 2.4-2.6 3.9-.6 1.8.1 3.8.7 5.7a50 50 0 012.9 17.1 27.6 27.6 0 01-5.6 16.2c-3.6 4.5-9.2 7.7-15 7.6s-11-3.1-15.5-6.7a35.26 35.26 0 01-9.3-10.7c-2.2-4.2-3.3-9.2-2.2-13.8s4.5-8.9 9-10.3c2.4-.8 5.1-.8 6.9-2.5 2.5-2.2 2.3-6.2 3.2-9.4a13.24 13.24 0 017.1-8.4c3.3-1.5 6.9-1.3 10.4-.4 3.1.8 7.1.9 9.3 3.5z"/><path class="cls-38" d="M653.8 469.6v3.5c-.1 12-.4 23.5-.8 33.9s-.8 19.8-1.2 27.7c-.1 2.5-.2 4.8-.4 7-.1 2-.2 3.8-.3 5.5a8.8 8.8 0 01-4 3.6c-.4-2.2-.8-4.8-1.3-7.7-.4-2.4-.8-5-1.2-7.9-1.2-7.8-2.6-17.1-4-27.4s-3-21.6-4.3-33.6c-.8-7-1.5-13.9-2-20.4a65.16 65.16 0 0117.9-3.1h1.6c0 6 .1 12.4 0 18.9z"/><path class="cls-38" d="M671.9 473.1c-.1 12-.4 23.5-.8 33.9s-.8 19.8-1.2 27.7c-.1 2.4-.2 4.6-.3 6.7s-.2 4.3-.4 6.2a8.74 8.74 0 01-4 3.3c-.4-2.2-.8-4.8-1.3-7.7-.4-2.5-.8-5.1-1.3-8-1.2-7.8-2.6-17.1-4-27.4s-3-21.6-4.3-33.6c-.2-1.5-.3-3.1-.5-4.6q-1-9.75-1.8-18.9h2.6a69.28 69.28 0 0117.2 2.2c.2 6.5.2 13.2.1 20.2zm-13.1-96.5a12.48 12.48 0 01-13.4.6 28.26 28.26 0 001.3-5c.1-.5.1-1 .2-1.5v-1.5a30.93 30.93 0 0011.7-4.2 39.08 39.08 0 00-.3 4.9 20.9 20.9 0 00.1 2.5 29.84 29.84 0 00.4 4.2z"/><path class="cls-36" d="M658.3 369.8a20.9 20.9 0 00.1 2.5 15.51 15.51 0 01-5.6 1.1 14.24 14.24 0 01-6.1-1.3c.1-.5.1-1 .2-1.5v-1.5a30.93 30.93 0 0011.7-4.2 41.54 41.54 0 00-.3 4.9z"/><path class="cls-38" d="M662.6 361.9c-.8 1-1.5 2-2 2.7-.2.2-.3.5-.5.7a6.47 6.47 0 00-.9.8 12.89 12.89 0 01-6.9 3.4 20.9 20.9 0 01-2.5.1 9.48 9.48 0 01-5.3-2.1 7.05 7.05 0 01-2.4-3.7c-.8-3.1.6-6.4 2.7-8.9a4.35 4.35 0 00.6-.7c1.4-1.6 3.6-3.8 5.4-5.7a9.59 9.59 0 006.3-1.9 27 27 0 005.1 14.5 1.23 1.23 0 00.4.8z"/><path class="cls-38" d="M660.8 360.5a1.2 1.2 0 011.2-1.1 1.56 1.56 0 011.5.8 2 2 0 01.2 1.7 3.77 3.77 0 01-.9 1.5 5.23 5.23 0 01-1.7 1.2 2.77 2.77 0 01-2-.1 9.53 9.53 0 011.7-4z"/><path class="cls-9" d="M633.8 394.3s-3.7 38.4-3.9 65.2c0 0-1.9 7.9 4.4 13.2l7.2-77.2z"/><path class="cls-39" d="M678.1 479.9s-2.1.5-5.5 1.1c-9.5 1.6-29.4 3.8-45.1-2.3l.4-.3c-.1-16.1 4.8-49.7 9.3-72.6l-6.7-2.2c5.5-22 13.9-25.6 14.2-25.7a5.17 5.17 0 01.7-.6l13.4-.6a4.47 4.47 0 011.1.2c2.7.6 9.9 3.2 14.2 12.2a39.6 39.6 0 013.5 15.2 11.3 11.3 0 01-5.2 2.8c1 19.9 2.8 53.4 5.7 72.8z"/><path class="cls-38" d="M678.7 416.3v1.1c0 1.5-.1 3-.2 4.5-.1.9-.2 1.8-.3 2.6-.1.6-.1 1.3-.2 1.9 0 .4-.1.7-.1 1.1s-.1.7-.2 1.1a38972253593466.48 38972253593466.48 0 00-.8 4.2c-.2.7-.3 1.4-.5 2-.3 1.3-.6 2.6-1 3.9-.8 2.5-1.5 4.9-2.3 7-.4 1.1-.8 2.1-1.2 3.1s-.8 1.7-1.2 2.5a11.4 11.4 0 01-.8 6.3 11.19 11.19 0 01-4.9 5.4 2 2 0 01-3-1.8v-8.5c-.6.2-1.6.7-2.6 1.1a.66.66 0 01-.7-1.1 24.67 24.67 0 016.7-4.1c.1-.5.1-1.1.2-1.6.1-1 .2-2 .3-3.1.3-2.1.3-4.4.5-6.8.1-1.2 0-2.4.1-3.6v-1.9a12.1 12.1 0 00-.1-1.9 12.1 12.1 0 00-.1-1.9v-1a3.75 3.75 0 00-.1-1c-.1-1.3-.2-2.6-.3-4s-.3-2.7-.4-4c0-.3-.1-.6-.1-1s-.1-.6-.1-1a12.25 12.25 0 01-.2-1.9c-.1-.6-.1-1.2-.2-1.8l-.3-1.8a4.33 4.33 0 01-.1-.5c-.2-1-.3-2.1-.5-3-.4-2.3-.7-4.4-1.1-6.4-.2-1-.3-2-.5-3s-.3-1.8-.5-2.7c-.2-1.8-.5-3.4-.6-4.8a14.77 14.77 0 01-.1-2.1V386c.1-2.3.8-3.8 2-4.4s2.8 0 4.6 1.6a18.48 18.48 0 011.4 1.4 14.1 14.1 0 011.4 1.8 29.15 29.15 0 012.7 4.7c.4.9.9 1.9 1.3 2.9s.7 2.1 1.1 3.2a48.71 48.71 0 011.8 7.3c.2 1.3.4 2.7.6 4 .1.7.1 1.4.2 2.1s.1 1.4.1 2.1.1 1.4.1 2.2a3.9 3.9 0 01.2 1.4z"/><path class="cls-39" d="M658.8 376.6s17.6 1.9 18.8 27.6c0 0-4.6 5.3-16.3 2.8z"/><path class="cls-38" d="M659.9 376.8a9.11 9.11 0 01-3 4.7 9 9 0 01-8.2 1.4 6.31 6.31 0 01-3.6-3 3.44 3.44 0 01-.4-2 5.17 5.17 0 01.7-.6l13.4-.6c0-.1.4 0 1.1.1z"/><path class="cls-37" d="M627.5 555.3a.43.43 0 00.4.4 23 23 0 006.5.7c4.9-.4 19.6-1.5 19.6-1.5a.43.43 0 00.4-.4l-.1-1.5a.43.43 0 00-.4-.4s-14.7 1.1-19.6 1.5a21 21 0 01-6.1-.7.43.43 0 00-.4.4z"/><path class="cls-4" d="M653.9 552.6s.6-3.9-.9-6.2 0-8.7-.4-10.4-1-1.6-4-2.8-6-1.5-5.5 1 1.1 14.2-9.4 17.1c-2.5-.3-6.2 1-5.4 2a16.78 16.78 0 006.1.7c7.7-.5 19.5-1.4 19.5-1.4z"/><path d="M643 534.3c-.4-2.5 2.4-2.2 5.5-1s3.7 1 4 2.8-1.1 8.2.4 10.4.9 6.2.9 6.2l-19.6 1.5a26 26 0 01-2.8 0 3.42 3.42 0 012.1-2.6c10.6-3.1 10-14.8 9.5-17.3z" fill="#e72d5e"/><path class="cls-4" d="M635.7 552.1a.57.57 0 11.7.4c-.2.1-.6-.1-.7-.4z"/><path class="cls-41" d="M636 552c-.1-.2 0-.3.2-.4s.3 0 .4.2 0 .3-.2.4-.4 0-.4-.2z"/><path class="cls-4" d="M635.4 550.4c-.1-.2 0-.3.2-.4.2-.1.3 0 .4.2l.5 1.3c.1.2 0 .4-.2.4-.2.1-.3 0-.4-.2zm2.7.6a.57.57 0 11.8.1.61.61 0 01-.8-.1z"/><path class="cls-41" d="M638.3 550.8a.29.29 0 11.4.1.25.25 0 01-.4-.1z"/><path class="cls-4" d="M637.3 549.4a.25.25 0 01.1-.4.25.25 0 01.4.1l.8 1.2a.25.25 0 01-.1.4.25.25 0 01-.4-.1zm3-.1a.57.57 0 11.8-.1.47.47 0 01-.8.1z"/><path class="cls-41" d="M640.5 549.2a.28.28 0 11.4 0 .3.3 0 01-.4 0z"/><path class="cls-4" d="M639.1 548.1a.3.3 0 010-.4.3.3 0 01.4 0l1.1.9a.3.3 0 010 .4.3.3 0 01-.4 0zm3-1a.63.63 0 01-.3-.8.52.52 0 01.8-.2.63.63 0 01.3.8.78.78 0 01-.8.2z"/><path class="cls-41" d="M642.2 546.9a.29.29 0 11.4-.1.6.6 0 01-.4.1z"/><path class="cls-4" d="M640.6 546.1a.25.25 0 01-.1-.4c.1-.1.3-.2.4-.1l1.3.6a.25.25 0 01.1.4.25.25 0 01-.4.1zm2.7-1.8a.57.57 0 11.7-.4c0 .4-.4.5-.7.4z"/><path class="cls-41" d="M643.4 544.1c-.2-.1-.3-.2-.2-.4s.2-.3.4-.2.3.2.2.4-.2.2-.4.2z"/><path class="cls-4" d="M641.8 543.5c-.2-.1-.3-.2-.2-.4.1-.2.2-.3.4-.2l1.3.5c.2.1.3.2.2.4-.1.2-.2.3-.4.2zm2.4-1.9a.75.75 0 01-.5-.7c0-.3.4-.5.7-.5a.75.75 0 01.5.7c-.1.4-.4.6-.7.5z"/><path class="cls-41" d="M644.3 541.4c-.2 0-.3-.2-.3-.4s.2-.3.4-.3.3.2.3.4-.3.3-.4.3z"/><path class="cls-4" d="M642.6 541.1c-.2 0-.3-.2-.3-.4s.2-.3.4-.3l1.4.2c.2 0 .3.2.3.4s-.2.3-.4.3zm2-2.4a.5.5 0 01-.5-.6c.1-.3.3-.6.6-.5a.5.5 0 01.5.6.65.65 0 01-.6.5z"/><path class="cls-41" d="M644.6 538.4a.3.3 0 11.3-.3.27.27 0 01-.3.3z"/><path class="cls-4" d="M642.9 538.3a.32.32 0 01-.3-.3.32.32 0 01.3-.3l1.4.1a.27.27 0 01.3.3.32.32 0 01-.3.3z"/><path class="cls-37" d="M645.4 554.5a.43.43 0 00.4.4 20.93 20.93 0 006.4.8c4.9-.3 19.7-1.1 19.7-1.1a.43.43 0 00.4-.4l-.1-1.5a.43.43 0 00-.4-.4s-14.7.8-19.6 1.1a19.42 19.42 0 01-6.1-.8.43.43 0 00-.4.4z"/><path class="cls-4" d="M671.9 552.2s.7-3.9-.8-6.2.2-8.7-.2-10.4-.9-1.6-4-2.8-5.9-1.6-5.5.9.8 14.3-9.7 16.9c-2.5-.4-6.2.9-5.5 1.8a18.23 18.23 0 006.1.8c7.7-.3 19.6-1 19.6-1z"/><path d="M661.3 533.7c-.4-2.5 2.5-2.1 5.5-.9s3.6 1.1 4 2.8-1.3 8.1.2 10.4.8 6.2.8 6.2-11.8.6-19.6 1.1a12.39 12.39 0 01-2.8-.1 3.42 3.42 0 012.1-2.6c10.6-2.6 10.2-14.4 9.8-16.9z" fill="#e9486e"/><path class="cls-4" d="M653.7 551.4a.57.57 0 11.7.4.57.57 0 01-.7-.4z"/><path class="cls-41" d="M653.9 551.3c-.1-.2 0-.3.2-.4s.3 0 .4.2 0 .3-.2.4-.3 0-.4-.2z"/><path class="cls-4" d="M653.4 549.7c-.1-.2 0-.3.2-.4.2-.1.3 0 .4.2l.4 1.3c.1.2 0 .3-.2.4-.2.1-.3 0-.4-.2zm2.7.6a.58.58 0 11.8.2.63.63 0 01-.8-.2z"/><path class="cls-41" d="M656.3 550.2a.29.29 0 11.4.1c-.1.1-.3 0-.4-.1z"/><path class="cls-4" d="M655.4 548.7a.25.25 0 01.1-.4.25.25 0 01.4.1l.8 1.2a.25.25 0 01-.1.4.25.25 0 01-.4-.1zm3 0a.57.57 0 11.8-.1.53.53 0 01-.8.1z"/><path class="cls-41" d="M658.5 548.5a.28.28 0 11.4 0c-.1.1-.2.1-.4 0z"/><path class="cls-4" d="M657.2 547.4a.3.3 0 010-.4.3.3 0 01.4 0l1.1.9a.3.3 0 010 .4.3.3 0 01-.4 0zm2.9-.9a.58.58 0 11.8-.2.6.6 0 01-.8.2z"/><path class="cls-41" d="M660.3 546.3c-.1-.1-.2-.3-.1-.4s.3-.2.4-.1.2.3.1.4-.3.2-.4.1z"/><path class="cls-4" d="M658.7 545.5c-.1-.1-.2-.3-.1-.4.1-.1.3-.2.4-.1l1.3.7c.1.1.2.3.1.4-.1.1-.3.2-.4.1zm2.8-1.7a.54.54 0 11.7-.3.61.61 0 01-.7.3z"/><path class="cls-41" d="M661.5 543.5c-.2-.1-.2-.2-.2-.4s.2-.2.4-.2.2.2.2.4-.2.3-.4.2z"/><path class="cls-4" d="M659.9 542.9c-.2-.1-.2-.2-.2-.4.1-.2.2-.3.4-.2l1.3.5c.2.1.2.2.2.4-.1.2-.2.2-.4.2zm2.5-1.8a.57.57 0 11.7-.4.84.84 0 01-.7.4z"/><path class="cls-41" d="M662.4 540.8c-.2 0-.3-.2-.3-.4s.2-.3.4-.3.3.2.3.4-.2.3-.4.3z"/><path class="cls-4" d="M660.7 540.5c-.2 0-.3-.2-.3-.4s.2-.3.4-.3l1.4.3c.2 0 .3.2.3.4s-.2.3-.4.3zm2.1-2.4a.55.55 0 11.6-.5c0 .3-.2.5-.6.5z"/><path class="cls-41" d="M662.9 537.9a.32.32 0 01-.3-.3.45.45 0 01.3-.3.32.32 0 01.3.3.45.45 0 01-.3.3z"/><path class="cls-4" d="M661.1 537.8a.32.32 0 01-.3-.3.32.32 0 01.3-.3l1.4.1a.32.32 0 01.3.3.32.32 0 01-.3.3z"/></svg>