<svg xmlns="http://www.w3.org/2000/svg" xmlns:xlink="http://www.w3.org/1999/xlink" viewBox="0 0 910 567"><style>.st2{fill:#fff}.st6{fill:#132c45}.st11{fill:#e4b571}.st12{fill:#e5e7e6}.st13{fill:#cf8e4e}.st17{fill:#f8c57b}.st18{fill:#e19a53}.st19{fill:#c08448}.st20{fill:#d38238}.st23{fill:#ffdf9a}.st24{fill:#eab974}.st25{fill:#d4914f}.st27{fill:#ecd08f}.st28{fill:#c17631}.st30{fill:#0682a0}.st32{fill:#e9825f}.st34{fill:#f19a77}.st44{fill:#ffda36}.st49{fill:#f2d492}.st50{fill:#fcbf0a}.st53{fill:#067487}.st54{fill:#09626c}.st57{fill:none;stroke:#fcbf0a;stroke-width:20;stroke-miterlimit:10}</style><g id="Layer_1"><ellipse cx="455" cy="489.08" rx="455" ry="65.19" fill="#eaf1fb"/><path d="M828.34 464.54c51.9-107.85 80.46-314.28-31.96-382.8-73.59-44.85-150.24 12.84-228.94 15.48-61.75 2.07-121.3-46.7-177.02-60.63C244.4.11 14.71 94.99 115.71 464.54c252.52-.72 460.11.71 712.63 0z" fill="#f8f9fd"/><path d="M695.56 463.58c.47-1.14.8-2.32.98-3.54l.01-.03h-.01c.17-1.16.2-2.35.07-3.58-1.29-11.79-15.91-16.8-27.77-16.46-11.85.34-24.83 3.02-34.75-3.46-12.33-8.06-13.12-25.49-19.68-38.68-11.45-23.02-45.09-31.21-65.84-16.02-.03-19.98-15.76-38.81-35.42-42.38-19.66-3.58-41.01 8.5-48.08 27.19 1.41-17.03-18.92-22.74-31.6-17.48-16.78 6.96-21.62 25.99-27.21 41.29-10.24-12.68-34.55-17.93-31.47 3.39 1.07 7.44 4.23 15.13 8.84 22.78-6.9.05-13.78 3.31-17.93 9.84-6.22-17.11-30.49-17.69-37.54-.91 2.84-10.9-7.01-20.89-17.86-18.4-28.3 6.49-19.63 25.92-1.33 48.16-15.63-13.33-47.42 3.2-50.15 20.96h433.23l3.51-12.67z" fill="#cde4f7"/><path d="M81.35 163.38c10.72-14.87 18.35-25.16 46.71-25.16 16.83 0 43.85 21.13 60.57 19.17 11.81-1.38 23.13-10.73 34.37-6.87 5.47 1.88 8.95 7.19 9.8 12.86H81.35zm290.16-32.45c-14.25-5.85-28.5-11.69-42.75-17.54-11.94-4.9-26.86-9.39-36.66-1-6.09 5.21-10.07 15.14-18.05 14.45-11.25-.97-18.76-26.38-31.52-9.53-4.38 5.79-2.93 12.37.73 17.86h135.71c-2.05-1.86-4.85-3.17-7.46-4.24zm370.11 2.23c9.98-13.85 17.08-23.42 43.48-23.42 15.67 0 40.82 19.67 56.39 17.85 10.99-1.29 21.53-9.99 32-6.39 5.09 1.75 8.33 6.7 9.13 11.97h-141z" fill="#e4f4fe"/><path class="st17" d="M24.42 428.99h78.84v78.84H24.42z"/><path class="st18" d="M142.68 415.85l-39.42 13.14v78.84l39.42-13.14z"/><path class="st23" d="M24.42 428.99l39.42-13.14h78.84l-39.42 13.14z"/><path class="st12" d="M73.11 434.01h26.77v11.59H73.11z"/><path class="st12" d="M75.74 435.11h.51v9.13h-.51zm1.42 0h.51v9.13h-.51zm1.41 0h.51v9.13h-.51zm1.42 0h.51v9.13h-.51z"/><path class="st12" d="M80.04 435.11h.51v9.13h-.51zm1.41 0h.51v9.13h-.51zm1.42 0h.51v9.13h-.51zm1.41 0h.51v9.13h-.51zm.9 0h.51v9.13h-.51zm1.36 0h.51v9.13h-.51zm1.37 0h.51v9.13h-.51zm1.42 0h.51v9.13h-.51zm1.41 0h.51v9.13h-.51zm1.42 0h.51v9.13h-.51z"/><path class="st12" d="M92.21 435.11h.51v9.13h-.51zm1.41 0h.51v9.13h-.51zm1.42 0h.51v9.13h-.51zm1.41 0h.51v9.13h-.51z"/><path class="st13" d="M89.65 415.85l-32.63 13.14h13.63l31.66-13.14zm-32.63 13.14v15.25h13.51l.12-15.25zm0 64.01v15.26h13.51l.12-15.26z"/><path class="st17" d="M115.8 447.78h60.48v60.48H115.8z"/><path class="st18" d="M206.52 437.7l-30.24 10.08v60.48l30.24-10.08z"/><path class="st23" d="M115.8 447.78l30.24-10.08h60.48l-30.24 10.08z"/><path class="st20" d="M185.5 488.25v16.86l9.05-2.94v-16.94zm0-43.54v16.86l9.05-2.94v-16.94z"/><path class="st18" d="M134.07 441.69l-1.24.41-1.91.64-6.33 1.97h60.91l9.05-3.02z"/><path class="st24" d="M125.66 398.84h44.85v44.85h-44.85z"/><path class="st25" d="M192.93 391.36l-22.42 7.48v44.85l22.42-7.48z"/><path class="st49" d="M125.66 398.84l22.43-7.48h44.84l-22.42 7.48z"/><path class="st12" d="M153.36 401.69h15.23v6.59h-15.23z"/><path class="st12" d="M154.86 402.32h.29v5.19h-.29zm.8 0h.29v5.19h-.29zm.81 0h.29v5.19h-.29zm.8 0h.29v5.19h-.29z"/><path class="st12" d="M157.3 402.32h.29v5.19h-.29zm.81 0h.29v5.19h-.29zm.8 0h.29v5.19h-.29zm.81 0h.29v5.19h-.29zm.5 0h.29v5.19h-.29zm.78 0h.29v5.19H161zm.78 0h.29v5.19h-.29zm.81 0h.29v5.19h-.29zm.8 0h.29v5.19h-.29zm.81 0h.29v5.19h-.29z"/><path class="st12" d="M164.22 402.32h.29v5.19h-.29zm.81 0h.29v5.19h-.29zm.8 0h.29v5.19h-.29zm.81 0h.29v5.19h-.29z"/><path class="st19" d="M162.77 391.36l-18.56 7.48h7.75l18.01-7.48z"/><path class="st19" d="M144.21 398.84v8.68h7.68l.07-8.68zm0 36.41v8.68h7.68l.07-8.68z"/><path class="st17" d="M179.93 429.41h78.84v78.84h-78.84z"/><path class="st18" d="M298.19 416.27l-39.42 13.14v78.85l39.42-13.14z"/><path class="st23" d="M179.93 429.41l39.42-13.14h78.84l-39.42 13.14z"/><path class="st20" d="M270.79 482.17v21.98l11.8-3.83v-22.08zm0-56.76v21.98l11.8-3.83v-22.08z"/><path class="st18" d="M203.74 421.48l-1.62.54-2.48.82-8.25 2.57h79.4l11.8-3.93z"/><path class="st12" d="M228.62 434.43h26.77v11.59h-26.77z"/><path class="st12" d="M231.25 435.54h.51v9.13h-.51zm1.42 0h.51v9.13h-.51zm1.41 0h.51v9.13h-.51zm1.42 0h.51v9.13h-.51z"/><path class="st12" d="M235.55 435.54h.51v9.13h-.51zm1.41 0h.51v9.13h-.51zm1.42 0h.51v9.13h-.51zm1.41 0h.51v9.13h-.51zm.89 0h.51v9.13h-.51zm1.37 0h.51v9.13h-.51zm1.37 0h.51v9.13h-.51zm1.42 0h.51v9.13h-.51zm1.41 0h.51v9.13h-.51zm1.42 0h.51v9.13h-.51z"/><path class="st12" d="M247.72 435.54h.51v9.13h-.51zm1.41 0h.51v9.13h-.51zm1.42 0h.51v9.13h-.51zm1.41 0h.51v9.13h-.51z"/><path class="st11" d="M179.25 363.21h67.58v67.58h-67.58z"/><path class="st13" d="M280.62 351.94l-33.79 11.27v67.58l33.79-11.27z"/><path class="st27" d="M179.25 363.21l33.79-11.27h67.58l-33.79 11.27z"/><path class="st28" d="M257.13 408.43v18.84l10.11-3.29v-18.92zm0-48.66v18.85l10.11-3.29V356.4z"/><path class="st13" d="M199.66 356.4l-1.39.47-2.13.7-7.07 2.2h68.06l10.11-3.37z"/><path class="st12" d="M220.98 367.51h22.95v9.93h-22.95z"/><path class="st12" d="M223.24 368.46h.44v7.83h-.44zm1.21 0h.44v7.83h-.44zm1.22 0h.44v7.83h-.44zm1.21 0h.44v7.83h-.44z"/><path class="st12" d="M226.92 368.46h.44v7.83h-.44zm1.22 0h.44v7.83h-.44zm1.21 0h.44v7.83h-.44zm1.21 0h.44v7.83h-.44zm.76 0h.44v7.83h-.44zm1.18 0h.44v7.83h-.44zm1.17 0h.44v7.83h-.44zm1.21 0h.44v7.83h-.44zm1.22 0h.44v7.83h-.44zm1.21 0h.44v7.83h-.44z"/><path class="st12" d="M237.35 368.46h.44v7.83h-.44zm1.22 0h.44v7.83h-.44zm1.21 0h.44v7.83h-.44zm1.21 0h.44v7.83h-.44z"/><path class="st11" d="M37.74 369.15H94v56.26H37.74z"/><path class="st13" d="M122.13 359.77L94 369.15v56.26l28.13-9.38z"/><path class="st27" d="M37.74 369.15l28.13-9.38h56.26L94 369.15z"/><path class="st28" d="M102.57 406.79v15.69l8.42-2.74v-15.75zm0-40.5v15.69l8.42-2.74v-15.76z"/><path class="st13" d="M54.74 363.48l-1.16.39-1.77.59-5.89 1.83h56.66l8.41-2.81z"/><path class="st12" d="M72.49 372.73h19.1V381h-19.1z"/><path class="st12" d="M74.37 373.52h.37v6.52h-.37zm1 0h.37v6.52h-.37zm1.01 0h.37v6.52h-.37zm1.01 0h.37v6.52h-.37z"/><path class="st12" d="M77.43 373.52h.37v6.52h-.37zm1.01 0h.37v6.52h-.37zm1.01 0h.37v6.52h-.37zm1.01 0h.37v6.52h-.37zm.64 0h.37v6.52h-.37zm.97 0h.37v6.52h-.37zm.98 0h.37v6.52h-.37zm1.01 0h.37v6.52h-.37zm1.01 0h.37v6.52h-.37zm1.01 0h.37v6.52h-.37z"/><path class="st12" d="M86.11 373.52h.37v6.52h-.37zm1.01 0h.37v6.52h-.37zm1.01 0h.37v6.52h-.37zm1.01 0h.37v6.52h-.37z"/><path transform="rotate(4.439 462.691 339.223)" class="st50" d="M451.06 314.64h23.52v49.66h-23.52z"/><path transform="rotate(4.439 459.514 363.339)" class="st44" d="M402.4 355.04h114.46v17.1H402.4z"/><path class="st2" d="M368.76 288.46c1.89 16.19-1.46 32.44-1.58 48.72-15.22 5.82-28.29 7.52-44.5 5.75-1.69-16.45-3.38-32.91-4.06-49.42-.36-8.7-.43-17.54 1.71-25.94 1.91-7.53 5.8-14.74 11.76-19.4.69-.54 1.42-1.05 2.17-1.52 3.75 2.88 11.49 3.69 15.62 1.51 2.31 1.4 4.39 3.14 6.24 5.13 3.33 3.59 5.91 8 7.73 12.61 2.83 7.18 4.01 14.9 4.91 22.56z"/><path class="st34" d="M356.12 253.29a25.652 25.652 0 01-12.49.57c-2.21-.45-4.36-1.21-6.38-2.23-1.59-.8-3.1-1.78-4.49-2.9-.05-.32-.11-.64-.14-.97-.02-.13-.03-.26-.05-.4l.18-1.38c.6-4.63 1.12-9.3 1.6-13.97.44-4.31.85-8.61 1.27-12.89 4.92 2.12 9.47 4.78 14.07 7.9.17 2.9.44 5.78.81 8.65.31 2.42.68 4.83 1.12 7.22.25 1.34.51 2.67.8 4 .27 1.24.56 2.48.87 3.71 1.01.84 1.94 1.74 2.83 2.69z"/><path class="st32" d="M351.63 242.9c-5.07-1.38-10.92-2.55-17.28-10.88.44-4.3.85-8.61 1.27-12.89 4.92 2.12 9.47 4.78 14.08 7.9.17 2.89.44 5.78.81 8.65.31 2.43.68 4.83 1.12 7.22z"/><defs><path id="XMLID_26_" d="M268.6 500.42s1.93 11.33 12.07 9.31l8.53 40.23-36.04-43.61 15.44-5.93z"/></defs><use xlink:href="#XMLID_26_" overflow="visible" fill="#132c45"/><clipPath id="XMLID_2_"><use xlink:href="#XMLID_26_" overflow="visible"/></clipPath><path d="M293.86 537.62s-10.56-9.37-23.19 2.6l20.59 14.29 2.6-16.89z" clip-path="url(#XMLID_2_)" fill="#fff"/><path class="st2" d="M284.44 551.96l-34.16-41.33a1.49 1.49 0 01.2-2.09l2.67-2.21 36.04 43.61-2.68 2.21c-.62.53-1.55.44-2.07-.19zm-8.24-32.88c.14.08.31.12.48.11 3.62-.16 6.13.62 6.15.63.49.16 1-.11 1.13-.6.13-.49-.17-1.01-.65-1.17-.11-.04-2.83-.89-6.8-.71a.87.87 0 00-.83.97c.03.33.23.62.52.77zm1.19 5.03c.14.08.31.12.48.11 3.62-.16 6.13.62 6.15.63.49.16 1-.11 1.13-.6a.986.986 0 00-.65-1.17c-.11-.04-2.83-.89-6.8-.71a.87.87 0 00-.83.97c.03.33.24.62.52.77zm1.2 5.03c.14.08.31.12.48.11 3.62-.16 6.13.62 6.15.63.49.16 1-.11 1.13-.6a.986.986 0 00-.65-1.17c-.11-.04-2.83-.89-6.8-.72a.87.87 0 00-.83.97c.02.34.23.63.52.78z"/><defs><path id="XMLID_25_" d="M384.11 525.7s10.86 3.76 13.97-6.09l39.36 11.91-55.58 10.58 2.25-16.4z"/></defs><use xlink:href="#XMLID_25_" overflow="visible" fill="#132c45"/><clipPath id="XMLID_3_"><use xlink:href="#XMLID_25_" overflow="visible"/></clipPath><path d="M428.87 521.49s-13.3 4.75-8.89 21.58l22.44-11.17-13.55-10.41z" clip-path="url(#XMLID_3_)" fill="#fff"/><path class="st2" d="M436.53 536.73l-51.92 9.88c-1.01.19-1.99-.47-2.18-1.48l-.57-3.03 55.58-10.58.57 3.03a1.87 1.87 0 01-1.48 2.18zm-32.41-8.69c.14-.09.25-.21.33-.37 1.6-3.25 3.49-5.07 3.51-5.09.37-.36.38-.93.01-1.28-.36-.35-.97-.34-1.34.01-.09.08-2.14 2.05-3.9 5.62-.22.46-.02.99.45 1.2.32.13.67.08.94-.09zm4.98 1.37c.14-.09.25-.21.33-.37 1.6-3.25 3.49-5.07 3.51-5.09.37-.36.38-.93.01-1.28-.36-.35-.97-.34-1.34.01-.09.08-2.14 2.05-3.9 5.62-.22.46-.02.99.45 1.2.32.13.67.09.94-.09zm4.98 1.38c.14-.09.25-.21.33-.37 1.6-3.25 3.49-5.07 3.51-5.09.37-.36.38-.93.01-1.28-.36-.35-.97-.34-1.34.01-.09.08-2.14 2.05-3.9 5.62-.22.46-.02.99.45 1.2.32.13.67.09.94-.09z"/><path class="st53" d="M322.89 367.33s15.82 75.69-59.39 132.93l21.68 21.86s84.25-62.62 72.48-138.7l-34.77-16.09z"/><path class="st54" d="M321.47 412.01c1.25 1.53 2.52 3.05 3.74 4.62 3.17 4.13 5.7 8.77 8.11 13.37 4.12 7.85 7.48 15.96 10.22 24.26 11.06-20.79 18.12-45.04 14.13-70.84l-34.76-16.09c-.02 0 3.9 18.77-1.44 44.68z"/><path class="st30" d="M368.52 274.73c4.06 23.27-1.34 57.35-3.07 80.91 0 0 53.07 81.93 46.99 165.91l-32.07 9.33s-11.58-109.58-57.74-163.52l-4.06-54.96 34.69-7.06 1.91-29.61 13.35-1z"/><path class="st53" d="M321.02 318.38c-.26.06-.59-.29-.99-1.02-.2-.36-.42-.82-.65-1.37-.23-.55-.45-1.19-.7-1.92-.12-.37-.24-.75-.37-1.16-.11-.41-.23-.84-.35-1.29-.12-.45-.24-.92-.36-1.41-.12-.49-.22-1.01-.33-1.54-.11-.53-.23-1.09-.33-1.66-.09-.57-.19-1.17-.29-1.78-.21-1.22-.34-2.52-.51-3.88-.27-2.73-.45-5.75-.44-8.98.02-3.24.2-6.7.62-10.33.42-3.62 1.08-7.4 2-11.27.94-3.86 2.21-8.01 4.56-11.95 1.18-1.96 2.63-3.79 4.32-5.35 1.68-1.56 3.64-2.85 5.78-3.72 1.07-.42 2.18-.78 3.32-.93.28-.05.56-.1.85-.14l.85-.06c.28-.01.56-.04.84-.04l.84.03c2.22.1 4.31.66 6.17 1.47 1.86.81 3.51 1.87 4.96 3.04.35.3.72.59 1.05.91l.98.95.9.99c.3.33.55.68.83 1.01 1.05 1.36 1.94 2.81 2.62 4.21.68 1.41 1.24 2.8 1.67 4.14.87 2.69 1.32 5.16 1.61 7.32.28 2.17.38 4.03.42 5.55.06 3.04-.13 4.71-.43 4.74-.32.03-.73-1.61-1.37-4.52-.32-1.46-.71-3.23-1.25-5.24-.55-2.01-1.25-4.26-2.27-6.59-1.04-2.32-2.39-4.75-4.31-6.83-.25-.26-.48-.53-.74-.78s-.53-.5-.79-.75c-.28-.23-.56-.47-.85-.7-.28-.24-.6-.44-.9-.66-1.22-.85-2.57-1.58-3.99-2.1-1.42-.51-2.92-.81-4.41-.79l-.56.01c-.19.01-.37.04-.55.06l-.55.06-.54.12c-.73.12-1.45.4-2.15.72-2.82 1.28-5.32 3.84-7.07 6.94-1.78 3.15-2.86 6.73-3.73 10.34-.86 3.63-1.51 7.18-1.99 10.59-.48 3.4-.78 6.66-.98 9.72-.18 3.06-.23 5.92-.25 8.54.03 1.31.01 2.56.05 3.74.01.59.03 1.17.04 1.72l.06 1.62c.02.52.04 1.03.05 1.52.02.49.05.96.07 1.41.01.45.03.88.04 1.3.02.41.04.8.05 1.18.03.75.03 1.41.03 2 0 .58-.01 1.08-.05 1.49-.11.8-.28 1.26-.53 1.32z"/><path class="st30" d="M350.51 192.18c-.94-3.15-3.51-5.68-6.56-6.9-3.05-1.22-6.51-1.22-9.67-.33-3.25.91-6.25 2.76-8.41 5.35s-3.44 5.94-3.41 9.31c.05 5.35 3.21 10.1 6.26 14.49 5.16-8.6 13.21-16.69 21.79-21.92z"/><path class="st2" d="M353.63 186.04c1.51-.91 3.16-1.84 4.91-1.63 2.44.3 4.11 2.9 4.05 5.35-.06 2.45-1.48 4.68-3.17 6.46-3.38 3.54-8.1 5.78-12.98 6.15-2.88.22-5.8-.21-8.51-1.21-.94-.35-3.42-1.06-3.91-1.97-.82-1.49.78-1.83 2.06-2.6 5.85-3.53 11.7-7.04 17.55-10.55z"/><path class="st6" d="M336.19 229.32c-4.5-3.77-7.48-9.3-8.17-15.13-.41-3.52.01-7.12 1.2-10.47.33-.64.69-1.26 1.09-1.87.8-1.24 1.75-2.39 2.81-3.42 2.27 3.09 3.87 6.64 4.79 10.39 1.68 6.79 1.13 14.18-1.72 20.5zm19.22-23.95c1.57 3.6 1.04 8.03-1.32 11.16-1.9-2.53-3.2-5.64-3.78-8.75-.16-.83-.23-1.79.32-2.43.53-.62 1.46-.72 2.28-.64.81.09 1.71.88 2.5.66z"/><path class="st34" d="M352.75 203.94c-.63 4.25 1.43 8.37 3.26 12.26 1.82 3.89 3.49 8.33 2.06 12.38-1.49 4.21-6.25 6.76-10.7 6.33-4.44-.44-8.38-3.46-10.61-7.33-2.23-3.87-2.92-8.47-2.72-12.93.2-4.46 1.25-8.83 2.29-13.17 5.27-2.98 11.67-1.29 16.42 2.46z"/><path class="st34" d="M335.22 215.91c-.57-.55-1.17-1.08-1.89-1.42-.71-.34-1.56-.47-2.3-.21-.97.34-1.62 1.3-1.89 2.29-.51 1.89.23 4.06 1.79 5.25 1.56 1.19 3.85 1.31 5.54.31-.71-2.06-1-4.06-1.25-6.22z"/><path class="st6" d="M355.96 207.11c-6.35.43-12.8-.94-18.19-3.96.55 1.84.58 3.8.14 5.68-.6 2.62-2.12 5.09-4.36 6.89-2.53-3.48-4.1-8.23-3.54-12.36.07-.5.17-1 .3-1.5.8-1.24 1.75-2.39 2.81-3.42 1.65-1.62 3.58-2.95 5.7-3.87 5.56-2.43 12.26-2 17.54.98.46.35.9.73 1.31 1.13 1.04 1.03 1.88 2.23 2.48 3.53 1.43 3.12-.77 6.67-4.19 6.9z"/><path class="st34" d="M395.36 365.86c-.48.13-1.07.25-1.77.36-.35.06-.73.11-1.14.16-.4.04-.83.05-1.29.07-.91.03-1.93.04-3.05.05-1.12-.03-2.32-.15-3.63-.25-1.32-.07-2.69-.34-4.17-.58-1.49-.2-3.02-.6-4.66-.99-.41-.1-.82-.2-1.24-.3-.42-.11-.83-.25-1.25-.38-.84-.27-1.71-.54-2.58-.82-.9-.26-1.75-.64-2.66-.98-.89-.36-1.82-.7-2.74-1.11-.91-.43-1.83-.87-2.77-1.31-.47-.23-.95-.45-1.43-.7-.46-.26-.93-.52-1.4-.78-.94-.54-1.91-1.06-2.86-1.65-.94-.61-1.89-1.24-2.85-1.87-.98-.62-1.89-1.36-2.84-2.07-.94-.73-1.93-1.44-2.83-2.27-.92-.81-1.85-1.64-2.79-2.47-.89-.9-1.78-1.82-2.68-2.74-3.52-3.78-6.82-8.14-9.59-13.07a67.27 67.27 0 01-6.05-15.31c-.31-1.29-.61-2.58-.89-3.86-.21-1.29-.4-2.57-.59-3.83-.21-1.26-.27-2.53-.36-3.77-.08-1.25-.19-2.48-.15-3.7 0-1.22.02-2.43.06-3.61.06-1.19.19-2.35.3-3.5.06-.58.12-1.14.18-1.71.07-.56.18-1.12.28-1.67.17-.96.35-1.89.54-2.82 8.77 2.79 18.55 2.32 27.03-1.27-.02.3-.05.61-.08.91-.1.67-.09 1.37-.15 2.07-.06.7-.11 1.41-.17 2.13-.02.72-.05 1.46-.1 2.2-.02.37-.06.75-.07 1.12 0 .38 0 .75-.01 1.14-.01.76-.07 1.54-.07 2.32.02.79.03 1.58.02 2.38-.03.8.05 1.61.07 2.43.05.82.02 1.65.12 2.48.08.83.14 1.68.18 2.53.12.84.22 1.7.32 2.57.48 3.45 1.18 7 2.24 10.58a64.18 64.18 0 004.28 10.31c.44.82.89 1.63 1.32 2.44.49.78.98 1.56 1.46 2.32.46.8 1.01 1.5 1.53 2.25.53.73 1.01 1.5 1.59 2.17.56.69 1.11 1.39 1.65 2.07.56.67 1.16 1.29 1.73 1.94l.86.96c.29.31.6.59.89.89.6.6 1.19 1.18 1.77 1.75.6.56 1.21 1.07 1.81 1.6.6.52 1.18 1.08 1.79 1.53.61.47 1.21.94 1.79 1.39.3.23.58.47.88.68.3.21.6.41.89.61 1.18.8 2.3 1.63 3.43 2.27 1.12.66 2.17 1.37 3.21 1.88 1.03.54 1.99 1.09 2.9 1.54.92.43 1.76.83 2.52 1.21.38.19.74.39 1.08.55.35.16.67.3.97.45.6.29 1.11.56 1.53.82.82.51 1.25.95 1.21 1.33-.06.36-.56.67-1.52.93z"/><path class="st34" d="M406.41 359.83c-.97 4.94-5.86 8.79-10.89 8.59s-9.59-4.45-10.15-9.45c6.62-2.97 14.48-2.26 21.04.86z"/><path class="st2" d="M606.87 295.32c-.05 16.3-1.82 32.45-3.88 48.6-15.8 3.97-32.46 3.69-48.35 0 .28-16.53.56-33.08 1.84-49.56.68-8.68 1.66-17.46 4.79-25.55 2.79-7.24 7.51-13.95 13.99-17.86.75-.46 1.53-.88 2.33-1.25 3.39 3.3 10.97 5.03 15.33 3.36 2.13 1.66 3.99 3.64 5.58 5.84 2.88 3.97 4.91 8.64 6.17 13.44 1.97 7.46 2.23 15.27 2.2 22.98z"/><path class="st30" d="M579.77 207.47c-3.67-1.85-5.55-6.24-4.95-9.83.6-3.59 3.19-6.4 6.25-8.37 3.33-2.14 7.53-3.47 11.83-2.61 6 1.2 11.17 7.07 11.19 12.71-8.85.59-17.59 3.32-24.32 8.1z"/><path class="st2" d="M570.49 209.31c-1.54.85-3.19 1.8-3.88 3.42-.97 2.25.43 5.01 2.58 6.19 2.15 1.18 4.79 1.09 7.17.52 4.76-1.14 9.07-4.08 11.86-8.11 1.64-2.38 2.75-5.12 3.25-7.96.17-.98.8-3.49.27-4.37-.88-1.46-1.98-.25-3.29.47-6 3.28-11.98 6.56-17.96 9.84z"/><path class="st34" d="M598.5 258.9c-4.14.73-8.47.42-12.47-.92-2.14-.71-4.19-1.72-6.06-2.98-1.48-.99-2.87-2.14-4.11-3.41-.02-.33-.03-.65-.03-.98v-.4c.12-.45.23-.9.35-1.35 1.15-4.52 2.21-9.1 3.25-13.68.95-4.22 1.87-8.45 2.79-12.65 4.63 2.69 8.83 5.87 13.04 9.52-.17 2.9-.25 5.79-.22 8.69.02 2.44.1 4.88.25 7.31.09 1.36.19 2.71.32 4.06.12 1.27.26 2.53.42 3.79.89.94 1.71 1.95 2.47 3z"/><path class="st32" d="M595.28 248.05c-6.06.22-11.91-5.62-15.86-12.86.95-4.22 1.87-8.44 2.79-12.65 4.63 2.69 8.83 5.87 13.04 9.52-.17 2.89-.25 5.8-.23 8.68.03 2.45.11 4.89.26 7.31z"/><path class="st6" d="M603.5 209.49c1.13 3.76.08 8.09-2.64 10.92-1.58-2.74-2.5-5.98-2.71-9.14-.06-.84-.02-1.8.61-2.37.6-.56 1.54-.54 2.34-.36.79.17 1.59 1.06 2.4.95z"/><path class="st34" d="M601.02 209.5c-1.14 4.14.43 8.48 1.78 12.56s2.47 8.68.57 12.53c-1.98 4-7.01 5.97-11.37 5.01-4.36-.96-7.91-4.43-9.66-8.54-1.76-4.1-1.9-8.76-1.16-13.16.73-4.4 2.29-8.62 3.84-12.81 5.58-2.32 11.73.12 16 4.41z"/><defs><path id="XMLID_28_" d="M482.97 489.71s.5 11.48 10.81 10.74l3.43 40.98-30.31-47.78 16.07-3.94z"/></defs><use xlink:href="#XMLID_28_" overflow="visible" fill="#132c45"/><clipPath id="XMLID_4_"><use xlink:href="#XMLID_28_" overflow="visible"/></clipPath><path d="M503.37 529.78s-9.31-10.62-23.34-.32l18.64 16.75 4.7-16.43z" clip-path="url(#XMLID_4_)" fill="#fff"/><path class="st2" d="M492.23 542.83l-28.72-45.28c-.44-.69-.23-1.61.46-2.04l2.93-1.85 30.31 47.78-2.93 1.86c-.7.43-1.61.22-2.05-.47zm-4.06-33.66c.13.09.29.15.46.17 3.61.29 6 1.38 6.03 1.39.47.22 1 .01 1.19-.46.19-.47-.04-1.02-.5-1.24-.11-.05-2.7-1.24-6.66-1.56a.875.875 0 00-.95.86c-.01.35.16.66.43.84zm.55 5.14c.13.09.29.15.46.17 3.61.29 6 1.38 6.03 1.39.47.22 1 .01 1.2-.46a.982.982 0 00-.5-1.24c-.11-.05-2.7-1.24-6.66-1.56a.875.875 0 00-.95.86c-.01.35.16.66.42.84zm.56 5.14c.13.09.29.15.46.17 3.61.29 6 1.38 6.03 1.39.47.22 1 .01 1.19-.46a.982.982 0 00-.5-1.24c-.11-.05-2.7-1.24-6.66-1.56a.875.875 0 00-.95.86c-.01.34.16.66.43.84z"/><path class="st34" d="M582.2 219.3c-.5-.61-1.03-1.21-1.7-1.64-.67-.42-1.49-.66-2.26-.49-1.01.22-1.77 1.09-2.15 2.05-.73 1.82-.26 4.06 1.16 5.43 1.41 1.36 3.67 1.76 5.46.97-.47-2.12-.52-4.14-.51-6.32z"/><path class="st53" d="M552.54 355.91s6.71 84.39-74.78 132.28l18.92 24.28s91.1-59.51 88.46-136.45l-32.6-20.11z"/><path class="st54" d="M545.74 404c1.36 3.73 3.14 7.3 4.8 10.93 2.18 4.75 3.89 9.65 5.44 14.63 1.99 6.42 3.67 12.94 5.09 19.51 14.28-20.95 25.01-45.92 24.08-73.05l-32.61-20.11s1.67 21.05-6.8 48.09z"/><defs><path id="XMLID_27_" d="M594.38 527.41s10.4 4.9 14.54-4.57l37.88 16.02-56.39 4.62 3.97-16.07z"/></defs><use xlink:href="#XMLID_27_" overflow="visible" fill="#132c45"/><clipPath id="XMLID_5_"><use xlink:href="#XMLID_27_" overflow="visible"/></clipPath><path d="M639.34 527.98s-13.73 3.31-11.14 20.51l23.5-8.72-12.36-11.79z" clip-path="url(#XMLID_5_)" fill="#fff"/><path class="st2" d="M645.34 543.94l-52.67 4.31c-1.03.08-1.93-.68-2.01-1.71l-.25-3.07 56.39-4.62.25 3.07c.08 1.04-.68 1.94-1.71 2.02zm-31.3-12.09a.88.88 0 00.36-.33c1.94-3.06 4.01-4.67 4.03-4.69.41-.31.48-.88.15-1.27-.33-.39-.93-.44-1.33-.14-.1.07-2.35 1.81-4.48 5.17-.27.43-.13.98.32 1.24.3.18.66.17.95.02zm4.8 1.9a.88.88 0 00.36-.33c1.94-3.06 4.01-4.67 4.03-4.69.41-.31.48-.88.15-1.27-.32-.39-.93-.44-1.33-.14-.1.07-2.35 1.81-4.48 5.17-.27.43-.13.98.32 1.24.31.18.67.17.95.02zm4.81 1.9a.88.88 0 00.36-.33c1.94-3.06 4.01-4.67 4.03-4.69.41-.31.48-.88.15-1.27-.32-.39-.93-.44-1.33-.14-.1.07-2.35 1.81-4.48 5.17-.27.43-.13.98.32 1.24.31.17.67.17.95.02z"/><path class="st30" d="M608.27 281.66c1.26 23.59-.87 57.9-5.39 81.09 0 0 36.65 80.53 20.62 163.19l-32.95 5.45s.56-104.17-38.85-163.22l2.51-55.06 35.29-2.89 5.42-29.18 13.35.62z"/><path class="st53" d="M555.91 319.36c-.26.03-.55-.36-.86-1.13-.16-.38-.32-.87-.49-1.44-.16-.57-.31-1.24-.46-1.99-.07-.38-.15-.78-.23-1.19-.06-.42-.13-.86-.19-1.32-.06-.46-.12-.95-.19-1.45-.06-.5-.1-1.03-.15-1.57-.05-.54-.09-1.1-.13-1.69-.03-.58-.05-1.18-.08-1.8-.07-1.24-.04-2.54-.04-3.92.06-2.75.24-5.76.63-8.97.4-3.21 1-6.63 1.85-10.18a96.07 96.07 0 013.33-10.95c1.4-3.72 3.15-7.69 5.95-11.32 1.41-1.81 3.06-3.45 4.92-4.79 1.85-1.35 3.95-2.4 6.18-3.01 1.12-.29 2.26-.51 3.41-.53.29-.01.57-.03.86-.04.28.01.57.03.85.04.28.02.56.03.84.06.28.04.55.09.83.13 2.19.37 4.2 1.17 5.95 2.19 1.75 1.03 3.26 2.27 4.56 3.61.31.34.64.67.93 1.02.29.35.57.71.86 1.05.26.37.52.73.77 1.09.26.36.47.74.7 1.11.88 1.48 1.59 3.02 2.1 4.49.51 1.48.9 2.92 1.17 4.31.54 2.77.7 5.28.73 7.46.02 2.18-.1 4.05-.25 5.56-.3 3.02-.69 4.66-.99 4.65-.32-.01-.54-1.68-.82-4.65-.15-1.48-.32-3.29-.62-5.36-.31-2.06-.73-4.38-1.47-6.81-.76-2.42-1.81-5-3.47-7.29-.22-.28-.41-.58-.65-.86-.23-.28-.46-.56-.7-.84-.25-.26-.5-.53-.76-.8-.25-.27-.54-.51-.81-.76-1.11-.99-2.36-1.88-3.71-2.56-1.35-.68-2.81-1.15-4.29-1.31l-.56-.06c-.19-.01-.37 0-.56 0h-.56l-.56.06c-.74.04-1.48.23-2.22.46-2.95.94-5.74 3.18-7.85 6.05-2.14 2.92-3.64 6.35-4.93 9.83-1.28 3.51-2.36 6.95-3.23 10.28-.88 3.32-1.57 6.52-2.13 9.54-.54 3.02-.93 5.85-1.26 8.45-.13 1.3-.3 2.54-.39 3.72-.06.59-.11 1.16-.17 1.72-.04.56-.09 1.1-.13 1.62-.04.52-.09 1.03-.13 1.51-.04.49-.07.95-.1 1.4-.04.45-.08.88-.11 1.29-.03.41-.06.8-.09 1.17-.06.74-.14 1.41-.21 1.98-.06.58-.14 1.07-.23 1.47-.16.8-.38 1.24-.64 1.27z"/><path class="st34" d="M584.49 292.45c-.02.95-.02 1.92-.07 2.91-.06.98-.13 1.99-.21 3-.04.51-.08 1.03-.13 1.54-.06.52-.13 1.03-.19 1.56-.14 1.04-.27 2.1-.44 3.17-.18 1.06-.38 2.14-.59 3.23-.19 1.09-.46 2.18-.71 3.29-.26 1.11-.51 2.23-.85 3.34-.32 1.11-.64 2.24-.97 3.38-.37 1.12-.75 2.25-1.13 3.39-1.6 4.55-3.54 9.13-5.84 13.67-2.33 4.52-4.89 8.76-7.57 12.69-.69.98-1.36 1.94-2.03 2.9-.7.93-1.4 1.85-2.09 2.76-.68.91-1.41 1.78-2.12 2.64-.71.85-1.39 1.72-2.12 2.52-.73.81-1.44 1.61-2.14 2.4-.71.78-1.45 1.52-2.15 2.26-.36.37-.71.74-1.06 1.09-.36.36-.72.7-1.07 1.05-.71.69-1.42 1.36-2.11 2.03-.7.65-1.41 1.27-2.09 1.89-.7.61-1.35 1.23-2.05 1.78-1.31 1.07-2.53 2.12-3.77 3.05-.06.04-.12.09-.18.13-.41.31-.82.62-1.22.92-3.03 2.03-6.15 3.94-9.54 5.28-2.07.81-4.26 1.39-6.47 1.62.18-.24.38-.5.6-.77.21-.27.45-.54.69-.84.24-.3.5-.62.78-.96.55-.67 1.17-1.4 1.85-2.19.66-.8 1.38-1.68 2.15-2.62.73-.85 1.45-1.82 2.23-2.81.05-.07.11-.15.17-.22.85-1.06 1.69-2.24 2.59-3.45.91-1.2 1.77-2.52 2.71-3.86.48-.66.91-1.38 1.38-2.08.46-.72.94-1.43 1.4-2.17.45-.75.91-1.51 1.38-2.29.23-.39.47-.77.7-1.16.22-.4.45-.8.68-1.2.45-.81.93-1.62 1.38-2.45.45-.84.89-1.69 1.35-2.55.47-.85.88-1.74 1.32-2.63.44-.89.9-1.78 1.3-2.7.42-.92.85-1.85 1.28-2.78.4-.95.81-1.9 1.22-2.86 1.6-3.86 3.12-7.89 4.49-12.05 1.35-4.17 2.5-8.26 3.52-12.21.25-.99.5-1.97.74-2.95.22-.97.44-1.94.66-2.9.24-.95.41-1.91.61-2.84.19-.94.42-1.86.58-2.78.17-.92.36-1.83.54-2.72.17-.9.33-1.78.49-2.65.08-.43.17-.87.25-1.29.07-.43.15-.86.22-1.29.14-.84.3-1.68.45-2.5.13-.82.27-1.63.41-2.43.11-.65.24-1.28.34-1.91 6.39 2.76 13.82 3.1 20.41.88.07.88.05 1.8.04 2.74z"/><path class="st34" d="M541.1 374l-1.5 1.02c-3.03 2.03-6.15 3.94-9.54 5.28-2.07.81-4.26 1.39-6.47 1.62-2.01.21-4.04.12-6-.36-3.04-.74-5.89-2.51-7.74-4.99-1.03-1.39-.36-3.37 1.3-3.84 6.67-1.86 13.83-2.1 20.75-1 3.14.48 6.23 1.25 9.2 2.27z"/><path class="st6" d="M608.31 209.04c-7.86 1.77-16.37.59-23.2-3.23.55 1.84.58 3.8.14 5.68-.6 2.62-2.12 5.09-4.36 6.89-2.53-3.48-4.1-8.23-3.54-12.36V206c.13-.96.53-1.88 1.11-2.65.61-.8 1.27-1.56 1.99-2.25 1.65-1.62 3.58-2.95 5.7-3.87 5.56-2.43 12.26-2 17.54.98.46.35.9.73 1.31 1.13 2.61 2.58 4 6.27 3.31 9.7z"/><circle class="st57" cx="418.14" cy="217.05" r="25.27"/><circle class="st57" cx="528.61" cy="227.99" r="24.47"/><path class="st44" d="M465.46 322.2c-30.53-2.36-53.36-29.02-50.99-59.55l6.44-83.2c.47-6.01 5.71-10.5 11.72-10.04l88.78 6.87c6.01.47 10.5 5.71 10.04 11.72l-6.44 83.2c-2.37 30.54-29.03 53.37-59.55 51z"/><path transform="rotate(4.261 472.236 221.204)" class="st50" d="M454.65 216.68h34.57v8.74h-34.57z"/><path transform="rotate(4.261 469.892 252.63)" class="st50" d="M452.31 248.09h34.57v8.74h-34.57z"/><path transform="rotate(94.261 470.815 236.446)" class="st50" d="M453.51 232.05h34.57v8.74h-34.57z"/><path class="st17" d="M685.18 444.84h60.1v60.1h-60.1z"/><path class="st18" d="M775.33 434.82l-30.05 10.02v60.1l30.05-10.02z"/><path class="st23" d="M685.18 444.84l30.05-10.02h60.1l-30.05 10.02z"/><path class="st20" d="M754.44 485.05v16.76l9-2.93v-16.83zm0-43.27v16.76l9-2.92v-16.83z"/><path class="st18" d="M703.34 438.79l-1.24.41-1.89.63-6.29 1.95h60.52l9-2.99z"/><path class="st24" d="M694.98 396.2h44.56v44.56h-44.56z"/><path class="st25" d="M761.83 388.78l-22.28 7.42v44.57l22.28-7.43z"/><path class="st49" d="M694.98 396.2l22.28-7.42h44.57l-22.28 7.42z"/><path class="st12" d="M722.51 399.04h15.13v6.55h-15.13z"/><path class="st12" d="M723.99 399.67h.29v5.16h-.29zm.8 0h.29v5.16h-.29zm.8 0h.29v5.16h-.29zm.8 0h.29v5.16h-.29z"/><path class="st12" d="M726.42 399.67h.29v5.16h-.29zm.8 0h.29v5.16h-.29zm.8 0h.29v5.16h-.29zm.8 0h.29v5.16h-.29zm.51 0h.29v5.16h-.29zm.77 0h.29v5.16h-.29zm.77 0h.29v5.16h-.29zm.8 0h.29v5.16h-.29zm.8 0h.29v5.16h-.29zm.8 0h.29v5.16h-.29z"/><path class="st12" d="M733.3 399.67h.29v5.16h-.29zm.8 0h.29v5.16h-.29zm.8 0h.29v5.16h-.29zm.8 0h.29v5.16h-.29z"/><path class="st19" d="M731.85 388.78l-18.44 7.42h7.71l17.89-7.42zm-18.44 7.42v8.63h7.64l.07-8.63zm0 36.19v8.62h7.64l.07-8.62z"/><path class="st17" d="M748.9 426.59h78.35v78.35H748.9z"/><path class="st18" d="M866.42 413.53l-39.17 13.06v78.35l39.17-13.06z"/><path class="st23" d="M748.9 426.59l39.18-13.06h78.34l-39.17 13.06z"/><path class="st20" d="M839.19 479.01v21.85l11.73-3.81V475.1zm0-56.4v21.84l11.73-3.81V418.7z"/><path class="st18" d="M772.57 418.7l-1.61.54-2.47.82-8.2 2.55h78.9l11.73-3.91z"/><path class="st12" d="M797.29 431.57h26.61v11.52h-26.61z"/><path class="st12" d="M799.91 432.67h.51v9.08h-.51zm1.4 0h.51v9.08h-.51zm1.41 0h.51v9.08h-.51zm1.41 0h.51v9.08h-.51z"/><path class="st12" d="M804.18 432.67h.51v9.08h-.51zm1.4 0h.51v9.08h-.51zm1.41 0h.51v9.08h-.51zm1.4 0h.51v9.08h-.51zm.89 0h.51v9.08h-.51zm1.36 0h.51v9.08h-.51zm1.36 0h.51v9.08H812zm1.41 0h.51v9.08h-.51zm1.4 0h.51v9.08h-.51zm1.41 0h.51v9.08h-.51z"/><path class="st12" d="M816.27 432.67h.51v9.08h-.51zm1.4 0h.51v9.08h-.51zm1.41 0h.51v9.08h-.51zm1.41 0h.51v9.08h-.51z"/><path class="st11" d="M748.23 360.8h67.16v67.16h-67.16z"/><path class="st13" d="M848.96 349.6l-33.58 11.2v67.15l33.58-11.19z"/><path class="st27" d="M748.23 360.8l33.57-11.2h67.16l-33.58 11.2z"/><path class="st28" d="M825.62 405.73v18.73l10.05-3.27v-18.81zm0-48.35v18.73l10.05-3.27v-18.81z"/><path class="st13" d="M768.51 354.03l-1.38.47-2.11.7-7.03 2.18h67.63l10.05-3.35z"/><path class="st12" d="M789.7 365.07h22.8v9.87h-22.8z"/><path class="st12" d="M791.95 366.01h.44v7.78h-.44zm1.2 0h.44v7.78h-.44zm1.21 0h.44v7.78h-.44zm1.2 0h.44v7.78h-.44z"/><path class="st12" d="M795.6 366.01h.44v7.78h-.44zm1.21 0h.44v7.78h-.44zm1.2 0h.44v7.78h-.44zm1.21 0h.44v7.78h-.44zm.76 0h.44v7.78h-.44zm1.16 0h.44v7.78h-.44zm1.17 0h.44v7.78h-.44zm1.21 0h.44v7.78h-.44zm1.2 0h.44v7.78h-.44zm1.21 0h.44v7.78h-.44z"/><path class="st12" d="M805.97 366.01h.44v7.78h-.44zm1.2 0h.44v7.78h-.44zm1.21 0h.44v7.78h-.44zm1.2 0h.44v7.78h-.44z"/></g></svg>